M48
INCH,LZ
;TYPE=PLATED
T1F00S00C0.028
T2F00S00C0.030
T3F00S00C0.031
T4F00S00C0.033
T5F00S00C0.035
T6F00S00C0.039
T7F00S00C0.128
T8F00S00C0.140
%
T01
X02215Y01465
X0233Y01495
X0253Y01555
X0262
X0273
X02805
X0288
X0297
X0304
X0312
X03195
X03265
X03335
X0343
X035
X0359
X0366
X0374
X03815
X03895
X03975
X04055
X0413
X0422
X04295
X04365
X04445
X0452
X04595
X0467
X0474
X0483
X049
X04985
X0514Y015
X0524Y0157
X05195Y0162
X05285
X0524Y0167
X0537Y01725
X0502Y0177
X04915Y01775
X04845
Y0189
X048Y0194
X0475Y0182
X047Y01775
Y0224
X0482Y02155
X04885Y02135
X0487Y0207
X05Y02325
X0512
Y0225
X0495Y0245
X04815Y027
X04775Y02765
X04735Y02965
X05312Y02707
X0465Y02785
X046Y0274
X0451Y02835
X04455Y0288
X04535Y0296
X0424Y0308
X03961
X03845Y03055
X03775Y0305
X03705Y03045
X03605
Y02951
X03696Y02876
X03635Y0273
X03575Y0276
X03605Y0266
X0351Y02485
X0345Y0251
X03385Y0248
X0332Y02465
X03255Y02485
X0326Y0255
X03255Y0264
X03205Y02685
Y02755
X03275
X0328Y0285
X03345Y0287
X03225Y02815
X0317Y0298
X03175Y03045
X0324Y0306
X03305Y03075
X03365Y03095
X03425Y03115
X03918Y02875
X0401Y02865
X04025Y0294
X0401Y02739
X0443Y0255
X044Y02385
X0438Y02165
X0444Y0213
X0448Y02195
X0454Y02135
X04315Y02195
X04105Y02175
Y02105
X04165Y01985
X04185Y01905
X0417Y01835
X04015Y0183
X038Y01825
X0373Y0182
X0368Y01775
X03575Y01815
X0355Y0191
Y0198
X0359Y02075
X0366Y0209
X03725Y0206
X03775Y0212
Y02265
X03845
X03905Y02225
X03935Y02155
X03845Y01775
X04335Y0177
X04385Y0183
X044Y01935
X04465Y01775
X04535
X034Y01835
X03225Y01775
X03175Y0182
X03185Y021
X03275Y02075
X0335Y02065
X0317Y02405
X032Y02595
X0312Y02135
X0297Y0198
Y01905
X0296Y0179
X03105Y01785
X02635Y01775
X0257
X0228Y01755
X0227Y01635
X021Y0157
X0203
X0196
X0171Y01805
X0164
X0174Y01875
Y0195
X0171Y0215
X01645
X01615Y02325
X018Y02565
X02035
X0218Y02555
X0227Y02565
X0219Y0238
X02465Y0234
X02705Y02175
X02805
X02755Y0212
X0266
X02155Y01955
Y01885
X02145Y0294
X0204Y0298
X0177Y0293
X01675Y029
X01845Y02785
X0194Y0274
X0248Y0278
X0237Y0306
X02595Y031
X0142Y02
Y017
X02032Y03128
X0237Y03155
Y0324
Y0332
X0256Y0328
Y0338
X02565Y0318
X029Y03535
X0292Y039
Y03995
X03005Y03955
X03075Y03985
X03Y04125
X02705Y04
X0162Y03855
X0314Y0353
X0335Y03545
X03425Y0352
X03475Y03475
X03525Y0352
Y0343
X03695Y03545
X0369Y03615
X0375Y0369
X03815
X0388
X0395
X03895Y0347
X04005Y03315
X04045Y03265
X0407Y0334
X04185Y0315
X04235Y03195
X0431
X0435Y0314
X0442Y0342
X0445Y03485
X04435Y03585
X04505Y0357
X0425Y03525
X0414Y0384
X042Y0396
X043Y03995
X04345Y03945
X04575Y0381
X04175Y04195
X041Y04175
X0332Y03305
X03265Y03265
X03195
X03125
X05Y03145
X05075Y0335
X0502Y03705
X04955
X05295Y03625
X05365
X047Y039
X04715Y03985
X04775Y0415
X0487Y04205
T02
X01252Y02754
Y02854
X01435Y0396
Y04055
Y04098
X02575Y0392
Y03782
X03795Y03445
X03987
T03
X01185Y03085
X01235
X01285
T04
X04835Y023
Y029
X04649Y02901
Y02301
T05
X0126Y01233
X0126Y01313
Y01393
Y01473
X0133Y01513
Y01433
Y01353
Y01273
X0152Y01193
Y01103
Y01553
X0197Y01435
X0206
X021Y01245
X0218
X0226
X0234
X0238Y01175
X023
X0222
X0214
X0242Y01435
X0251
X02699Y01435
X02789
X02829Y01245
X02909Y01245
X02989
X03069
X03109Y01175
X03029
X02949
X02869
X03149Y01435
X03239
X03427
X03517
X03557Y01245
X03637
X03717
X03797
X03837Y01175
X03757
X03677
X03597
X03877Y01435
X03967
X04155
X04245
X04285Y01245
X04365
X04445
X04525
X04565Y01175
X04485
X04405
X04325
X04605Y01435
X04695
X04884
X04974Y01435
X05014Y01245
X05094
X05174
X05254
X05294Y01175
X05214
X05134
X05054
X05334Y01435
X05424
X022Y0215
X021
Y0225
X022
X0152Y02263
Y02173
X0133Y02133
Y02053
Y01973
Y01893
X0126Y01853
Y01933
Y02013
Y02093
X01248Y02381
Y02481
Y02581
X01398
Y02481
Y02381
X0152Y01813
Y01723
Y01643
X019Y03555
X02
X021
X022
Y03855
X021
X02
X019
X031Y036
X032
X033
X034
X035Y043
X036
Y044
X035
X038
Y043
X039
Y044
X04
Y043
X041
Y044
X042
Y043
X043
Y044
X044
X045
X046
Y043
X045
X044
X047
X048
X049
Y044
X048
X047
T06
X01349Y03217
X01428
X01514Y03365
Y03463
X0127Y03453
Y03375
T07
X0116Y01123
X0199Y01075
X0249
X02719
X03219
X03447
X03947
X04175
X04675
X04904Y01075
X05404
X0116Y01623
Y01743
Y02243
T08
X01742Y01181
X05404Y02047
X01152Y04409
X05404
M30
