%FSLAX23Y23*%
%MOIN*%
G70*
G01*
G75*
%ADD10C,0.010*%
%ADD11R,0.039X0.033*%
%ADD12R,0.039X0.033*%
%ADD13R,0.037X0.035*%
%ADD14R,0.037X0.035*%
%ADD15R,0.059X0.051*%
%ADD16R,0.085X0.024*%
%ADD17R,0.106X0.071*%
%ADD18R,0.049X0.014*%
%ADD19R,0.035X0.037*%
%ADD20R,0.035X0.037*%
%ADD21R,0.047X0.087*%
%ADD22R,0.047X0.087*%
%ADD23R,0.134X0.087*%
%ADD24R,0.018X0.035*%
%ADD25R,0.053X0.014*%
%ADD26R,0.087X0.024*%
%ADD27R,0.087X0.024*%
%ADD28R,0.063X0.012*%
%ADD29R,0.012X0.063*%
%ADD30R,0.035X0.018*%
%ADD31R,0.106X0.071*%
%ADD32R,0.051X0.059*%
%ADD33R,0.106X0.063*%
%ADD34R,0.063X0.071*%
%ADD35R,0.100X0.100*%
%ADD36R,0.063X0.071*%
%ADD37R,0.077X0.124*%
%ADD38R,0.120X0.220*%
%ADD39R,0.150X0.114*%
%ADD40C,0.020*%
%ADD41C,0.040*%
%ADD42C,0.060*%
%ADD43C,0.030*%
%ADD44C,0.050*%
%ADD45C,0.023*%
%ADD46C,0.080*%
%ADD47C,0.011*%
%ADD48C,0.013*%
%ADD49C,0.016*%
%ADD50C,0.047*%
%ADD51C,0.025*%
%ADD52R,0.262X0.237*%
%ADD53C,0.060*%
%ADD54C,0.059*%
%ADD55C,0.240*%
%ADD56C,0.280*%
%ADD57C,0.059*%
%ADD58O,0.157X0.079*%
%ADD59O,0.079X0.157*%
%ADD60O,0.079X0.177*%
%ADD61O,0.050X0.060*%
%ADD62O,0.060X0.055*%
%ADD63O,0.060X0.050*%
%ADD64O,0.039X0.067*%
%ADD65R,0.059X0.059*%
%ADD66R,0.059X0.059*%
%ADD67C,0.050*%
%ADD68R,0.071X0.106*%
%ADD69R,0.071X0.063*%
%ADD70R,0.071X0.063*%
%ADD71C,0.039*%
%ADD72C,0.070*%
%ADD73C,0.010*%
%ADD74C,0.008*%
%ADD75C,0.008*%
%ADD76C,0.006*%
%ADD77C,0.012*%
%ADD78C,0.006*%
D15*
X5100Y1708D02*
D03*
Y1782D02*
D03*
X3190Y3713D02*
D03*
Y3787D02*
D03*
X3305Y3713D02*
D03*
Y3787D02*
D03*
X1405Y2913D02*
D03*
Y2987D02*
D03*
X3960Y3543D02*
D03*
Y3617D02*
D03*
X3825Y3543D02*
D03*
Y3617D02*
D03*
D19*
X2925Y1714D02*
D03*
X2962Y1616D02*
D03*
X3700Y1714D02*
D03*
X3737Y1616D02*
D03*
X3855Y1714D02*
D03*
X3892Y1616D02*
D03*
X4635Y1714D02*
D03*
X4672Y1616D02*
D03*
X4790Y1714D02*
D03*
X4827Y1616D02*
D03*
X4945Y1714D02*
D03*
X4982Y1616D02*
D03*
X4170Y1714D02*
D03*
X4207Y1616D02*
D03*
X4325Y1714D02*
D03*
X4362Y1616D02*
D03*
X4517D02*
D03*
X4480Y1714D02*
D03*
X2615D02*
D03*
X2652Y1616D02*
D03*
X2770Y1714D02*
D03*
X2807Y1616D02*
D03*
X3080Y1714D02*
D03*
X3117Y1616D02*
D03*
X3235Y1714D02*
D03*
X3272Y1616D02*
D03*
X3390Y1714D02*
D03*
X3427Y1616D02*
D03*
X3545Y1714D02*
D03*
X3582Y1616D02*
D03*
X4015Y1714D02*
D03*
X4052Y1616D02*
D03*
D20*
X2888Y1616D02*
D03*
X3663D02*
D03*
X3818D02*
D03*
X4598D02*
D03*
X4753D02*
D03*
X4908D02*
D03*
X4133D02*
D03*
X4288D02*
D03*
X4443D02*
D03*
X2578D02*
D03*
X2733D02*
D03*
X3043D02*
D03*
X3198D02*
D03*
X3353D02*
D03*
X3508D02*
D03*
X3978D02*
D03*
D24*
X2456Y2983D02*
D03*
X2424D02*
D03*
X2393Y2983D02*
D03*
X2487Y2983D02*
D03*
X2424Y2917D02*
D03*
X2393D02*
D03*
X2456Y2917D02*
D03*
X2487Y2917D02*
D03*
X2661Y2983D02*
D03*
X2629D02*
D03*
X2598Y2983D02*
D03*
X2692Y2983D02*
D03*
X2629Y2917D02*
D03*
X2598D02*
D03*
X2661Y2917D02*
D03*
X2692Y2917D02*
D03*
D32*
X1987Y1975D02*
D03*
X1913D02*
D03*
X1987Y1865D02*
D03*
X1913D02*
D03*
X1648Y1500D02*
D03*
X1722D02*
D03*
D33*
X2700Y3910D02*
D03*
Y3800D02*
D03*
X2465Y3585D02*
D03*
Y3475D02*
D03*
D34*
X1695Y2275D02*
D03*
X1805D02*
D03*
X4035Y3185D02*
D03*
X3925D02*
D03*
D48*
X1923Y2906D02*
X1964Y2947D01*
X1999Y2912D01*
X1958Y2871D01*
X1923Y2906D01*
X1938D02*
X1964Y2932D01*
X1984Y2912D01*
X1958Y2886D01*
X1938Y2906D01*
X1954D02*
X1964Y2916D01*
X1969Y2912D01*
X1958Y2901D01*
X1954Y2906D01*
X1960Y2909D02*
X1962D01*
X2001Y2828D02*
X2042Y2869D01*
X2077Y2834D01*
X2036Y2793D01*
X2001Y2828D01*
X2016D02*
X2042Y2854D01*
X2062Y2834D01*
X2036Y2808D01*
X2016Y2828D01*
X2031D02*
X2042Y2839D01*
X2046Y2834D01*
X2036Y2824D01*
X2031Y2828D01*
X2038Y2831D02*
X2040D01*
X3606Y3757D02*
X3647Y3716D01*
X3612Y3681D01*
X3571Y3722D01*
X3606Y3757D01*
Y3742D02*
X3632Y3716D01*
X3612Y3696D01*
X3586Y3722D01*
X3606Y3742D01*
Y3726D02*
X3616Y3716D01*
X3612Y3711D01*
X3601Y3722D01*
X3606Y3726D01*
X3609Y3720D02*
Y3718D01*
X3528Y3679D02*
X3569Y3638D01*
X3534Y3603D01*
X3493Y3644D01*
X3528Y3679D01*
Y3664D02*
X3554Y3638D01*
X3534Y3618D01*
X3508Y3644D01*
X3528Y3664D01*
Y3649D02*
X3539Y3638D01*
X3534Y3634D01*
X3524Y3644D01*
X3528Y3649D01*
X3531Y3642D02*
Y3640D01*
D68*
X1713Y3130D02*
D03*
X1887D02*
D03*
D69*
X3810Y2980D02*
D03*
Y2870D02*
D03*
X3825Y2645D02*
D03*
D70*
Y2755D02*
D03*
M02*
