%FSLAX23Y23*%
%MOIN*%
G70*
G01*
G75*
%ADD10C,0.010*%
%ADD11R,0.039X0.033*%
%ADD12R,0.039X0.033*%
%ADD13R,0.037X0.035*%
%ADD14R,0.037X0.035*%
%ADD15R,0.059X0.051*%
%ADD16R,0.085X0.024*%
%ADD17R,0.106X0.071*%
%ADD18R,0.049X0.014*%
%ADD19R,0.035X0.037*%
%ADD20R,0.035X0.037*%
%ADD21R,0.047X0.087*%
%ADD22R,0.047X0.087*%
%ADD23R,0.134X0.087*%
%ADD24R,0.018X0.035*%
%ADD25R,0.053X0.014*%
%ADD26R,0.087X0.024*%
%ADD27R,0.087X0.024*%
%ADD28R,0.063X0.012*%
%ADD29R,0.012X0.063*%
%ADD30R,0.035X0.018*%
%ADD31R,0.106X0.071*%
%ADD32R,0.051X0.059*%
%ADD33R,0.106X0.063*%
%ADD34R,0.063X0.071*%
%ADD35R,0.100X0.100*%
%ADD36R,0.063X0.071*%
%ADD37R,0.077X0.124*%
%ADD38R,0.120X0.220*%
%ADD39R,0.150X0.114*%
%ADD40C,0.020*%
%ADD41C,0.040*%
%ADD42C,0.060*%
%ADD43C,0.030*%
%ADD44C,0.050*%
%ADD45C,0.023*%
%ADD46C,0.080*%
%ADD47C,0.011*%
%ADD48C,0.013*%
%ADD49C,0.016*%
%ADD50C,0.047*%
%ADD51C,0.025*%
%ADD52R,0.262X0.237*%
%ADD53C,0.060*%
%ADD54C,0.059*%
%ADD55C,0.240*%
%ADD56C,0.280*%
%ADD57C,0.059*%
%ADD58O,0.157X0.079*%
%ADD59O,0.079X0.157*%
%ADD60O,0.079X0.177*%
%ADD61O,0.050X0.060*%
%ADD62O,0.060X0.055*%
%ADD63O,0.060X0.050*%
%ADD64O,0.039X0.067*%
%ADD65R,0.059X0.059*%
%ADD66R,0.059X0.059*%
%ADD67C,0.050*%
%ADD68R,0.071X0.106*%
%ADD69R,0.071X0.063*%
%ADD70R,0.071X0.063*%
%ADD71C,0.039*%
%ADD72C,0.070*%
%ADD73C,0.010*%
%ADD74C,0.008*%
%ADD75C,0.008*%
%ADD76C,0.006*%
%ADD77C,0.012*%
%ADD78C,0.006*%
%ADD79R,0.047X0.041*%
%ADD80R,0.047X0.041*%
%ADD81R,0.045X0.043*%
%ADD82R,0.045X0.043*%
%ADD83R,0.067X0.059*%
%ADD84R,0.093X0.032*%
%ADD85R,0.114X0.079*%
%ADD86R,0.057X0.022*%
%ADD87R,0.043X0.045*%
%ADD88R,0.043X0.045*%
%ADD89R,0.055X0.095*%
%ADD90R,0.055X0.095*%
%ADD91R,0.142X0.095*%
%ADD92R,0.026X0.043*%
%ADD93R,0.061X0.022*%
%ADD94R,0.095X0.032*%
%ADD95R,0.095X0.032*%
%ADD96R,0.071X0.020*%
%ADD97R,0.020X0.071*%
%ADD98R,0.043X0.026*%
%ADD99R,0.114X0.079*%
%ADD100R,0.059X0.067*%
%ADD101R,0.114X0.071*%
%ADD102R,0.071X0.079*%
%ADD103R,0.108X0.108*%
%ADD104R,0.071X0.079*%
%ADD105R,0.085X0.132*%
%ADD106R,0.128X0.228*%
%ADD107R,0.158X0.122*%
%ADD108C,0.068*%
%ADD109C,0.067*%
%ADD110C,0.248*%
%ADD111C,0.288*%
%ADD112C,0.067*%
%ADD113O,0.165X0.087*%
%ADD114O,0.087X0.165*%
%ADD115O,0.087X0.185*%
%ADD116C,0.008*%
%ADD117O,0.058X0.068*%
%ADD118O,0.068X0.063*%
%ADD119O,0.068X0.058*%
%ADD120O,0.047X0.075*%
%ADD121R,0.067X0.067*%
%ADD122R,0.067X0.067*%
%ADD123C,0.058*%
%ADD124R,0.079X0.114*%
%ADD125R,0.079X0.071*%
%ADD126R,0.079X0.071*%
%ADD127C,0.039*%
%ADD128C,0.007*%
D78*
X1240Y1993D02*
Y2033D01*
X1280D01*
Y1993D01*
X1240D01*
Y1373D02*
Y1413D01*
X1280D01*
Y1373D01*
X1240D01*
X1310Y1953D02*
Y1993D01*
X1350D01*
Y1953D01*
X1310D01*
Y1333D02*
Y1373D01*
X1350D01*
Y1333D01*
X1310D01*
Y1873D02*
Y1913D01*
X1350D01*
Y1873D01*
X1310D01*
Y1253D02*
Y1293D01*
X1350D01*
Y1253D01*
X1310D01*
X1240Y1833D02*
Y1873D01*
X1280D01*
Y1833D01*
X1240D01*
X1240Y1213D02*
Y1253D01*
X1280D01*
Y1213D01*
X1240D01*
X4835Y2280D02*
X4815Y2320D01*
X4855D01*
X4835Y2280D01*
Y2880D02*
X4815Y2920D01*
X4855D01*
X4835Y2880D01*
X1152Y4389D02*
X1162Y4399D01*
X1172D01*
X1162Y4409D01*
X1172Y4419D01*
X1162D01*
X1152Y4429D01*
X1142Y4419D01*
X1132D01*
X1142Y4409D01*
X1132Y4399D01*
X1142D01*
X1152Y4389D01*
X1742Y1161D02*
X1752Y1171D01*
X1762D01*
X1752Y1181D01*
X1762Y1191D01*
X1752D01*
X1742Y1201D01*
X1732Y1191D01*
X1722D01*
X1732Y1181D01*
X1722Y1171D01*
X1732D01*
X1742Y1161D01*
X5404Y4389D02*
X5414Y4399D01*
X5424D01*
X5414Y4409D01*
X5424Y4419D01*
X5414D01*
X5404Y4429D01*
X5394Y4419D01*
X5384D01*
X5394Y4409D01*
X5384Y4399D01*
X5394D01*
X5404Y4389D01*
Y2027D02*
X5414Y2037D01*
X5424D01*
X5414Y2047D01*
X5424Y2057D01*
X5414D01*
X5404Y2067D01*
X5394Y2057D01*
X5384D01*
X5394Y2047D01*
X5384Y2037D01*
X5394D01*
X5404Y2027D01*
X1494Y3345D02*
X1504Y3365D01*
X1494Y3385D01*
X1514Y3375D01*
X1534Y3385D01*
X1524Y3365D01*
X1534Y3345D01*
X1514Y3355D01*
X1494Y3345D01*
X1329Y3197D02*
X1339Y3217D01*
X1329Y3237D01*
X1349Y3227D01*
X1369Y3237D01*
X1359Y3217D01*
X1369Y3197D01*
X1349Y3207D01*
X1329Y3197D01*
X1408D02*
X1418Y3217D01*
X1408Y3237D01*
X1428Y3227D01*
X1448Y3237D01*
X1438Y3217D01*
X1448Y3197D01*
X1428Y3207D01*
X1408Y3197D01*
X1250Y3433D02*
X1260Y3453D01*
X1250Y3473D01*
X1270Y3463D01*
X1290Y3473D01*
X1280Y3453D01*
X1290Y3433D01*
X1270Y3443D01*
X1250Y3433D01*
Y3355D02*
X1260Y3375D01*
X1250Y3395D01*
X1270Y3385D01*
X1290Y3395D01*
X1280Y3375D01*
X1290Y3355D01*
X1270Y3365D01*
X1250Y3355D01*
X1494Y3443D02*
X1504Y3463D01*
X1494Y3483D01*
X1514Y3473D01*
X1534Y3483D01*
X1524Y3463D01*
X1534Y3443D01*
X1514Y3453D01*
X1494Y3443D01*
X1310Y1493D02*
Y1533D01*
X1350D01*
Y1493D01*
X1310D01*
X1240Y1453D02*
Y1493D01*
X1280D01*
Y1453D01*
X1240D01*
X1310Y1413D02*
Y1453D01*
X1350D01*
Y1413D01*
X1310D01*
X1240Y1293D02*
Y1333D01*
X1280D01*
Y1293D01*
X1240D01*
X1500Y1083D02*
Y1123D01*
X1540D01*
Y1083D01*
X1500D01*
Y1533D02*
Y1573D01*
X1540D01*
Y1533D01*
X1500D01*
Y1173D02*
Y1213D01*
X1540D01*
Y1173D01*
X1500D01*
Y1623D02*
Y1663D01*
X1540D01*
Y1623D01*
X1500D01*
X1310Y2113D02*
Y2153D01*
X1350D01*
Y2113D01*
X1310D01*
X1240Y2073D02*
Y2113D01*
X1280D01*
Y2073D01*
X1240D01*
X1310Y2033D02*
Y2073D01*
X1350D01*
Y2033D01*
X1310D01*
X1240Y1913D02*
Y1953D01*
X1280D01*
Y1913D01*
X1240D01*
X1500Y1703D02*
Y1743D01*
X1540D01*
Y1703D01*
X1500D01*
Y2153D02*
Y2193D01*
X1540D01*
Y2153D01*
X1500D01*
Y1793D02*
Y1833D01*
X1540D01*
Y1793D01*
X1500D01*
Y2243D02*
Y2283D01*
X1540D01*
Y2243D01*
X1500D01*
X4649Y2881D02*
X4629Y2921D01*
X4669D01*
X4649Y2881D01*
Y2281D02*
X4629Y2321D01*
X4669D01*
X4649Y2281D01*
X1242Y2844D02*
Y2834D01*
X1262D01*
Y2844D01*
X1272D01*
Y2864D01*
X1262D01*
Y2874D01*
X1242D01*
Y2864D01*
X1232D01*
Y2844D01*
X1242D01*
Y2744D02*
Y2734D01*
X1262D01*
Y2744D01*
X1272D01*
Y2764D01*
X1262D01*
Y2774D01*
X1242D01*
Y2764D01*
X1232D01*
Y2744D01*
X1242D01*
X1378Y2361D02*
Y2401D01*
X1418D01*
Y2361D01*
X1378D01*
Y2561D02*
Y2601D01*
X1418D01*
Y2561D01*
X1378D01*
Y2461D02*
Y2501D01*
X1418D01*
Y2461D01*
X1378D01*
X1228Y2361D02*
Y2401D01*
X1268D01*
Y2361D01*
X1228D01*
Y2561D02*
Y2601D01*
X1268D01*
Y2561D01*
X1228D01*
Y2461D02*
Y2501D01*
X1268D01*
Y2461D01*
X1228D01*
X1950Y1415D02*
Y1455D01*
X1990D01*
Y1415D01*
X1950D01*
X2400D02*
Y1455D01*
X2440D01*
Y1415D01*
X2400D01*
X2040D02*
Y1455D01*
X2080D01*
Y1415D01*
X2040D01*
X2490D02*
Y1455D01*
X2530D01*
Y1415D01*
X2490D01*
X2360Y1155D02*
Y1195D01*
X2400D01*
Y1155D01*
X2360D01*
X2320Y1225D02*
Y1265D01*
X2360D01*
Y1225D01*
X2320D01*
X2280Y1155D02*
Y1195D01*
X2320D01*
Y1155D01*
X2280D01*
X2240Y1225D02*
Y1265D01*
X2280D01*
Y1225D01*
X2240D01*
X2200Y1155D02*
Y1195D01*
X2240D01*
Y1155D01*
X2200D01*
X2160Y1225D02*
Y1265D01*
X2200D01*
Y1225D01*
X2160D01*
X2120Y1155D02*
Y1195D01*
X2160D01*
Y1155D01*
X2120D01*
X2080Y1225D02*
Y1265D01*
X2120D01*
Y1225D01*
X2080D01*
X1970Y1055D02*
X1980D01*
X1990Y1065D01*
X2000Y1055D01*
X2010D01*
Y1065D01*
X2000Y1075D01*
X2010Y1085D01*
Y1095D01*
X2000D01*
X1990Y1085D01*
X1980Y1095D01*
X1970D01*
Y1085D01*
X1980Y1075D01*
X1970Y1065D01*
Y1055D01*
X2470D02*
X2480D01*
X2490Y1065D01*
X2500Y1055D01*
X2510D01*
Y1065D01*
X2500Y1075D01*
X2510Y1085D01*
Y1095D01*
X2500D01*
X2490Y1085D01*
X2480Y1095D01*
X2470D01*
Y1085D01*
X2480Y1075D01*
X2470Y1065D01*
Y1055D01*
X2679Y1415D02*
Y1455D01*
X2719D01*
Y1415D01*
X2679D01*
X3129Y1415D02*
Y1455D01*
X3169D01*
Y1415D01*
X3129D01*
X2769Y1415D02*
Y1455D01*
X2809D01*
Y1415D01*
X2769D01*
X3219Y1415D02*
Y1455D01*
X3259D01*
Y1415D01*
X3219D01*
X3089Y1155D02*
Y1195D01*
X3129D01*
Y1155D01*
X3089D01*
X3049Y1225D02*
Y1265D01*
X3089D01*
Y1225D01*
X3049D01*
X3009Y1155D02*
Y1195D01*
X3049D01*
Y1155D01*
X3009D01*
X2969Y1225D02*
Y1265D01*
X3009D01*
Y1225D01*
X2969D01*
X2929Y1155D02*
Y1195D01*
X2969D01*
Y1155D01*
X2929D01*
X2889Y1225D02*
Y1265D01*
X2929D01*
Y1225D01*
X2889D01*
X2849Y1155D02*
Y1195D01*
X2889D01*
Y1155D01*
X2849D01*
X2809Y1225D02*
Y1265D01*
X2849D01*
Y1225D01*
X2809D01*
X2699Y1055D02*
X2709D01*
X2719Y1065D01*
X2729Y1055D01*
X2739D01*
Y1065D01*
X2729Y1075D01*
X2739Y1085D01*
Y1095D01*
X2729D01*
X2719Y1085D01*
X2709Y1095D01*
X2699D01*
Y1085D01*
X2709Y1075D01*
X2699Y1065D01*
Y1055D01*
X3199D02*
X3209D01*
X3219Y1065D01*
X3229Y1055D01*
X3239D01*
Y1065D01*
X3229Y1075D01*
X3239Y1085D01*
Y1095D01*
X3229D01*
X3219Y1085D01*
X3209Y1095D01*
X3199D01*
Y1085D01*
X3209Y1075D01*
X3199Y1065D01*
Y1055D01*
X3407Y1415D02*
Y1455D01*
X3447D01*
Y1415D01*
X3407D01*
X3857D02*
Y1455D01*
X3897D01*
Y1415D01*
X3857D01*
X3497D02*
Y1455D01*
X3537D01*
Y1415D01*
X3497D01*
X3947D02*
Y1455D01*
X3987D01*
Y1415D01*
X3947D01*
X3817Y1155D02*
Y1195D01*
X3857D01*
Y1155D01*
X3817D01*
X3777Y1225D02*
Y1265D01*
X3817D01*
Y1225D01*
X3777D01*
X3737Y1155D02*
Y1195D01*
X3777D01*
Y1155D01*
X3737D01*
X3697Y1225D02*
Y1265D01*
X3737D01*
Y1225D01*
X3697D01*
X3657Y1155D02*
Y1195D01*
X3697D01*
Y1155D01*
X3657D01*
X3617Y1225D02*
Y1265D01*
X3657D01*
Y1225D01*
X3617D01*
X3577Y1155D02*
Y1195D01*
X3617D01*
Y1155D01*
X3577D01*
X3537Y1225D02*
Y1265D01*
X3577D01*
Y1225D01*
X3537D01*
X3427Y1055D02*
X3437D01*
X3447Y1065D01*
X3457Y1055D01*
X3467D01*
Y1065D01*
X3457Y1075D01*
X3467Y1085D01*
Y1095D01*
X3457D01*
X3447Y1085D01*
X3437Y1095D01*
X3427D01*
Y1085D01*
X3437Y1075D01*
X3427Y1065D01*
Y1055D01*
X3927D02*
X3937D01*
X3947Y1065D01*
X3957Y1055D01*
X3967D01*
Y1065D01*
X3957Y1075D01*
X3967Y1085D01*
Y1095D01*
X3957D01*
X3947Y1085D01*
X3937Y1095D01*
X3927D01*
Y1085D01*
X3937Y1075D01*
X3927Y1065D01*
Y1055D01*
X4135Y1415D02*
Y1455D01*
X4175D01*
Y1415D01*
X4135D01*
X4585D02*
Y1455D01*
X4625D01*
Y1415D01*
X4585D01*
X4225D02*
Y1455D01*
X4265D01*
Y1415D01*
X4225D01*
X4675D02*
Y1455D01*
X4715D01*
Y1415D01*
X4675D01*
X4545Y1155D02*
Y1195D01*
X4585D01*
Y1155D01*
X4545D01*
X4505Y1225D02*
Y1265D01*
X4545D01*
Y1225D01*
X4505D01*
X4465Y1155D02*
Y1195D01*
X4505D01*
Y1155D01*
X4465D01*
X4425Y1225D02*
Y1265D01*
X4465D01*
Y1225D01*
X4425D01*
X4385Y1155D02*
Y1195D01*
X4425D01*
Y1155D01*
X4385D01*
X4345Y1225D02*
Y1265D01*
X4385D01*
Y1225D01*
X4345D01*
X4305Y1155D02*
Y1195D01*
X4345D01*
Y1155D01*
X4305D01*
X4265Y1225D02*
Y1265D01*
X4305D01*
Y1225D01*
X4265D01*
X4155Y1055D02*
X4165D01*
X4175Y1065D01*
X4185Y1055D01*
X4195D01*
Y1065D01*
X4185Y1075D01*
X4195Y1085D01*
Y1095D01*
X4185D01*
X4175Y1085D01*
X4165Y1095D01*
X4155D01*
Y1085D01*
X4165Y1075D01*
X4155Y1065D01*
Y1055D01*
X4655D02*
X4665D01*
X4675Y1065D01*
X4685Y1055D01*
X4695D01*
Y1065D01*
X4685Y1075D01*
X4695Y1085D01*
Y1095D01*
X4685D01*
X4675Y1085D01*
X4665Y1095D01*
X4655D01*
Y1085D01*
X4665Y1075D01*
X4655Y1065D01*
Y1055D01*
X4864Y1415D02*
Y1455D01*
X4904D01*
Y1415D01*
X4864D01*
X5314D02*
Y1455D01*
X5354D01*
Y1415D01*
X5314D01*
X4954Y1415D02*
Y1455D01*
X4994D01*
Y1415D01*
X4954D01*
X5404Y1415D02*
Y1455D01*
X5444D01*
Y1415D01*
X5404D01*
X5274Y1155D02*
Y1195D01*
X5314D01*
Y1155D01*
X5274D01*
X5234Y1225D02*
Y1265D01*
X5274D01*
Y1225D01*
X5234D01*
X5194Y1155D02*
Y1195D01*
X5234D01*
Y1155D01*
X5194D01*
X5154Y1225D02*
Y1265D01*
X5194D01*
Y1225D01*
X5154D01*
X5114Y1155D02*
Y1195D01*
X5154D01*
Y1155D01*
X5114D01*
X5074Y1225D02*
Y1265D01*
X5114D01*
Y1225D01*
X5074D01*
X5034Y1155D02*
Y1195D01*
X5074D01*
Y1155D01*
X5034D01*
X4994Y1225D02*
Y1265D01*
X5034D01*
Y1225D01*
X4994D01*
X3785Y3435D02*
Y3425D01*
X3805D01*
Y3435D01*
X3815D01*
Y3455D01*
X3805D01*
Y3465D01*
X3785D01*
Y3455D01*
X3775D01*
Y3435D01*
X3785D01*
X3977D02*
Y3425D01*
X3997D01*
Y3435D01*
X4007D01*
Y3455D01*
X3997D01*
Y3465D01*
X3977D01*
Y3455D01*
X3967D01*
Y3435D01*
X3977D01*
X1165Y3085D02*
X1185Y3105D01*
X1205Y3085D01*
X1185Y3065D01*
X1165Y3085D01*
X1215D02*
X1235Y3105D01*
X1255Y3085D01*
X1235Y3065D01*
X1215Y3085D01*
X1265D02*
X1285Y3105D01*
X1305Y3085D01*
X1285Y3065D01*
X1265Y3085D01*
X2080Y2130D02*
Y2170D01*
X2120D01*
Y2130D01*
X2080D01*
X2180D02*
Y2170D01*
X2220D01*
Y2130D01*
X2180D01*
Y2230D02*
Y2270D01*
X2220D01*
Y2230D01*
X2180D01*
X2080D02*
Y2270D01*
X2120D01*
Y2230D01*
X2080D01*
X2565Y3772D02*
Y3762D01*
X2585D01*
Y3772D01*
X2595D01*
Y3792D01*
X2585D01*
Y3802D01*
X2565D01*
Y3792D01*
X2555D01*
Y3772D01*
X2565D01*
Y3910D02*
Y3900D01*
X2585D01*
Y3910D01*
X2595D01*
Y3930D01*
X2585D01*
Y3940D01*
X2565D01*
Y3930D01*
X2555D01*
Y3910D01*
X2565D01*
X5384Y1055D02*
X5394D01*
X5404Y1065D01*
X5414Y1055D01*
X5424D01*
Y1065D01*
X5414Y1075D01*
X5424Y1085D01*
Y1095D01*
X5414D01*
X5404Y1085D01*
X5394Y1095D01*
X5384D01*
Y1085D01*
X5394Y1075D01*
X5384Y1065D01*
Y1055D01*
X4884D02*
X4894D01*
X4904Y1065D01*
X4914Y1055D01*
X4924D01*
Y1065D01*
X4914Y1075D01*
X4924Y1085D01*
Y1095D01*
X4914D01*
X4904Y1085D01*
X4894Y1095D01*
X4884D01*
Y1085D01*
X4894Y1075D01*
X4884Y1065D01*
Y1055D01*
X1140Y1603D02*
X1150D01*
X1160Y1613D01*
X1170Y1603D01*
X1180D01*
Y1613D01*
X1170Y1623D01*
X1180Y1633D01*
Y1643D01*
X1170D01*
X1160Y1633D01*
X1150Y1643D01*
X1140D01*
Y1633D01*
X1150Y1623D01*
X1140Y1613D01*
Y1603D01*
Y1723D02*
X1150D01*
X1160Y1733D01*
X1170Y1723D01*
X1180D01*
Y1733D01*
X1170Y1743D01*
X1180Y1753D01*
Y1763D01*
X1170D01*
X1160Y1753D01*
X1150Y1763D01*
X1140D01*
Y1753D01*
X1150Y1743D01*
X1140Y1733D01*
Y1723D01*
Y1103D02*
X1150D01*
X1160Y1113D01*
X1170Y1103D01*
X1180D01*
Y1113D01*
X1170Y1123D01*
X1180Y1133D01*
Y1143D01*
X1170D01*
X1160Y1133D01*
X1150Y1143D01*
X1140D01*
Y1133D01*
X1150Y1123D01*
X1140Y1113D01*
Y1103D01*
Y2223D02*
X1150D01*
X1160Y2233D01*
X1170Y2223D01*
X1180D01*
Y2233D01*
X1170Y2243D01*
X1180Y2253D01*
Y2263D01*
X1170D01*
X1160Y2253D01*
X1150Y2263D01*
X1140D01*
Y2253D01*
X1150Y2243D01*
X1140Y2233D01*
Y2223D01*
X1425Y3950D02*
Y3940D01*
X1445D01*
Y3950D01*
X1455D01*
Y3970D01*
X1445D01*
Y3980D01*
X1425D01*
Y3970D01*
X1415D01*
Y3950D01*
X1425D01*
Y4088D02*
Y4078D01*
X1445D01*
Y4088D01*
X1455D01*
Y4108D01*
X1445D01*
Y4118D01*
X1425D01*
Y4108D01*
X1415D01*
Y4088D01*
X1425D01*
Y4045D02*
Y4035D01*
X1445D01*
Y4045D01*
X1455D01*
Y4065D01*
X1445D01*
Y4075D01*
X1425D01*
Y4065D01*
X1415D01*
Y4045D01*
X1425D01*
X1400Y1680D02*
Y1720D01*
X1440D01*
Y1680D01*
X1400D01*
X1408Y1688D02*
Y1712D01*
X1432D01*
Y1688D01*
X1408D01*
X1400Y1980D02*
Y2020D01*
X1440D01*
Y1980D01*
X1400D01*
X1408Y1988D02*
Y2012D01*
X1432D01*
Y1988D01*
X1408D01*
X4930Y2430D02*
Y2470D01*
X4970D01*
Y2430D01*
X4930D01*
X4938Y2438D02*
Y2462D01*
X4962D01*
Y2438D01*
X4938D01*
X4515Y2940D02*
Y2980D01*
X4555D01*
Y2940D01*
X4515D01*
X4523Y2948D02*
Y2972D01*
X4547D01*
Y2948D01*
X4523D01*
X1595Y2305D02*
Y2345D01*
X1635D01*
Y2305D01*
X1595D01*
X1603Y2313D02*
Y2337D01*
X1627D01*
Y2313D01*
X1603D01*
X1655Y2880D02*
Y2920D01*
X1695D01*
Y2880D01*
X1655D01*
X1663Y2888D02*
Y2912D01*
X1687D01*
Y2888D01*
X1663D01*
X5100Y2305D02*
Y2345D01*
X5140D01*
Y2305D01*
X5100D01*
X5108Y2313D02*
Y2337D01*
X5132D01*
Y2313D01*
X5108D01*
X4980Y2305D02*
Y2345D01*
X5020D01*
Y2305D01*
X4980D01*
X4988Y2313D02*
Y2337D01*
X5012D01*
Y2313D01*
X4988D01*
X5292Y2687D02*
Y2727D01*
X5332D01*
Y2687D01*
X5292D01*
X5300Y2695D02*
Y2719D01*
X5324D01*
Y2695D01*
X5300D01*
X5100Y2230D02*
Y2270D01*
X5140D01*
Y2230D01*
X5100D01*
X5108Y2238D02*
Y2262D01*
X5132D01*
Y2238D01*
X5108D01*
X5350Y1705D02*
Y1745D01*
X5390D01*
Y1705D01*
X5350D01*
X5358Y1713D02*
Y1737D01*
X5382D01*
Y1713D01*
X5358D01*
X4155Y4175D02*
Y4215D01*
X4195D01*
Y4175D01*
X4155D01*
X4163Y4183D02*
Y4207D01*
X4187D01*
Y4183D01*
X4163D01*
X4680Y3880D02*
Y3920D01*
X4720D01*
Y3880D01*
X4680D01*
X4688Y3888D02*
Y3912D01*
X4712D01*
Y3888D01*
X4688D01*
X4695Y3965D02*
Y4005D01*
X4735D01*
Y3965D01*
X4695D01*
X4703Y3973D02*
Y3997D01*
X4727D01*
Y3973D01*
X4703D01*
X4080Y4155D02*
Y4195D01*
X4120D01*
Y4155D01*
X4080D01*
X4088Y4163D02*
Y4187D01*
X4112D01*
Y4163D01*
X4088D01*
X3730Y3670D02*
Y3710D01*
X3770D01*
Y3670D01*
X3730D01*
X3738Y3678D02*
Y3702D01*
X3762D01*
Y3678D01*
X3738D01*
X4325Y3925D02*
Y3965D01*
X4365D01*
Y3925D01*
X4325D01*
X4333Y3933D02*
Y3957D01*
X4357D01*
Y3933D01*
X4333D01*
X4280Y3975D02*
Y4015D01*
X4320D01*
Y3975D01*
X4280D01*
X4288Y3983D02*
Y4007D01*
X4312D01*
Y3983D01*
X4288D01*
X4850Y4185D02*
Y4225D01*
X4890D01*
Y4185D01*
X4850D01*
X4858Y4193D02*
Y4217D01*
X4882D01*
Y4193D01*
X4858D01*
X4755Y4130D02*
Y4170D01*
X4795D01*
Y4130D01*
X4755D01*
X4763Y4138D02*
Y4162D01*
X4787D01*
Y4138D01*
X4763D01*
X1750Y2910D02*
Y2950D01*
X1790D01*
Y2910D01*
X1750D01*
X1758Y2918D02*
Y2942D01*
X1782D01*
Y2918D01*
X1758D01*
X3780Y1805D02*
Y1845D01*
X3820D01*
Y1805D01*
X3780D01*
X3788Y1813D02*
Y1837D01*
X3812D01*
Y1813D01*
X3788D01*
X4365Y1810D02*
Y1850D01*
X4405D01*
Y1810D01*
X4365D01*
X4373Y1818D02*
Y1842D01*
X4397D01*
Y1818D01*
X4373D01*
X4315Y1750D02*
Y1790D01*
X4355D01*
Y1750D01*
X4315D01*
X4323Y1758D02*
Y1782D01*
X4347D01*
Y1758D01*
X4323D01*
X3825Y1755D02*
Y1795D01*
X3865D01*
Y1755D01*
X3825D01*
X3833Y1763D02*
Y1787D01*
X3857D01*
Y1763D01*
X3833D01*
X3995Y1810D02*
Y1850D01*
X4035D01*
Y1810D01*
X3995D01*
X4003Y1818D02*
Y1842D01*
X4027D01*
Y1818D01*
X4003D01*
X4150Y1815D02*
Y1855D01*
X4190D01*
Y1815D01*
X4150D01*
X4158Y1823D02*
Y1847D01*
X4182D01*
Y1823D01*
X4158D01*
X4165Y1885D02*
Y1925D01*
X4205D01*
Y1885D01*
X4165D01*
X4173Y1893D02*
Y1917D01*
X4197D01*
Y1893D01*
X4173D01*
X4145Y1965D02*
Y2005D01*
X4185D01*
Y1965D01*
X4145D01*
X4153Y1973D02*
Y1997D01*
X4177D01*
Y1973D01*
X4153D01*
X5000Y1750D02*
Y1790D01*
X5040D01*
Y1750D01*
X5000D01*
X5008Y1758D02*
Y1782D01*
X5032D01*
Y1758D01*
X5008D01*
X4025Y3245D02*
Y3285D01*
X4065D01*
Y3245D01*
X4025D01*
X4033Y3253D02*
Y3277D01*
X4057D01*
Y3253D01*
X4033D01*
X3120Y3510D02*
Y3550D01*
X3160D01*
Y3510D01*
X3120D01*
X3128Y3518D02*
Y3542D01*
X3152D01*
Y3518D01*
X3128D01*
X3670Y3595D02*
Y3635D01*
X3710D01*
Y3595D01*
X3670D01*
X3678Y3603D02*
Y3627D01*
X3702D01*
Y3603D01*
X3678D01*
X4050Y3320D02*
Y3360D01*
X4090D01*
Y3320D01*
X4050D01*
X4058Y3328D02*
Y3352D01*
X4082D01*
Y3328D01*
X4058D01*
X3825Y3035D02*
Y3075D01*
X3865D01*
Y3035D01*
X3825D01*
X3833Y3043D02*
Y3067D01*
X3857D01*
Y3043D01*
X3833D01*
X3505Y3500D02*
Y3540D01*
X3545D01*
Y3500D01*
X3505D01*
X3513Y3508D02*
Y3532D01*
X3537D01*
Y3508D01*
X3513D01*
X3300Y3285D02*
Y3325D01*
X3340D01*
Y3285D01*
X3300D01*
X3308Y3293D02*
Y3317D01*
X3332D01*
Y3293D01*
X3308D01*
X3685Y3025D02*
Y3065D01*
X3725D01*
Y3025D01*
X3685D01*
X3693Y3033D02*
Y3057D01*
X3717D01*
Y3033D01*
X3693D01*
X3505Y3410D02*
Y3450D01*
X3545D01*
Y3410D01*
X3505D01*
X3513Y3418D02*
Y3442D01*
X3537D01*
Y3418D01*
X3513D01*
X3405Y3500D02*
Y3540D01*
X3445D01*
Y3500D01*
X3405D01*
X3413Y3508D02*
Y3532D01*
X3437D01*
Y3508D01*
X3413D01*
X3755Y3030D02*
Y3070D01*
X3795D01*
Y3030D01*
X3755D01*
X3763Y3038D02*
Y3062D01*
X3787D01*
Y3038D01*
X3763D01*
X3455Y3455D02*
Y3495D01*
X3495D01*
Y3455D01*
X3455D01*
X3463Y3463D02*
Y3487D01*
X3487D01*
Y3463D01*
X3463D01*
X3330Y3525D02*
Y3565D01*
X3370D01*
Y3525D01*
X3330D01*
X3338Y3533D02*
Y3557D01*
X3362D01*
Y3533D01*
X3338D01*
X2460Y2760D02*
Y2800D01*
X2500D01*
Y2760D01*
X2460D01*
X2468Y2768D02*
Y2792D01*
X2492D01*
Y2768D01*
X2468D01*
X3245Y3245D02*
Y3285D01*
X3285D01*
Y3245D01*
X3245D01*
X3253Y3253D02*
Y3277D01*
X3277D01*
Y3253D01*
X3253D01*
X3105Y3245D02*
Y3285D01*
X3145D01*
Y3245D01*
X3105D01*
X3113Y3253D02*
Y3277D01*
X3137D01*
Y3253D01*
X3113D01*
X4485Y3550D02*
Y3590D01*
X4525D01*
Y3550D01*
X4485D01*
X4493Y3558D02*
Y3582D01*
X4517D01*
Y3558D01*
X4493D01*
X4415Y3565D02*
Y3605D01*
X4455D01*
Y3565D01*
X4415D01*
X4423Y3573D02*
Y3597D01*
X4447D01*
Y3573D01*
X4423D01*
X4430Y3465D02*
Y3505D01*
X4470D01*
Y3465D01*
X4430D01*
X4438Y3473D02*
Y3497D01*
X4462D01*
Y3473D01*
X4438D01*
X4400Y3400D02*
Y3440D01*
X4440D01*
Y3400D01*
X4400D01*
X4408Y3408D02*
Y3432D01*
X4432D01*
Y3408D01*
X4408D01*
X3175Y3245D02*
Y3285D01*
X3215D01*
Y3245D01*
X3175D01*
X3183Y3253D02*
Y3277D01*
X3207D01*
Y3253D01*
X3183D01*
X3585Y3025D02*
Y3065D01*
X3625D01*
Y3025D01*
X3585D01*
X3593Y3033D02*
Y3057D01*
X3617D01*
Y3033D01*
X3593D01*
X3100Y2115D02*
Y2155D01*
X3140D01*
Y2115D01*
X3100D01*
X3108Y2123D02*
Y2147D01*
X3132D01*
Y2123D01*
X3108D01*
X3165Y2080D02*
Y2120D01*
X3205D01*
Y2080D01*
X3165D01*
X3173Y2088D02*
Y2112D01*
X3197D01*
Y2088D01*
X3173D01*
X3255Y2055D02*
Y2095D01*
X3295D01*
Y2055D01*
X3255D01*
X3263Y2063D02*
Y2087D01*
X3287D01*
Y2063D01*
X3263D01*
X3330Y2045D02*
Y2085D01*
X3370D01*
Y2045D01*
X3330D01*
X3338Y2053D02*
Y2077D01*
X3362D01*
Y2053D01*
X3338D01*
X3345Y3075D02*
Y3115D01*
X3385D01*
Y3075D01*
X3345D01*
X3353Y3083D02*
Y3107D01*
X3377D01*
Y3083D01*
X3353D01*
X3405Y3095D02*
Y3135D01*
X3445D01*
Y3095D01*
X3405D01*
X3413Y3103D02*
Y3127D01*
X3437D01*
Y3103D01*
X3413D01*
X2250Y2545D02*
Y2585D01*
X2290D01*
Y2545D01*
X2250D01*
X2258Y2553D02*
Y2577D01*
X2282D01*
Y2553D01*
X2258D01*
X3490Y2465D02*
Y2505D01*
X3530D01*
Y2465D01*
X3490D01*
X3498Y2473D02*
Y2497D01*
X3522D01*
Y2473D01*
X3498D01*
X3430Y2490D02*
Y2530D01*
X3470D01*
Y2490D01*
X3430D01*
X3438Y2498D02*
Y2522D01*
X3462D01*
Y2498D01*
X3438D01*
X3365Y2460D02*
Y2500D01*
X3405D01*
Y2460D01*
X3365D01*
X3373Y2468D02*
Y2492D01*
X3397D01*
Y2468D01*
X3373D01*
X3300Y2445D02*
Y2485D01*
X3340D01*
Y2445D01*
X3300D01*
X3308Y2453D02*
Y2477D01*
X3332D01*
Y2453D01*
X3308D01*
X3235Y2465D02*
Y2505D01*
X3275D01*
Y2465D01*
X3235D01*
X3243Y2473D02*
Y2497D01*
X3267D01*
Y2473D01*
X3243D01*
X3240Y2530D02*
Y2570D01*
X3280D01*
Y2530D01*
X3240D01*
X3248Y2538D02*
Y2562D01*
X3272D01*
Y2538D01*
X3248D01*
X3615Y2710D02*
Y2750D01*
X3655D01*
Y2710D01*
X3615D01*
X3623Y2718D02*
Y2742D01*
X3647D01*
Y2718D01*
X3623D01*
X3180Y2575D02*
Y2615D01*
X3220D01*
Y2575D01*
X3180D01*
X3188Y2583D02*
Y2607D01*
X3212D01*
Y2583D01*
X3188D01*
X3555Y2740D02*
Y2780D01*
X3595D01*
Y2740D01*
X3555D01*
X3563Y2748D02*
Y2772D01*
X3587D01*
Y2748D01*
X3563D01*
X3185Y2735D02*
Y2775D01*
X3225D01*
Y2735D01*
X3185D01*
X3193Y2743D02*
Y2767D01*
X3217D01*
Y2743D01*
X3193D01*
X3235Y2620D02*
Y2660D01*
X3275D01*
Y2620D01*
X3235D01*
X3243Y2628D02*
Y2652D01*
X3267D01*
Y2628D01*
X3243D01*
X3185Y2665D02*
Y2705D01*
X3225D01*
Y2665D01*
X3185D01*
X3193Y2673D02*
Y2697D01*
X3217D01*
Y2673D01*
X3193D01*
X3255Y2735D02*
Y2775D01*
X3295D01*
Y2735D01*
X3255D01*
X3263Y2743D02*
Y2767D01*
X3287D01*
Y2743D01*
X3263D01*
X3260Y2830D02*
Y2870D01*
X3300D01*
Y2830D01*
X3260D01*
X3268Y2838D02*
Y2862D01*
X3292D01*
Y2838D01*
X3268D01*
X3205Y2795D02*
Y2835D01*
X3245D01*
Y2795D01*
X3205D01*
X3213Y2803D02*
Y2827D01*
X3237D01*
Y2803D01*
X3213D01*
X3325Y2850D02*
Y2890D01*
X3365D01*
Y2850D01*
X3325D01*
X3333Y2858D02*
Y2882D01*
X3357D01*
Y2858D01*
X3333D01*
X4420Y2110D02*
Y2150D01*
X4460D01*
Y2110D01*
X4420D01*
X4428Y2118D02*
Y2142D01*
X4452D01*
Y2118D01*
X4428D01*
X4460Y2175D02*
Y2215D01*
X4500D01*
Y2175D01*
X4460D01*
X4468Y2183D02*
Y2207D01*
X4492D01*
Y2183D01*
X4468D01*
X4360Y2145D02*
Y2185D01*
X4400D01*
Y2145D01*
X4360D01*
X4368Y2153D02*
Y2177D01*
X4392D01*
Y2153D01*
X4368D01*
X4575Y1535D02*
Y1575D01*
X4615D01*
Y1535D01*
X4575D01*
X4583Y1543D02*
Y1567D01*
X4607D01*
Y1543D01*
X4583D01*
X4425Y1535D02*
Y1575D01*
X4465D01*
Y1535D01*
X4425D01*
X4433Y1543D02*
Y1567D01*
X4457D01*
Y1543D01*
X4433D01*
X4445Y1755D02*
Y1795D01*
X4485D01*
Y1755D01*
X4445D01*
X4453Y1763D02*
Y1787D01*
X4477D01*
Y1763D01*
X4453D01*
X4720Y1535D02*
Y1575D01*
X4760D01*
Y1535D01*
X4720D01*
X4728Y1543D02*
Y1567D01*
X4752D01*
Y1543D01*
X4728D01*
X4650Y1535D02*
Y1575D01*
X4690D01*
Y1535D01*
X4650D01*
X4658Y1543D02*
Y1567D01*
X4682D01*
Y1543D01*
X4658D01*
X4810Y1535D02*
Y1575D01*
X4850D01*
Y1535D01*
X4810D01*
X4818Y1543D02*
Y1567D01*
X4842D01*
Y1543D01*
X4818D01*
X4500Y1535D02*
Y1575D01*
X4540D01*
Y1535D01*
X4500D01*
X4508Y1543D02*
Y1567D01*
X4532D01*
Y1543D01*
X4508D01*
X4515Y1755D02*
Y1795D01*
X4555D01*
Y1755D01*
X4515D01*
X4523Y1763D02*
Y1787D01*
X4547D01*
Y1763D01*
X4523D01*
X4880Y1535D02*
Y1575D01*
X4920D01*
Y1535D01*
X4880D01*
X4888Y1543D02*
Y1567D01*
X4912D01*
Y1543D01*
X4888D01*
X4965Y1535D02*
Y1575D01*
X5005D01*
Y1535D01*
X4965D01*
X4973Y1543D02*
Y1567D01*
X4997D01*
Y1543D01*
X4973D01*
X4410Y2530D02*
Y2570D01*
X4450D01*
Y2530D01*
X4410D01*
X4418Y2538D02*
Y2562D01*
X4442D01*
Y2538D01*
X4418D01*
X2260Y1735D02*
Y1775D01*
X2300D01*
Y1735D01*
X2260D01*
X2268Y1743D02*
Y1767D01*
X2292D01*
Y1743D01*
X2268D01*
X2445Y2320D02*
Y2360D01*
X2485D01*
Y2320D01*
X2445D01*
X2453Y2328D02*
Y2352D01*
X2477D01*
Y2328D01*
X2453D01*
X2170Y2360D02*
Y2400D01*
X2210D01*
Y2360D01*
X2170D01*
X2178Y2368D02*
Y2392D01*
X2202D01*
Y2368D01*
X2178D01*
X2160Y2535D02*
Y2575D01*
X2200D01*
Y2535D01*
X2160D01*
X2168Y2543D02*
Y2567D01*
X2192D01*
Y2543D01*
X2168D01*
X1720Y1855D02*
Y1895D01*
X1760D01*
Y1855D01*
X1720D01*
X1728Y1863D02*
Y1887D01*
X1752D01*
Y1863D01*
X1728D01*
X1720Y1930D02*
Y1970D01*
X1760D01*
Y1930D01*
X1720D01*
X1728Y1938D02*
Y1962D01*
X1752D01*
Y1938D01*
X1728D01*
X2135Y1865D02*
Y1905D01*
X2175D01*
Y1865D01*
X2135D01*
X2143Y1873D02*
Y1897D01*
X2167D01*
Y1873D01*
X2143D01*
X2135Y1935D02*
Y1975D01*
X2175D01*
Y1935D01*
X2135D01*
X2143Y1943D02*
Y1967D01*
X2167D01*
Y1943D01*
X2143D01*
X2012Y3108D02*
Y3148D01*
X2052D01*
Y3108D01*
X2012D01*
X2020Y3116D02*
Y3140D01*
X2044D01*
Y3116D01*
X2020D01*
X1690Y2130D02*
Y2170D01*
X1730D01*
Y2130D01*
X1690D01*
X1698Y2138D02*
Y2162D01*
X1722D01*
Y2138D01*
X1698D01*
X1625Y2130D02*
Y2170D01*
X1665D01*
Y2130D01*
X1625D01*
X1633Y2138D02*
Y2162D01*
X1657D01*
Y2138D01*
X1633D01*
X1620Y1785D02*
Y1825D01*
X1660D01*
Y1785D01*
X1620D01*
X1628Y1793D02*
Y1817D01*
X1652D01*
Y1793D01*
X1628D01*
X1690Y1785D02*
Y1825D01*
X1730D01*
Y1785D01*
X1690D01*
X1698Y1793D02*
Y1817D01*
X1722D01*
Y1793D01*
X1698D01*
X1780Y2545D02*
Y2585D01*
X1820D01*
Y2545D01*
X1780D01*
X1788Y2553D02*
Y2577D01*
X1812D01*
Y2553D01*
X1788D01*
X1825Y2765D02*
Y2805D01*
X1865D01*
Y2765D01*
X1825D01*
X1833Y2773D02*
Y2797D01*
X1857D01*
Y2773D01*
X1833D01*
X1920Y2720D02*
Y2760D01*
X1960D01*
Y2720D01*
X1920D01*
X1928Y2728D02*
Y2752D01*
X1952D01*
Y2728D01*
X1928D01*
X3585Y2931D02*
Y2971D01*
X3625D01*
Y2931D01*
X3585D01*
X3593Y2939D02*
Y2963D01*
X3617D01*
Y2939D01*
X3593D01*
X3585Y2640D02*
Y2680D01*
X3625D01*
Y2640D01*
X3585D01*
X3593Y2648D02*
Y2672D01*
X3617D01*
Y2648D01*
X3593D01*
X3941Y3060D02*
Y3100D01*
X3981D01*
Y3060D01*
X3941D01*
X3949Y3068D02*
Y3092D01*
X3973D01*
Y3068D01*
X3949D01*
X3990Y2719D02*
Y2759D01*
X4030D01*
Y2719D01*
X3990D01*
X3998Y2727D02*
Y2751D01*
X4022D01*
Y2727D01*
X3998D01*
X3898Y2855D02*
Y2895D01*
X3938D01*
Y2855D01*
X3898D01*
X3906Y2863D02*
Y2887D01*
X3930D01*
Y2863D01*
X3906D01*
X3676Y2856D02*
Y2896D01*
X3716D01*
Y2856D01*
X3676D01*
X3684Y2864D02*
Y2888D01*
X3708D01*
Y2864D01*
X3684D01*
X4865Y2115D02*
Y2155D01*
X4905D01*
Y2115D01*
X4865D01*
X4873Y2123D02*
Y2147D01*
X4897D01*
Y2123D01*
X4873D01*
X4680Y2220D02*
Y2260D01*
X4720D01*
Y2220D01*
X4680D01*
X4688Y2228D02*
Y2252D01*
X4712D01*
Y2228D01*
X4688D01*
X4800Y2135D02*
Y2175D01*
X4840D01*
Y2135D01*
X4800D01*
X4808Y2143D02*
Y2167D01*
X4832D01*
Y2143D01*
X4808D01*
X4850Y2050D02*
Y2090D01*
X4890D01*
Y2050D01*
X4850D01*
X4858Y2058D02*
Y2082D01*
X4882D01*
Y2058D01*
X4858D01*
X4520Y2115D02*
Y2155D01*
X4560D01*
Y2115D01*
X4520D01*
X4528Y2123D02*
Y2147D01*
X4552D01*
Y2123D01*
X4528D01*
X4380Y1915D02*
Y1955D01*
X4420D01*
Y1915D01*
X4380D01*
X4388Y1923D02*
Y1947D01*
X4412D01*
Y1923D01*
X4388D01*
X4085Y2085D02*
Y2125D01*
X4125D01*
Y2085D01*
X4085D01*
X4093Y2093D02*
Y2117D01*
X4117D01*
Y2093D01*
X4093D01*
X4085Y2155D02*
Y2195D01*
X4125D01*
Y2155D01*
X4085D01*
X4093Y2163D02*
Y2187D01*
X4117D01*
Y2163D01*
X4093D01*
X4295Y2175D02*
Y2215D01*
X4335D01*
Y2175D01*
X4295D01*
X4303Y2183D02*
Y2207D01*
X4327D01*
Y2183D01*
X4303D01*
X3150Y2385D02*
Y2425D01*
X3190D01*
Y2385D01*
X3150D01*
X3158Y2393D02*
Y2417D01*
X3182D01*
Y2393D01*
X3158D01*
X3755Y2245D02*
Y2285D01*
X3795D01*
Y2245D01*
X3755D01*
X3763Y2253D02*
Y2277D01*
X3787D01*
Y2253D01*
X3763D01*
X3915Y2135D02*
Y2175D01*
X3955D01*
Y2135D01*
X3915D01*
X3923Y2143D02*
Y2167D01*
X3947D01*
Y2143D01*
X3923D01*
X3885Y2205D02*
Y2245D01*
X3925D01*
Y2205D01*
X3885D01*
X3893Y2213D02*
Y2237D01*
X3917D01*
Y2213D01*
X3893D01*
X3825Y2245D02*
Y2285D01*
X3865D01*
Y2245D01*
X3825D01*
X3833Y2253D02*
Y2277D01*
X3857D01*
Y2253D01*
X3833D01*
X4780Y1920D02*
Y1960D01*
X4820D01*
Y1920D01*
X4780D01*
X4788Y1928D02*
Y1952D01*
X4812D01*
Y1928D01*
X4788D01*
X4825Y1870D02*
Y1910D01*
X4865D01*
Y1870D01*
X4825D01*
X4833Y1878D02*
Y1902D01*
X4857D01*
Y1878D01*
X4833D01*
X4730Y1800D02*
Y1840D01*
X4770D01*
Y1800D01*
X4730D01*
X4738Y1808D02*
Y1832D01*
X4762D01*
Y1808D01*
X4738D01*
X4680Y1755D02*
Y1795D01*
X4720D01*
Y1755D01*
X4680D01*
X4688Y1763D02*
Y1787D01*
X4712D01*
Y1763D01*
X4688D01*
X4825Y1755D02*
Y1795D01*
X4865D01*
Y1755D01*
X4825D01*
X4833Y1763D02*
Y1787D01*
X4857D01*
Y1763D01*
X4833D01*
X4895Y1755D02*
Y1795D01*
X4935D01*
Y1755D01*
X4895D01*
X4903Y1763D02*
Y1787D01*
X4927D01*
Y1763D01*
X4903D01*
X4345Y1535D02*
Y1575D01*
X4385D01*
Y1535D01*
X4345D01*
X4353Y1543D02*
Y1567D01*
X4377D01*
Y1543D01*
X4353D01*
X4275Y1535D02*
Y1575D01*
X4315D01*
Y1535D01*
X4275D01*
X4283Y1543D02*
Y1567D01*
X4307D01*
Y1543D01*
X4283D01*
X4200Y1535D02*
Y1575D01*
X4240D01*
Y1535D01*
X4200D01*
X4208Y1543D02*
Y1567D01*
X4232D01*
Y1543D01*
X4208D01*
X4110Y1535D02*
Y1575D01*
X4150D01*
Y1535D01*
X4110D01*
X4118Y1543D02*
Y1567D01*
X4142D01*
Y1543D01*
X4118D01*
X4035Y1535D02*
Y1575D01*
X4075D01*
Y1535D01*
X4035D01*
X4043Y1543D02*
Y1567D01*
X4067D01*
Y1543D01*
X4043D01*
X3955Y1535D02*
Y1575D01*
X3995D01*
Y1535D01*
X3955D01*
X3963Y1543D02*
Y1567D01*
X3987D01*
Y1543D01*
X3963D01*
X3875Y1535D02*
Y1575D01*
X3915D01*
Y1535D01*
X3875D01*
X3883Y1543D02*
Y1567D01*
X3907D01*
Y1543D01*
X3883D01*
X3795Y1535D02*
Y1575D01*
X3835D01*
Y1535D01*
X3795D01*
X3803Y1543D02*
Y1567D01*
X3827D01*
Y1543D01*
X3803D01*
X3720Y1535D02*
Y1575D01*
X3760D01*
Y1535D01*
X3720D01*
X3728Y1543D02*
Y1567D01*
X3752D01*
Y1543D01*
X3728D01*
X3640Y1535D02*
Y1575D01*
X3680D01*
Y1535D01*
X3640D01*
X3648Y1543D02*
Y1567D01*
X3672D01*
Y1543D01*
X3648D01*
X3570Y1535D02*
Y1575D01*
X3610D01*
Y1535D01*
X3570D01*
X3578Y1543D02*
Y1567D01*
X3602D01*
Y1543D01*
X3578D01*
X3480Y1535D02*
Y1575D01*
X3520D01*
Y1535D01*
X3480D01*
X3488Y1543D02*
Y1567D01*
X3512D01*
Y1543D01*
X3488D01*
X3410Y1535D02*
Y1575D01*
X3450D01*
Y1535D01*
X3410D01*
X3418Y1543D02*
Y1567D01*
X3442D01*
Y1543D01*
X3418D01*
X3315Y1535D02*
Y1575D01*
X3355D01*
Y1535D01*
X3315D01*
X3323Y1543D02*
Y1567D01*
X3347D01*
Y1543D01*
X3323D01*
X3245Y1535D02*
Y1575D01*
X3285D01*
Y1535D01*
X3245D01*
X3253Y1543D02*
Y1567D01*
X3277D01*
Y1543D01*
X3253D01*
X3175Y1535D02*
Y1575D01*
X3215D01*
Y1535D01*
X3175D01*
X3183Y1543D02*
Y1567D01*
X3207D01*
Y1543D01*
X3183D01*
X2785Y1535D02*
Y1575D01*
X2825D01*
Y1535D01*
X2785D01*
X2793Y1543D02*
Y1567D01*
X2817D01*
Y1543D01*
X2793D01*
X2710Y1535D02*
Y1575D01*
X2750D01*
Y1535D01*
X2710D01*
X2718Y1543D02*
Y1567D01*
X2742D01*
Y1543D01*
X2718D01*
X2600Y1535D02*
Y1575D01*
X2640D01*
Y1535D01*
X2600D01*
X2608Y1543D02*
Y1567D01*
X2632D01*
Y1543D01*
X2608D01*
X2510Y1535D02*
Y1575D01*
X2550D01*
Y1535D01*
X2510D01*
X2518Y1543D02*
Y1567D01*
X2542D01*
Y1543D01*
X2518D01*
X3100Y1535D02*
Y1575D01*
X3140D01*
Y1535D01*
X3100D01*
X3108Y1543D02*
Y1567D01*
X3132D01*
Y1543D01*
X3108D01*
X3020Y1535D02*
Y1575D01*
X3060D01*
Y1535D01*
X3020D01*
X3028Y1543D02*
Y1567D01*
X3052D01*
Y1543D01*
X3028D01*
X3150Y2960D02*
Y3000D01*
X3190D01*
Y2960D01*
X3150D01*
X3158Y2968D02*
Y2992D01*
X3182D01*
Y2968D01*
X3158D01*
X3155Y3025D02*
Y3065D01*
X3195D01*
Y3025D01*
X3155D01*
X3163Y3033D02*
Y3057D01*
X3187D01*
Y3033D01*
X3163D01*
X3285Y3055D02*
Y3095D01*
X3325D01*
Y3055D01*
X3285D01*
X3293Y3063D02*
Y3087D01*
X3317D01*
Y3063D01*
X3293D01*
X3220Y3040D02*
Y3080D01*
X3260D01*
Y3040D01*
X3220D01*
X3228Y3048D02*
Y3072D01*
X3252D01*
Y3048D01*
X3228D01*
X3755Y2100D02*
Y2140D01*
X3795D01*
Y2100D01*
X3755D01*
X3763Y2108D02*
Y2132D01*
X3787D01*
Y2108D01*
X3763D01*
X3705Y2040D02*
Y2080D01*
X3745D01*
Y2040D01*
X3705D01*
X3713Y2048D02*
Y2072D01*
X3737D01*
Y2048D01*
X3713D01*
X3570Y2055D02*
Y2095D01*
X3610D01*
Y2055D01*
X3570D01*
X3578Y2063D02*
Y2087D01*
X3602D01*
Y2063D01*
X3578D01*
X3640Y2070D02*
Y2110D01*
X3680D01*
Y2070D01*
X3640D01*
X3648Y2078D02*
Y2102D01*
X3672D01*
Y2078D01*
X3648D01*
X2785Y2155D02*
Y2195D01*
X2825D01*
Y2155D01*
X2785D01*
X2793Y2163D02*
Y2187D01*
X2817D01*
Y2163D01*
X2793D01*
X2735Y2100D02*
Y2140D01*
X2775D01*
Y2100D01*
X2735D01*
X2743Y2108D02*
Y2132D01*
X2767D01*
Y2108D01*
X2743D01*
X2685Y2155D02*
Y2195D01*
X2725D01*
Y2155D01*
X2685D01*
X2693Y2163D02*
Y2187D01*
X2717D01*
Y2163D01*
X2693D01*
X2640Y2100D02*
Y2140D01*
X2680D01*
Y2100D01*
X2640D01*
X2648Y2108D02*
Y2132D01*
X2672D01*
Y2108D01*
X2648D01*
X2860Y1535D02*
Y1575D01*
X2900D01*
Y1535D01*
X2860D01*
X2868Y1543D02*
Y1567D01*
X2892D01*
Y1543D01*
X2868D01*
X2950Y1535D02*
Y1575D01*
X2990D01*
Y1535D01*
X2950D01*
X2958Y1543D02*
Y1567D01*
X2982D01*
Y1543D01*
X2958D01*
X2080Y1550D02*
Y1590D01*
X2120D01*
Y1550D01*
X2080D01*
X2088Y1558D02*
Y1582D01*
X2112D01*
Y1558D01*
X2088D01*
X2250Y1615D02*
Y1655D01*
X2290D01*
Y1615D01*
X2250D01*
X2258Y1623D02*
Y1647D01*
X2282D01*
Y1623D01*
X2258D01*
X2125Y2920D02*
Y2960D01*
X2165D01*
Y2920D01*
X2125D01*
X2133Y2928D02*
Y2952D01*
X2157D01*
Y2928D01*
X2133D01*
X2020Y2960D02*
Y3000D01*
X2060D01*
Y2960D01*
X2020D01*
X2028Y2968D02*
Y2992D01*
X2052D01*
Y2968D01*
X2028D01*
X2350Y3040D02*
Y3080D01*
X2390D01*
Y3040D01*
X2350D01*
X2358Y3048D02*
Y3072D01*
X2382D01*
Y3048D01*
X2358D01*
X2575Y3080D02*
Y3120D01*
X2615D01*
Y3080D01*
X2575D01*
X2583Y3088D02*
Y3112D01*
X2607D01*
Y3088D01*
X2583D01*
X2350Y3220D02*
Y3260D01*
X2390D01*
Y3220D01*
X2350D01*
X2358Y3228D02*
Y3252D01*
X2382D01*
Y3228D01*
X2358D01*
X2540Y3260D02*
Y3300D01*
X2580D01*
Y3260D01*
X2540D01*
X2548Y3268D02*
Y3292D01*
X2572D01*
Y3268D01*
X2548D01*
X2010Y1550D02*
Y1590D01*
X2050D01*
Y1550D01*
X2010D01*
X2018Y1558D02*
Y1582D01*
X2042D01*
Y1558D01*
X2018D01*
X2310Y1475D02*
Y1515D01*
X2350D01*
Y1475D01*
X2310D01*
X2318Y1483D02*
Y1507D01*
X2342D01*
Y1483D01*
X2318D01*
X1940Y1550D02*
Y1590D01*
X1980D01*
Y1550D01*
X1940D01*
X1948Y1558D02*
Y1582D01*
X1972D01*
Y1558D01*
X1948D01*
X2195Y1445D02*
Y1485D01*
X2235D01*
Y1445D01*
X2195D01*
X2203Y1453D02*
Y1477D01*
X2227D01*
Y1453D01*
X2203D01*
X2350Y3135D02*
Y3175D01*
X2390D01*
Y3135D01*
X2350D01*
X2358Y3143D02*
Y3167D01*
X2382D01*
Y3143D01*
X2358D01*
X2545Y3160D02*
Y3200D01*
X2585D01*
Y3160D01*
X2545D01*
X2553Y3168D02*
Y3192D01*
X2577D01*
Y3168D01*
X2553D01*
X2350Y3300D02*
Y3340D01*
X2390D01*
Y3300D01*
X2350D01*
X2358Y3308D02*
Y3332D01*
X2382D01*
Y3308D01*
X2358D01*
X2540Y3360D02*
Y3400D01*
X2580D01*
Y3360D01*
X2540D01*
X2548Y3368D02*
Y3392D01*
X2572D01*
Y3368D01*
X2548D01*
X4380Y2365D02*
Y2405D01*
X4420D01*
Y2365D01*
X4380D01*
X4388Y2373D02*
Y2397D01*
X4412D01*
Y2373D01*
X4388D01*
X5120Y1480D02*
Y1520D01*
X5160D01*
Y1480D01*
X5120D01*
X5128Y1488D02*
Y1512D01*
X5152D01*
Y1488D01*
X5128D01*
X5175Y1600D02*
Y1640D01*
X5215D01*
Y1600D01*
X5175D01*
X5183Y1608D02*
Y1632D01*
X5207D01*
Y1608D01*
X5183D01*
X5220Y1550D02*
Y1590D01*
X5260D01*
Y1550D01*
X5220D01*
X5228Y1558D02*
Y1582D01*
X5252D01*
Y1558D01*
X5228D01*
X5265Y1600D02*
Y1640D01*
X5305D01*
Y1600D01*
X5265D01*
X5273Y1608D02*
Y1632D01*
X5297D01*
Y1608D01*
X5273D01*
X5275Y3605D02*
Y3645D01*
X5315D01*
Y3605D01*
X5275D01*
X5283Y3613D02*
Y3637D01*
X5307D01*
Y3613D01*
X5283D01*
X5345Y3605D02*
Y3645D01*
X5385D01*
Y3605D01*
X5345D01*
X5353Y3613D02*
Y3637D01*
X5377D01*
Y3613D01*
X5353D01*
X5000Y3685D02*
Y3725D01*
X5040D01*
Y3685D01*
X5000D01*
X5008Y3693D02*
Y3717D01*
X5032D01*
Y3693D01*
X5008D01*
X4935Y3685D02*
Y3725D01*
X4975D01*
Y3685D01*
X4935D01*
X4943Y3693D02*
Y3717D01*
X4967D01*
Y3693D01*
X4943D01*
X4795Y2680D02*
Y2720D01*
X4835D01*
Y2680D01*
X4795D01*
X4803Y2688D02*
Y2712D01*
X4827D01*
Y2688D01*
X4803D01*
X4755Y2745D02*
Y2785D01*
X4795D01*
Y2745D01*
X4755D01*
X4763Y2753D02*
Y2777D01*
X4787D01*
Y2753D01*
X4763D01*
X3990Y2845D02*
Y2885D01*
X4030D01*
Y2845D01*
X3990D01*
X3998Y2853D02*
Y2877D01*
X4022D01*
Y2853D01*
X3998D01*
X4005Y2920D02*
Y2960D01*
X4045D01*
Y2920D01*
X4005D01*
X4013Y2928D02*
Y2952D01*
X4037D01*
Y2928D01*
X4013D01*
X5220Y1650D02*
Y1690D01*
X5260D01*
Y1650D01*
X5220D01*
X5228Y1658D02*
Y1682D01*
X5252D01*
Y1658D01*
X5228D01*
X4435Y2860D02*
Y2900D01*
X4475D01*
Y2860D01*
X4435D01*
X4443Y2868D02*
Y2892D01*
X4467D01*
Y2868D01*
X4443D01*
X4490Y2815D02*
Y2855D01*
X4530D01*
Y2815D01*
X4490D01*
X4498Y2823D02*
Y2847D01*
X4522D01*
Y2823D01*
X4498D01*
X4630Y2765D02*
Y2805D01*
X4670D01*
Y2765D01*
X4630D01*
X4638Y2773D02*
Y2797D01*
X4662D01*
Y2773D01*
X4638D01*
X4580Y2720D02*
Y2760D01*
X4620D01*
Y2720D01*
X4580D01*
X4588Y2728D02*
Y2752D01*
X4612D01*
Y2728D01*
X4588D01*
X3675Y3525D02*
Y3565D01*
X3715D01*
Y3525D01*
X3675D01*
X3683Y3533D02*
Y3557D01*
X3707D01*
Y3533D01*
X3683D01*
X2880Y3515D02*
Y3555D01*
X2920D01*
Y3515D01*
X2880D01*
X2888Y3523D02*
Y3547D01*
X2912D01*
Y3523D01*
X2888D01*
X2985Y3935D02*
Y3975D01*
X3025D01*
Y3935D01*
X2985D01*
X2993Y3943D02*
Y3967D01*
X3017D01*
Y3943D01*
X2993D01*
X3985Y3295D02*
Y3335D01*
X4025D01*
Y3295D01*
X3985D01*
X3993Y3303D02*
Y3327D01*
X4017D01*
Y3303D01*
X3993D01*
X3875Y3450D02*
Y3490D01*
X3915D01*
Y3450D01*
X3875D01*
X3883Y3458D02*
Y3482D01*
X3907D01*
Y3458D01*
X3883D01*
X3795Y3670D02*
Y3710D01*
X3835D01*
Y3670D01*
X3795D01*
X3803Y3678D02*
Y3702D01*
X3827D01*
Y3678D01*
X3803D01*
X3860Y3670D02*
Y3710D01*
X3900D01*
Y3670D01*
X3860D01*
X3868Y3678D02*
Y3702D01*
X3892D01*
Y3678D01*
X3868D01*
X3930Y3670D02*
Y3710D01*
X3970D01*
Y3670D01*
X3930D01*
X3938Y3678D02*
Y3702D01*
X3962D01*
Y3678D01*
X3938D01*
X4230Y3505D02*
Y3545D01*
X4270D01*
Y3505D01*
X4230D01*
X4238Y3513D02*
Y3537D01*
X4262D01*
Y3513D01*
X4238D01*
X4165Y3130D02*
Y3170D01*
X4205D01*
Y3130D01*
X4165D01*
X4173Y3138D02*
Y3162D01*
X4197D01*
Y3138D01*
X4173D01*
X4215Y3175D02*
Y3215D01*
X4255D01*
Y3175D01*
X4215D01*
X4223Y3183D02*
Y3207D01*
X4247D01*
Y3183D01*
X4223D01*
X4290Y3175D02*
Y3215D01*
X4330D01*
Y3175D01*
X4290D01*
X4298Y3183D02*
Y3207D01*
X4322D01*
Y3183D01*
X4298D01*
X4220Y3060D02*
Y3100D01*
X4260D01*
Y3060D01*
X4220D01*
X4228Y3068D02*
Y3092D01*
X4252D01*
Y3068D01*
X4228D01*
X4120Y3820D02*
Y3860D01*
X4160D01*
Y3820D01*
X4120D01*
X4128Y3828D02*
Y3852D01*
X4152D01*
Y3828D01*
X4128D01*
X4330Y3120D02*
Y3160D01*
X4370D01*
Y3120D01*
X4330D01*
X4338Y3128D02*
Y3152D01*
X4362D01*
Y3128D01*
X4338D01*
X3055Y3965D02*
Y4005D01*
X3095D01*
Y3965D01*
X3055D01*
X3063Y3973D02*
Y3997D01*
X3087D01*
Y3973D01*
X3063D01*
X4180Y3940D02*
Y3980D01*
X4220D01*
Y3940D01*
X4180D01*
X4188Y3948D02*
Y3972D01*
X4212D01*
Y3948D01*
X4188D01*
X3530Y1960D02*
Y2000D01*
X3570D01*
Y1960D01*
X3530D01*
X3538Y1968D02*
Y1992D01*
X3562D01*
Y1968D01*
X3538D01*
X3530Y1890D02*
Y1930D01*
X3570D01*
Y1890D01*
X3530D01*
X3538Y1898D02*
Y1922D01*
X3562D01*
Y1898D01*
X3538D01*
X3555Y1795D02*
Y1835D01*
X3595D01*
Y1795D01*
X3555D01*
X3563Y1803D02*
Y1827D01*
X3587D01*
Y1803D01*
X3563D01*
X3380Y1815D02*
Y1855D01*
X3420D01*
Y1815D01*
X3380D01*
X3388Y1823D02*
Y1847D01*
X3412D01*
Y1823D01*
X3388D01*
X3155Y1800D02*
Y1840D01*
X3195D01*
Y1800D01*
X3155D01*
X3163Y1808D02*
Y1832D01*
X3187D01*
Y1808D01*
X3163D01*
X3205Y1755D02*
Y1795D01*
X3245D01*
Y1755D01*
X3205D01*
X3213Y1763D02*
Y1787D01*
X3237D01*
Y1763D01*
X3213D01*
X3660Y1755D02*
Y1795D01*
X3700D01*
Y1755D01*
X3660D01*
X3668Y1763D02*
Y1787D01*
X3692D01*
Y1763D01*
X3668D01*
X3710Y1800D02*
Y1840D01*
X3750D01*
Y1800D01*
X3710D01*
X3718Y1808D02*
Y1832D01*
X3742D01*
Y1808D01*
X3718D01*
X2950Y1960D02*
Y2000D01*
X2990D01*
Y1960D01*
X2950D01*
X2958Y1968D02*
Y1992D01*
X2982D01*
Y1968D01*
X2958D01*
X2950Y1885D02*
Y1925D01*
X2990D01*
Y1885D01*
X2950D01*
X2958Y1893D02*
Y1917D01*
X2982D01*
Y1893D01*
X2958D01*
X2550Y1755D02*
Y1795D01*
X2590D01*
Y1755D01*
X2550D01*
X2558Y1763D02*
Y1787D01*
X2582D01*
Y1763D01*
X2558D01*
X2615Y1755D02*
Y1795D01*
X2655D01*
Y1755D01*
X2615D01*
X2623Y1763D02*
Y1787D01*
X2647D01*
Y1763D01*
X2623D01*
X3085Y1765D02*
Y1805D01*
X3125D01*
Y1765D01*
X3085D01*
X3093Y1773D02*
Y1797D01*
X3117D01*
Y1773D01*
X3093D01*
X2940Y1770D02*
Y1810D01*
X2980D01*
Y1770D01*
X2940D01*
X2948Y1778D02*
Y1802D01*
X2972D01*
Y1778D01*
X2948D01*
X2015Y2545D02*
Y2585D01*
X2055D01*
Y2545D01*
X2015D01*
X2023Y2553D02*
Y2577D01*
X2047D01*
Y2553D01*
X2023D01*
X1600Y3835D02*
Y3875D01*
X1640D01*
Y3835D01*
X1600D01*
X1608Y3843D02*
Y3867D01*
X1632D01*
Y3843D01*
X1608D01*
X2900Y3975D02*
Y4015D01*
X2940D01*
Y3975D01*
X2900D01*
X2908Y3983D02*
Y4007D01*
X2932D01*
Y3983D01*
X2908D01*
X2900Y3880D02*
Y3920D01*
X2940D01*
Y3880D01*
X2900D01*
X2908Y3888D02*
Y3912D01*
X2932D01*
Y3888D01*
X2908D01*
X2685Y3980D02*
Y4020D01*
X2725D01*
Y3980D01*
X2685D01*
X2693Y3988D02*
Y4012D01*
X2717D01*
Y3988D01*
X2693D01*
X2980Y4105D02*
Y4145D01*
X3020D01*
Y4105D01*
X2980D01*
X2988Y4113D02*
Y4137D01*
X3012D01*
Y4113D01*
X2988D01*
X4555Y3790D02*
Y3830D01*
X4595D01*
Y3790D01*
X4555D01*
X4563Y3798D02*
Y3822D01*
X4587D01*
Y3798D01*
X4563D01*
X4715Y2945D02*
Y2985D01*
X4755D01*
Y2945D01*
X4715D01*
X4723Y2953D02*
Y2977D01*
X4747D01*
Y2953D01*
X4723D01*
X5055Y3330D02*
Y3370D01*
X5095D01*
Y3330D01*
X5055D01*
X5063Y3338D02*
Y3362D01*
X5087D01*
Y3338D01*
X5063D01*
X4980Y3125D02*
Y3165D01*
X5020D01*
Y3125D01*
X4980D01*
X4988Y3133D02*
Y3157D01*
X5012D01*
Y3133D01*
X4988D01*
D128*
X3620Y4300D02*
G03*
X3620Y4300I-20J0D01*
G01*
X3520D02*
G03*
X3520Y4300I-20J0D01*
G01*
Y4400D02*
G03*
X3520Y4400I-20J0D01*
G01*
X3620D02*
G03*
X3620Y4400I-20J0D01*
G01*
X4920D02*
G03*
X4920Y4400I-20J0D01*
G01*
Y4300D02*
G03*
X4920Y4300I-20J0D01*
G01*
X4820Y4400D02*
G03*
X4820Y4400I-20J0D01*
G01*
Y4300D02*
G03*
X4820Y4300I-20J0D01*
G01*
X4720Y4400D02*
G03*
X4720Y4400I-20J0D01*
G01*
Y4300D02*
G03*
X4720Y4300I-20J0D01*
G01*
X4620Y4400D02*
G03*
X4620Y4400I-20J0D01*
G01*
Y4300D02*
G03*
X4620Y4300I-20J0D01*
G01*
X4520Y4400D02*
G03*
X4520Y4400I-20J0D01*
G01*
Y4300D02*
G03*
X4520Y4300I-20J0D01*
G01*
X3120Y3600D02*
G03*
X3120Y3600I-20J0D01*
G01*
X3220D02*
G03*
X3220Y3600I-20J0D01*
G01*
X3320D02*
G03*
X3320Y3600I-20J0D01*
G01*
X3420D02*
G03*
X3420Y3600I-20J0D01*
G01*
X1920Y3555D02*
G03*
X1920Y3555I-20J0D01*
G01*
X2020D02*
G03*
X2020Y3555I-20J0D01*
G01*
X2120D02*
G03*
X2120Y3555I-20J0D01*
G01*
X1920Y3855D02*
G03*
X1920Y3855I-20J0D01*
G01*
X2020D02*
G03*
X2020Y3855I-20J0D01*
G01*
X2120D02*
G03*
X2120Y3855I-20J0D01*
G01*
X2220D02*
G03*
X2220Y3855I-20J0D01*
G01*
Y3555D02*
G03*
X2220Y3555I-20J0D01*
G01*
X3820Y4300D02*
G03*
X3820Y4300I-20J0D01*
G01*
Y4400D02*
G03*
X3820Y4400I-20J0D01*
G01*
X3920Y4300D02*
G03*
X3920Y4300I-20J0D01*
G01*
Y4400D02*
G03*
X3920Y4400I-20J0D01*
G01*
X4020Y4300D02*
G03*
X4020Y4300I-20J0D01*
G01*
Y4400D02*
G03*
X4020Y4400I-20J0D01*
G01*
X4120Y4300D02*
G03*
X4120Y4300I-20J0D01*
G01*
Y4400D02*
G03*
X4120Y4400I-20J0D01*
G01*
X4220Y4300D02*
G03*
X4220Y4300I-20J0D01*
G01*
Y4400D02*
G03*
X4220Y4400I-20J0D01*
G01*
X4320Y4300D02*
G03*
X4320Y4300I-20J0D01*
G01*
Y4400D02*
G03*
X4320Y4400I-20J0D01*
G01*
X4420Y4300D02*
G03*
X4420Y4300I-20J0D01*
G01*
Y4400D02*
G03*
X4420Y4400I-20J0D01*
G01*
M02*
