%FSLAX23Y23*%
%MOIN*%
G70*
G01*
G75*
%ADD10C,0.010*%
%ADD11R,0.039X0.033*%
%ADD12R,0.039X0.033*%
%ADD13R,0.037X0.035*%
%ADD14R,0.037X0.035*%
%ADD15R,0.059X0.051*%
%ADD16R,0.085X0.024*%
%ADD17R,0.106X0.071*%
%ADD18R,0.049X0.014*%
%ADD19R,0.035X0.037*%
%ADD20R,0.035X0.037*%
%ADD21R,0.047X0.087*%
%ADD22R,0.047X0.087*%
%ADD23R,0.134X0.087*%
%ADD24R,0.018X0.035*%
%ADD25R,0.053X0.014*%
%ADD26R,0.087X0.024*%
%ADD27R,0.087X0.024*%
%ADD28R,0.063X0.012*%
%ADD29R,0.012X0.063*%
%ADD30R,0.035X0.018*%
%ADD31R,0.106X0.071*%
%ADD32R,0.051X0.059*%
%ADD33R,0.106X0.063*%
%ADD34R,0.063X0.071*%
%ADD35R,0.100X0.100*%
%ADD36R,0.063X0.071*%
%ADD37R,0.077X0.124*%
%ADD38R,0.120X0.220*%
%ADD39R,0.150X0.114*%
%ADD40C,0.020*%
%ADD41C,0.040*%
%ADD42C,0.060*%
%ADD43C,0.030*%
%ADD44C,0.050*%
%ADD45C,0.023*%
%ADD46C,0.080*%
%ADD47C,0.011*%
%ADD48C,0.013*%
%ADD49C,0.016*%
%ADD50C,0.047*%
%ADD51C,0.025*%
%ADD52R,0.262X0.237*%
%ADD53C,0.060*%
%ADD54C,0.059*%
%ADD55C,0.240*%
%ADD56C,0.280*%
%ADD57C,0.059*%
%ADD58O,0.157X0.079*%
%ADD59O,0.079X0.157*%
%ADD60O,0.079X0.177*%
%ADD61O,0.050X0.060*%
%ADD62O,0.060X0.055*%
%ADD63O,0.060X0.050*%
%ADD64O,0.039X0.067*%
%ADD65R,0.059X0.059*%
%ADD66R,0.059X0.059*%
%ADD67C,0.050*%
%ADD68R,0.071X0.106*%
%ADD69R,0.071X0.063*%
%ADD70R,0.071X0.063*%
%ADD71C,0.039*%
%ADD72C,0.070*%
%ADD73C,0.010*%
%ADD74C,0.008*%
%ADD75C,0.008*%
%ADD76C,0.006*%
%ADD77C,0.012*%
%ADD78C,0.006*%
D10*
X1217Y2852D02*
G03*
X1217Y2755I35J-49D01*
G01*
X1287Y2755D02*
G03*
X1287Y2852I-36J48D01*
G01*
X1434Y2432D02*
G03*
X1434Y2529I-36J48D01*
G01*
X1362Y2529D02*
G03*
X1363Y2432I35J-49D01*
G01*
X1284Y2432D02*
G03*
X1284Y2529I-36J48D01*
G01*
X1213Y2529D02*
G03*
X1213Y2432I35J-49D01*
G01*
X3795Y3538D02*
G03*
X3795Y3352I0J-93D01*
G01*
X3987Y3353D02*
G03*
X3987Y3538I0J93D01*
G01*
X2732Y3851D02*
G03*
X2732Y3851I-157J0D01*
G01*
X2388Y4320D02*
G03*
X1812Y4320I-288J-65D01*
G01*
X1812Y4190D02*
G03*
X2388Y4190I288J65D01*
G01*
X1592Y4029D02*
G03*
X1592Y4029I-157J0D01*
G01*
X960Y1683D02*
X1549D01*
X960Y1063D02*
Y1683D01*
Y1063D02*
X1550D01*
Y1666D02*
Y1683D01*
Y1131D02*
Y1167D01*
Y1063D02*
Y1078D01*
Y1219D02*
Y1528D01*
Y1577D02*
Y1616D01*
X960Y1683D02*
Y2303D01*
X1550Y2286D02*
Y2303D01*
X960D02*
X1550D01*
Y1751D02*
Y1787D01*
Y1683D02*
Y1698D01*
Y1839D02*
Y2148D01*
Y2197D02*
Y2236D01*
X1997Y1465D02*
X2036D01*
X2085D02*
X2394D01*
X2535D02*
X2550D01*
X2446D02*
X2482D01*
X1930Y875D02*
Y1465D01*
X1947D01*
X2550Y875D02*
Y1465D01*
X1930Y875D02*
X2550D01*
X2726Y1465D02*
X2765D01*
X2814D02*
X3123D01*
X3264D02*
X3279D01*
X3175D02*
X3211D01*
X2659Y875D02*
Y1465D01*
X2676D01*
X3279Y875D02*
Y1465D01*
X2659Y875D02*
X3279D01*
X3454Y1465D02*
X3493D01*
X3542D02*
X3851D01*
X3992D02*
X4007D01*
X3903D02*
X3939D01*
X3387Y875D02*
Y1465D01*
X3404D01*
X4007Y875D02*
Y1465D01*
X3387Y875D02*
X4007D01*
X4182Y1465D02*
X4221D01*
X4270D02*
X4579D01*
X4720D02*
X4735D01*
X4631D02*
X4667D01*
X4115Y875D02*
Y1465D01*
X4132D01*
X4735Y875D02*
Y1465D01*
X4115Y875D02*
X4735D01*
X4911Y1465D02*
X4950D01*
X4999D02*
X5308D01*
X5449D02*
X5464D01*
X5360D02*
X5396D01*
X4844Y875D02*
Y1465D01*
X4861D01*
X5464Y875D02*
Y1465D01*
X4844Y875D02*
X5464D01*
X3795Y3538D02*
X3987D01*
X3795Y3352D02*
X3987D01*
X2475Y3730D02*
X2675D01*
X2941Y4058D02*
Y4193D01*
X2659Y4058D02*
Y4193D01*
X2941D01*
X2659Y4058D02*
X2941D01*
X1850Y4502D02*
X2350D01*
X2349Y4501D02*
X2350Y4502D01*
X2349Y4002D02*
X2350Y4132D01*
X1850Y4002D02*
X2349D01*
X1850D02*
Y4135D01*
X2349Y4501D02*
X2350Y4372D01*
X1850Y4370D02*
Y4502D01*
X2454Y4355D02*
X2455Y4320D01*
X1745Y4155D02*
Y4190D01*
X2455D02*
X2456Y4155D01*
X1745Y4320D02*
X1746Y4355D01*
Y4356D01*
X1930Y4495D01*
X1745Y4155D02*
X1925Y4020D01*
X2285Y4025D02*
X2456Y4155D01*
X2300Y4470D02*
X2454Y4355D01*
X1335Y4150D02*
X1535D01*
X5036Y2994D02*
Y3034D01*
X5026Y3044D01*
X5006D01*
X4996Y3034D01*
Y2994D01*
X5006Y2984D01*
X5026D01*
X5016Y3004D02*
X5036Y2984D01*
X5026D02*
X5036Y2994D01*
X5056Y2984D02*
X5076D01*
X5066D01*
Y3044D01*
X5056Y3034D01*
X5146Y2984D02*
X5106D01*
X5146Y3024D01*
Y3034D01*
X5136Y3044D01*
X5116D01*
X5106Y3034D01*
X2685Y2885D02*
Y2935D01*
X2675Y2945D01*
X2655D01*
X2645Y2935D01*
Y2885D01*
X2625D02*
X2585D01*
Y2895D01*
X2625Y2935D01*
Y2945D01*
X2080Y2355D02*
Y2395D01*
X2070Y2405D01*
X2050D01*
X2040Y2395D01*
Y2355D01*
X2050Y2345D01*
X2070D01*
X2060Y2365D02*
X2080Y2345D01*
X2070D02*
X2080Y2355D01*
X2100Y2345D02*
X2120D01*
X2110D01*
Y2405D01*
X2100Y2395D01*
X5240Y2995D02*
Y3035D01*
X5230Y3045D01*
X5210D01*
X5200Y3035D01*
Y2995D01*
X5210Y2985D01*
X5230D01*
X5220Y3005D02*
X5240Y2985D01*
X5230D02*
X5240Y2995D01*
X5260Y2985D02*
X5280D01*
X5270D01*
Y3045D01*
X5260Y3035D01*
X5310Y2985D02*
X5330D01*
X5320D01*
Y3045D01*
X5310Y3035D01*
X4820Y2605D02*
X4810Y2595D01*
Y2575D01*
X4820Y2565D01*
X4830D01*
X4840Y2575D01*
Y2595D01*
X4850Y2605D01*
X4860D01*
X4870Y2595D01*
Y2575D01*
X4860Y2565D01*
X4870Y2625D02*
Y2645D01*
Y2635D01*
X4810D01*
X4820Y2625D01*
X980Y3940D02*
X1040D01*
Y3970D01*
X1030Y3980D01*
X990D01*
X980Y3970D01*
Y3940D01*
X1040Y4040D02*
Y4000D01*
X1000Y4040D01*
X990D01*
X980Y4030D01*
Y4010D01*
X990Y4000D01*
X2995Y4140D02*
Y4100D01*
X3025D01*
Y4120D01*
Y4100D01*
X3055D01*
Y4160D02*
Y4180D01*
Y4170D01*
X2995D01*
X3005Y4160D01*
X2335Y3750D02*
X2285D01*
X2275Y3740D01*
Y3720D01*
X2285Y3710D01*
X2335D01*
X2325Y3690D02*
X2335Y3680D01*
Y3660D01*
X2325Y3650D01*
X2315D01*
X2305Y3660D01*
Y3670D01*
Y3660D01*
X2295Y3650D01*
X2285D01*
X2275Y3660D01*
Y3680D01*
X2285Y3690D01*
X2115Y2755D02*
X2105Y2765D01*
X2085D01*
X2075Y2755D01*
Y2715D01*
X2085Y2705D01*
X2105D01*
X2115Y2715D01*
X2135Y2705D02*
X2155D01*
X2145D01*
Y2765D01*
X2135Y2755D01*
X2185D02*
X2195Y2765D01*
X2215D01*
X2225Y2755D01*
Y2745D01*
X2215Y2735D01*
X2225Y2725D01*
Y2715D01*
X2215Y2705D01*
X2195D01*
X2185Y2715D01*
Y2725D01*
X2195Y2735D01*
X2185Y2745D01*
Y2755D01*
X2195Y2735D02*
X2215D01*
X1740Y3620D02*
Y3680D01*
X1710D01*
X1700Y3670D01*
Y3630D01*
X1710Y3620D01*
X1740D01*
X1680Y3680D02*
X1660D01*
X1670D01*
Y3620D01*
X1680Y3630D01*
X2435Y1720D02*
Y1770D01*
X2425Y1780D01*
X2405D01*
X2395Y1770D01*
Y1720D01*
X2335Y1780D02*
X2375D01*
X2335Y1740D01*
Y1730D01*
X2345Y1720D01*
X2365D01*
X2375Y1730D01*
X2430Y4035D02*
Y3955D01*
X2483D01*
X2510D02*
X2537D01*
X2523D01*
Y4035D01*
X2510Y4022D01*
X1240Y4010D02*
X1230Y4000D01*
Y3980D01*
X1240Y3970D01*
X1280D01*
X1290Y3980D01*
Y4000D01*
X1280Y4010D01*
X1290Y4030D02*
Y4050D01*
Y4040D01*
X1230D01*
X1240Y4030D01*
X2585Y3620D02*
X2595Y3610D01*
X2615D01*
X2625Y3620D01*
Y3660D01*
X2615Y3670D01*
X2595D01*
X2585Y3660D01*
X2535Y3670D02*
Y3610D01*
X2565Y3640D01*
X2525D01*
X4335Y3575D02*
X4325Y3585D01*
X4305D01*
X4295Y3575D01*
Y3535D01*
X4305Y3525D01*
X4325D01*
X4335Y3535D01*
X4355D02*
X4365Y3525D01*
X4385D01*
X4395Y3535D01*
Y3575D01*
X4385Y3585D01*
X4365D01*
X4355Y3575D01*
Y3565D01*
X4365Y3555D01*
X4395D01*
X5460Y3405D02*
X5450Y3395D01*
Y3375D01*
X5460Y3365D01*
X5500D01*
X5510Y3375D01*
Y3395D01*
X5500Y3405D01*
X5510Y3425D02*
Y3445D01*
Y3435D01*
X5450D01*
X5460Y3425D01*
X5510Y3515D02*
Y3475D01*
X5470Y3515D01*
X5460D01*
X5450Y3505D01*
Y3485D01*
X5460Y3475D01*
Y3220D02*
X5450Y3210D01*
Y3190D01*
X5460Y3180D01*
X5500D01*
X5510Y3190D01*
Y3210D01*
X5500Y3220D01*
X5510Y3240D02*
Y3260D01*
Y3250D01*
X5450D01*
X5460Y3240D01*
Y3290D02*
X5450Y3300D01*
Y3320D01*
X5460Y3330D01*
X5470D01*
X5480Y3320D01*
Y3310D01*
Y3320D01*
X5490Y3330D01*
X5500D01*
X5510Y3320D01*
Y3300D01*
X5500Y3290D01*
X5372Y3118D02*
X5362Y3128D01*
X5342D01*
X5332Y3118D01*
Y3078D01*
X5342Y3068D01*
X5362D01*
X5372Y3078D01*
X5392Y3068D02*
X5412D01*
X5402D01*
Y3128D01*
X5392Y3118D01*
X5472Y3068D02*
Y3128D01*
X5442Y3098D01*
X5482D01*
X5035Y3900D02*
X5025Y3910D01*
X5005D01*
X4995Y3900D01*
Y3860D01*
X5005Y3850D01*
X5025D01*
X5035Y3860D01*
X5055Y3850D02*
X5075D01*
X5065D01*
Y3910D01*
X5055Y3900D01*
X5145Y3910D02*
X5105D01*
Y3880D01*
X5125Y3890D01*
X5135D01*
X5145Y3880D01*
Y3860D01*
X5135Y3850D01*
X5115D01*
X5105Y3860D01*
X5435Y3635D02*
X5425Y3645D01*
X5405D01*
X5395Y3635D01*
Y3595D01*
X5405Y3585D01*
X5425D01*
X5435Y3595D01*
X5455Y3585D02*
X5475D01*
X5465D01*
Y3645D01*
X5455Y3635D01*
X5545Y3645D02*
X5525Y3635D01*
X5505Y3615D01*
Y3595D01*
X5515Y3585D01*
X5535D01*
X5545Y3595D01*
Y3605D01*
X5535Y3615D01*
X5505D01*
X4265Y2300D02*
X4255Y2310D01*
X4235D01*
X4225Y2300D01*
Y2260D01*
X4235Y2250D01*
X4255D01*
X4265Y2260D01*
X4285Y2250D02*
X4305D01*
X4295D01*
Y2310D01*
X4285Y2300D01*
X4335Y2310D02*
X4375D01*
Y2300D01*
X4335Y2260D01*
Y2250D01*
X4275Y2595D02*
X4265Y2605D01*
X4245D01*
X4235Y2595D01*
Y2555D01*
X4245Y2545D01*
X4265D01*
X4275Y2555D01*
X4295Y2545D02*
X4315D01*
X4305D01*
Y2605D01*
X4295Y2595D01*
X4345Y2555D02*
X4355Y2545D01*
X4375D01*
X4385Y2555D01*
Y2595D01*
X4375Y2605D01*
X4355D01*
X4345Y2595D01*
Y2585D01*
X4355Y2575D01*
X4385D01*
X2165Y2345D02*
X2145D01*
X2155D01*
Y2295D01*
X2145Y2285D01*
X2135D01*
X2125Y2295D01*
X2185Y2285D02*
Y2345D01*
X2215D01*
X2225Y2335D01*
Y2315D01*
X2215Y2305D01*
X2185D01*
X2245Y2285D02*
X2265D01*
X2255D01*
Y2345D01*
X2245Y2335D01*
X2095Y2090D02*
X2075D01*
X2085D01*
Y2040D01*
X2075Y2030D01*
X2065D01*
X2055Y2040D01*
X2115Y2030D02*
Y2090D01*
X2145D01*
X2155Y2080D01*
Y2060D01*
X2145Y2050D01*
X2115D01*
X2215Y2030D02*
X2175D01*
X2215Y2070D01*
Y2080D01*
X2205Y2090D01*
X2185D01*
X2175Y2080D01*
X4330Y4535D02*
X4310D01*
X4320D01*
Y4485D01*
X4310Y4475D01*
X4300D01*
X4290Y4485D01*
X4350Y4475D02*
Y4535D01*
X4380D01*
X4390Y4525D01*
Y4505D01*
X4380Y4495D01*
X4350D01*
X4440Y4475D02*
Y4535D01*
X4410Y4505D01*
X4450D01*
X3096Y3744D02*
X3076D01*
X3086D01*
Y3694D01*
X3076Y3684D01*
X3066D01*
X3056Y3694D01*
X3116Y3684D02*
Y3744D01*
X3146D01*
X3156Y3734D01*
Y3714D01*
X3146Y3704D01*
X3116D01*
X3216Y3744D02*
X3196Y3734D01*
X3176Y3714D01*
Y3694D01*
X3186Y3684D01*
X3206D01*
X3216Y3694D01*
Y3704D01*
X3206Y3714D01*
X3176D01*
X4460Y2310D02*
Y2250D01*
X4500D01*
X4560D02*
X4520D01*
X4560Y2290D01*
Y2300D01*
X4550Y2310D01*
X4530D01*
X4520Y2300D01*
X2460Y2120D02*
Y2180D01*
X2490D01*
X2500Y2170D01*
Y2150D01*
X2490Y2140D01*
X2460D01*
X2480D02*
X2500Y2120D01*
X2550D02*
Y2180D01*
X2520Y2150D01*
X2560D01*
X1766Y2173D02*
Y2233D01*
X1796D01*
X1806Y2223D01*
Y2203D01*
X1796Y2193D01*
X1766D01*
X1786D02*
X1806Y2173D01*
X1866Y2233D02*
X1826D01*
Y2203D01*
X1846Y2213D01*
X1856D01*
X1866Y2203D01*
Y2183D01*
X1856Y2173D01*
X1836D01*
X1826Y2183D01*
X2460Y2230D02*
Y2290D01*
X2490D01*
X2500Y2280D01*
Y2260D01*
X2490Y2250D01*
X2460D01*
X2480D02*
X2500Y2230D01*
X2560Y2290D02*
X2540Y2280D01*
X2520Y2260D01*
Y2240D01*
X2530Y2230D01*
X2550D01*
X2560Y2240D01*
Y2250D01*
X2550Y2260D01*
X2520D01*
X4930Y2015D02*
Y2075D01*
X4960D01*
X4970Y2065D01*
Y2045D01*
X4960Y2035D01*
X4930D01*
X4950D02*
X4970Y2015D01*
X4990Y2075D02*
X5030D01*
Y2065D01*
X4990Y2025D01*
Y2015D01*
X4465Y2010D02*
Y2070D01*
X4495D01*
X4505Y2060D01*
Y2040D01*
X4495Y2030D01*
X4465D01*
X4485D02*
X4505Y2010D01*
X4525Y2020D02*
X4535Y2010D01*
X4555D01*
X4565Y2020D01*
Y2060D01*
X4555Y2070D01*
X4535D01*
X4525Y2060D01*
Y2050D01*
X4535Y2040D01*
X4565D01*
X4245Y2010D02*
Y2070D01*
X4275D01*
X4285Y2060D01*
Y2040D01*
X4275Y2030D01*
X4245D01*
X4265D02*
X4285Y2010D01*
X4305D02*
X4325D01*
X4315D01*
Y2070D01*
X4305Y2060D01*
X4355D02*
X4365Y2070D01*
X4385D01*
X4395Y2060D01*
Y2020D01*
X4385Y2010D01*
X4365D01*
X4355Y2020D01*
Y2060D01*
X4008Y2012D02*
Y2072D01*
X4038D01*
X4048Y2062D01*
Y2042D01*
X4038Y2032D01*
X4008D01*
X4028D02*
X4048Y2012D01*
X4068D02*
X4088D01*
X4078D01*
Y2072D01*
X4068Y2062D01*
X4118Y2012D02*
X4138D01*
X4128D01*
Y2072D01*
X4118Y2062D01*
X3823Y2015D02*
Y2075D01*
X3853D01*
X3863Y2065D01*
Y2045D01*
X3853Y2035D01*
X3823D01*
X3843D02*
X3863Y2015D01*
X3883D02*
X3903D01*
X3893D01*
Y2075D01*
X3883Y2065D01*
X3973Y2015D02*
X3933D01*
X3973Y2055D01*
Y2065D01*
X3963Y2075D01*
X3943D01*
X3933Y2065D01*
X3565Y2110D02*
Y2170D01*
X3595D01*
X3605Y2160D01*
Y2140D01*
X3595Y2130D01*
X3565D01*
X3585D02*
X3605Y2110D01*
X3625D02*
X3645D01*
X3635D01*
Y2170D01*
X3625Y2160D01*
X3675D02*
X3685Y2170D01*
X3705D01*
X3715Y2160D01*
Y2150D01*
X3705Y2140D01*
X3695D01*
X3705D01*
X3715Y2130D01*
Y2120D01*
X3705Y2110D01*
X3685D01*
X3675Y2120D01*
X3392Y2030D02*
Y2090D01*
X3422D01*
X3432Y2080D01*
Y2060D01*
X3422Y2050D01*
X3392D01*
X3412D02*
X3432Y2030D01*
X3452D02*
X3472D01*
X3462D01*
Y2090D01*
X3452Y2080D01*
X3532Y2030D02*
Y2090D01*
X3502Y2060D01*
X3542D01*
X3220Y2105D02*
Y2165D01*
X3250D01*
X3260Y2155D01*
Y2135D01*
X3250Y2125D01*
X3220D01*
X3240D02*
X3260Y2105D01*
X3280D02*
X3300D01*
X3290D01*
Y2165D01*
X3280Y2155D01*
X3370Y2165D02*
X3330D01*
Y2135D01*
X3350Y2145D01*
X3360D01*
X3370Y2135D01*
Y2115D01*
X3360Y2105D01*
X3340D01*
X3330Y2115D01*
X2817Y2030D02*
Y2090D01*
X2847D01*
X2857Y2080D01*
Y2060D01*
X2847Y2050D01*
X2817D01*
X2837D02*
X2857Y2030D01*
X2877D02*
X2897D01*
X2887D01*
Y2090D01*
X2877Y2080D01*
X2967Y2090D02*
X2947Y2080D01*
X2927Y2060D01*
Y2040D01*
X2937Y2030D01*
X2957D01*
X2967Y2040D01*
Y2050D01*
X2957Y2060D01*
X2927D01*
X3005Y2030D02*
Y2090D01*
X3035D01*
X3045Y2080D01*
Y2060D01*
X3035Y2050D01*
X3005D01*
X3025D02*
X3045Y2030D01*
X3065D02*
X3085D01*
X3075D01*
Y2090D01*
X3065Y2080D01*
X3115Y2090D02*
X3155D01*
Y2080D01*
X3115Y2040D01*
Y2030D01*
X2632D02*
Y2090D01*
X2662D01*
X2672Y2080D01*
Y2060D01*
X2662Y2050D01*
X2632D01*
X2652D02*
X2672Y2030D01*
X2692D02*
X2712D01*
X2702D01*
Y2090D01*
X2692Y2080D01*
X2742D02*
X2752Y2090D01*
X2772D01*
X2782Y2080D01*
Y2070D01*
X2772Y2060D01*
X2782Y2050D01*
Y2040D01*
X2772Y2030D01*
X2752D01*
X2742Y2040D01*
Y2050D01*
X2752Y2060D01*
X2742Y2070D01*
Y2080D01*
X2752Y2060D02*
X2772D01*
X2490Y2335D02*
Y2395D01*
X2520D01*
X2530Y2385D01*
Y2365D01*
X2520Y2355D01*
X2490D01*
X2510D02*
X2530Y2335D01*
X2550D02*
X2570D01*
X2560D01*
Y2395D01*
X2550Y2385D01*
X2600Y2345D02*
X2610Y2335D01*
X2630D01*
X2640Y2345D01*
Y2385D01*
X2630Y2395D01*
X2610D01*
X2600Y2385D01*
Y2375D01*
X2610Y2365D01*
X2640D01*
X2670Y2335D02*
Y2395D01*
X2700D01*
X2710Y2385D01*
Y2365D01*
X2700Y2355D01*
X2670D01*
X2690D02*
X2710Y2335D01*
X2770D02*
X2730D01*
X2770Y2375D01*
Y2385D01*
X2760Y2395D01*
X2740D01*
X2730Y2385D01*
X2790D02*
X2800Y2395D01*
X2820D01*
X2830Y2385D01*
Y2345D01*
X2820Y2335D01*
X2800D01*
X2790Y2345D01*
Y2385D01*
X2245Y3410D02*
X2305D01*
Y3380D01*
X2295Y3370D01*
X2275D01*
X2265Y3380D01*
Y3410D01*
Y3390D02*
X2245Y3370D01*
Y3310D02*
Y3350D01*
X2285Y3310D01*
X2295D01*
X2305Y3320D01*
Y3340D01*
X2295Y3350D01*
X2245Y3250D02*
Y3290D01*
X2285Y3250D01*
X2295D01*
X2305Y3260D01*
Y3280D01*
X2295Y3290D01*
X2245Y3230D02*
X2305D01*
Y3200D01*
X2295Y3190D01*
X2275D01*
X2265Y3200D01*
Y3230D01*
Y3210D02*
X2245Y3190D01*
Y3130D02*
Y3170D01*
X2285Y3130D01*
X2295D01*
X2305Y3140D01*
Y3160D01*
X2295Y3170D01*
Y3110D02*
X2305Y3100D01*
Y3080D01*
X2295Y3070D01*
X2285D01*
X2275Y3080D01*
Y3090D01*
Y3080D01*
X2265Y3070D01*
X2255D01*
X2245Y3080D01*
Y3100D01*
X2255Y3110D01*
X2243Y2707D02*
Y2767D01*
X2273D01*
X2283Y2757D01*
Y2737D01*
X2273Y2727D01*
X2243D01*
X2263D02*
X2283Y2707D01*
X2343D02*
X2303D01*
X2343Y2747D01*
Y2757D01*
X2333Y2767D01*
X2313D01*
X2303Y2757D01*
X2393Y2707D02*
Y2767D01*
X2363Y2737D01*
X2403D01*
X1890Y2765D02*
Y2825D01*
X1920D01*
X1930Y2815D01*
Y2795D01*
X1920Y2785D01*
X1890D01*
X1910D02*
X1930Y2765D01*
X1990D02*
X1950D01*
X1990Y2805D01*
Y2815D01*
X1980Y2825D01*
X1960D01*
X1950Y2815D01*
X2050Y2825D02*
X2010D01*
Y2795D01*
X2030Y2805D01*
X2040D01*
X2050Y2795D01*
Y2775D01*
X2040Y2765D01*
X2020D01*
X2010Y2775D01*
X1480Y2360D02*
Y2420D01*
X1510D01*
X1520Y2410D01*
Y2390D01*
X1510Y2380D01*
X1480D01*
X1500D02*
X1520Y2360D01*
X1580D02*
X1540D01*
X1580Y2400D01*
Y2410D01*
X1570Y2420D01*
X1550D01*
X1540Y2410D01*
X1640Y2420D02*
X1620Y2410D01*
X1600Y2390D01*
Y2370D01*
X1610Y2360D01*
X1630D01*
X1640Y2370D01*
Y2380D01*
X1630Y2390D01*
X1600D01*
X1395Y3130D02*
Y3190D01*
X1425D01*
X1435Y3180D01*
Y3160D01*
X1425Y3150D01*
X1395D01*
X1415D02*
X1435Y3130D01*
X1495D02*
X1455D01*
X1495Y3170D01*
Y3180D01*
X1485Y3190D01*
X1465D01*
X1455Y3180D01*
X1515Y3190D02*
X1555D01*
Y3180D01*
X1515Y3140D01*
Y3130D01*
X5145Y2740D02*
Y2800D01*
X5175D01*
X5185Y2790D01*
Y2770D01*
X5175Y2760D01*
X5145D01*
X5165D02*
X5185Y2740D01*
X5245D02*
X5205D01*
X5245Y2780D01*
Y2790D01*
X5235Y2800D01*
X5215D01*
X5205Y2790D01*
X5265D02*
X5275Y2800D01*
X5295D01*
X5305Y2790D01*
Y2780D01*
X5295Y2770D01*
X5305Y2760D01*
Y2750D01*
X5295Y2740D01*
X5275D01*
X5265Y2750D01*
Y2760D01*
X5275Y2770D01*
X5265Y2780D01*
Y2790D01*
X5275Y2770D02*
X5295D01*
X5150Y2310D02*
Y2370D01*
X5180D01*
X5190Y2360D01*
Y2340D01*
X5180Y2330D01*
X5150D01*
X5170D02*
X5190Y2310D01*
X5250D02*
X5210D01*
X5250Y2350D01*
Y2360D01*
X5240Y2370D01*
X5220D01*
X5210Y2360D01*
X5270Y2320D02*
X5280Y2310D01*
X5300D01*
X5310Y2320D01*
Y2360D01*
X5300Y2370D01*
X5280D01*
X5270Y2360D01*
Y2350D01*
X5280Y2340D01*
X5310D01*
X4960Y2740D02*
Y2800D01*
X4990D01*
X5000Y2790D01*
Y2770D01*
X4990Y2760D01*
X4960D01*
X4980D02*
X5000Y2740D01*
X5020Y2790D02*
X5030Y2800D01*
X5050D01*
X5060Y2790D01*
Y2780D01*
X5050Y2770D01*
X5040D01*
X5050D01*
X5060Y2760D01*
Y2750D01*
X5050Y2740D01*
X5030D01*
X5020Y2750D01*
X5080Y2790D02*
X5090Y2800D01*
X5110D01*
X5120Y2790D01*
Y2750D01*
X5110Y2740D01*
X5090D01*
X5080Y2750D01*
Y2790D01*
X4985Y2390D02*
X4925D01*
Y2420D01*
X4935Y2430D01*
X4955D01*
X4965Y2420D01*
Y2390D01*
Y2410D02*
X4985Y2430D01*
X4935Y2450D02*
X4925Y2460D01*
Y2480D01*
X4935Y2490D01*
X4945D01*
X4955Y2480D01*
Y2470D01*
Y2480D01*
X4965Y2490D01*
X4975D01*
X4985Y2480D01*
Y2460D01*
X4975Y2450D01*
X4985Y2510D02*
Y2530D01*
Y2520D01*
X4925D01*
X4935Y2510D01*
X4160Y2480D02*
Y2530D01*
X4150Y2540D01*
X4130D01*
X4120Y2530D01*
Y2480D01*
X4100Y2540D02*
X4080D01*
X4090D01*
Y2480D01*
X4100Y2490D01*
X1175Y2985D02*
Y2935D01*
X1185Y2925D01*
X1205D01*
X1215Y2935D01*
Y2985D01*
X1275D02*
X1255Y2975D01*
X1235Y2955D01*
Y2935D01*
X1245Y2925D01*
X1265D01*
X1275Y2935D01*
Y2945D01*
X1265Y2955D01*
X1235D01*
X3855Y3620D02*
Y3610D01*
X3875Y3590D01*
X3895Y3610D01*
Y3620D01*
X3875Y3590D02*
Y3560D01*
X3915D02*
X3935D01*
X3925D01*
Y3620D01*
X3915Y3610D01*
X4775Y1335D02*
X4765Y1325D01*
Y1305D01*
X4775Y1295D01*
X4815D01*
X4825Y1305D01*
Y1325D01*
X4815Y1335D01*
X4765Y1385D02*
Y1365D01*
X4775Y1355D01*
X4815D01*
X4825Y1365D01*
Y1385D01*
X4815Y1395D01*
X4775D01*
X4765Y1385D01*
X4825Y1415D02*
X4765D01*
X4825Y1455D01*
X4765D01*
X4775Y1475D02*
X4765Y1485D01*
Y1505D01*
X4775Y1515D01*
X4785D01*
X4795Y1505D01*
Y1495D01*
Y1505D01*
X4805Y1515D01*
X4815D01*
X4825Y1505D01*
Y1485D01*
X4815Y1475D01*
X4050Y1335D02*
X4040Y1325D01*
Y1305D01*
X4050Y1295D01*
X4090D01*
X4100Y1305D01*
Y1325D01*
X4090Y1335D01*
X4040Y1385D02*
Y1365D01*
X4050Y1355D01*
X4090D01*
X4100Y1365D01*
Y1385D01*
X4090Y1395D01*
X4050D01*
X4040Y1385D01*
X4100Y1415D02*
X4040D01*
X4100Y1455D01*
X4040D01*
X4100Y1505D02*
X4040D01*
X4070Y1475D01*
Y1515D01*
X3320Y1335D02*
X3310Y1325D01*
Y1305D01*
X3320Y1295D01*
X3360D01*
X3370Y1305D01*
Y1325D01*
X3360Y1335D01*
X3310Y1385D02*
Y1365D01*
X3320Y1355D01*
X3360D01*
X3370Y1365D01*
Y1385D01*
X3360Y1395D01*
X3320D01*
X3310Y1385D01*
X3370Y1415D02*
X3310D01*
X3370Y1455D01*
X3310D01*
Y1515D02*
Y1475D01*
X3340D01*
X3330Y1495D01*
Y1505D01*
X3340Y1515D01*
X3360D01*
X3370Y1505D01*
Y1485D01*
X3360Y1475D01*
X2590Y1335D02*
X2580Y1325D01*
Y1305D01*
X2590Y1295D01*
X2630D01*
X2640Y1305D01*
Y1325D01*
X2630Y1335D01*
X2580Y1385D02*
Y1365D01*
X2590Y1355D01*
X2630D01*
X2640Y1365D01*
Y1385D01*
X2630Y1395D01*
X2590D01*
X2580Y1385D01*
X2640Y1415D02*
X2580D01*
X2640Y1455D01*
X2580D01*
Y1515D02*
X2590Y1495D01*
X2610Y1475D01*
X2630D01*
X2640Y1485D01*
Y1505D01*
X2630Y1515D01*
X2620D01*
X2610Y1505D01*
Y1475D01*
X1855Y1335D02*
X1845Y1325D01*
Y1305D01*
X1855Y1295D01*
X1895D01*
X1905Y1305D01*
Y1325D01*
X1895Y1335D01*
X1845Y1385D02*
Y1365D01*
X1855Y1355D01*
X1895D01*
X1905Y1365D01*
Y1385D01*
X1895Y1395D01*
X1855D01*
X1845Y1385D01*
X1905Y1415D02*
X1845D01*
X1905Y1455D01*
X1845D01*
Y1475D02*
Y1515D01*
X1855D01*
X1895Y1475D01*
X1905D01*
X2020Y1720D02*
Y1780D01*
X1990D01*
X1980Y1770D01*
Y1730D01*
X1990Y1720D01*
X2020D01*
X1960Y1780D02*
X1940D01*
X1950D01*
Y1720D01*
X1960Y1730D01*
X1910Y1770D02*
X1900Y1780D01*
X1880D01*
X1870Y1770D01*
Y1730D01*
X1880Y1720D01*
X1900D01*
X1910Y1730D01*
Y1740D01*
X1900Y1750D01*
X1870D01*
X5130Y3144D02*
Y3194D01*
X5120Y3204D01*
X5100D01*
X5090Y3194D01*
Y3144D01*
X5040Y3204D02*
Y3144D01*
X5070Y3174D01*
X5030D01*
X4520Y2985D02*
Y2935D01*
X4530Y2925D01*
X4550D01*
X4560Y2935D01*
Y2985D01*
X4620D02*
X4580D01*
Y2955D01*
X4600Y2965D01*
X4610D01*
X4620Y2955D01*
Y2935D01*
X4610Y2925D01*
X4590D01*
X4580Y2935D01*
X4653Y2015D02*
Y2075D01*
X4683D01*
X4693Y2065D01*
Y2045D01*
X4683Y2035D01*
X4653D01*
X4673D02*
X4693Y2015D01*
X4713Y2065D02*
X4723Y2075D01*
X4743D01*
X4753Y2065D01*
Y2055D01*
X4743Y2045D01*
X4753Y2035D01*
Y2025D01*
X4743Y2015D01*
X4723D01*
X4713Y2025D01*
Y2035D01*
X4723Y2045D01*
X4713Y2055D01*
Y2065D01*
X4723Y2045D02*
X4743D01*
X1095Y2405D02*
X1155D01*
Y2435D01*
X1145Y2445D01*
X1105D01*
X1095Y2435D01*
Y2405D01*
X1155Y2505D02*
Y2465D01*
X1115Y2505D01*
X1105D01*
X1095Y2495D01*
Y2475D01*
X1105Y2465D01*
Y2525D02*
X1095Y2535D01*
Y2555D01*
X1105Y2565D01*
X1145D01*
X1155Y2555D01*
Y2535D01*
X1145Y2525D01*
X1105D01*
X1295Y2315D02*
X1355D01*
Y2345D01*
X1345Y2355D01*
X1305D01*
X1295Y2345D01*
Y2315D01*
X1355Y2415D02*
Y2375D01*
X1315Y2415D01*
X1305D01*
X1295Y2405D01*
Y2385D01*
X1305Y2375D01*
X1355Y2435D02*
Y2455D01*
Y2445D01*
X1295D01*
X1305Y2435D01*
X1095Y2715D02*
X1155D01*
Y2745D01*
X1145Y2755D01*
X1105D01*
X1095Y2745D01*
Y2715D01*
X1155Y2815D02*
Y2775D01*
X1115Y2815D01*
X1105D01*
X1095Y2805D01*
Y2785D01*
X1105Y2775D01*
X1155Y2875D02*
Y2835D01*
X1115Y2875D01*
X1105D01*
X1095Y2865D01*
Y2845D01*
X1105Y2835D01*
X2472Y2728D02*
Y2768D01*
X2462Y2778D01*
X2442D01*
X2432Y2768D01*
Y2728D01*
X2442Y2718D01*
X2462D01*
X2452Y2738D02*
X2472Y2718D01*
X2462D02*
X2472Y2728D01*
X2532Y2718D02*
X2492D01*
X2532Y2758D01*
Y2768D01*
X2522Y2778D01*
X2502D01*
X2492Y2768D01*
X2152Y2928D02*
Y2968D01*
X2142Y2978D01*
X2122D01*
X2112Y2968D01*
Y2928D01*
X2122Y2918D01*
X2142D01*
X2132Y2938D02*
X2152Y2918D01*
X2142D02*
X2152Y2928D01*
X2202Y2918D02*
Y2978D01*
X2172Y2948D01*
X2212D01*
X1860Y2925D02*
Y2965D01*
X1850Y2975D01*
X1830D01*
X1820Y2965D01*
Y2925D01*
X1830Y2915D01*
X1850D01*
X1840Y2935D02*
X1860Y2915D01*
X1850D02*
X1860Y2925D01*
X1920Y2975D02*
X1880D01*
Y2945D01*
X1900Y2955D01*
X1910D01*
X1920Y2945D01*
Y2925D01*
X1910Y2915D01*
X1890D01*
X1880Y2925D01*
X1575Y2815D02*
Y2855D01*
X1565Y2865D01*
X1545D01*
X1535Y2855D01*
Y2815D01*
X1545Y2805D01*
X1565D01*
X1555Y2825D02*
X1575Y2805D01*
X1565D02*
X1575Y2815D01*
X1635Y2865D02*
X1615Y2855D01*
X1595Y2835D01*
Y2815D01*
X1605Y2805D01*
X1625D01*
X1635Y2815D01*
Y2825D01*
X1625Y2835D01*
X1595D01*
X1726Y2809D02*
Y2849D01*
X1716Y2859D01*
X1696D01*
X1686Y2849D01*
Y2809D01*
X1696Y2799D01*
X1716D01*
X1706Y2819D02*
X1726Y2799D01*
X1716D02*
X1726Y2809D01*
X1746Y2859D02*
X1786D01*
Y2849D01*
X1746Y2809D01*
Y2799D01*
X1300Y2660D02*
Y2700D01*
X1290Y2710D01*
X1270D01*
X1260Y2700D01*
Y2660D01*
X1270Y2650D01*
X1290D01*
X1280Y2670D02*
X1300Y2650D01*
X1290D02*
X1300Y2660D01*
X1320Y2700D02*
X1330Y2710D01*
X1350D01*
X1360Y2700D01*
Y2690D01*
X1350Y2680D01*
X1360Y2670D01*
Y2660D01*
X1350Y2650D01*
X1330D01*
X1320Y2660D01*
Y2670D01*
X1330Y2680D01*
X1320Y2690D01*
Y2700D01*
X1330Y2680D02*
X1350D01*
X1700Y2345D02*
Y2385D01*
X1690Y2395D01*
X1670D01*
X1660Y2385D01*
Y2345D01*
X1670Y2335D01*
X1690D01*
X1680Y2355D02*
X1700Y2335D01*
X1690D02*
X1700Y2345D01*
X1720D02*
X1730Y2335D01*
X1750D01*
X1760Y2345D01*
Y2385D01*
X1750Y2395D01*
X1730D01*
X1720Y2385D01*
Y2375D01*
X1730Y2365D01*
X1760D01*
X1540Y2910D02*
Y2950D01*
X1530Y2960D01*
X1510D01*
X1500Y2950D01*
Y2910D01*
X1510Y2900D01*
X1530D01*
X1520Y2920D02*
X1540Y2900D01*
X1530D02*
X1540Y2910D01*
X1560Y2900D02*
X1580D01*
X1570D01*
Y2960D01*
X1560Y2950D01*
X1610D02*
X1620Y2960D01*
X1640D01*
X1650Y2950D01*
Y2910D01*
X1640Y2900D01*
X1620D01*
X1610Y2910D01*
Y2950D01*
X4625Y2600D02*
X4615Y2590D01*
Y2570D01*
X4625Y2560D01*
X4635D01*
X4645Y2570D01*
Y2590D01*
X4655Y2600D01*
X4665D01*
X4675Y2590D01*
Y2570D01*
X4665Y2560D01*
X4675Y2660D02*
Y2620D01*
X4635Y2660D01*
X4625D01*
X4615Y2650D01*
Y2630D01*
X4625Y2620D01*
X1587Y1625D02*
X1577Y1615D01*
Y1595D01*
X1587Y1585D01*
X1627D01*
X1637Y1595D01*
Y1615D01*
X1627Y1625D01*
X1577Y1675D02*
Y1655D01*
X1587Y1645D01*
X1627D01*
X1637Y1655D01*
Y1675D01*
X1627Y1685D01*
X1587D01*
X1577Y1675D01*
X1637Y1705D02*
X1577D01*
X1637Y1745D01*
X1577D01*
X1637Y1765D02*
Y1785D01*
Y1775D01*
X1577D01*
X1587Y1765D01*
X1090Y3655D02*
X1080Y3665D01*
X1060D01*
X1050Y3655D01*
Y3615D01*
X1060Y3605D01*
X1080D01*
X1090Y3615D01*
X1140Y3665D02*
X1120D01*
X1110Y3655D01*
Y3615D01*
X1120Y3605D01*
X1140D01*
X1150Y3615D01*
Y3655D01*
X1140Y3665D01*
X1170Y3605D02*
Y3665D01*
X1210Y3605D01*
Y3665D01*
X1270Y3605D02*
X1230D01*
X1270Y3645D01*
Y3655D01*
X1260Y3665D01*
X1240D01*
X1230Y3655D01*
X4120Y3530D02*
Y3590D01*
X4150D01*
X4160Y3580D01*
Y3560D01*
X4150Y3550D01*
X4120D01*
X4140D02*
X4160Y3530D01*
X4180D02*
X4200D01*
X4190D01*
Y3590D01*
X4180Y3580D01*
X2640Y2725D02*
Y2765D01*
X2630Y2775D01*
X2610D01*
X2600Y2765D01*
Y2725D01*
X2610Y2715D01*
X2630D01*
X2620Y2735D02*
X2640Y2715D01*
X2630D02*
X2640Y2725D01*
X2660Y2765D02*
X2670Y2775D01*
X2690D01*
X2700Y2765D01*
Y2755D01*
X2690Y2745D01*
X2680D01*
X2690D01*
X2700Y2735D01*
Y2725D01*
X2690Y2715D01*
X2670D01*
X2660Y2725D01*
X1520Y3570D02*
X1530Y3560D01*
X1550D01*
X1560Y3570D01*
Y3610D01*
X1550Y3620D01*
X1530D01*
X1520Y3610D01*
X1460Y3620D02*
X1500D01*
X1460Y3580D01*
Y3570D01*
X1470Y3560D01*
X1490D01*
X1500Y3570D01*
X2640Y4260D02*
X2600D01*
X2640Y4300D01*
Y4310D01*
X2630Y4320D01*
X2610D01*
X2600Y4310D01*
X2660D02*
X2670Y4320D01*
X2690D01*
X2700Y4310D01*
Y4270D01*
X2690Y4260D01*
X2670D01*
X2660Y4270D01*
Y4310D01*
X2720Y4260D02*
X2740D01*
X2730D01*
Y4320D01*
X2720Y4310D01*
X2810Y4260D02*
X2770D01*
X2810Y4300D01*
Y4310D01*
X2800Y4320D01*
X2780D01*
X2770Y4310D01*
X2830Y4260D02*
Y4270D01*
X2840D01*
Y4260D01*
X2830D01*
X2880Y4310D02*
X2890Y4320D01*
X2910D01*
X2920Y4310D01*
Y4270D01*
X2910Y4260D01*
X2890D01*
X2880Y4270D01*
Y4310D01*
X2940D02*
X2950Y4320D01*
X2970D01*
X2980Y4310D01*
Y4300D01*
X2970Y4290D01*
X2960D01*
X2970D01*
X2980Y4280D01*
Y4270D01*
X2970Y4260D01*
X2950D01*
X2940Y4270D01*
X3000Y4260D02*
Y4270D01*
X3010D01*
Y4260D01*
X3000D01*
X3090D02*
X3050D01*
X3090Y4300D01*
Y4310D01*
X3080Y4320D01*
X3060D01*
X3050Y4310D01*
X3110D02*
X3120Y4320D01*
X3140D01*
X3150Y4310D01*
Y4270D01*
X3140Y4260D01*
X3120D01*
X3110Y4270D01*
Y4310D01*
X3170Y4260D02*
Y4270D01*
X3180D01*
Y4260D01*
X3170D01*
X2550Y4430D02*
X2570D01*
X2560D01*
Y4370D01*
X2550D01*
X2570D01*
X2600D02*
Y4410D01*
X2630D01*
X2640Y4400D01*
Y4370D01*
X2700Y4430D02*
Y4370D01*
X2670D01*
X2660Y4380D01*
Y4400D01*
X2670Y4410D01*
X2700D01*
X2720Y4370D02*
Y4410D01*
X2740Y4430D01*
X2760Y4410D01*
Y4370D01*
Y4400D01*
X2720D01*
X2780Y4370D02*
X2800D01*
X2790D01*
Y4430D01*
X2780D01*
X2840Y4410D02*
X2860D01*
X2870Y4400D01*
Y4370D01*
X2840D01*
X2830Y4380D01*
X2840Y4390D01*
X2870D01*
X2890Y4410D02*
Y4370D01*
Y4390D01*
X2900Y4400D01*
X2910Y4410D01*
X2920D01*
X2950Y4370D02*
Y4410D01*
X2960D01*
X2970Y4400D01*
Y4370D01*
Y4400D01*
X2980Y4410D01*
X2990Y4400D01*
Y4370D01*
X3010Y4430D02*
X3030D01*
X3020D01*
Y4370D01*
X3010D01*
X3030D01*
X3070D02*
Y4420D01*
Y4400D01*
X3060D01*
X3080D01*
X3070D01*
Y4420D01*
X3080Y4430D01*
X3150Y4370D02*
X3110D01*
X3150Y4410D01*
Y4420D01*
X3140Y4430D01*
X3120D01*
X3110Y4420D01*
X3230Y4410D02*
X3250Y4370D01*
X3270Y4410D01*
X3290Y4370D02*
X3310D01*
X3300D01*
Y4430D01*
X3290Y4420D01*
X3340Y4370D02*
Y4380D01*
X3350D01*
Y4370D01*
X3340D01*
X3390Y4420D02*
X3400Y4430D01*
X3420D01*
X3430Y4420D01*
Y4380D01*
X3420Y4370D01*
X3400D01*
X3390Y4380D01*
Y4420D01*
X2605Y4545D02*
X2625D01*
X2615D01*
Y4485D01*
X2605D01*
X2625D01*
X2655D02*
Y4525D01*
X2685D01*
X2695Y4515D01*
Y4485D01*
X2755Y4545D02*
Y4485D01*
X2725D01*
X2715Y4495D01*
Y4515D01*
X2725Y4525D01*
X2755D01*
X2785D02*
X2805D01*
X2815Y4515D01*
Y4485D01*
X2785D01*
X2775Y4495D01*
X2785Y4505D01*
X2815D01*
X2835Y4485D02*
X2865D01*
X2875Y4495D01*
X2865Y4505D01*
X2845D01*
X2835Y4515D01*
X2845Y4525D01*
X2875D01*
X2905Y4485D02*
X2925D01*
X2935Y4495D01*
Y4515D01*
X2925Y4525D01*
X2905D01*
X2895Y4515D01*
Y4495D01*
X2905Y4485D01*
X2965D02*
Y4535D01*
Y4515D01*
X2955D01*
X2975D01*
X2965D01*
Y4535D01*
X2975Y4545D01*
X3015Y4535D02*
Y4525D01*
X3005D01*
X3025D01*
X3015D01*
Y4495D01*
X3025Y4485D01*
X3115Y4545D02*
Y4485D01*
X3145D01*
X3155Y4495D01*
Y4505D01*
Y4515D01*
X3145Y4525D01*
X3115D01*
X3185Y4535D02*
Y4525D01*
X3175D01*
X3195D01*
X3185D01*
Y4495D01*
X3195Y4485D01*
X3225D02*
Y4495D01*
X3235D01*
Y4485D01*
X3225D01*
X1450Y2376D02*
X1440D01*
Y2386D01*
X1450D01*
Y2376D01*
X1300D02*
X1290D01*
Y2386D01*
X1300D01*
Y2376D01*
X2515Y3970D02*
Y3930D01*
X2535Y3950D02*
X2495D01*
X1495Y3910D02*
Y3950D01*
X1475Y3930D02*
X1515D01*
D73*
X5322Y2819D02*
G03*
X5322Y2819I-5J0D01*
G01*
X5106Y2818D02*
G03*
X5106Y2818I-5J0D01*
G01*
X2832Y2972D02*
G03*
X2832Y2972I-5J0D01*
G01*
X2124Y2540D02*
G03*
X2124Y2540I-5J0D01*
G01*
X1394Y2927D02*
G03*
X1394Y2927I-5J0D01*
G01*
X1781Y2383D02*
G03*
X1781Y2383I-5J0D01*
G01*
X1507Y2746D02*
G03*
X1507Y2746I-5J0D01*
G01*
X1817D02*
G03*
X1817Y2746I-5J0D01*
G01*
X1662D02*
G03*
X1662Y2746I-5J0D01*
G01*
X2253Y3103D02*
G03*
X2253Y3103I-5J0D01*
G01*
X2577Y2691D02*
G03*
X2577Y2691I-5J0D01*
G01*
X4542Y3135D02*
G03*
X4542Y3135I-5J0D01*
G01*
X5188Y3247D02*
G03*
X5188Y3247I-5J0D01*
G01*
X2057Y1807D02*
G03*
X2057Y1807I-5J0D01*
G01*
X4104Y2591D02*
G03*
X4104Y2591I-5J0D01*
G01*
X2487Y1807D02*
G03*
X2487Y1807I-5J0D01*
G01*
X2732Y2691D02*
G03*
X2732Y2691I-5J0D01*
G01*
D74*
X2670Y2975D02*
G03*
X2620Y2975I-25J0D01*
G01*
X5095Y3258D02*
G03*
X5065Y3258I-15J0D01*
G01*
X1964Y1817D02*
G03*
X1936Y1817I-14J0D01*
G01*
X1149Y3119D02*
G03*
X1321Y3119I86J-34D01*
G01*
X2394Y1817D02*
G03*
X2366Y1817I-14J0D01*
G01*
X2253Y3730D02*
G03*
X2253Y3680I0J-25D01*
G01*
X5223Y2927D02*
Y2945D01*
Y2845D02*
Y2863D01*
Y2945D02*
X5282D01*
X5223Y2845D02*
X5282D01*
X5009Y2946D02*
X5067D01*
X5009Y2844D02*
X5067D01*
X5009D02*
Y2862D01*
Y2928D02*
Y2946D01*
X2670Y2975D02*
X2769D01*
X2521D02*
X2620D01*
X2521Y3485D02*
X2769D01*
Y2975D02*
Y3485D01*
X2521Y2975D02*
Y3485D01*
X1881Y2343D02*
X2019D01*
X1881Y2067D02*
X2019D01*
Y2260D02*
Y2343D01*
Y2067D02*
Y2150D01*
X1881Y2260D02*
Y2343D01*
Y2067D02*
Y2150D01*
X2079Y2514D02*
X2221D01*
X2079Y2416D02*
Y2514D01*
Y2416D02*
X2221D01*
Y2514D01*
X4885Y2400D02*
Y2800D01*
X4785Y2400D02*
X4885D01*
X4785D02*
Y2800D01*
X4885D01*
X4835D02*
Y2860D01*
Y2340D02*
Y2400D01*
X4110Y3504D02*
X4200D01*
X4110Y3346D02*
X4200D01*
Y3441D02*
Y3504D01*
Y3346D02*
Y3409D01*
X4110Y3441D02*
Y3504D01*
Y3346D02*
Y3409D01*
X1550Y3591D02*
X1550Y3501D01*
X975Y3591D02*
X1550D01*
X975Y3237D02*
Y3591D01*
X1550Y3237D02*
Y3327D01*
X1475Y3237D02*
X1550D01*
X975D02*
X1302D01*
X4649Y2341D02*
Y2401D01*
Y2801D02*
Y2861D01*
X4599Y2801D02*
X4699D01*
X4599Y2401D02*
Y2801D01*
Y2401D02*
X4699D01*
Y2801D01*
X1423Y2799D02*
X1481D01*
X1423Y2901D02*
X1481D01*
Y2883D02*
Y2901D01*
Y2799D02*
Y2817D01*
X1684Y2511D02*
X1742D01*
X1684Y2409D02*
X1742D01*
X1684D02*
Y2427D01*
Y2493D02*
Y2511D01*
X1374Y2654D02*
Y2712D01*
X1476Y2654D02*
Y2712D01*
X1458Y2654D02*
X1476D01*
X1374D02*
X1392D01*
X1684D02*
Y2712D01*
X1786Y2654D02*
Y2712D01*
X1768Y2654D02*
X1786D01*
X1684D02*
X1702D01*
X1529D02*
Y2712D01*
X1631Y2654D02*
Y2712D01*
X1613Y2654D02*
X1631D01*
X1529D02*
X1547D01*
X2120Y3004D02*
X2138D01*
X2205D02*
X2223D01*
Y3068D01*
X2120Y3004D02*
Y3068D01*
X2444Y2599D02*
Y2657D01*
X2546Y2599D02*
Y2657D01*
X2528Y2599D02*
X2546D01*
X2444D02*
X2462D01*
X4645Y3011D02*
Y3109D01*
X4495Y3011D02*
Y3109D01*
Y3109D02*
X4645D01*
X4495Y3011D02*
X4645D01*
X5095Y3258D02*
X5124D01*
X5036D02*
X5065D01*
X5036Y3652D02*
X5124D01*
Y3258D02*
Y3652D01*
X5036Y3258D02*
Y3652D01*
X1907Y1817D02*
Y2013D01*
X1993Y1817D02*
Y2013D01*
X1907D02*
X1993D01*
X1907Y1817D02*
X1936D01*
X1964D02*
X1993D01*
X1149Y3118D02*
X1155D01*
X1315D02*
X1321D01*
X3548Y2603D02*
Y3107D01*
X4052Y2603D02*
Y3107D01*
X3548Y2603D02*
X4052D01*
X3548Y3107D02*
X4052D01*
X5010Y2539D02*
X5100D01*
X5010Y2381D02*
X5100D01*
Y2476D02*
Y2539D01*
Y2381D02*
Y2444D01*
X5010Y2476D02*
Y2539D01*
Y2381D02*
Y2444D01*
Y2724D02*
X5100D01*
X5010Y2566D02*
X5100D01*
Y2661D02*
Y2724D01*
Y2566D02*
Y2629D01*
X5010Y2661D02*
Y2724D01*
Y2566D02*
Y2629D01*
X5145Y2539D02*
X5235D01*
X5145Y2381D02*
X5235D01*
Y2476D02*
Y2539D01*
Y2381D02*
Y2444D01*
X5145Y2476D02*
Y2539D01*
Y2381D02*
Y2444D01*
Y2724D02*
X5235D01*
X5145Y2566D02*
X5235D01*
Y2661D02*
Y2724D01*
Y2566D02*
Y2629D01*
X5145Y2661D02*
Y2724D01*
Y2566D02*
Y2629D01*
X1400Y2951D02*
X1490D01*
X1400Y3109D02*
X1490D01*
X1400Y2951D02*
Y3014D01*
Y3046D02*
Y3109D01*
X1490Y2951D02*
Y3014D01*
Y3046D02*
Y3109D01*
X1881Y2412D02*
X2019D01*
X1881Y2688D02*
X2019D01*
X1881Y2412D02*
Y2495D01*
Y2605D02*
Y2688D01*
X2019Y2412D02*
Y2495D01*
Y2605D02*
Y2688D01*
X2281Y2688D02*
X2419D01*
X2281Y2412D02*
X2419D01*
Y2605D02*
Y2688D01*
Y2412D02*
Y2495D01*
X2281Y2605D02*
Y2688D01*
Y2412D02*
Y2495D01*
X2234Y3140D02*
Y3230D01*
X2076Y3140D02*
Y3230D01*
X2171Y3140D02*
X2234D01*
X2076D02*
X2139D01*
X2171Y3230D02*
X2234D01*
X2076D02*
X2139D01*
X2076Y3255D02*
Y3345D01*
X2234Y3255D02*
Y3345D01*
X2076D02*
X2139D01*
X2171D02*
X2234D01*
X2076Y3255D02*
X2139D01*
X2171D02*
X2234D01*
X2600Y2564D02*
X2690D01*
X2600Y2406D02*
X2690D01*
Y2501D02*
Y2564D01*
Y2406D02*
Y2469D01*
X2600Y2501D02*
Y2564D01*
Y2406D02*
Y2469D01*
X2450Y2564D02*
X2540D01*
X2450Y2406D02*
X2540D01*
Y2501D02*
Y2564D01*
Y2406D02*
Y2469D01*
X2450Y2501D02*
Y2564D01*
Y2406D02*
Y2469D01*
X2286Y2230D02*
Y2320D01*
X2444Y2230D02*
Y2320D01*
X2286D02*
X2349D01*
X2381D02*
X2444D01*
X2286Y2230D02*
X2349D01*
X2381D02*
X2444D01*
X2286Y2120D02*
Y2210D01*
X2444Y2120D02*
Y2210D01*
X2286D02*
X2349D01*
X2381D02*
X2444D01*
X2286Y2120D02*
X2349D01*
X2381D02*
X2444D01*
X4441Y2323D02*
X4579D01*
X4441Y2527D02*
X4579D01*
X4441Y2323D02*
Y2397D01*
Y2453D02*
Y2527D01*
X4579Y2323D02*
Y2397D01*
Y2453D02*
Y2527D01*
X3450Y3550D02*
Y3650D01*
X3050Y3550D02*
X3450D01*
X3050Y3650D02*
X3450D01*
X3050Y3550D02*
Y3650D01*
X4208Y2429D02*
Y2531D01*
Y2429D02*
X4393D01*
X4208Y2531D02*
X4393D01*
X4364Y2320D02*
Y2410D01*
X4226D02*
X4364D01*
X4226Y2320D02*
X4364D01*
X5439Y3470D02*
Y3560D01*
X5301D02*
X5439D01*
X5301Y3470D02*
X5439D01*
X4978Y3734D02*
Y3836D01*
Y3734D02*
X5163D01*
X4978Y3836D02*
X5163D01*
X5281Y3140D02*
Y3230D01*
X5281Y3140D02*
X5419D01*
X5281Y3230D02*
X5419D01*
X5281Y3250D02*
Y3340D01*
X5281Y3250D02*
X5419D01*
X5281Y3340D02*
X5419D01*
X5439Y3360D02*
Y3450D01*
X5301D02*
X5439D01*
X5301Y3360D02*
X5439D01*
X4250Y3504D02*
X4340D01*
X4250Y3366D02*
Y3504D01*
X4340Y3366D02*
Y3504D01*
X2394Y1817D02*
X2423D01*
X2337D02*
X2366D01*
X2337Y2013D02*
X2423D01*
Y1817D02*
Y2013D01*
X2337Y1817D02*
Y2013D01*
X2053Y2686D02*
X2238D01*
X2053Y2584D02*
X2238D01*
X2053D02*
Y2686D01*
X1847Y3601D02*
X2253D01*
X1847Y3809D02*
X2253D01*
X1847Y3601D02*
Y3809D01*
X2253Y3601D02*
Y3680D01*
Y3730D02*
Y3809D01*
X4950Y4250D02*
Y4450D01*
X3750Y4250D02*
Y4450D01*
X4950D01*
X3750Y4250D02*
X4950D01*
X2599Y2599D02*
X2617D01*
X2683D02*
X2701D01*
Y2657D01*
X2599Y2599D02*
Y2657D01*
X1574Y3647D02*
Y3832D01*
X1436Y3647D02*
Y3832D01*
X1574D01*
D75*
X1746Y3067D02*
Y3237D01*
X1776D01*
X1974Y3234D02*
X2004D01*
X2005Y3068D02*
Y3234D01*
X1298Y2725D02*
Y2751D01*
X1285Y2738D02*
X1311D01*
X3700Y4280D02*
X3717D01*
X3708D01*
Y4330D01*
X3700Y4322D01*
X3733Y4380D02*
X3700D01*
X3733Y4413D01*
Y4422D01*
X3725Y4430D01*
X3708D01*
X3700Y4422D01*
X4993Y4280D02*
X4960D01*
X4993Y4313D01*
Y4322D01*
X4985Y4330D01*
X4968D01*
X4960Y4322D01*
X5010D02*
X5018Y4330D01*
X5035D01*
X5043Y4322D01*
Y4313D01*
X5035Y4305D01*
X5027D01*
X5035D01*
X5043Y4297D01*
Y4288D01*
X5035Y4280D01*
X5018D01*
X5010Y4288D01*
X4993Y4380D02*
X4960D01*
X4993Y4413D01*
Y4422D01*
X4985Y4430D01*
X4968D01*
X4960Y4422D01*
X5035Y4380D02*
Y4430D01*
X5010Y4405D01*
X5043D01*
D76*
X4665Y1915D02*
X4672D01*
X4728D02*
X4735D01*
X4696D02*
X4704D01*
X4640D02*
Y1975D01*
X4665D02*
X4672D01*
X4696D02*
X4704D01*
X4728D02*
X4735D01*
X4760Y1915D02*
Y1975D01*
X1535Y2555D02*
X1595D01*
X1535Y2523D02*
Y2530D01*
Y2491D02*
Y2499D01*
Y2460D02*
Y2467D01*
Y2435D02*
X1595D01*
Y2491D02*
Y2499D01*
Y2523D02*
Y2530D01*
Y2460D02*
Y2467D01*
X2745Y1915D02*
Y1975D01*
X2713D02*
X2720D01*
X2681D02*
X2689D01*
X2650D02*
X2657D01*
X2625Y1915D02*
Y1975D01*
X2681Y1915D02*
X2689D01*
X2713D02*
X2720D01*
X2650D02*
X2657D01*
X3130D02*
Y1975D01*
X3098D02*
X3105D01*
X3066D02*
X3074D01*
X3035D02*
X3042D01*
X3010Y1915D02*
Y1975D01*
X3066Y1915D02*
X3074D01*
X3098D02*
X3105D01*
X3035D02*
X3042D01*
X2810D02*
Y1975D01*
X2835Y1915D02*
X2842D01*
X2866D02*
X2874D01*
X2898D02*
X2905D01*
X2930D02*
Y1975D01*
X2866D02*
X2874D01*
X2835D02*
X2842D01*
X2898D02*
X2905D01*
X3320Y1915D02*
Y1975D01*
X3288D02*
X3295D01*
X3256D02*
X3264D01*
X3225D02*
X3232D01*
X3200Y1915D02*
Y1975D01*
X3256Y1915D02*
X3264D01*
X3288D02*
X3295D01*
X3225D02*
X3232D01*
X3505D02*
Y1975D01*
X3473D02*
X3480D01*
X3441D02*
X3449D01*
X3410D02*
X3417D01*
X3385Y1915D02*
Y1975D01*
X3441Y1915D02*
X3449D01*
X3473D02*
X3480D01*
X3410D02*
X3417D01*
X3595D02*
Y1975D01*
X3620Y1915D02*
X3627D01*
X3651D02*
X3659D01*
X3683D02*
X3690D01*
X3715D02*
Y1975D01*
X3651D02*
X3659D01*
X3620D02*
X3627D01*
X3683D02*
X3690D01*
X3930Y1915D02*
Y1975D01*
X3898D02*
X3905D01*
X3866D02*
X3874D01*
X3835D02*
X3842D01*
X3810Y1915D02*
Y1975D01*
X3866Y1915D02*
X3874D01*
X3898D02*
X3905D01*
X3835D02*
X3842D01*
X4125D02*
Y1975D01*
X4093D02*
X4100D01*
X4061D02*
X4069D01*
X4030D02*
X4037D01*
X4005Y1915D02*
Y1975D01*
X4061Y1915D02*
X4069D01*
X4093D02*
X4100D01*
X4030D02*
X4037D01*
X4240D02*
Y1975D01*
X4265Y1915D02*
X4272D01*
X4296D02*
X4304D01*
X4328D02*
X4335D01*
X4360D02*
Y1975D01*
X4296D02*
X4304D01*
X4265D02*
X4272D01*
X4328D02*
X4335D01*
X4560Y1915D02*
Y1975D01*
X4528D02*
X4535D01*
X4496D02*
X4504D01*
X4465D02*
X4472D01*
X4440Y1915D02*
Y1975D01*
X4496Y1915D02*
X4504D01*
X4528D02*
X4535D01*
X4465D02*
X4472D01*
X4880D02*
Y1975D01*
X4905Y1915D02*
X4912D01*
X4936D02*
X4944D01*
X4968D02*
X4975D01*
X5000D02*
Y1975D01*
X4936D02*
X4944D01*
X4905D02*
X4912D01*
X4968D02*
X4975D01*
D77*
X1640Y3700D02*
Y3805D01*
X1770Y3700D02*
Y3805D01*
X1640Y3955D02*
Y4045D01*
X1770Y3955D02*
Y4045D01*
X1640Y3700D02*
X1770D01*
X1655Y4060D02*
X1755D01*
X1770Y4045D01*
X1640D02*
X1655Y4060D01*
X1060D02*
X1075Y4075D01*
X1175D02*
X1190Y4060D01*
X1075Y4075D02*
X1175D01*
X1060Y3715D02*
X1190D01*
Y3970D02*
Y4060D01*
X1060Y3970D02*
Y4060D01*
X1190Y3715D02*
Y3820D01*
X1060Y3715D02*
Y3820D01*
D78*
X1314Y3179D02*
Y3198D01*
Y3189D01*
X1255D01*
X1265Y3179D01*
X1165Y3167D02*
X1155Y3177D01*
Y3197D01*
X1165Y3207D01*
X1175D01*
X1185Y3197D01*
Y3187D01*
Y3197D01*
X1195Y3207D01*
X1205D01*
X1215Y3197D01*
Y3177D01*
X1205Y3167D01*
M02*
