%FSLAX23Y23*%
%MOIN*%
G70*
G01*
G75*
%ADD10C,0.010*%
%ADD11R,0.039X0.033*%
%ADD12R,0.039X0.033*%
%ADD13R,0.037X0.035*%
%ADD14R,0.037X0.035*%
%ADD15R,0.059X0.051*%
%ADD16R,0.085X0.024*%
%ADD17R,0.106X0.071*%
%ADD18R,0.049X0.014*%
%ADD19R,0.035X0.037*%
%ADD20R,0.035X0.037*%
%ADD21R,0.047X0.087*%
%ADD22R,0.047X0.087*%
%ADD23R,0.134X0.087*%
%ADD24R,0.018X0.035*%
%ADD25R,0.053X0.014*%
%ADD26R,0.087X0.024*%
%ADD27R,0.087X0.024*%
%ADD28R,0.063X0.012*%
%ADD29R,0.012X0.063*%
%ADD30R,0.035X0.018*%
%ADD31R,0.106X0.071*%
%ADD32R,0.051X0.059*%
%ADD33R,0.106X0.063*%
%ADD34R,0.063X0.071*%
%ADD35R,0.100X0.100*%
%ADD36R,0.063X0.071*%
%ADD37R,0.077X0.124*%
%ADD38R,0.120X0.220*%
%ADD39R,0.150X0.114*%
%ADD40C,0.020*%
%ADD41C,0.040*%
%ADD42C,0.060*%
%ADD43C,0.030*%
%ADD44C,0.050*%
%ADD45C,0.023*%
%ADD46C,0.080*%
%ADD47C,0.011*%
%ADD48C,0.013*%
%ADD49C,0.016*%
%ADD50C,0.047*%
%ADD51C,0.025*%
%ADD52R,0.262X0.237*%
%ADD53C,0.060*%
%ADD54C,0.059*%
%ADD55C,0.240*%
%ADD56C,0.280*%
%ADD57C,0.059*%
%ADD58O,0.157X0.079*%
%ADD59O,0.079X0.157*%
%ADD60O,0.079X0.177*%
%ADD61O,0.050X0.060*%
%ADD62O,0.060X0.055*%
%ADD63O,0.060X0.050*%
%ADD64O,0.039X0.067*%
%ADD65R,0.059X0.059*%
%ADD66R,0.059X0.059*%
%ADD67C,0.050*%
%ADD68R,0.071X0.106*%
%ADD69R,0.071X0.063*%
%ADD70R,0.071X0.063*%
%ADD71C,0.039*%
%ADD72C,0.070*%
%ADD73C,0.010*%
%ADD74C,0.008*%
%ADD75C,0.008*%
%ADD76C,0.006*%
%ADD77C,0.012*%
%ADD78C,0.006*%
D10*
X2735Y2820D02*
Y2880D01*
X2705D01*
X2695Y2870D01*
Y2850D01*
X2705Y2840D01*
X2735D01*
X2715D02*
X2695Y2820D01*
X2675Y2870D02*
X2665Y2880D01*
X2645D01*
X2635Y2870D01*
Y2860D01*
X2645Y2850D01*
X2655D01*
X2645D01*
X2635Y2840D01*
Y2830D01*
X2645Y2820D01*
X2665D01*
X2675Y2830D01*
X2585Y2820D02*
Y2880D01*
X2615Y2850D01*
X2575D01*
X2505Y2825D02*
Y2885D01*
X2475D01*
X2465Y2875D01*
Y2855D01*
X2475Y2845D01*
X2505D01*
X2485D02*
X2465Y2825D01*
X2445Y2875D02*
X2435Y2885D01*
X2415D01*
X2405Y2875D01*
Y2865D01*
X2415Y2855D01*
X2425D01*
X2415D01*
X2405Y2845D01*
Y2835D01*
X2415Y2825D01*
X2435D01*
X2445Y2835D01*
X2385Y2875D02*
X2375Y2885D01*
X2355D01*
X2345Y2875D01*
Y2865D01*
X2355Y2855D01*
X2365D01*
X2355D01*
X2345Y2845D01*
Y2835D01*
X2355Y2825D01*
X2375D01*
X2385Y2835D01*
X3633Y3873D02*
X3643Y3883D01*
X3663D01*
X3673Y3873D01*
Y3833D01*
X3663Y3823D01*
X3643D01*
X3633Y3833D01*
X3573Y3823D02*
X3613D01*
X3573Y3863D01*
Y3873D01*
X3583Y3883D01*
X3603D01*
X3613Y3873D01*
X3513Y3823D02*
X3553D01*
X3513Y3863D01*
Y3873D01*
X3523Y3883D01*
X3543D01*
X3553Y3873D01*
X3925Y3305D02*
X3935Y3315D01*
X3955D01*
X3965Y3305D01*
Y3265D01*
X3955Y3255D01*
X3935D01*
X3925Y3265D01*
X3865Y3255D02*
X3905D01*
X3865Y3295D01*
Y3305D01*
X3875Y3315D01*
X3895D01*
X3905Y3305D01*
X3845Y3255D02*
X3825D01*
X3835D01*
Y3315D01*
X3845Y3305D01*
X3845Y3775D02*
X3855Y3785D01*
X3875D01*
X3885Y3775D01*
Y3735D01*
X3875Y3725D01*
X3855D01*
X3845Y3735D01*
X3825Y3725D02*
X3805D01*
X3815D01*
Y3785D01*
X3825Y3775D01*
X3775D02*
X3765Y3785D01*
X3745D01*
X3735Y3775D01*
Y3735D01*
X3745Y3725D01*
X3765D01*
X3775Y3735D01*
Y3775D01*
X4000D02*
X4010Y3785D01*
X4030D01*
X4040Y3775D01*
Y3735D01*
X4030Y3725D01*
X4010D01*
X4000Y3735D01*
X3980Y3725D02*
X3960D01*
X3970D01*
Y3785D01*
X3980Y3775D01*
X3930Y3725D02*
X3910D01*
X3920D01*
Y3785D01*
X3930Y3775D01*
X3835Y2585D02*
X3845Y2595D01*
X3865D01*
X3875Y2585D01*
Y2545D01*
X3865Y2535D01*
X3845D01*
X3835Y2545D01*
X3775Y2595D02*
X3795Y2585D01*
X3815Y2565D01*
Y2545D01*
X3805Y2535D01*
X3785D01*
X3775Y2545D01*
Y2555D01*
X3785Y2565D01*
X3815D01*
X3995Y3020D02*
X4005Y3030D01*
X4025D01*
X4035Y3020D01*
Y2980D01*
X4025Y2970D01*
X4005D01*
X3995Y2980D01*
X3935Y2970D02*
X3975D01*
X3935Y3010D01*
Y3020D01*
X3945Y3030D01*
X3965D01*
X3975Y3020D01*
X3915D02*
X3905Y3030D01*
X3885D01*
X3875Y3020D01*
Y2980D01*
X3885Y2970D01*
X3905D01*
X3915Y2980D01*
Y3020D01*
X2145Y2795D02*
X2155Y2805D01*
X2175D01*
X2185Y2795D01*
Y2755D01*
X2175Y2745D01*
X2155D01*
X2145Y2755D01*
X2085Y2805D02*
X2125D01*
Y2775D01*
X2105Y2785D01*
X2095D01*
X2085Y2775D01*
Y2755D01*
X2095Y2745D01*
X2115D01*
X2125Y2755D01*
X1791Y2410D02*
X1801Y2420D01*
X1821D01*
X1831Y2410D01*
Y2370D01*
X1821Y2360D01*
X1801D01*
X1791Y2370D01*
X1771Y2420D02*
X1731D01*
Y2410D01*
X1771Y2370D01*
Y2360D01*
X1758Y1579D02*
Y1639D01*
X1728D01*
X1718Y1629D01*
Y1609D01*
X1728Y1599D01*
X1758D01*
X1738D02*
X1718Y1579D01*
X1658D02*
X1698D01*
X1658Y1619D01*
Y1629D01*
X1668Y1639D01*
X1688D01*
X1698Y1629D01*
X1638Y1579D02*
X1618D01*
X1628D01*
Y1639D01*
X1638Y1629D01*
X4065Y1525D02*
Y1465D01*
X4035D01*
X4025Y1475D01*
Y1515D01*
X4035Y1525D01*
X4065D01*
X4005Y1475D02*
X3995Y1465D01*
X3975D01*
X3965Y1475D01*
Y1515D01*
X3975Y1525D01*
X3995D01*
X4005Y1515D01*
Y1505D01*
X3995Y1495D01*
X3965D01*
X3625Y1800D02*
Y1740D01*
X3595D01*
X3585Y1750D01*
Y1790D01*
X3595Y1800D01*
X3625D01*
X3565Y1740D02*
X3545D01*
X3555D01*
Y1800D01*
X3565Y1790D01*
X3475Y1740D02*
X3515D01*
X3475Y1780D01*
Y1790D01*
X3485Y1800D01*
X3505D01*
X3515Y1790D01*
X3465Y1530D02*
Y1470D01*
X3435D01*
X3425Y1480D01*
Y1520D01*
X3435Y1530D01*
X3465D01*
X3405Y1470D02*
X3385D01*
X3395D01*
Y1530D01*
X3405Y1520D01*
X3355D02*
X3345Y1530D01*
X3325D01*
X3315Y1520D01*
Y1510D01*
X3325Y1500D01*
X3335D01*
X3325D01*
X3315Y1490D01*
Y1480D01*
X3325Y1470D01*
X3345D01*
X3355Y1480D01*
X3320Y1905D02*
Y1845D01*
X3290D01*
X3280Y1855D01*
Y1895D01*
X3290Y1905D01*
X3320D01*
X3260Y1845D02*
X3240D01*
X3250D01*
Y1905D01*
X3260Y1895D01*
X3180Y1845D02*
Y1905D01*
X3210Y1875D01*
X3170D01*
X3150Y1525D02*
Y1465D01*
X3120D01*
X3110Y1475D01*
Y1515D01*
X3120Y1525D01*
X3150D01*
X3090Y1465D02*
X3070D01*
X3080D01*
Y1525D01*
X3090Y1515D01*
X3000Y1525D02*
X3040D01*
Y1495D01*
X3020Y1505D01*
X3010D01*
X3000Y1495D01*
Y1475D01*
X3010Y1465D01*
X3030D01*
X3040Y1475D01*
X2845Y1530D02*
Y1470D01*
X2815D01*
X2805Y1480D01*
Y1520D01*
X2815Y1530D01*
X2845D01*
X2785Y1470D02*
X2765D01*
X2775D01*
Y1530D01*
X2785Y1520D01*
X2735Y1530D02*
X2695D01*
Y1520D01*
X2735Y1480D01*
Y1470D01*
X2695Y1870D02*
Y1810D01*
X2665D01*
X2655Y1820D01*
Y1860D01*
X2665Y1870D01*
X2695D01*
X2635Y1810D02*
X2615D01*
X2625D01*
Y1870D01*
X2635Y1860D01*
X2585D02*
X2575Y1870D01*
X2555D01*
X2545Y1860D01*
Y1850D01*
X2555Y1840D01*
X2545Y1830D01*
Y1820D01*
X2555Y1810D01*
X2575D01*
X2585Y1820D01*
Y1830D01*
X2575Y1840D01*
X2585Y1850D01*
Y1860D01*
X2575Y1840D02*
X2555D01*
X4515Y1870D02*
Y1810D01*
X4485D01*
X4475Y1820D01*
Y1860D01*
X4485Y1870D01*
X4515D01*
X4415D02*
X4435Y1860D01*
X4455Y1840D01*
Y1820D01*
X4445Y1810D01*
X4425D01*
X4415Y1820D01*
Y1830D01*
X4425Y1840D01*
X4455D01*
X4380Y1520D02*
Y1460D01*
X4350D01*
X4340Y1470D01*
Y1510D01*
X4350Y1520D01*
X4380D01*
X4320D02*
X4280D01*
Y1510D01*
X4320Y1470D01*
Y1460D01*
X4200Y1800D02*
Y1740D01*
X4170D01*
X4160Y1750D01*
Y1790D01*
X4170Y1800D01*
X4200D01*
X4140Y1790D02*
X4130Y1800D01*
X4110D01*
X4100Y1790D01*
Y1780D01*
X4110Y1770D01*
X4100Y1760D01*
Y1750D01*
X4110Y1740D01*
X4130D01*
X4140Y1750D01*
Y1760D01*
X4130Y1770D01*
X4140Y1780D01*
Y1790D01*
X4130Y1770D02*
X4110D01*
X1985Y1805D02*
X2005D01*
X1995D01*
Y1755D01*
X2005Y1745D01*
X2015D01*
X2025Y1755D01*
X1925Y1805D02*
X1945D01*
X1935D01*
Y1755D01*
X1945Y1745D01*
X1955D01*
X1965Y1755D01*
X1905Y1745D02*
X1885D01*
X1895D01*
Y1805D01*
X1905Y1795D01*
X1990Y2095D02*
X2010D01*
X2000D01*
Y2045D01*
X2010Y2035D01*
X2020D01*
X2030Y2045D01*
X1930Y2095D02*
X1950D01*
X1940D01*
Y2045D01*
X1950Y2035D01*
X1960D01*
X1970Y2045D01*
X1870Y2035D02*
X1910D01*
X1870Y2075D01*
Y2085D01*
X1880Y2095D01*
X1900D01*
X1910Y2085D01*
X4990Y1530D02*
Y1470D01*
X4960D01*
X4950Y1480D01*
Y1520D01*
X4960Y1530D01*
X4990D01*
X4930Y1520D02*
X4920Y1530D01*
X4900D01*
X4890Y1520D01*
Y1510D01*
X4900Y1500D01*
X4910D01*
X4900D01*
X4890Y1490D01*
Y1480D01*
X4900Y1470D01*
X4920D01*
X4930Y1480D01*
X4815Y1900D02*
Y1840D01*
X4785D01*
X4775Y1850D01*
Y1890D01*
X4785Y1900D01*
X4815D01*
X4725Y1840D02*
Y1900D01*
X4755Y1870D01*
X4715D01*
X4680Y1530D02*
Y1470D01*
X4650D01*
X4640Y1480D01*
Y1520D01*
X4650Y1530D01*
X4680D01*
X4580D02*
X4620D01*
Y1500D01*
X4600Y1510D01*
X4590D01*
X4580Y1500D01*
Y1480D01*
X4590Y1470D01*
X4610D01*
X4620Y1480D01*
X3975Y1865D02*
Y1805D01*
X3945D01*
X3935Y1815D01*
Y1855D01*
X3945Y1865D01*
X3975D01*
X3915Y1805D02*
X3895D01*
X3905D01*
Y1865D01*
X3915Y1855D01*
X3865D02*
X3855Y1865D01*
X3835D01*
X3825Y1855D01*
Y1815D01*
X3835Y1805D01*
X3855D01*
X3865Y1815D01*
Y1855D01*
X3760Y1520D02*
Y1460D01*
X3730D01*
X3720Y1470D01*
Y1510D01*
X3730Y1520D01*
X3760D01*
X3700Y1460D02*
X3680D01*
X3690D01*
Y1520D01*
X3700Y1510D01*
X3650Y1460D02*
X3630D01*
X3640D01*
Y1520D01*
X3650Y1510D01*
X1960Y3045D02*
X2020D01*
Y3075D01*
X2010Y3085D01*
X1990D01*
X1980Y3075D01*
Y3045D01*
Y3065D02*
X1960Y3085D01*
X2010Y3105D02*
X2020Y3115D01*
Y3135D01*
X2010Y3145D01*
X2000D01*
X1990Y3135D01*
Y3125D01*
Y3135D01*
X1980Y3145D01*
X1970D01*
X1960Y3135D01*
Y3115D01*
X1970Y3105D01*
X1960Y3205D02*
Y3165D01*
X2000Y3205D01*
X2010D01*
X2020Y3195D01*
Y3175D01*
X2010Y3165D01*
X2705Y3675D02*
X2695Y3665D01*
X2675D01*
X2665Y3675D01*
Y3715D01*
X2675Y3725D01*
X2695D01*
X2705Y3715D01*
X2725Y3675D02*
X2735Y3665D01*
X2755D01*
X2765Y3675D01*
Y3685D01*
X2755Y3695D01*
X2745D01*
X2755D01*
X2765Y3705D01*
Y3715D01*
X2755Y3725D01*
X2735D01*
X2725Y3715D01*
X3005Y1880D02*
Y1820D01*
X2975D01*
X2965Y1830D01*
Y1870D01*
X2975Y1880D01*
X3005D01*
X2945Y1820D02*
X2925D01*
X2935D01*
Y1880D01*
X2945Y1870D01*
X2855Y1880D02*
X2875Y1870D01*
X2895Y1850D01*
Y1830D01*
X2885Y1820D01*
X2865D01*
X2855Y1830D01*
Y1840D01*
X2865Y1850D01*
X2895D01*
X1444Y3063D02*
Y3123D01*
X1414D01*
X1404Y3113D01*
Y3093D01*
X1414Y3083D01*
X1444D01*
X1424D02*
X1404Y3063D01*
X1384Y3113D02*
X1374Y3123D01*
X1354D01*
X1344Y3113D01*
Y3103D01*
X1354Y3093D01*
X1364D01*
X1354D01*
X1344Y3083D01*
Y3073D01*
X1354Y3063D01*
X1374D01*
X1384Y3073D01*
X3410Y3865D02*
Y3925D01*
X3380D01*
X3370Y3915D01*
Y3895D01*
X3380Y3885D01*
X3410D01*
X3390D02*
X3370Y3865D01*
X3310Y3925D02*
X3330Y3915D01*
X3350Y3895D01*
Y3875D01*
X3340Y3865D01*
X3320D01*
X3310Y3875D01*
Y3885D01*
X3320Y3895D01*
X3350D01*
X3290Y3925D02*
X3250D01*
Y3915D01*
X3290Y3875D01*
Y3865D01*
X3229Y3863D02*
Y3923D01*
X3199D01*
X3189Y3913D01*
Y3893D01*
X3199Y3883D01*
X3229D01*
X3209D02*
X3189Y3863D01*
X3129Y3923D02*
X3149Y3913D01*
X3169Y3893D01*
Y3873D01*
X3159Y3863D01*
X3139D01*
X3129Y3873D01*
Y3883D01*
X3139Y3893D01*
X3169D01*
X3109Y3913D02*
X3099Y3923D01*
X3079D01*
X3069Y3913D01*
Y3903D01*
X3079Y3893D01*
X3069Y3883D01*
Y3873D01*
X3079Y3863D01*
X3099D01*
X3109Y3873D01*
Y3883D01*
X3099Y3893D01*
X3109Y3903D01*
Y3913D01*
X3099Y3893D02*
X3079D01*
X5155Y1900D02*
X5175D01*
X5165D01*
Y1850D01*
X5175Y1840D01*
X5185D01*
X5195Y1850D01*
X5095Y1900D02*
X5115D01*
X5105D01*
Y1850D01*
X5115Y1840D01*
X5125D01*
X5135Y1850D01*
X5075Y1890D02*
X5065Y1900D01*
X5045D01*
X5035Y1890D01*
Y1880D01*
X5045Y1870D01*
X5055D01*
X5045D01*
X5035Y1860D01*
Y1850D01*
X5045Y1840D01*
X5065D01*
X5075Y1850D01*
D73*
X3007Y1616D02*
G03*
X3007Y1616I-5J0D01*
G01*
X3782D02*
G03*
X3782Y1616I-5J0D01*
G01*
X3937D02*
G03*
X3937Y1616I-5J0D01*
G01*
X4717D02*
G03*
X4717Y1616I-5J0D01*
G01*
X4872D02*
G03*
X4872Y1616I-5J0D01*
G01*
X5027D02*
G03*
X5027Y1616I-5J0D01*
G01*
X4252D02*
G03*
X4252Y1616I-5J0D01*
G01*
X4407D02*
G03*
X4407Y1616I-5J0D01*
G01*
X4562D02*
G03*
X4562Y1616I-5J0D01*
G01*
X2697D02*
G03*
X2697Y1616I-5J0D01*
G01*
X2852D02*
G03*
X2852Y1616I-5J0D01*
G01*
X3162D02*
G03*
X3162Y1616I-5J0D01*
G01*
X3317D02*
G03*
X3317Y1616I-5J0D01*
G01*
X3472D02*
G03*
X3472Y1616I-5J0D01*
G01*
X3627D02*
G03*
X3627Y1616I-5J0D01*
G01*
X4097D02*
G03*
X4097Y1616I-5J0D01*
G01*
D74*
X5145Y1666D02*
Y1729D01*
Y1761D02*
Y1824D01*
X5055Y1666D02*
Y1729D01*
Y1761D02*
Y1824D01*
Y1666D02*
X5145D01*
X5055Y1824D02*
X5145D01*
X3235Y3671D02*
Y3734D01*
Y3766D02*
Y3829D01*
X3145Y3671D02*
Y3734D01*
Y3766D02*
Y3829D01*
Y3671D02*
X3235D01*
X3145Y3829D02*
X3235D01*
X3350Y3671D02*
Y3734D01*
Y3766D02*
Y3829D01*
X3260Y3671D02*
Y3734D01*
Y3766D02*
Y3829D01*
Y3671D02*
X3350D01*
X3260Y3829D02*
X3350D01*
X1360Y2871D02*
X1450D01*
X1360Y3029D02*
X1450D01*
Y2871D02*
Y2934D01*
Y2966D02*
Y3029D01*
X1360Y2871D02*
Y2934D01*
Y2966D02*
Y3029D01*
X2874Y1650D02*
Y1714D01*
X2976Y1650D02*
Y1714D01*
X2958D02*
X2976D01*
X2874D02*
X2892D01*
X2769Y3753D02*
Y3938D01*
X2631Y3753D02*
Y3938D01*
Y3753D02*
X2769D01*
X1662Y3061D02*
X1745D01*
X1855D02*
X1938D01*
X1662Y3199D02*
X1745D01*
X1855D02*
X1938D01*
X1662Y3061D02*
Y3199D01*
X1938Y3061D02*
Y3199D01*
X3649Y1650D02*
Y1714D01*
X3751Y1650D02*
Y1714D01*
X3733D02*
X3751D01*
X3649D02*
X3667D01*
X3804Y1650D02*
Y1714D01*
X3906Y1650D02*
Y1714D01*
X3888D02*
X3906D01*
X3804D02*
X3822D01*
X4584Y1650D02*
Y1714D01*
X4686Y1650D02*
Y1714D01*
X4668D02*
X4686D01*
X4584D02*
X4602D01*
X4739Y1650D02*
Y1714D01*
X4841Y1650D02*
Y1714D01*
X4823D02*
X4841D01*
X4739D02*
X4757D01*
X4894Y1650D02*
Y1714D01*
X4996Y1650D02*
Y1714D01*
X4978D02*
X4996D01*
X4894D02*
X4912D01*
X1871Y1930D02*
X1934D01*
X1966D02*
X2029D01*
X1871Y2020D02*
X1934D01*
X1966D02*
X2029D01*
X1871Y1930D02*
Y2020D01*
X2029Y1930D02*
Y2020D01*
X1871Y1820D02*
X1934D01*
X1966D02*
X2029D01*
X1871Y1910D02*
X1934D01*
X1966D02*
X2029D01*
X1871Y1820D02*
Y1910D01*
X2029Y1820D02*
Y1910D01*
X4119Y1714D02*
X4137D01*
X4203D02*
X4221D01*
Y1650D02*
Y1714D01*
X4119Y1650D02*
Y1714D01*
X4274D02*
X4292D01*
X4358D02*
X4376D01*
Y1650D02*
Y1714D01*
X4274Y1650D02*
Y1714D01*
X4429D02*
X4447D01*
X4513D02*
X4531D01*
Y1650D02*
Y1714D01*
X4429Y1650D02*
Y1714D01*
X2564Y1650D02*
Y1714D01*
X2666Y1650D02*
Y1714D01*
X2648D02*
X2666D01*
X2564D02*
X2582D01*
X2719Y1650D02*
Y1714D01*
X2821Y1650D02*
Y1714D01*
X2803D02*
X2821D01*
X2719D02*
X2737D01*
X3029Y1650D02*
Y1714D01*
X3131Y1650D02*
Y1714D01*
X3113D02*
X3131D01*
X3029D02*
X3047D01*
X3184Y1650D02*
Y1714D01*
X3286Y1650D02*
Y1714D01*
X3268D02*
X3286D01*
X3184D02*
X3202D01*
X3339Y1650D02*
Y1714D01*
X3441Y1650D02*
Y1714D01*
X3423D02*
X3441D01*
X3339D02*
X3357D01*
X3494Y1650D02*
Y1714D01*
X3596Y1650D02*
Y1714D01*
X3578D02*
X3596D01*
X3494D02*
X3512D01*
X3964Y1650D02*
Y1714D01*
X4066Y1650D02*
Y1714D01*
X4048D02*
X4066D01*
X3964D02*
X3982D01*
X1606Y1455D02*
X1669D01*
X1701D02*
X1764D01*
X1606Y1545D02*
X1669D01*
X1701D02*
X1764D01*
X1606Y1455D02*
Y1545D01*
X1764Y1455D02*
Y1545D01*
X1648Y2224D02*
X1833D01*
X1648Y2326D02*
X1833D01*
X1648Y2224D02*
Y2326D01*
X1891Y2906D02*
X2022Y2775D01*
X1964Y2979D02*
X2095Y2848D01*
X1891Y2906D02*
X1964Y2979D01*
X3759Y2823D02*
X3861D01*
X3759D02*
Y3008D01*
X3861Y2823D02*
Y3008D01*
X3774Y2617D02*
Y2802D01*
X3876Y2617D02*
Y2802D01*
X3774D02*
X3876D01*
X2396Y3447D02*
Y3632D01*
X2534Y3447D02*
Y3632D01*
X2396D02*
X2534D01*
X4005Y3501D02*
Y3639D01*
X3915Y3501D02*
Y3639D01*
Y3501D02*
X4005D01*
X3870Y3501D02*
Y3639D01*
X3780Y3501D02*
Y3639D01*
Y3501D02*
X3870D01*
X3897Y3236D02*
X4082D01*
X3897Y3134D02*
X4082D01*
Y3236D01*
X3475Y3658D02*
X3606Y3789D01*
X3548Y3585D02*
X3679Y3716D01*
X3606Y3789D02*
X3679Y3716D01*
D75*
X2462Y3655D02*
X2455Y3648D01*
X2442D01*
X2435Y3655D01*
Y3681D01*
X2442Y3688D01*
X2455D01*
X2462Y3681D01*
X2475Y3655D02*
X2482Y3648D01*
X2495D01*
X2502Y3655D01*
Y3661D01*
X2495Y3668D01*
X2502Y3675D01*
Y3681D01*
X2495Y3688D01*
X2482D01*
X2475Y3681D01*
Y3675D01*
X2482Y3668D01*
X2475Y3661D01*
Y3655D01*
X2482Y3668D02*
X2495D01*
D76*
X2468Y2920D02*
X2475D01*
X2405D02*
X2412D01*
X2436D02*
X2444D01*
X2500D02*
Y2980D01*
X2468D02*
X2475D01*
X2436D02*
X2444D01*
X2405D02*
X2412D01*
X2380Y2920D02*
Y2980D01*
X2673Y2920D02*
X2680D01*
X2610D02*
X2617D01*
X2641D02*
X2649D01*
X2705D02*
Y2980D01*
X2673D02*
X2680D01*
X2641D02*
X2649D01*
X2610D02*
X2617D01*
X2585Y2920D02*
Y2980D01*
M02*
