%FSLAX23Y23*%
%MOIN*%
G70*
G01*
G75*
G04 Layer_Physical_Order=1*
%ADD10C,0.010*%
%ADD11R,0.039X0.033*%
%ADD12R,0.039X0.033*%
%ADD13R,0.037X0.035*%
%ADD14R,0.037X0.035*%
%ADD15R,0.059X0.051*%
%ADD16R,0.085X0.024*%
%ADD17R,0.106X0.071*%
%ADD18R,0.049X0.014*%
%ADD19R,0.035X0.037*%
%ADD20R,0.035X0.037*%
%ADD21R,0.047X0.087*%
%ADD22R,0.047X0.087*%
%ADD23R,0.134X0.087*%
%ADD24R,0.018X0.035*%
%ADD25R,0.053X0.014*%
%ADD26R,0.087X0.024*%
%ADD27R,0.087X0.024*%
%ADD28R,0.063X0.012*%
%ADD29R,0.012X0.063*%
%ADD30R,0.035X0.018*%
%ADD31R,0.106X0.071*%
%ADD32R,0.051X0.059*%
%ADD33R,0.106X0.063*%
%ADD34R,0.063X0.071*%
%ADD35R,0.100X0.100*%
%ADD36R,0.063X0.071*%
%ADD37R,0.077X0.124*%
%ADD38R,0.120X0.220*%
%ADD39R,0.150X0.114*%
%ADD40C,0.020*%
%ADD41C,0.040*%
%ADD42C,0.060*%
%ADD43C,0.030*%
%ADD44C,0.050*%
%ADD45C,0.023*%
%ADD46C,0.080*%
%ADD47C,0.011*%
%ADD48C,0.013*%
%ADD49C,0.016*%
%ADD50C,0.047*%
%ADD51C,0.025*%
%ADD52R,0.262X0.237*%
%ADD53C,0.060*%
%ADD54C,0.059*%
%ADD55C,0.240*%
%ADD56C,0.280*%
%ADD57C,0.059*%
%ADD58O,0.157X0.079*%
%ADD59O,0.079X0.157*%
%ADD60O,0.079X0.177*%
%ADD61O,0.050X0.060*%
%ADD62O,0.060X0.055*%
%ADD63O,0.060X0.050*%
%ADD64O,0.039X0.067*%
%ADD65R,0.059X0.059*%
%ADD66R,0.059X0.059*%
%ADD67C,0.050*%
D10*
X1095Y2288D02*
G03*
X1095Y2198I65J-45D01*
G01*
Y1788D02*
G03*
X1095Y1698I65J-45D01*
G01*
Y1668D02*
G03*
X1095Y1578I65J-45D01*
G01*
X3971Y2888D02*
G03*
X4048Y2840I39J-23D01*
G01*
Y2821D02*
G03*
X4034Y2814I4J-25D01*
G01*
X4048Y2821D02*
G03*
X4034Y2814I4J-25D01*
G01*
X4042Y3057D02*
G03*
X4024Y3050I0J-25D01*
G01*
X4004Y2784D02*
G03*
X4048Y2714I6J-45D01*
G01*
X4042Y3057D02*
G03*
X4024Y3050I0J-25D01*
G01*
X4006Y3080D02*
G03*
X4000Y3103I-45J0D01*
G01*
X3918Y3092D02*
G03*
X4006Y3080I43J-12D01*
G01*
X3913Y3103D02*
G03*
X3918Y3092I25J5D01*
G01*
X3913Y3103D02*
G03*
X3918Y3092I25J5D01*
G01*
X3957Y2983D02*
G03*
X3950Y2965I18J-18D01*
G01*
X3957Y2983D02*
G03*
X3950Y2965I18J-18D01*
G01*
Y2920D02*
G03*
X3957Y2902I25J0D01*
G01*
X3950Y2920D02*
G03*
X3957Y2902I25J0D01*
G01*
X4252Y2415D02*
G03*
X4248Y2415I-5J-25D01*
G01*
X3890Y3055D02*
G03*
X3875Y3089I-45J0D01*
G01*
X3812Y3024D02*
G03*
X3890Y3055I33J31D01*
G01*
X3742Y3019D02*
G03*
X3812Y3024I33J31D01*
G01*
X3678Y3009D02*
G03*
X3742Y3019I27J36D01*
G01*
X3673Y3002D02*
G03*
X3678Y3009I-18J18D01*
G01*
X3673Y3002D02*
G03*
X3678Y3009I-18J18D01*
G01*
X3644Y2974D02*
G03*
X3648Y2977I-14J21D01*
G01*
X3650Y2951D02*
G03*
X3644Y2974I-45J0D01*
G01*
X3596Y2907D02*
G03*
X3650Y2951I9J44D01*
G01*
X3644Y2974D02*
G03*
X3648Y2977I-14J21D01*
G01*
X3552Y2870D02*
G03*
X3566Y2877I-4J25D01*
G01*
X3552Y2870D02*
G03*
X3566Y2877I-4J25D01*
G01*
X3680Y2730D02*
G03*
X3618Y2772I-45J0D01*
G01*
G03*
X3552Y2799I-43J-12D01*
G01*
X3642Y2686D02*
G03*
X3680Y2730I-7J44D01*
G01*
X3650Y2660D02*
G03*
X3642Y2686I-45J0D01*
G01*
X3645Y2640D02*
G03*
X3650Y2660I-40J20D01*
G01*
X2210Y2555D02*
G03*
X2207Y2566I-20J0D01*
G01*
X2203Y2580D02*
G03*
X2207Y2566I25J0D01*
G01*
X2201Y2538D02*
G03*
X2210Y2555I-11J17D01*
G01*
X2201Y2538D02*
G03*
X2200Y2497I14J-21D01*
G01*
X2201Y2538D02*
G03*
X2200Y2497I14J-21D01*
G01*
X2164Y2511D02*
G03*
X2165Y2517I-24J7D01*
G01*
X2110Y2395D02*
G03*
X2105Y2410I-25J0D01*
G01*
Y2413D02*
G03*
X2100Y2428I-25J0D01*
G01*
X2110Y2395D02*
G03*
X2105Y2410I-25J0D01*
G01*
X2110Y2395D02*
G03*
X2105Y2410I-25J0D01*
G01*
X2100Y2365D02*
G03*
X2110Y2385I-15J20D01*
G01*
X2100Y2365D02*
G03*
X2110Y2385I-15J20D01*
G01*
X2080Y2410D02*
G03*
X2085Y2395I25J0D01*
G01*
X2080Y2410D02*
G03*
X2085Y2395I25J0D01*
G01*
X2078Y2388D02*
G03*
X2060Y2395I-18J-18D01*
G01*
X2078Y2388D02*
G03*
X2060Y2395I-18J-18D01*
G01*
X1868Y2462D02*
G03*
X1875Y2480I-18J18D01*
G01*
X1868Y2462D02*
G03*
X1875Y2480I-18J18D01*
G01*
X2215Y2518D02*
G03*
X2235Y2555I-25J37D01*
G01*
X2215Y2518D02*
G03*
X2235Y2555I-25J37D01*
G01*
G03*
X2228Y2580I-45J0D01*
G01*
X2235Y2555D02*
G03*
X2228Y2580I-45J0D01*
G01*
X2215Y2601D02*
G03*
X2203Y2605I-13J-22D01*
G01*
X2215Y2601D02*
G03*
X2203Y2605I-13J-22D01*
G01*
X2228D02*
G03*
X2215Y2601I0J-25D01*
G01*
X2228Y2605D02*
G03*
X2215Y2601I0J-25D01*
G01*
X2228Y2605D02*
G03*
X2215Y2601I0J-25D01*
G01*
X2262Y2620D02*
G03*
X2239Y2605I0J-25D01*
G01*
X2262Y2620D02*
G03*
X2239Y2605I0J-25D01*
G01*
X2315Y2581D02*
G03*
X2300Y2604I-25J0D01*
G01*
G03*
X2277Y2620I-23J-9D01*
G01*
X2300Y2604D02*
G03*
X2277Y2620I-23J-9D01*
G01*
X2315Y2581D02*
G03*
X2300Y2604I-25J0D01*
G01*
X1875Y2695D02*
G03*
X1868Y2713I-25J0D01*
G01*
X1875Y2695D02*
G03*
X1868Y2713I-25J0D01*
G01*
X1903Y2714D02*
G03*
X1951Y2696I37J26D01*
G01*
X2140Y2576D02*
G03*
X2136Y2545I40J-21D01*
G01*
X1951Y2696D02*
G03*
X1960Y2695I9J24D01*
G01*
X1951Y2696D02*
G03*
X1960Y2695I9J24D01*
G01*
X2143Y2592D02*
G03*
X2140Y2580I22J-13D01*
G01*
X2143Y2592D02*
G03*
X2140Y2580I22J-13D01*
G01*
Y2605D02*
G03*
X2143Y2592I25J0D01*
G01*
X2140Y2605D02*
G03*
X2143Y2592I25J0D01*
G01*
X2135Y2695D02*
G03*
X2140Y2680I25J0D01*
G01*
X2135Y2695D02*
G03*
X2140Y2680I25J0D01*
G01*
X1782Y1965D02*
G03*
X1696Y1958I-42J-15D01*
G01*
X2113Y1972D02*
G03*
X2111Y1965I42J-17D01*
G01*
X2199D02*
G03*
X2113Y1972I-44J-10D01*
G01*
X2132Y2082D02*
G03*
X2150Y2075I18J18D01*
G01*
X2132Y2082D02*
G03*
X2150Y2075I18J18D01*
G01*
X2068Y2093D02*
G03*
X2086Y2101I0J25D01*
G01*
X2068Y2093D02*
G03*
X2086Y2101I0J25D01*
G01*
X2087Y2102D02*
G03*
X2113Y2102I13J48D01*
G01*
X2243Y2125D02*
G03*
X2250Y2150I-43J25D01*
G01*
X2148Y2137D02*
G03*
X2150Y2150I-48J13D01*
G01*
G03*
X2153Y2132I50J0D01*
G01*
X2327Y2043D02*
G03*
X2320Y2025I18J-18D01*
G01*
X2327Y2043D02*
G03*
X2320Y2025I18J-18D01*
G01*
X2303Y2075D02*
G03*
X2320Y2082I0J25D01*
G01*
X2303Y2075D02*
G03*
X2320Y2082I0J25D01*
G01*
X2350Y2112D02*
G03*
X2353Y2115I-18J18D01*
G01*
X2350Y2112D02*
G03*
X2353Y2115I-18J18D01*
G01*
X2100Y2200D02*
G03*
X2050Y2143I0J-50D01*
G01*
X2150Y2150D02*
G03*
X2100Y2200I-50J0D01*
G01*
X2200D02*
G03*
X2150Y2150I0J-50D01*
G01*
X2250D02*
G03*
X2200Y2200I-50J0D01*
G01*
X2052Y2263D02*
G03*
X2100Y2200I48J-13D01*
G01*
G03*
X2150Y2250I0J50D01*
G01*
G03*
X2200Y2200I50J0D01*
G01*
X2150Y2250D02*
G03*
X2148Y2263I-50J0D01*
G01*
X2200Y2200D02*
G03*
X2250Y2250I0J50D01*
G01*
X2153Y2268D02*
G03*
X2150Y2250I47J-18D01*
G01*
X2250D02*
G03*
X2243Y2275I-50J0D01*
G01*
X2308Y2225D02*
G03*
X2317Y2225I5J25D01*
G01*
X1696Y1865D02*
G03*
X1784Y1865I44J10D01*
G01*
X2103Y1768D02*
G03*
X2085Y1775I-18J-18D01*
G01*
X2103Y1768D02*
G03*
X2085Y1775I-18J-18D01*
G01*
X2116Y1863D02*
G03*
X2195Y1865I39J22D01*
G01*
X2050Y3555D02*
G03*
X2000Y3605I-50J-0D01*
G01*
X1900Y3905D02*
G03*
X1900Y3805I0J-50D01*
G01*
X1470Y3845D02*
G03*
X1485Y3880I-35J35D01*
G01*
X1470Y3845D02*
G03*
X1485Y3880I-35J35D01*
G01*
Y3960D02*
G03*
X1435Y4010I-50J0D01*
G01*
X1485Y3960D02*
G03*
X1435Y4010I-50J0D01*
G01*
X1485Y3960D02*
G03*
X1435Y4010I-50J0D01*
G01*
X1635Y3945D02*
G03*
X1642Y3927I25J0D01*
G01*
X1635Y3945D02*
G03*
X1642Y3927I25J0D01*
G01*
X1950Y3555D02*
G03*
X1900Y3605I-50J0D01*
G01*
Y3880D02*
G03*
X1900Y3830I0J-25D01*
G01*
Y3880D02*
G03*
X1925Y3905I0J25D01*
G01*
X1900Y3880D02*
G03*
X1925Y3905I0J25D01*
G01*
X1642Y4293D02*
G03*
X1635Y4275I18J-18D01*
G01*
X1642Y4293D02*
G03*
X1635Y4275I18J-18D01*
G01*
X1745Y4385D02*
G03*
X1727Y4378I0J-25D01*
G01*
X1745Y4385D02*
G03*
X1727Y4378I0J-25D01*
G01*
X1943Y3530D02*
G03*
X1950Y3555I-43J25D01*
G01*
X1983Y3587D02*
G03*
X2000Y3580I18J18D01*
G01*
X1983Y3587D02*
G03*
X2000Y3580I18J18D01*
G01*
X2025Y3555D02*
G03*
X2025Y3551I25J0D01*
G01*
X2025Y3555D02*
G03*
X2000Y3580I-25J-0D01*
G01*
X2040Y3735D02*
G03*
X2037Y3739I-35J-35D01*
G01*
X2165Y3600D02*
G03*
X2158Y3618I-25J0D01*
G01*
X2165Y3600D02*
G03*
X2158Y3618I-25J0D01*
G01*
X2139Y3637D02*
G03*
X2135Y3640I-39J-32D01*
G01*
X2139Y3637D02*
G03*
X2135Y3640I-39J-32D01*
G01*
X2040Y3735D02*
G03*
X2037Y3739I-35J-35D01*
G01*
X1953Y3823D02*
G03*
X1935Y3830I-18J-18D01*
G01*
X2170Y3805D02*
G03*
X2175Y3805I5J25D01*
G01*
X2170Y3805D02*
G03*
X2175Y3805I5J25D01*
G01*
X2240D02*
G03*
X2245Y3805I0J25D01*
G01*
X2240Y3805D02*
G03*
X2245Y3805I0J25D01*
G01*
G03*
X2250Y3807I-5J25D01*
G01*
X2245Y3805D02*
G03*
X2250Y3807I-5J25D01*
G01*
G03*
X2258Y3812I-10J23D01*
G01*
X2250Y3807D02*
G03*
X2258Y3812I-10J23D01*
G01*
X1953Y3823D02*
G03*
X1935Y3830I-18J-18D01*
G01*
X1978Y4112D02*
G03*
X1984Y4122I-18J18D01*
G01*
X1978Y4112D02*
G03*
X1984Y4122I-18J18D01*
G01*
G03*
X1985Y4130I-24J8D01*
G01*
X1984Y4122D02*
G03*
X1985Y4130I-24J8D01*
G01*
X2150Y3830D02*
G03*
X2150Y3825I25J0D01*
G01*
X2150Y3830D02*
G03*
X2150Y3825I25J0D01*
G01*
X2157Y4318D02*
G03*
X2150Y4300I18J-18D01*
G01*
X1972Y4382D02*
G03*
X1960Y4385I-12J-22D01*
G01*
X1972Y4382D02*
G03*
X1960Y4385I-12J-22D01*
G01*
X2157Y4318D02*
G03*
X2150Y4300I18J-18D01*
G01*
X2223Y4382D02*
G03*
X2217Y4378I12J-22D01*
G01*
X2223Y4382D02*
G03*
X2217Y4378I12J-22D01*
G01*
X2235Y4385D02*
G03*
X2223Y4382I0J-25D01*
G01*
X2235Y4385D02*
G03*
X2223Y4382I0J-25D01*
G01*
X1810Y1395D02*
X2210Y995D01*
X1570Y1395D02*
X1810D01*
X1450Y1515D02*
X1570Y1395D01*
X1450Y1515D02*
Y1615D01*
X1420Y1645D02*
X1450Y1615D01*
X1420Y1645D02*
Y1700D01*
Y2000D02*
Y2115D01*
X1140Y2395D02*
X1420Y2115D01*
X1140Y2395D02*
Y3170D01*
X1190Y3220D01*
X1235D01*
X2210Y995D02*
X4740D01*
X4795Y1050D01*
Y1440D01*
X4840Y1485D01*
X5085Y2180D02*
X5090Y2175D01*
Y1475D02*
Y2175D01*
X5085Y1470D02*
X5090Y1475D01*
X4840Y1485D02*
X5030D01*
X5065Y1520D01*
Y1735D01*
X5068Y1737D01*
Y1803D01*
X5035Y1835D02*
X5068Y1803D01*
X5035Y1835D02*
Y2290D01*
X5045Y2300D01*
Y2345D01*
X4950Y2440D02*
X5045Y2345D01*
X4950Y2440D02*
Y2450D01*
X4602Y2982D02*
Y3034D01*
X4580Y2960D02*
X4602Y2982D01*
X4460Y2960D02*
X4580D01*
X4320Y2820D02*
X4460Y2960D01*
X5055Y2423D02*
X5070Y2408D01*
Y2195D02*
Y2408D01*
Y2195D02*
X5085Y2180D01*
X4491Y3086D02*
X4538D01*
X4475Y3070D02*
X4491Y3086D01*
X4475Y3015D02*
Y3070D01*
X4305Y2845D02*
X4475Y3015D01*
X4345Y3935D02*
Y3945D01*
Y3935D02*
X4650Y3630D01*
Y3435D02*
Y3630D01*
X4450Y3235D02*
X4650Y3435D01*
X4450Y3030D02*
Y3235D01*
X4295Y2875D02*
X4450Y3030D01*
X1260Y1233D02*
X1293Y1200D01*
X1350D01*
X1400Y1250D01*
Y1570D01*
X1260Y1710D02*
X1400Y1570D01*
X1260Y1710D02*
Y1853D01*
X1330Y1893D02*
X1378D01*
X1418Y1933D01*
X1778D01*
X1260Y1853D02*
X1283Y1830D01*
X1400D01*
X1460Y1890D01*
X1848D01*
X1095Y2288D02*
Y2325D01*
X1045Y2192D02*
X1095D01*
X1045Y2184D02*
X1095D01*
X1045Y2176D02*
X1095D01*
X1088Y2275D02*
Y2325D01*
X1045Y2216D02*
X1086D01*
X1045Y2208D02*
X1089D01*
X1045Y2168D02*
X1095D01*
X1088Y2155D02*
Y2210D01*
X1080Y2155D02*
Y2325D01*
X1095Y2155D02*
Y2198D01*
X1045Y2160D02*
X1095D01*
X1072Y2155D02*
Y2325D01*
X1064Y2155D02*
Y2325D01*
X1056Y2155D02*
Y2325D01*
X1048Y2155D02*
Y2325D01*
X1045D02*
X1095D01*
X1045Y2320D02*
X1095D01*
X1045Y2312D02*
X1095D01*
X1045Y2304D02*
X1095D01*
X1045Y2296D02*
X1095D01*
X1045Y2288D02*
X1095D01*
X1045Y2280D02*
X1090D01*
X1045Y2272D02*
X1087D01*
X1045Y2264D02*
X1084D01*
X1045Y2256D02*
X1082D01*
X1045Y2224D02*
X1083D01*
X1045Y2200D02*
X1094D01*
X1045Y2155D02*
X1095D01*
X1045D02*
Y2325D01*
Y2248D02*
X1081D01*
X1045Y2240D02*
X1081D01*
X1045Y2232D02*
X1082D01*
X1095Y1788D02*
Y1820D01*
X1088Y1775D02*
Y1820D01*
Y1655D02*
Y1710D01*
X1095Y1668D02*
Y1698D01*
X1045Y1648D02*
X1085D01*
X1045Y1592D02*
X1087D01*
X1045Y1640D02*
X1083D01*
X1045Y1632D02*
X1082D01*
X1045Y1624D02*
X1081D01*
X1045Y1616D02*
X1081D01*
X1045Y1608D02*
X1082D01*
X1045Y1600D02*
X1084D01*
X1095Y1555D02*
Y1578D01*
X1045Y1584D02*
X1091D01*
X1045Y1576D02*
X1095D01*
X1045Y1568D02*
X1095D01*
X1045Y1560D02*
X1095D01*
X1080Y1555D02*
Y1820D01*
X1072Y1555D02*
Y1820D01*
X1064Y1555D02*
Y1820D01*
X1088Y1555D02*
Y1590D01*
X1056Y1555D02*
Y1820D01*
X1048Y1555D02*
Y1820D01*
X1045D02*
X1095D01*
X1045Y1816D02*
X1095D01*
X1045Y1808D02*
X1095D01*
X1045Y1800D02*
X1095D01*
X1045Y1792D02*
X1095D01*
X1045Y1784D02*
X1093D01*
X1045Y1776D02*
X1088D01*
X1045Y1768D02*
X1085D01*
X1045Y1760D02*
X1083D01*
X1045Y1752D02*
X1082D01*
X1045Y1744D02*
X1081D01*
X1045Y1736D02*
X1081D01*
X1045Y1704D02*
X1091D01*
X1045Y1696D02*
X1095D01*
X1045Y1688D02*
X1095D01*
X1045Y1680D02*
X1095D01*
X1045Y1672D02*
X1095D01*
X1045Y1555D02*
X1095D01*
X1045Y1728D02*
X1082D01*
X1045Y1555D02*
Y1820D01*
Y1720D02*
X1084D01*
X1045Y1712D02*
X1087D01*
X1045Y1664D02*
X1093D01*
X1045Y1656D02*
X1088D01*
X1538Y1797D02*
Y1813D01*
Y1797D02*
X1585Y1750D01*
X2085D01*
X1538Y2263D02*
Y2323D01*
X1590Y2375D01*
X1660D01*
X1705Y2420D01*
X1720D01*
X1735Y2435D01*
Y2455D01*
X1615Y2325D02*
X1655D01*
X1725Y2395D01*
X1760D01*
X1776Y2411D01*
Y2423D01*
X1620Y2870D02*
X1670Y2820D01*
X1715D01*
X1772Y2763D01*
Y2746D02*
Y2763D01*
X1650Y2925D02*
X1675Y2900D01*
X1650Y2925D02*
Y3140D01*
X1772Y2746D02*
Y2748D01*
Y2746D02*
Y2748D01*
X1590Y2775D02*
X1617Y2748D01*
Y2746D02*
Y2748D01*
X1462Y2757D02*
X1560Y2855D01*
X1462Y2746D02*
Y2757D01*
X1427Y2887D02*
X1530Y2990D01*
X1389Y2887D02*
X1427D01*
X1398Y2993D02*
X1445D01*
X1340Y2935D02*
X1398Y2993D01*
X1340Y2865D02*
Y2935D01*
Y2865D02*
X1355Y2850D01*
X1481D01*
X1398Y2381D02*
X1466D01*
X1532Y2447D01*
Y2448D01*
X1248Y2381D02*
X1297Y2430D01*
X1435D01*
X1484Y2479D01*
X1532D01*
X1248Y2581D02*
X1299Y2530D01*
X1460D01*
X1479Y2511D01*
X1481D01*
X1398Y2581D02*
X1494D01*
X1532Y2543D01*
Y2542D02*
Y2543D01*
X1425Y2654D02*
X1466D01*
X1525Y2595D01*
X1565D01*
X1598Y2562D01*
Y2542D02*
Y2562D01*
X1580Y2654D02*
X1640Y2594D01*
Y2525D02*
Y2594D01*
X1310Y2945D02*
X1432Y3067D01*
X1310Y2810D02*
Y2945D01*
X1254Y2754D02*
X1310Y2810D01*
X1252Y2754D02*
X1254D01*
X1530Y2990D02*
Y3175D01*
X1680Y3065D02*
Y3130D01*
X1700Y3150D01*
Y3340D01*
X1710Y3350D01*
X2160D01*
X1690Y3375D02*
X2300D01*
X1675Y3360D02*
X1690Y3375D01*
X1675Y3165D02*
Y3360D01*
X1650Y3140D02*
X1675Y3165D01*
X1620Y2870D02*
Y3150D01*
X1650Y3180D01*
Y3375D01*
X1675Y3400D01*
X2285D01*
X1590Y2775D02*
Y3155D01*
X1625Y3190D01*
Y3385D01*
X1665Y3425D01*
X2275D01*
X1560Y3165D02*
X1600Y3205D01*
Y3305D01*
Y3395D01*
X1655Y3450D01*
X2265D01*
X1645Y3475D02*
X2255D01*
X1575Y3405D02*
X1645Y3475D01*
X1575Y3220D02*
Y3405D01*
X1530Y3175D02*
X1575Y3220D01*
X1474Y3325D02*
X1514Y3365D01*
X5120Y2250D02*
X5145Y2225D01*
Y1565D02*
Y2225D01*
X5405Y1620D02*
X5525Y1500D01*
X5405Y1620D02*
Y1690D01*
X5170Y2403D02*
X5190Y2423D01*
X5170Y1805D02*
Y2403D01*
Y1805D02*
X5334Y1641D01*
X5000Y2552D02*
X5055Y2497D01*
X5000Y2552D02*
Y2735D01*
X5009Y2744D01*
Y2895D01*
X5055Y2682D02*
X5101Y2729D01*
Y2858D01*
X5135Y2567D02*
X5190Y2512D01*
X5135Y2567D02*
Y2620D01*
X5073Y2682D02*
X5135Y2620D01*
X5055Y2682D02*
X5073D01*
X5190Y2608D02*
X5213D01*
X5317Y2712D01*
Y2858D01*
X5190Y2682D02*
X5270Y2762D01*
Y2885D01*
X5317Y2932D01*
X5055Y2423D02*
X5078D01*
X5185Y2858D02*
X5223Y2895D01*
X5101Y2858D02*
X5185D01*
X4175Y4195D02*
X4200Y4170D01*
X4580D01*
X4650Y4100D01*
X4835D01*
X4920Y4185D01*
Y4225D01*
X4895Y4250D02*
X4920Y4225D01*
X4750Y4250D02*
X4895D01*
X4700Y4300D02*
X4750Y4250D01*
X4048Y3097D02*
Y3103D01*
X4042D02*
X4048D01*
Y3078D02*
Y3097D01*
Y3078D02*
Y3097D01*
Y3065D02*
Y3078D01*
Y3065D02*
Y3078D01*
Y3065D02*
Y3078D01*
Y3058D02*
Y3065D01*
Y3058D02*
Y3065D01*
Y2829D02*
Y2840D01*
X4042Y3057D02*
X4048D01*
Y2829D02*
Y2840D01*
Y2822D02*
Y2829D01*
Y2711D02*
Y2714D01*
X4003Y3096D02*
X4048D01*
X4005Y3088D02*
X4048D01*
X4006Y3080D02*
X4048D01*
X4005Y3072D02*
X4048D01*
X4023Y3103D02*
X4042D01*
X4023D02*
X4042D01*
X4003Y3064D02*
X4048D01*
X4041Y2832D02*
X4048D01*
X4029Y2824D02*
X4048D01*
Y2711D02*
Y2714D01*
Y2711D02*
Y2714D01*
Y2704D02*
Y2711D01*
Y2704D02*
Y2711D01*
Y2691D02*
Y2704D01*
Y2691D02*
Y2704D01*
Y2691D02*
Y2704D01*
Y2684D02*
Y2691D01*
Y2684D02*
Y2691D01*
Y2672D02*
Y2684D01*
Y2672D02*
Y2684D01*
Y2672D02*
Y2684D01*
Y2664D02*
Y2672D01*
Y2664D02*
Y2672D01*
X4038Y2704D02*
X4048D01*
X4023Y2696D02*
X4048D01*
Y2652D02*
Y2664D01*
Y2652D02*
Y2664D01*
Y2652D02*
Y2664D01*
Y2645D02*
Y2652D01*
Y2645D02*
Y2652D01*
Y2632D02*
Y2645D01*
Y2632D02*
Y2645D01*
Y2632D02*
Y2645D01*
Y2613D02*
Y2632D01*
Y2613D02*
Y2632D01*
Y2607D02*
Y2613D01*
X4023Y2607D02*
X4048D01*
X4010Y3103D02*
X4023D01*
X4010D02*
X4023D01*
X4010D02*
X4023D01*
X4003D02*
X4010D01*
X4003D02*
X4010D01*
X4000D02*
X4003D01*
X4000D02*
X4003D01*
X4040Y3057D02*
Y3103D01*
X4032Y3055D02*
Y3103D01*
X4024Y3049D02*
Y3103D01*
X4016Y3041D02*
Y3103D01*
X4008Y3033D02*
Y3103D01*
X3999Y3056D02*
X4035D01*
X3993Y3048D02*
X4023D01*
X3982Y3040D02*
X4015D01*
X4000Y3103D02*
X4003D01*
X4000Y3025D02*
Y3058D01*
X3957Y2983D02*
X4024Y3050D01*
X3992Y3017D02*
Y3047D01*
X3984Y3009D02*
Y3041D01*
X3976Y3001D02*
Y3038D01*
X3952Y2975D02*
Y3036D01*
X3968Y2993D02*
Y3036D01*
X4040Y2818D02*
Y2831D01*
X4032Y2811D02*
Y2826D01*
X4040Y2607D02*
Y2705D01*
X4004Y2784D02*
X4034Y2814D01*
X4024Y2803D02*
Y2822D01*
X4016Y2795D02*
Y2820D01*
X4008Y2787D02*
Y2820D01*
X4032Y2607D02*
Y2700D01*
X4024Y2607D02*
Y2696D01*
X4010Y2607D02*
X4023D01*
X4010D02*
X4023D01*
X4016D02*
Y2694D01*
X4008Y2607D02*
Y2694D01*
X4003Y2607D02*
X4010D01*
X3960Y2985D02*
Y3035D01*
X3957Y2902D02*
X3971Y2888D01*
X3950Y2920D02*
Y2965D01*
X3992Y2780D02*
Y2824D01*
X3984Y2776D02*
Y2828D01*
X4000Y2783D02*
Y2821D01*
X3968Y2881D02*
Y2892D01*
Y2755D02*
Y2849D01*
X3976Y2768D02*
Y2836D01*
X4314Y2425D02*
Y2525D01*
X4288Y2415D02*
Y2525D01*
X4280Y2415D02*
Y2525D01*
X4272Y2415D02*
Y2525D01*
X4264Y2415D02*
Y2525D01*
X4256Y2415D02*
Y2525D01*
X4248Y2415D02*
Y2525D01*
X4312Y2390D02*
Y2525D01*
X4304Y2390D02*
Y2525D01*
X4296Y2390D02*
Y2525D01*
X4240Y2415D02*
Y2525D01*
X4232Y2415D02*
Y2525D01*
X4224Y2415D02*
Y2525D01*
X4216Y2415D02*
Y2525D01*
X4062Y2526D02*
X4314Y2525D01*
X4062Y2520D02*
X4314D01*
X4062Y2512D02*
X4314D01*
X4022Y2504D02*
X4314D01*
X4027Y2488D02*
X4314D01*
X4022Y2496D02*
X4314D01*
X4035Y2480D02*
X4314D01*
X4208Y2415D02*
Y2525D01*
X4200Y2415D02*
Y2525D01*
X4192Y2415D02*
Y2525D01*
X4043Y2472D02*
X4314D01*
X4184Y2415D02*
Y2525D01*
X4176Y2415D02*
Y2525D01*
X4168Y2415D02*
Y2525D01*
X4400Y2390D02*
Y2425D01*
X4314D02*
X4400D01*
X4392Y2390D02*
Y2425D01*
X4293Y2408D02*
X4400D01*
X4384Y2390D02*
Y2425D01*
X4376Y2390D02*
Y2425D01*
X4368Y2390D02*
Y2425D01*
X4360Y2390D02*
Y2425D01*
X4352Y2390D02*
Y2425D01*
X4344Y2390D02*
Y2425D01*
X4336Y2390D02*
Y2425D01*
X4328Y2390D02*
Y2425D01*
X4320Y2390D02*
Y2425D01*
X4293Y2390D02*
Y2415D01*
X4059Y2456D02*
X4314D01*
X4051Y2464D02*
X4314D01*
X4091Y2424D02*
X4400D01*
X4067Y2448D02*
X4314D01*
X4083Y2432D02*
X4314D01*
X4075Y2440D02*
X4314D01*
X4252Y2415D02*
X4293D01*
Y2400D02*
X4400D01*
X4099Y2416D02*
X4400D01*
X4293Y2392D02*
X4400D01*
X4100Y2415D02*
X4248D01*
X4293Y2390D02*
X4400D01*
X4000Y2607D02*
Y2695D01*
X3992Y2607D02*
Y2698D01*
X3983Y2607D02*
X4003D01*
X3983D02*
X4003D01*
X3984D02*
Y2702D01*
X3976Y2607D02*
Y2710D01*
X3971Y2607D02*
X3983D01*
X3971D02*
X3983D01*
X3971D02*
X3983D01*
X3964D02*
X3971D01*
X3964D02*
X3971D01*
X3960D02*
Y2900D01*
X3952Y2607D02*
Y2910D01*
X3968Y2607D02*
Y2723D01*
X3951Y2607D02*
X3964D01*
X3951D02*
X3964D01*
X3951D02*
X3964D01*
X3944D02*
X3951D01*
X3944D02*
Y3038D01*
X3936Y2607D02*
Y3043D01*
X3944Y2607D02*
X3951D01*
X3932D02*
X3944D01*
X3932D02*
X3944D01*
X3932D02*
X3944D01*
X3924D02*
X3932D01*
X3928D02*
Y3049D01*
X3920Y2607D02*
Y3061D01*
X3924Y2607D02*
X3932D01*
X4160Y2415D02*
Y2525D01*
X4096Y2419D02*
Y2526D01*
X4088Y2427D02*
Y2526D01*
X4080Y2435D02*
Y2526D01*
X4072Y2443D02*
Y2526D01*
X4062Y2504D02*
Y2526D01*
X4064Y2451D02*
Y2526D01*
X4152Y2415D02*
Y2525D01*
X4144Y2415D02*
Y2526D01*
X4136Y2415D02*
Y2526D01*
X4128Y2415D02*
Y2526D01*
X4120Y2415D02*
Y2526D01*
X4112Y2415D02*
Y2526D01*
X4104Y2415D02*
Y2526D01*
X4023Y2504D02*
X4062D01*
X3912Y2607D02*
X3924D01*
X4024Y2491D02*
Y2504D01*
X4022Y2494D02*
Y2504D01*
X3912Y2607D02*
X3924D01*
X3912D02*
X3924D01*
X3905D02*
X3912D01*
X4056Y2459D02*
Y2504D01*
X4048Y2467D02*
Y2504D01*
X4038Y2478D02*
X4100Y2415D01*
X4040Y2475D02*
Y2504D01*
X4032Y2483D02*
Y2504D01*
X4022Y2494D02*
X4038Y2478D01*
X3875Y3096D02*
X3915D01*
X3876Y3088D02*
X3917D01*
X3887Y3072D02*
X3917D01*
X3882Y3080D02*
X3916D01*
X3905Y3103D02*
X3912D01*
X3885D02*
X3905D01*
X3885D02*
X3905D01*
X3890Y3056D02*
X3923D01*
X3889Y3048D02*
X3929D01*
X3887Y3040D02*
X3940D01*
X3884Y3032D02*
X4007D01*
X3888Y3068D02*
Y3103D01*
X3889Y3064D02*
X3919D01*
X3878Y3024D02*
X3999D01*
X3867Y3016D02*
X3991D01*
X3791Y3008D02*
X3983D01*
X3705Y3000D02*
X3975D01*
X3875Y3103D02*
X3885D01*
X3662Y2992D02*
X3967D01*
X3654Y2984D02*
X3959D01*
X3646Y2976D02*
X3953D01*
X3649Y2960D02*
X3950D01*
X3647Y2968D02*
X3950D01*
X3650Y2952D02*
X3950D01*
X3649Y2944D02*
X3950D01*
X3647Y2936D02*
X3950D01*
X3613Y2784D02*
X4005D01*
X3607Y2792D02*
X4013D01*
X3659Y2768D02*
X3976D01*
X3617Y2776D02*
X3984D01*
X3644Y2928D02*
X3950D01*
X3638Y2920D02*
X3950D01*
X3627Y2912D02*
X3951D01*
X3674Y2752D02*
X3967D01*
X3669Y2760D02*
X3970D01*
X3679Y2720D02*
X3969D01*
X3676Y2712D02*
X3974D01*
X3680Y2736D02*
X3965D01*
X3678Y2744D02*
X3965D01*
X3680Y2728D02*
X3966D01*
X3585Y2896D02*
X3964D01*
X3577Y2888D02*
X3971D01*
X3569Y2880D02*
X3968D01*
X3560Y2872D02*
X3966D01*
X3593Y2904D02*
X3956D01*
X3552Y2864D02*
X3965D01*
X3552Y2856D02*
X3966D01*
X3552Y2824D02*
X3991D01*
X3552Y2816D02*
X4037D01*
X3596Y2800D02*
X4021D01*
X3552Y2808D02*
X4029D01*
X3552Y2848D02*
X3968D01*
X3552Y2840D02*
X3973D01*
X3552Y2832D02*
X3979D01*
X3875Y3103D02*
X3885D01*
X3875D02*
X3885D01*
X3880Y3083D02*
Y3103D01*
X3875Y3089D02*
Y3100D01*
X3804Y3016D02*
X3823D01*
X3739D02*
X3746D01*
X3731Y3008D02*
X3759D01*
X3680Y2730D02*
Y3008D01*
X3670Y3000D02*
X3705D01*
X3672Y2756D02*
Y3002D01*
X3648Y2977D02*
X3673Y3002D01*
X3648Y2964D02*
Y2978D01*
X3608Y2791D02*
Y2906D01*
X3664Y2764D02*
Y2994D01*
X3656Y2770D02*
Y2986D01*
X3648Y2773D02*
Y2938D01*
X3640Y2775D02*
Y2923D01*
X3632Y2775D02*
Y2915D01*
X3624Y2774D02*
Y2910D01*
X3616Y2779D02*
Y2907D01*
X3566Y2877D02*
X3596Y2907D01*
X3552Y2861D02*
Y2868D01*
Y2842D02*
Y2861D01*
Y2842D02*
Y2861D01*
Y2829D02*
Y2842D01*
X3600Y2797D02*
Y2906D01*
X3592Y2802D02*
Y2903D01*
X3584Y2804D02*
Y2895D01*
X3576Y2805D02*
Y2887D01*
X3568Y2804D02*
Y2879D01*
X3560Y2802D02*
Y2872D01*
X3552Y2829D02*
Y2842D01*
Y2829D02*
Y2842D01*
Y2822D02*
Y2829D01*
Y2822D02*
Y2829D01*
Y2809D02*
Y2822D01*
Y2809D02*
Y2822D01*
Y2809D02*
Y2822D01*
Y2802D02*
Y2809D01*
Y2802D02*
Y2809D01*
Y2799D02*
Y2802D01*
Y2799D02*
Y2802D01*
Y2799D02*
Y2802D01*
X3904Y2607D02*
Y3103D01*
X3896Y2607D02*
Y3103D01*
X3905Y2607D02*
X3912D01*
X3892D02*
X3905D01*
X3888D02*
Y3042D01*
X3880Y2607D02*
Y3027D01*
X3872Y2607D02*
Y3019D01*
X3864Y2607D02*
Y3014D01*
X3856Y2607D02*
Y3011D01*
X3848Y2607D02*
Y3010D01*
X3840Y2607D02*
Y3010D01*
X3824Y2607D02*
Y3015D01*
X3816Y2607D02*
Y3021D01*
X3832Y2607D02*
Y3012D01*
X3651Y2688D02*
X4048D01*
X3645Y2680D02*
X4048D01*
X3650Y2664D02*
X4048D01*
X3648Y2672D02*
X4048D01*
X3672Y2704D02*
X3982D01*
X3664Y2696D02*
X3997D01*
X3650Y2656D02*
X4048D01*
X3648Y2648D02*
X4048D01*
X3645Y2640D02*
X4048D01*
X3654Y2624D02*
X4048D01*
X3650Y2632D02*
X4048D01*
X3808Y2607D02*
Y3019D01*
X3659Y2616D02*
X4048D01*
X3664Y2608D02*
X4048D01*
X3892Y2607D02*
X3905D01*
X3892D02*
X3905D01*
X3885D02*
X3892D01*
X3885D02*
X3892D01*
X3873D02*
X3885D01*
X3873D02*
X3885D01*
X3873D02*
X3885D01*
X3865D02*
X3873D01*
X3865D02*
X3873D01*
X3853D02*
X3865D01*
X3853D02*
X3865D01*
X3853D02*
X3865D01*
X3846D02*
X3853D01*
X3846D02*
X3853D01*
X3833D02*
X3846D01*
X3833D02*
X3846D01*
X3833D02*
X3846D01*
X3826D02*
X3833D01*
X3826D02*
X3833D01*
X3813D02*
X3826D01*
X3813D02*
X3826D01*
X3813D02*
X3826D01*
X3806D02*
X3813D01*
X3806D02*
X3813D01*
X3794D02*
X3806D01*
X3794D02*
X3806D01*
X3794D02*
X3806D01*
X3800D02*
Y3013D01*
X3792Y2607D02*
Y3008D01*
X3787Y2607D02*
X3794D01*
X3787D02*
X3794D01*
X3784D02*
Y3006D01*
X3776Y2607D02*
Y3005D01*
X3774Y2607D02*
X3787D01*
X3752D02*
Y3011D01*
X3744Y2607D02*
Y3017D01*
X3768Y2607D02*
Y3006D01*
X3760Y2607D02*
Y3008D01*
X3736Y2607D02*
Y3012D01*
X3728Y2607D02*
Y3006D01*
X3720Y2607D02*
Y3003D01*
X3712Y2607D02*
Y3001D01*
X3656Y2621D02*
Y2690D01*
X3648Y2673D02*
Y2687D01*
Y2635D02*
Y2647D01*
X3704Y2607D02*
Y3000D01*
X3688Y2607D02*
Y3003D01*
X3696Y2607D02*
Y3001D01*
X3680Y2607D02*
Y2730D01*
X3672Y2607D02*
Y2704D01*
X3664Y2607D02*
Y2696D01*
X3645Y2640D02*
X3664Y2607D01*
X3774D02*
X3787D01*
X3774D02*
X3787D01*
X3767D02*
X3774D01*
X3767D02*
X3774D01*
X3754D02*
X3767D01*
X3754D02*
X3767D01*
X3754D02*
X3767D01*
X3747D02*
X3754D01*
X3747D02*
X3754D01*
X3735D02*
X3747D01*
X3735D02*
X3747D01*
X3735D02*
X3747D01*
X3727D02*
X3735D01*
X3727D02*
X3735D01*
X3715D02*
X3727D01*
X3715D02*
X3727D01*
X3715D02*
X3727D01*
X3708D02*
X3715D01*
X3708D02*
X3715D01*
X3695D02*
X3708D01*
X3695D02*
X3708D01*
X3695D02*
X3708D01*
X3676D02*
X3695D01*
X3676D02*
X3695D01*
X3668D02*
X3676D01*
X3664D02*
X3668D01*
X3664D02*
X3668D01*
X3900Y4300D02*
X4070Y4130D01*
X4570D01*
X4715Y3985D01*
X3800Y4300D02*
X4000Y4100D01*
X4500D01*
X4700Y3900D01*
X4500Y4300D02*
X4650Y4150D01*
X4775D01*
X4600Y4300D02*
X4695Y4205D01*
X4870D01*
X4100Y4175D02*
Y4300D01*
X3750Y3690D02*
X3780Y3660D01*
Y3540D02*
Y3660D01*
X3730Y3490D02*
X3780Y3540D01*
X3630Y3490D02*
X3730D01*
X3470Y3650D02*
X3630Y3490D01*
X3350Y3650D02*
X3470D01*
X3300Y3600D02*
X3350Y3650D01*
X3895Y3470D02*
Y3600D01*
X3815Y3680D02*
X3895Y3600D01*
X3815Y3680D02*
Y3690D01*
X3880D02*
X3950Y3620D01*
X4300Y3995D02*
X4390D01*
X4575Y3810D01*
X5364Y4400D02*
X5394Y4370D01*
X2565Y3100D02*
X2595D01*
X2510Y3155D02*
X2565Y3100D01*
X2463Y3155D02*
X2510D01*
X2565Y3180D02*
Y3200D01*
X2510Y3255D02*
X2565Y3200D01*
X2463Y3255D02*
X2510D01*
X2560Y3280D02*
Y3305D01*
X2510Y3355D02*
X2560Y3305D01*
X2463Y3355D02*
X2510D01*
X2560Y3380D02*
Y3410D01*
X2515Y3455D02*
X2560Y3410D01*
X2460Y3455D02*
X2515D01*
X2370Y3155D02*
Y3175D01*
X2400Y3205D01*
X2463D01*
X2385Y3105D02*
X2463D01*
X2370Y3090D02*
X2385Y3105D01*
X2370Y3060D02*
Y3090D01*
Y3250D02*
X2425Y3305D01*
X2463D01*
X2370Y3320D02*
Y3365D01*
X2410Y3405D01*
X2460D01*
X2208Y2546D02*
Y2564D01*
X2200Y2538D02*
Y2580D01*
X2165D02*
X2203D01*
X2192Y2528D02*
Y2580D01*
X2165Y2520D02*
Y2580D01*
X2200Y2492D02*
Y2497D01*
X2192Y2492D02*
Y2507D01*
X2184Y2493D02*
Y2580D01*
X2176Y2494D02*
Y2580D01*
X2168Y2494D02*
Y2580D01*
X2165Y2568D02*
X2206D01*
X2165Y2560D02*
X2209D01*
X2165Y2552D02*
X2210D01*
X2165Y2544D02*
X2207D01*
X2165Y2576D02*
X2203D01*
X2165Y2536D02*
X2198D01*
X2165Y2528D02*
X2192D01*
X2165Y2520D02*
X2190D01*
X2164Y2504D02*
X2194D01*
X2164Y2496D02*
X2200D01*
X2164Y2495D02*
X2197Y2492D01*
X2164Y2512D02*
X2190D01*
X2164Y2495D02*
Y2511D01*
X2300Y2400D02*
Y2408D01*
X2296Y2396D02*
Y2408D01*
X2225Y2414D02*
X2277D01*
Y2408D02*
X2300D01*
X2288Y2388D02*
Y2408D01*
X2280Y2380D02*
Y2408D01*
X2254Y2355D02*
X2300Y2400D01*
X2277Y2408D02*
Y2414D01*
X2272Y2372D02*
Y2414D01*
X2136Y2413D02*
Y2438D01*
X2264Y2364D02*
Y2414D01*
X2256Y2356D02*
Y2414D01*
X2248Y2355D02*
Y2414D01*
X2136Y2413D02*
X2225D01*
X2240Y2355D02*
Y2414D01*
X2232Y2355D02*
Y2414D01*
X2224Y2355D02*
Y2413D01*
X2216Y2355D02*
Y2413D01*
X2208Y2355D02*
Y2413D01*
X2200Y2355D02*
Y2413D01*
X2192Y2355D02*
Y2413D01*
X2184Y2355D02*
Y2413D01*
X2176Y2355D02*
Y2413D01*
X2168Y2355D02*
Y2413D01*
X2160Y2355D02*
Y2413D01*
X2152Y2355D02*
Y2413D01*
X2144Y2355D02*
Y2413D01*
X2102Y2424D02*
X2136D01*
X2105Y2416D02*
X2136D01*
X2100Y2438D02*
X2136D01*
X2100Y2432D02*
X2136D01*
X2109Y2400D02*
X2300D01*
X2110Y2392D02*
X2292D01*
X2106Y2408D02*
X2277D01*
X2104Y2420D02*
Y2438D01*
X2100Y2428D02*
Y2438D01*
X2110Y2385D02*
Y2395D01*
X2136Y2355D02*
Y2413D01*
X2128Y2355D02*
Y2438D01*
X2110Y2384D02*
X2284D01*
X2108Y2376D02*
X2276D01*
X2103Y2368D02*
X2268D01*
X2110Y2355D02*
X2254Y2355D01*
X2105Y2360D02*
X2260D01*
X2120Y2355D02*
Y2438D01*
X2112Y2355D02*
Y2438D01*
X2104Y2361D02*
Y2369D01*
X2100Y2365D02*
X2110Y2355D01*
X2130Y2520D02*
X2136Y2514D01*
X2119Y2520D02*
X2136Y2503D01*
X2107Y2520D02*
X2135Y2492D01*
X2107D02*
X2135Y2520D01*
X2096D02*
X2124Y2492D01*
X2096D02*
X2124Y2520D01*
X2085D02*
X2113Y2492D01*
X2136Y2517D02*
X2140D01*
X2136Y2492D02*
Y2517D01*
X2130Y2492D02*
X2136Y2498D01*
X2119Y2492D02*
X2136Y2509D01*
X2085Y2492D02*
X2113Y2520D01*
X2075Y2492D02*
X2136D01*
X2073Y2520D02*
X2101Y2492D01*
X2062Y2520D02*
X2090Y2492D01*
X2051Y2520D02*
X2079Y2492D01*
X2039Y2520D02*
X2075Y2485D01*
X2028Y2520D02*
X2075Y2473D01*
X2017Y2520D02*
X2075Y2462D01*
Y2482D02*
X2085Y2492D01*
X2075Y2466D02*
Y2492D01*
Y2438D02*
Y2466D01*
X2005Y2520D02*
X2075Y2451D01*
X2005Y2520D02*
X2075Y2451D01*
Y2438D02*
Y2466D01*
Y2413D02*
X2080D01*
X2075Y2417D02*
X2079Y2413D01*
X1976Y2395D02*
X2101Y2520D01*
X2066Y2394D02*
X2080Y2408D01*
X1965Y2395D02*
X2090Y2520D01*
X2085Y2385D02*
Y2395D01*
X2080Y2385D02*
X2085Y2390D01*
X2080Y2385D02*
X2085D01*
X2074Y2391D02*
X2082Y2399D01*
X2078Y2388D02*
X2080Y2385D01*
X1994Y2520D02*
X2075Y2439D01*
X2010Y2395D02*
X2075Y2460D01*
X1999Y2395D02*
X2075Y2471D01*
X1983Y2520D02*
X2075Y2428D01*
X1972Y2520D02*
X2075Y2417D01*
X1988Y2395D02*
X2075Y2482D01*
Y2413D02*
Y2438D01*
X2056Y2395D02*
X2075Y2414D01*
X2044Y2395D02*
X2075Y2426D01*
X2033Y2395D02*
X2075Y2437D01*
X2022Y2395D02*
X2075Y2448D01*
X1960Y2520D02*
X2084Y2396D01*
X1954Y2395D02*
X2079Y2520D01*
X1942Y2395D02*
X2067Y2520D01*
X1938D02*
X2063Y2395D01*
X1875Y2520D02*
X2140D01*
X1931Y2395D02*
X2056Y2520D01*
X1926D02*
X2051Y2395D01*
X1920D02*
X2045Y2520D01*
X1915D02*
X2040Y2395D01*
X1909D02*
X2034Y2520D01*
X1904D02*
X2029Y2395D01*
X1897D02*
X2022Y2520D01*
X1892D02*
X2017Y2395D01*
X1886D02*
X2011Y2520D01*
X1874Y2474D02*
X1920Y2520D01*
X1881D02*
X2006Y2395D01*
X1875Y2486D02*
X1909Y2520D01*
X1875Y2497D02*
X1898Y2520D01*
X1815Y2403D02*
X1932Y2520D01*
X1875Y2509D02*
X1886Y2520D01*
X1875Y2480D02*
Y2520D01*
Y2515D02*
X1995Y2395D01*
X1815Y2410D02*
X1868Y2462D01*
X1875Y2395D02*
X2000Y2520D01*
X1863Y2395D02*
X1988Y2520D01*
X1949D02*
X2084Y2385D01*
X1852Y2395D02*
X1977Y2520D01*
X1841Y2395D02*
X1966Y2520D01*
X1829Y2395D02*
X1954Y2520D01*
X1818Y2395D02*
X1943Y2520D01*
X1875Y2503D02*
X1983Y2395D01*
X1875Y2492D02*
X1972Y2395D01*
X1875Y2481D02*
X1961Y2395D01*
X1873Y2471D02*
X1949Y2395D01*
X1818D02*
X1943Y2520D01*
X1815Y2395D02*
X2060D01*
X1869Y2464D02*
X1938Y2395D01*
X1864Y2458D02*
X1927Y2395D01*
X1858Y2453D02*
X1916Y2395D01*
X1852Y2447D02*
X1904Y2395D01*
X1847Y2441D02*
X1893Y2395D01*
X1841Y2436D02*
X1882Y2395D01*
X1835Y2430D02*
X1870Y2395D01*
X1830Y2424D02*
X1859Y2395D01*
X1824Y2419D02*
X1848Y2395D01*
X1818Y2413D02*
X1836Y2395D01*
X1815D02*
Y2410D01*
Y2405D02*
X1825Y2395D01*
X2150Y2100D02*
X2303D01*
X2100Y2150D02*
X2150Y2100D01*
X2068Y2118D02*
X2100Y2150D01*
X1950Y2118D02*
X2068D01*
X2303Y2300D02*
X2328Y2275D01*
X2150Y2300D02*
X2303D01*
X2100Y2250D02*
X2150Y2300D01*
X2058Y2292D02*
X2100Y2250D01*
X1950Y2292D02*
X2058D01*
X2135Y2380D02*
X2190D01*
X2105Y2410D02*
X2135Y2380D01*
X2181Y2439D02*
X2326D01*
X2265Y2560D02*
Y2565D01*
X2235Y2530D02*
X2265Y2560D01*
X2235Y2480D02*
Y2530D01*
X2220Y2465D02*
X2235Y2480D01*
X2181Y2465D02*
X2220D01*
X2181Y2536D02*
X2200Y2555D01*
X2181Y2491D02*
Y2536D01*
X4885Y2135D02*
X4920Y2100D01*
Y2085D02*
Y2100D01*
Y2085D02*
X4987Y2018D01*
Y1978D02*
Y2018D01*
X4870Y2070D02*
X4895Y2045D01*
X4925D01*
X4956Y2014D01*
X4820Y2050D02*
Y2155D01*
Y2050D02*
X4850Y2020D01*
X4910D01*
X4924Y2006D01*
X4700Y2215D02*
Y2240D01*
Y2215D02*
X4775Y2140D01*
Y2045D02*
Y2140D01*
Y2045D02*
X4835Y1985D01*
X3730Y1820D02*
X3740Y1810D01*
Y1555D02*
Y1810D01*
X3660Y1755D02*
X3680Y1775D01*
X3660Y1555D02*
Y1755D01*
X5020Y3705D02*
X5050Y3675D01*
Y3595D02*
Y3675D01*
X5035Y3580D02*
X5050Y3595D01*
X4955Y3705D02*
X4977Y3683D01*
Y3630D02*
Y3683D01*
X4835Y2280D02*
Y2300D01*
X1877Y2992D02*
Y3029D01*
X1815Y2930D02*
X1877Y2992D01*
X1770Y2930D02*
X1815D01*
X4860Y2800D02*
X4890Y2830D01*
X4860Y2675D02*
Y2800D01*
X4780Y2595D02*
X4860Y2675D01*
X4120Y2595D02*
X4780D01*
X4725Y2790D02*
X4835Y2900D01*
X4725Y2760D02*
Y2790D01*
X4635Y2670D02*
X4725Y2760D01*
X4540Y2135D02*
X4547Y2128D01*
Y2067D02*
Y2128D01*
X4480Y2195D02*
X4490Y2185D01*
Y2085D02*
Y2185D01*
Y2085D02*
X4516Y2059D01*
Y1978D02*
Y2059D01*
X4105Y2175D02*
X4120D01*
X4284Y2011D01*
X4440Y2095D02*
Y2130D01*
Y2095D02*
X4470Y2065D01*
X4380Y2080D02*
Y2165D01*
Y2080D02*
X4453Y2007D01*
Y1978D02*
Y2007D01*
X4315Y2195D02*
X4316Y2194D01*
Y2019D02*
Y2194D01*
X4400Y1935D02*
Y2015D01*
X4380Y2035D02*
X4400Y2015D01*
X4355Y2035D02*
X4380D01*
X4348Y2028D02*
X4355Y2035D01*
X4347Y2028D02*
X4348D01*
X4740Y2700D02*
X4815D01*
X4660Y2620D02*
X4740Y2700D01*
X4630Y2620D02*
X4660D01*
X4765Y2765D02*
X4775D01*
X4645Y2645D02*
X4765Y2765D01*
X4200Y2670D02*
X4635D01*
X4649Y2851D02*
Y2901D01*
Y2851D02*
X4695Y2805D01*
Y2765D02*
Y2805D01*
X4625Y2695D02*
X4695Y2765D01*
X4220Y2695D02*
X4625D01*
X4445Y2770D02*
X4510Y2835D01*
X4180Y2770D02*
X4445D01*
X4370Y2795D02*
X4455Y2880D01*
X3800Y1745D02*
Y1825D01*
Y1745D02*
X3815Y1730D01*
Y1555D02*
Y1730D01*
X3845Y1775D02*
X3895Y1725D01*
Y1555D02*
Y1725D01*
X3823Y1867D02*
Y1912D01*
Y1867D02*
X3895Y1795D01*
Y1770D02*
Y1795D01*
Y1770D02*
X3975Y1690D01*
Y1555D02*
Y1690D01*
X3854Y1876D02*
Y1912D01*
X3920Y1785D02*
X3995Y1710D01*
X4060D01*
X4130Y1640D01*
Y1555D02*
Y1640D01*
X3886Y1884D02*
Y1912D01*
X3945Y1800D02*
X4010Y1735D01*
X4070D01*
X4175Y1630D01*
Y1525D02*
Y1630D01*
X4160Y1510D02*
X4175Y1525D01*
X4100Y1510D02*
X4160D01*
X4055Y1555D02*
X4100Y1510D01*
X3917Y1912D02*
X3970Y1859D01*
Y1810D02*
Y1859D01*
Y1810D02*
X4020Y1760D01*
X4080D01*
X4210Y1630D01*
Y1555D02*
Y1630D01*
X4335Y1605D02*
Y1770D01*
X4285Y1555D02*
X4335Y1605D01*
X4385Y1575D02*
Y1830D01*
X4365Y1555D02*
X4385Y1575D01*
X4347Y1857D02*
Y1912D01*
X4280Y1790D02*
X4347Y1857D01*
X4061Y1790D02*
X4280D01*
X4018Y1833D02*
X4061Y1790D01*
X4018Y1833D02*
Y1912D01*
X4316Y1866D02*
Y1912D01*
X4285Y1835D02*
X4316Y1866D01*
X4185Y1835D02*
X4285D01*
X4085D02*
X4185D01*
X4049Y1871D02*
X4085Y1835D01*
X4049Y1871D02*
Y1912D01*
X4284Y1884D02*
Y1912D01*
X4270Y1870D02*
X4284Y1884D01*
X4235Y1870D02*
X4270D01*
X4200Y1905D02*
X4235Y1870D01*
X4170Y1905D02*
X4200D01*
X4135Y1870D02*
X4170Y1905D01*
X4090Y1870D02*
X4135D01*
X4081Y1879D02*
X4090Y1870D01*
X4081Y1879D02*
Y1912D01*
X4220Y1944D02*
X4253Y1912D01*
X4220Y1944D02*
Y1970D01*
X4205Y1985D02*
X4220Y1970D01*
X4165Y1985D02*
X4205D01*
X4145Y1965D02*
X4165Y1985D01*
X4145Y1935D02*
Y1965D01*
X4122Y1912D02*
X4145Y1935D01*
X4112Y1912D02*
X4122D01*
X5140Y1405D02*
Y1500D01*
X5075Y1340D02*
X5140Y1405D01*
X5170Y1360D02*
X5185Y1375D01*
Y1525D01*
X5145Y1565D02*
X5185Y1525D01*
X5094Y1245D02*
X5095D01*
X5210Y1360D01*
Y1535D01*
X5195Y1550D02*
X5210Y1535D01*
X5195Y1550D02*
Y1620D01*
X5174Y1245D02*
X5240Y1311D01*
Y1570D01*
X5254Y1245D02*
X5270Y1261D01*
Y1465D01*
X4695Y1485D02*
X4785D01*
X4810Y1510D01*
X5010D01*
X5035Y1535D01*
Y1585D01*
X5020Y1600D02*
X5035Y1585D01*
X5020Y1600D02*
Y1770D01*
X2950Y3690D02*
X3070Y3810D01*
X2950Y3440D02*
Y3690D01*
X2915Y3405D02*
X2950Y3440D01*
X2827Y3405D02*
X2915D01*
X2975Y3680D02*
X3080Y3785D01*
X2975Y3390D02*
Y3680D01*
X2940Y3355D02*
X2975Y3390D01*
X2827Y3355D02*
X2940D01*
X3000Y3670D02*
X3090Y3760D01*
X3000Y3365D02*
Y3670D01*
X2940Y3305D02*
X3000Y3365D01*
X2827Y3305D02*
X2940D01*
X3025Y3655D02*
X3105Y3735D01*
X3025Y3355D02*
Y3655D01*
X2925Y3255D02*
X3025Y3355D01*
X2827Y3255D02*
X2925D01*
X3120Y3710D02*
X3665D01*
X3050Y3640D02*
X3120Y3710D01*
X3050Y3345D02*
Y3640D01*
X2910Y3205D02*
X3050Y3345D01*
X2827Y3205D02*
X2910D01*
X3200Y3600D02*
X3250Y3550D01*
Y3440D02*
Y3550D01*
Y3440D02*
X3405Y3285D01*
X3300Y3425D02*
Y3600D01*
Y3425D02*
X3415Y3310D01*
X3350Y3415D02*
Y3545D01*
Y3415D02*
X3430Y3335D01*
X3525Y3500D02*
Y3520D01*
Y3500D02*
X3590Y3435D01*
X3675D01*
X3525Y3430D02*
X3545Y3410D01*
X3665D01*
X3425Y3375D02*
Y3520D01*
Y3375D02*
X3440Y3360D01*
X3635D01*
X3675Y3435D02*
X3825Y3285D01*
Y3230D02*
Y3285D01*
Y3230D02*
X3859Y3196D01*
Y3154D02*
Y3196D01*
X3665Y3410D02*
X3800Y3275D01*
Y3220D02*
Y3275D01*
X3780Y3200D02*
X3800Y3220D01*
X3780Y3154D02*
Y3200D01*
X3957Y3154D02*
Y3297D01*
X3930Y3210D02*
Y3310D01*
Y3210D02*
X3938Y3202D01*
Y3154D02*
Y3202D01*
X4090Y2390D02*
X4248D01*
X4020Y2460D02*
X4090Y2390D01*
X4560Y2315D02*
X4747Y2128D01*
X4130Y2315D02*
X4560D01*
X3977Y2468D02*
X4130Y2315D01*
X4550Y2290D02*
X4716Y2124D01*
X4120Y2290D02*
X4550D01*
X3957Y2453D02*
X4120Y2290D01*
X4540Y2265D02*
X4684Y2121D01*
X4110Y2265D02*
X4540D01*
X3990Y2385D02*
X4110Y2265D01*
X4530Y2240D02*
X4653Y2117D01*
X4100Y2240D02*
X4530D01*
X3980Y2360D02*
X4100Y2240D01*
X4547Y1978D02*
Y2067D01*
X4470Y2065D02*
X4484Y2051D01*
Y1978D02*
Y2051D01*
X4347Y1978D02*
Y2028D01*
X4105Y2105D02*
X4175Y2035D01*
X4220D01*
X4253Y2002D01*
X3898Y2407D02*
X4055Y2250D01*
Y2085D02*
Y2250D01*
Y2085D02*
X4112Y2028D01*
Y1978D02*
Y2028D01*
X3879Y2391D02*
X4030Y2240D01*
Y2070D02*
Y2240D01*
Y2070D02*
X4081Y2019D01*
Y1978D02*
Y2019D01*
X3859Y2376D02*
X4005Y2230D01*
Y2055D02*
Y2230D01*
Y2055D02*
X4049Y2011D01*
Y1978D02*
Y2011D01*
X3839Y2361D02*
X3980Y2220D01*
Y2040D02*
Y2220D01*
Y2040D02*
X4018Y2002D01*
Y1978D02*
Y2002D01*
X3935Y2030D02*
Y2155D01*
X3917Y2012D02*
X3935Y2030D01*
X3917Y1978D02*
Y2012D01*
X4316Y1978D02*
Y2019D01*
X4253Y1978D02*
Y2002D01*
X3760Y3275D02*
X3770Y3265D01*
Y3230D02*
Y3265D01*
X3761Y3221D02*
X3770Y3230D01*
X3761Y3154D02*
Y3221D01*
X3905Y3363D02*
X3987Y3445D01*
X3905Y3210D02*
Y3363D01*
X3898Y3203D02*
X3905Y3210D01*
X3898Y3154D02*
Y3203D01*
X3795Y3445D02*
X3825Y3415D01*
X3879Y3361D01*
Y3154D02*
Y3361D01*
X3650Y3385D02*
X3760Y3275D01*
X3635Y3360D02*
X3741Y3254D01*
X3741D01*
X3430Y3335D02*
X3620D01*
X3721Y3234D01*
X3721D01*
X3415Y3310D02*
X3610D01*
X3701Y3218D01*
X3702D01*
X3405Y3285D02*
X3600D01*
X3682Y3203D01*
X3682D01*
X3702Y3154D02*
Y3218D01*
X3682Y3154D02*
Y3203D01*
X3220Y3310D02*
X3265Y3265D01*
X3105Y3310D02*
X3220D01*
X2950Y3155D02*
X3105Y3310D01*
X2827Y3155D02*
X2950D01*
X3120Y3265D02*
X3125D01*
X2960Y3105D02*
X3120Y3265D01*
X2827Y3105D02*
X2960D01*
X3145Y3215D02*
X3195Y3265D01*
X3105Y3215D02*
X3145D01*
X2945Y3055D02*
X3105Y3215D01*
X2827Y3055D02*
X2945D01*
X2755Y2390D02*
Y2735D01*
X2785Y2860D02*
X3115Y3190D01*
X3160D01*
X3190Y3220D01*
X3285D01*
X3325Y3260D01*
X3590D01*
X3643Y3207D01*
Y3154D02*
Y3207D01*
X2775Y2815D02*
X3125Y3165D01*
X3170D01*
X3200Y3195D01*
X3295D01*
X3335Y3235D01*
X3580D01*
X3603Y3212D01*
Y3154D02*
Y3212D01*
X3570Y3210D02*
X3583Y3197D01*
Y3154D02*
Y3197D01*
X3345Y3210D02*
X3570D01*
X2880Y2250D02*
X3025Y2395D01*
X2880Y2080D02*
Y2250D01*
X2823Y2023D02*
X2880Y2080D01*
X2823Y1978D02*
Y2023D01*
X2905Y2235D02*
X3050Y2380D01*
X2905Y2065D02*
Y2235D01*
X2854Y2014D02*
X2905Y2065D01*
X2854Y1978D02*
Y2014D01*
X2930Y2220D02*
X3075Y2365D01*
X2930Y2050D02*
Y2220D01*
X2886Y2006D02*
X2930Y2050D01*
X2886Y1978D02*
Y2006D01*
X2955Y2205D02*
X3100Y2355D01*
X2955Y2035D02*
Y2205D01*
X2917Y1997D02*
X2955Y2035D01*
X2917Y1978D02*
Y1997D01*
X2980Y2190D02*
X3120Y2335D01*
X2980Y2040D02*
Y2190D01*
Y2040D02*
X3023Y1997D01*
Y1978D02*
Y1997D01*
X3005Y2175D02*
X3135Y2310D01*
X3005Y2055D02*
Y2175D01*
Y2055D02*
X3054Y2006D01*
X3030Y2160D02*
X3160Y2285D01*
X3030Y2070D02*
Y2160D01*
Y2070D02*
X3086Y2014D01*
X3055Y2140D02*
X3175Y2260D01*
X3055Y2085D02*
Y2140D01*
Y2085D02*
X3117Y2023D01*
X2402Y2275D02*
X2465Y2340D01*
X2280Y1820D02*
X2290Y1825D01*
X2270Y1705D02*
X2315D01*
X2345Y1735D01*
Y1780D01*
X2085Y1750D02*
X2130Y1705D01*
X2270D01*
X2645Y2405D02*
Y2448D01*
X2620Y2380D02*
X2645Y2405D01*
X2580Y2380D02*
X2620D01*
X2455Y2255D02*
X2580Y2380D01*
X2455Y2135D02*
Y2255D01*
X2480Y2125D02*
Y2245D01*
X2590Y2355D01*
X2640D01*
X2605Y2330D02*
X2655D01*
X2505Y2230D02*
X2605Y2330D01*
X2505Y2110D02*
Y2230D01*
X2535Y2095D02*
Y2225D01*
X2610Y2300D01*
X2665D01*
X2625Y2275D02*
X2680D01*
X2560Y2210D02*
X2625Y2275D01*
X2560Y2080D02*
Y2210D01*
X2585Y2065D02*
Y2200D01*
X2635Y2250D01*
X2695D01*
X2482Y1840D02*
X2535D01*
X2600Y1905D01*
Y2045D01*
X2610Y2055D01*
Y2190D01*
X2645Y2225D01*
X2710D01*
X2830Y2345D01*
Y2765D01*
X3155Y3090D01*
X2805Y2775D02*
X3145Y3115D01*
X2805Y2360D02*
Y2775D01*
X2695Y2250D02*
X2805Y2360D01*
X2575Y2055D02*
X2585Y2065D01*
X2575Y1935D02*
Y2055D01*
X2530Y1890D02*
X2575Y1935D01*
X2482Y1890D02*
X2530D01*
X2780Y2785D02*
X3135Y3140D01*
X2780Y2375D02*
Y2785D01*
X2680Y2275D02*
X2780Y2375D01*
X2550Y2070D02*
X2560Y2080D01*
X2550Y1960D02*
Y2070D01*
X2530Y1940D02*
X2550Y1960D01*
X2482Y1940D02*
X2530D01*
X2665Y2300D02*
X2755Y2390D01*
X2482Y2042D02*
X2535Y2095D01*
X2482Y1990D02*
Y2042D01*
X3135Y3140D02*
X3180D01*
X3210Y3170D01*
X3305D01*
X3345Y3210D01*
X3662Y3093D02*
Y3154D01*
X3213Y1978D02*
Y1982D01*
X3244Y1978D02*
Y2006D01*
X3276Y1978D02*
Y2039D01*
X3307Y2022D02*
X3350Y2065D01*
X3307Y1978D02*
Y2022D01*
X3117Y1978D02*
Y2023D01*
X3086Y1978D02*
Y2014D01*
X3054Y1978D02*
Y2006D01*
X3170Y2980D02*
X3183Y2993D01*
X3501D01*
X3175Y3045D02*
X3185D01*
X3218Y3012D01*
X3501D01*
X3240Y3060D02*
X3268Y3032D01*
X3501D01*
X3187Y2935D02*
X3225Y2973D01*
X3160Y2935D02*
X3187D01*
X3025Y2800D02*
X3160Y2935D01*
X3025Y2395D02*
Y2800D01*
X3240Y2948D02*
X3245Y2953D01*
X3202Y2910D02*
X3240Y2948D01*
X3175Y2910D02*
X3202D01*
X3050Y2790D02*
X3175Y2910D01*
X3050Y2380D02*
Y2790D01*
X3215Y2885D02*
X3264Y2934D01*
X3190Y2885D02*
X3215D01*
X3075Y2770D02*
X3190Y2885D01*
X3075Y2365D02*
Y2770D01*
X3225Y2860D02*
X3279Y2914D01*
X3205Y2860D02*
X3225D01*
X3100Y2760D02*
X3205Y2860D01*
X3100Y2355D02*
Y2760D01*
X3145Y3115D02*
X3190D01*
X3220Y3145D01*
X3315D01*
X3355Y3185D01*
X3535D01*
X3564Y3156D01*
Y3154D02*
Y3156D01*
X3155Y3090D02*
X3200D01*
X3230Y3120D01*
X3325D01*
X3365Y3160D01*
X3495D01*
X3425Y3115D02*
X3449Y3091D01*
X3501D01*
X3365Y3095D02*
X3388Y3072D01*
X3501D01*
X3415Y2580D02*
X3445D01*
X3484Y2619D01*
X3501D01*
X3400Y2605D02*
X3430D01*
X3463Y2638D01*
X3501D01*
X3385Y2630D02*
X3420D01*
X3448Y2658D01*
X3501D01*
Y2678D02*
X3553D01*
X3370Y2655D02*
X3390D01*
X3410Y2675D01*
X3430D01*
X3453Y2698D01*
X3501D01*
X3575Y2735D02*
Y2760D01*
X3557Y2717D02*
X3575Y2735D01*
X3501Y2717D02*
X3557D01*
X3355Y2680D02*
X3375D01*
X3395Y2700D01*
X3420D01*
X3457Y2737D01*
X3501D01*
X3330Y2705D02*
X3360D01*
X3380Y2725D01*
X3410D01*
X3442Y2757D01*
X3501D01*
X3295Y2710D02*
X3315Y2730D01*
X3345D01*
X3365Y2750D01*
X3400D01*
X3426Y2776D01*
X3501D01*
X3275Y2755D02*
X3330D01*
X3350Y2775D01*
X3385D01*
X3406Y2796D01*
X3501D01*
X3375Y2800D02*
X3391Y2816D01*
X3501D01*
X3365Y2825D02*
X3385Y2845D01*
X3430D01*
X3440Y2835D01*
X3501D01*
X3345Y2870D02*
X3440D01*
X3455Y2855D01*
X3501D01*
X3278Y2973D02*
X3501D01*
X3293Y2953D02*
X3501D01*
X3264Y2934D02*
X3501D01*
X3279Y2914D02*
X3501D01*
X3492Y1978D02*
Y2047D01*
X3820Y2375D01*
Y2556D01*
X3461Y1978D02*
Y2051D01*
X3800Y2390D01*
Y2556D01*
X3429Y1978D02*
Y2054D01*
X3780Y2405D01*
Y2556D01*
X3398Y1978D02*
Y2058D01*
X3761Y2421D01*
Y2556D01*
X3560Y2260D02*
X3741Y2436D01*
Y2556D01*
X3555Y2285D02*
X3721Y2451D01*
Y2556D01*
X3540Y2310D02*
X3702Y2467D01*
Y2556D01*
X3530Y2335D02*
X3682Y2482D01*
Y2556D01*
X3839Y2361D02*
Y2556D01*
X3859Y2376D02*
Y2556D01*
X3879Y2391D02*
Y2556D01*
X3898Y2407D02*
Y2556D01*
X3918Y2422D02*
X3980Y2360D01*
X3918Y2422D02*
Y2556D01*
X3938Y2437D02*
X3990Y2385D01*
X3938Y2437D02*
Y2556D01*
X3957Y2453D02*
Y2556D01*
X3977Y2468D02*
Y2556D01*
X3997Y2483D02*
X4020Y2460D01*
X3997Y2483D02*
Y2556D01*
X4453Y1867D02*
X4500Y1820D01*
X4453Y1867D02*
Y1912D01*
X4445Y1555D02*
Y1745D01*
X4484Y1876D02*
X4515Y1845D01*
X4484Y1876D02*
Y1912D01*
X4516Y1884D02*
X4530Y1870D01*
X4516Y1884D02*
Y1912D01*
X4670Y1555D02*
X4715Y1510D01*
X4520Y1555D02*
Y1750D01*
X4017Y2508D02*
X4025Y2500D01*
X2192Y3300D02*
Y3318D01*
X2160Y3350D02*
X2192Y3318D01*
X1680Y3065D02*
X1716Y3029D01*
X1786D01*
X2192Y3300D02*
X2220D01*
X2250Y3270D01*
Y3045D02*
Y3270D01*
X2209Y3004D02*
X2250Y3045D01*
X2174Y3003D02*
X2209Y3004D01*
X2174Y3003D02*
X2176D01*
X2209Y3103D02*
Y3168D01*
X2134Y3103D02*
Y3168D01*
X2333Y2130D02*
Y2160D01*
X2405Y2130D02*
Y2162D01*
X2415Y1940D02*
X2482D01*
X2395Y1960D02*
X2415Y1940D01*
X2395Y1960D02*
Y2000D01*
X2505Y2110D01*
X2655Y2330D02*
X2730Y2405D01*
Y2725D01*
X2720Y2735D02*
X2730Y2725D01*
X2570Y2735D02*
X2720D01*
X2532Y2697D02*
X2570Y2735D01*
X2532Y2696D02*
Y2697D01*
X2405Y1840D02*
X2482D01*
X2370Y1875D02*
X2405Y1840D01*
X2370Y1875D02*
Y1980D01*
Y2015D01*
X2480Y2125D01*
X2640Y2355D02*
X2695Y2410D01*
Y2655D01*
X2687Y2663D02*
X2695Y2655D01*
X2687Y2663D02*
Y2696D01*
X2645Y2522D02*
Y2599D01*
X2495Y2522D02*
Y2604D01*
X2368Y2655D02*
X2585D01*
X2613Y2683D01*
Y2696D01*
X2405Y2745D02*
X2454Y2696D01*
X2458D01*
X2290Y2010D02*
X2320Y2040D01*
X2405Y2125D01*
Y2130D01*
X2303Y2100D02*
X2333Y2130D01*
X1950Y2118D02*
Y2120D01*
X2313Y2250D02*
X2328Y2265D01*
X1950Y2292D02*
Y2300D01*
X2432Y2385D02*
X2495Y2448D01*
X2320Y2385D02*
X2432D01*
X2265Y2330D02*
X2320Y2385D01*
X2345Y2025D02*
X2455Y2135D01*
X2345Y1780D02*
Y2025D01*
X2495Y2430D02*
Y2448D01*
X2100Y2330D02*
X2265Y2330D01*
X2060Y2370D02*
X2100Y2330D01*
X1735Y2370D02*
X2060D01*
X1538Y2173D02*
X1735Y2370D01*
X2105Y2410D02*
Y2438D01*
X1845Y2785D02*
X1960D01*
X2000Y2745D01*
X2405D01*
X2210Y2635D02*
Y2700D01*
X2190Y2720D02*
X2210Y2700D01*
X1960Y2720D02*
X2190D01*
X1940Y2740D02*
X1960Y2720D01*
X2100Y2635D02*
Y2675D01*
X2080Y2695D02*
X2100Y2675D01*
X1885Y2695D02*
X2080D01*
X1735Y2580D02*
Y2654D01*
X1665Y2510D02*
X1735Y2580D01*
X1671Y2448D02*
X1684Y2460D01*
X1598Y2448D02*
X1671D01*
X1634Y2479D02*
X1665Y2510D01*
X1598Y2479D02*
X1634D01*
X1626Y2511D02*
X1640Y2525D01*
X1598Y2511D02*
X1626D01*
X1481D02*
X1532D01*
X5183Y3580D02*
X5220D01*
X5260Y3515D02*
X5323D01*
X5245Y3530D02*
X5260Y3515D01*
X5183Y3530D02*
X5245D01*
X5397Y3405D02*
Y3428D01*
X5365Y3460D02*
X5397Y3428D01*
X5265Y3460D02*
X5365D01*
X5245Y3480D02*
X5265Y3460D01*
X5183Y3480D02*
X5245D01*
X5270Y3405D02*
X5323D01*
X5245Y3430D02*
X5270Y3405D01*
X5183Y3430D02*
X5245D01*
X5397Y3295D02*
Y3318D01*
X5365Y3350D02*
X5397Y3318D01*
X5260Y3350D02*
X5365D01*
X5230Y3380D02*
X5260Y3350D01*
X5183Y3380D02*
X5230D01*
X5308Y3280D02*
X5323Y3295D01*
X5183Y3280D02*
X5308D01*
X1778Y1933D02*
X1785Y1940D01*
X1848D01*
X2052D02*
X2278D01*
X2052Y1890D02*
X2278D01*
X3517Y1435D02*
X3800D01*
X3850Y1485D01*
X3900D01*
X3950Y1435D01*
X4080D01*
X4245Y1435D02*
X4530D01*
X2134Y3103D02*
Y3106D01*
X2057Y3103D02*
X2134D01*
X2032Y3128D02*
X2057Y3103D01*
X1877Y3273D02*
X1879Y3276D01*
X2209Y3076D02*
Y3103D01*
X1967Y3029D02*
X2003D01*
X2187Y3053D02*
X2209Y3076D01*
X2027Y3053D02*
X2187D01*
X2003Y3029D02*
X2027Y3053D01*
X1735Y2455D02*
X1776Y2496D01*
Y2497D01*
X3505Y1435D02*
X3517D01*
X3455Y1485D02*
X3505Y1435D01*
X3405Y1485D02*
X3455D01*
X3355Y1435D02*
X3405Y1485D01*
X3220Y1435D02*
X3355D01*
X2789D02*
X3075D01*
X2788Y1435D02*
X2789Y1435D01*
X2770Y1435D02*
X2788D01*
X2510Y1435D02*
X2625D01*
X1235Y3085D02*
Y3220D01*
X1340Y3325D01*
X1474D01*
X3501Y2875D02*
X3571Y2875D01*
X3918Y2875D02*
X3918Y2875D01*
X3662Y2556D02*
Y2619D01*
X4032Y2816D02*
X4099Y2816D01*
X3643Y2556D02*
Y2594D01*
X3605Y2660D02*
X3643Y2594D01*
X3501Y2894D02*
X3548D01*
X3605Y2951D01*
X4052Y2796D02*
X4099D01*
X4010Y2754D02*
X4052Y2796D01*
X4010Y2739D02*
Y2754D01*
X4924Y1978D02*
Y2006D01*
X4956Y1978D02*
Y2014D01*
X3385Y2460D02*
Y2510D01*
X3623Y2463D02*
Y2556D01*
X3565Y2405D02*
X3623Y2463D01*
X3583Y2508D02*
Y2556D01*
X3580Y2505D02*
X3583Y2508D01*
X3570Y2505D02*
X3580D01*
X3120Y2335D02*
X3530D01*
X3135Y2310D02*
X3540D01*
X3160Y2285D02*
X3555D01*
X3175Y2260D02*
X3560D01*
X3305Y2550D02*
X3385Y2630D01*
X3350Y2680D02*
X3355D01*
X3886Y1978D02*
Y2206D01*
X3905Y2225D01*
X3854Y1978D02*
Y2256D01*
X3845Y2265D02*
X3854Y2256D01*
X3823Y1978D02*
Y2217D01*
X3775Y2265D02*
X3823Y2217D01*
X3553Y2678D02*
X3565Y2690D01*
X3570D01*
X3590Y2710D01*
X3615D01*
X3635Y2730D01*
X4840Y1555D02*
Y1585D01*
X4924Y1884D02*
Y1912D01*
X4925Y1845D02*
X4956Y1876D01*
Y1912D01*
X4910Y1555D02*
Y1665D01*
X4987Y1867D02*
Y1912D01*
X4835Y1985D02*
X4886D01*
X4893Y1978D01*
X4940Y1820D02*
X4987Y1867D01*
X4445Y1745D02*
Y1755D01*
X4465Y1775D01*
X4520Y1750D02*
Y1760D01*
X4535Y1775D01*
X4500Y1820D02*
X4555D01*
X4580Y1795D01*
Y1570D02*
Y1795D01*
Y1570D02*
X4595Y1555D01*
X4515Y1845D02*
X4565D01*
X4605Y1805D01*
Y1700D02*
Y1805D01*
Y1700D02*
X4750Y1555D01*
X4530Y1870D02*
X4580D01*
X4630Y1820D01*
Y1715D02*
Y1820D01*
Y1715D02*
X4740Y1605D01*
X4547Y1912D02*
X4578D01*
X4655Y1835D01*
Y1730D02*
Y1835D01*
Y1730D02*
X4755Y1630D01*
X4795D01*
X4840Y1585D01*
X4747Y1912D02*
X4772D01*
X4800Y1940D01*
X4864D01*
X4893Y1912D01*
X4700Y1775D02*
X4775D01*
X4820Y1820D01*
X4940D01*
X4750D02*
X4775Y1845D01*
X4925D01*
X4910Y1870D02*
X4924Y1884D01*
X4735Y1870D02*
X4910D01*
X4715Y1890D02*
X4735Y1870D01*
X4715Y1890D02*
X4716Y1912D01*
X4740Y1820D02*
X4750D01*
X4653Y1872D02*
Y1912D01*
Y1872D02*
X4700Y1825D01*
Y1775D02*
Y1825D01*
X4684Y1881D02*
Y1912D01*
Y1881D02*
X4745Y1820D01*
X4750D01*
X4747Y1978D02*
Y2128D01*
X4716Y1978D02*
Y2124D01*
X4684Y1978D02*
Y2121D01*
X4653Y1978D02*
Y2117D01*
X4845Y1730D02*
X4910Y1665D01*
X4845Y1730D02*
Y1775D01*
X4915Y1715D02*
X4985Y1645D01*
X4915Y1715D02*
Y1775D01*
X4284Y1978D02*
Y2011D01*
X2625Y1435D02*
X2625D01*
X2675Y1385D01*
X2720D01*
X2770Y1435D01*
X2789D01*
X2495D02*
X2510D01*
X2100Y1245D02*
Y1245D01*
X4530Y1435D02*
X4580Y1485D01*
X4695D01*
X4695Y1435D01*
X4985Y1555D02*
Y1645D01*
X4740Y1605D02*
X4760D01*
X4785Y1580D01*
Y1535D02*
Y1580D01*
X4760Y1510D02*
X4785Y1535D01*
X4715Y1510D02*
X4760D01*
X4080Y1435D02*
X4130Y1485D01*
X4195D01*
X4245Y1435D01*
X3983Y3441D02*
X3987Y3445D01*
X3305Y2825D02*
X3365D01*
X3280Y2850D02*
X3305Y2825D01*
X3240Y2800D02*
X3375D01*
X3215Y2825D02*
X3240Y2800D01*
X3250Y2710D02*
X3295D01*
X3205Y2755D02*
X3250Y2710D01*
X3310Y2685D02*
X3330Y2705D01*
X3205Y2685D02*
X3310D01*
Y2640D02*
X3350Y2680D01*
X3255Y2640D02*
X3310D01*
Y2595D02*
X3370Y2655D01*
X3200Y2595D02*
X3310D01*
X3260Y2550D02*
X3305D01*
X3300Y2505D02*
X3400Y2605D01*
X3385Y2510D02*
X3430Y2555D01*
X3460D01*
X3490Y2585D01*
X3560D01*
X3564Y2581D01*
Y2556D02*
Y2581D01*
X3555Y2505D02*
X3570D01*
X3525Y2535D02*
X3555Y2505D01*
X3485Y2535D02*
X3525D01*
X3460Y2510D02*
X3485Y2535D01*
X3450Y2510D02*
X3460D01*
X3603Y2493D02*
Y2556D01*
X3575Y2465D02*
X3603Y2493D01*
X3530Y2465D02*
X3575D01*
X3510Y2485D02*
X3530Y2465D01*
X3320Y2485D02*
X3415Y2580D01*
X3320Y2465D02*
Y2485D01*
X3275Y2505D02*
X3300D01*
X3255Y2485D02*
X3275Y2505D01*
X3170Y2405D02*
X3565D01*
X3245Y2953D02*
X3293D01*
X3225Y2973D02*
X3278D01*
X3328Y3052D02*
X3501D01*
X3305Y3075D02*
X3328Y3052D01*
X3702Y1978D02*
X3723D01*
X3775Y2030D01*
Y2120D01*
X3671Y1978D02*
Y2006D01*
X3725Y2060D01*
X3639Y1978D02*
Y2029D01*
X3660Y2050D01*
Y2090D01*
X3608Y1978D02*
Y2057D01*
X3590Y2075D02*
X3608Y2057D01*
X3800Y3110D02*
Y3154D01*
X3790Y3100D02*
X3800Y3110D01*
X3244Y2006D02*
Y2026D01*
X3230Y2040D02*
X3244Y2026D01*
X3230Y2040D02*
Y2125D01*
X3210Y2145D02*
X3230Y2125D01*
X3130Y2145D02*
X3210D01*
X3120Y2135D02*
X3130Y2145D01*
X3213Y1978D02*
Y1982D01*
X3185Y2010D02*
X3213Y1982D01*
X3185Y2010D02*
Y2100D01*
X3276Y2039D02*
Y2074D01*
X3721Y3154D02*
Y3234D01*
X3741Y3154D02*
Y3254D01*
X2732Y1978D02*
Y1997D01*
X2701Y1978D02*
Y2011D01*
X2669Y1978D02*
Y2034D01*
X2705Y2070D01*
Y2175D01*
X2638Y1978D02*
Y2098D01*
X2660Y2120D01*
X2701Y2011D02*
X2755Y2065D01*
Y2120D01*
X2732Y1997D02*
X2805Y2070D01*
Y2175D01*
X2510Y1435D02*
Y1435D01*
X2390Y1555D02*
X2510Y1435D01*
X2040Y1435D02*
X2160Y1555D01*
X2699Y1435D02*
Y1436D01*
X2650Y1485D02*
X2699Y1436D01*
X2495Y1485D02*
X2650D01*
X3075Y1435D02*
X3075D01*
X3125Y1385D01*
X3189D01*
X3239Y1435D01*
X3149D02*
Y1436D01*
X3100Y1485D02*
X3149Y1436D01*
X2735Y1485D02*
X3100D01*
X2710Y1510D02*
X2735Y1485D01*
X2505Y1510D02*
X2710D01*
X2390Y1625D02*
X2505Y1510D01*
X2400Y1580D02*
X2495Y1485D01*
X1560Y2855D02*
Y3165D01*
X2525Y3055D02*
X2540Y3040D01*
X2463Y3055D02*
X2525D01*
X2730Y2760D02*
X2755Y2735D01*
X2555Y2760D02*
X2730D01*
X2530Y2735D02*
X2555Y2760D01*
X2480Y2780D02*
X2525D01*
X2530Y2785D01*
X2745D01*
X2775Y2815D01*
X2455Y2735D02*
X2530D01*
X2435Y2755D02*
X2455Y2735D01*
X2435Y2755D02*
Y2805D01*
X2455Y2825D01*
X2535D01*
X2550Y2810D01*
X2735D01*
X2785Y2860D01*
X3425Y1435D02*
X3427D01*
X3350Y1360D02*
X3425Y1435D01*
X2420Y1360D02*
X3350D01*
X2370Y1410D02*
X2420Y1360D01*
X2330Y1415D02*
X2410Y1335D01*
X3390D01*
X3440Y1385D01*
X3827D01*
X3877Y1435D01*
X2275Y1435D02*
X2400Y1310D01*
X3420D01*
X3470Y1360D01*
X4080D01*
X4155Y1435D01*
X2225Y1450D02*
Y1465D01*
Y1450D02*
X2390Y1285D01*
X2680D01*
X2840Y1125D01*
X3135D01*
X3180Y1170D01*
X3525D01*
X3570Y1125D01*
X3860D01*
X4065Y1330D01*
X4500D01*
X4605Y1435D01*
X2115Y1470D02*
X2175Y1530D01*
X2115Y1415D02*
Y1470D01*
X2080Y1380D02*
X2115Y1415D01*
X1945Y1380D02*
X2080D01*
X1915Y1410D02*
X1945Y1380D01*
X1915Y1410D02*
Y1465D01*
X1950Y1500D01*
X1985D01*
X2030Y1545D01*
Y1570D01*
X2275Y1435D02*
Y1475D01*
X2240Y1510D02*
X2275Y1475D01*
X2195Y1510D02*
X2240D01*
X2145Y1460D02*
X2195Y1510D01*
X2145Y1400D02*
Y1460D01*
X2100Y1355D02*
X2145Y1400D01*
X1935Y1355D02*
X2100D01*
X1890Y1400D02*
X1935Y1355D01*
X1890Y1400D02*
Y1500D01*
X1960Y1570D01*
X2100D02*
X2110Y1580D01*
X2270Y1635D02*
X2380D01*
X2390Y1625D01*
Y1590D02*
X2400Y1580D01*
X2120Y1590D02*
X2390D01*
X2100Y1570D02*
X2120Y1590D01*
X2380Y1565D02*
X2390Y1555D01*
X2170Y1565D02*
X2380D01*
X2160Y1555D02*
X2170Y1565D01*
X2370Y1410D02*
Y1465D01*
X2390Y1485D01*
Y1520D01*
X2370Y1540D02*
X2390Y1520D01*
X2185Y1540D02*
X2370D01*
X2175Y1530D02*
X2185Y1540D01*
X2330Y1415D02*
Y1495D01*
X2610Y3005D02*
X2827D01*
X2540D02*
Y3040D01*
X4036Y2556D02*
Y2556D01*
X4475Y2395D02*
X4510D01*
X5000Y1385D02*
X5085Y1470D01*
X4933Y1385D02*
X5000D01*
X4884Y1435D02*
X4933Y1385D01*
X4955Y1210D02*
Y1265D01*
Y1210D02*
X4990Y1175D01*
X5054D01*
X5334Y1435D02*
Y1641D01*
X5214Y1171D02*
Y1175D01*
Y1171D02*
X5265Y1120D01*
X5320D01*
X5525Y1325D01*
Y1500D01*
X5134Y1169D02*
Y1175D01*
X5085Y1120D02*
X5134Y1169D01*
X5005Y1120D02*
X5085D01*
X4925Y1200D02*
X5005Y1120D01*
X4925Y1200D02*
Y1275D01*
X5270Y1465D02*
X5285Y1480D01*
Y1620D01*
X5260Y3660D02*
X5295Y3625D01*
X5213Y3660D02*
X5260D01*
X5183Y3630D02*
X5213Y3660D01*
X5183Y3580D02*
X5320D01*
X5365Y3625D01*
X5397Y3185D02*
Y3213D01*
X5370Y3240D02*
X5397Y3213D01*
X5125Y3240D02*
X5370D01*
X5110Y3255D02*
X5125Y3240D01*
X5110Y3255D02*
Y3315D01*
X5125Y3330D01*
X5183D01*
X4505Y2370D02*
X4510D01*
X4395Y2480D02*
X4505Y2370D01*
X4365Y2480D02*
X4395D01*
X4036Y2556D02*
X4054D01*
X4045D02*
X4054D01*
X4099Y2616D02*
Y2619D01*
X4099Y2638D02*
X4147D01*
X4165Y2620D01*
X4172Y2658D02*
X4185Y2645D01*
X4099Y2658D02*
X4172D01*
X4165Y2620D02*
X4630D01*
X4185Y2645D02*
X4645D01*
X4099Y2616D02*
X4120Y2595D01*
X3623Y3103D02*
Y3154D01*
X3495Y3160D02*
X3555Y3100D01*
Y3015D02*
Y3100D01*
Y3015D02*
X3575Y2995D01*
X3630D01*
X3655Y3020D01*
Y3086D01*
X3662Y3093D01*
X3605Y3085D02*
X3623Y3103D01*
X3605Y3045D02*
Y3085D01*
X3730Y3100D02*
X3790D01*
X3705Y3075D02*
X3730Y3100D01*
X3705Y3045D02*
Y3075D01*
X3820Y3095D02*
Y3154D01*
X3775Y3050D02*
X3820Y3095D01*
X3839Y3111D02*
Y3154D01*
Y3111D02*
X3850Y3100D01*
Y3060D02*
Y3100D01*
X3845Y3055D02*
X3850Y3060D01*
X3900Y2893D02*
X3918Y2875D01*
X4042Y3032D02*
X4099D01*
X3975Y2965D02*
X4042Y3032D01*
X3975Y2920D02*
Y2965D01*
Y2920D02*
X4010Y2885D01*
Y2865D02*
Y2885D01*
X4048Y2993D02*
X4099D01*
X4025Y2970D02*
X4048Y2993D01*
X4025Y2940D02*
Y2970D01*
X5094Y1245D02*
X5095D01*
X5110Y1300D02*
X5170Y1360D01*
X4990Y1300D02*
X5110D01*
X4955Y1265D02*
X4990Y1300D01*
X4925Y1275D02*
X4990Y1340D01*
X5075D01*
X4099Y2678D02*
X4192D01*
X4200Y2670D01*
X4099Y2698D02*
X4217D01*
X4220Y2695D01*
X4099Y2717D02*
X4217D01*
X4220Y2720D01*
X4099Y2737D02*
X4192D01*
X4200Y2745D01*
X4099Y2757D02*
X4167D01*
X4180Y2770D01*
X4099Y2776D02*
X4141D01*
X4160Y2795D01*
X2240Y3450D02*
X2265D01*
X2385Y3570D01*
X2725D01*
X2275Y3425D02*
X2395Y3545D01*
X2735D01*
X2285Y3400D02*
X2405Y3520D01*
X2745D01*
X2300Y3375D02*
X2420Y3495D01*
X3665Y3710D02*
X3740Y3635D01*
X3930Y3310D02*
Y3345D01*
X3975Y3390D01*
X4010D01*
X3957Y3297D02*
Y3332D01*
X3990Y3365D01*
X4025D01*
X3977Y3154D02*
Y3287D01*
X4005Y3315D01*
X3997Y3154D02*
Y3217D01*
X4045Y3265D01*
X3740Y3590D02*
Y3635D01*
X3695Y3545D02*
X3740Y3590D01*
X4010Y3390D02*
X4092Y3472D01*
X4155D01*
X4025Y3365D02*
X4058Y3398D01*
X4173D01*
X4070Y3340D02*
X4260D01*
X4295Y3375D01*
Y3398D01*
X4017Y3154D02*
Y3197D01*
X4035Y3215D01*
X4065D01*
X4036Y3154D02*
X4039D01*
X3105Y3735D02*
X3730D01*
X3980D01*
X3090Y3760D02*
X3715D01*
X3995D01*
X3080Y3785D02*
X3695D01*
X4010D01*
X3070Y3810D02*
X3680D01*
X4025D01*
X4155Y3398D02*
X4188D01*
X4350Y3355D02*
Y3495D01*
X4310Y3315D02*
X4350Y3355D01*
X4165Y3315D02*
X4310D01*
X4065Y3215D02*
X4165Y3315D01*
X4320Y3560D02*
X4375Y3505D01*
Y3345D02*
Y3505D01*
X4320Y3290D02*
X4375Y3345D01*
X4175Y3290D02*
X4320D01*
X4039Y3154D02*
X4175Y3290D01*
X4036Y3154D02*
X4039D01*
X3060Y3835D02*
X3660D01*
X4040D01*
X4335Y3265D02*
X4550Y3480D01*
X4190Y3265D02*
X4335D01*
X4100Y3175D02*
X4190Y3265D01*
X4099Y3091D02*
X4100Y3175D01*
X3050Y3860D02*
X3645D01*
X4055D01*
X4205Y3240D02*
X4345D01*
X4147Y3072D02*
X4160Y3085D01*
X4099Y3072D02*
X4147D01*
X4160Y3085D02*
Y3105D01*
X4140Y3175D02*
X4205Y3240D01*
X4140Y3125D02*
Y3175D01*
Y3125D02*
X4160Y3105D01*
X4099Y3052D02*
X4167D01*
X4190Y3075D01*
Y3145D01*
X4185Y3150D02*
X4190Y3145D01*
X4099Y3012D02*
X4172D01*
X4240Y3080D01*
X4099Y2973D02*
X4198D01*
X4285Y3060D01*
Y3100D01*
X4235Y3150D02*
X4285Y3100D01*
X4235Y3150D02*
Y3195D01*
X4099Y2953D02*
X4218D01*
X4310Y3045D01*
X2255Y3475D02*
X2375Y3595D01*
X2715D01*
X3040Y3885D02*
X3630D01*
X4095D01*
X4140Y3840D01*
X3030Y3910D02*
X3610D01*
X4140D01*
X4230Y3820D01*
X4310Y3045D02*
Y3110D01*
X4290Y3130D02*
X4310Y3110D01*
X4290Y3130D02*
Y3175D01*
X4310Y3195D01*
X4099Y2934D02*
X4239D01*
X4350Y3045D01*
Y3140D01*
X4254Y2914D02*
X4400Y3060D01*
X4099Y2914D02*
X4254D01*
X3025Y3935D02*
X3590D01*
X4150D01*
X4240Y3845D01*
X4274Y2894D02*
X4425Y3045D01*
X4099Y2894D02*
X4274D01*
X4099Y2875D02*
X4295D01*
X4099Y2855D02*
X4150D01*
X4099Y2835D02*
X4145D01*
X4160Y2820D01*
X4320D01*
X4150Y2855D02*
X4165D01*
X4175Y2845D01*
X4305D01*
X4400Y3440D02*
X4420Y3420D01*
X4400Y3440D02*
Y3515D01*
X4345Y3610D02*
X4450Y3505D01*
Y3485D02*
Y3505D01*
X4385Y3635D02*
X4435Y3585D01*
X4430Y3660D02*
X4505Y3585D01*
Y3570D02*
Y3585D01*
X4550Y3480D02*
Y3590D01*
X4120Y3795D02*
X4150D01*
X4055Y3860D02*
X4120Y3795D01*
X4040Y3835D02*
X4105Y3770D01*
X4140D01*
X4370D01*
X4550Y3590D01*
X4025Y3810D02*
X4090Y3745D01*
X4130D01*
X4345D01*
X4430Y3660D01*
X4010Y3785D02*
X4075Y3720D01*
X4120D01*
X4300D01*
X4385Y3635D01*
X3995Y3760D02*
X4060Y3695D01*
X4105D01*
X4260D01*
X4345Y3610D01*
X3980Y3735D02*
X4045Y3670D01*
X4095D01*
X4245D01*
X4400Y3515D01*
X3950Y3690D02*
X3995Y3645D01*
X4085D01*
X4235D01*
X4320Y3560D01*
X3950Y3620D02*
X4075D01*
X4225D01*
X4350Y3495D01*
X4188Y3398D02*
X4203D01*
X4267Y3462D01*
X4295D01*
X4150Y3795D02*
X4380D01*
X4575Y3600D01*
Y3470D02*
Y3600D01*
X4345Y3240D02*
X4575Y3470D01*
X4400Y3060D02*
Y3260D01*
X4600Y3460D01*
Y3610D01*
X4390Y3820D02*
X4600Y3610D01*
X4230Y3820D02*
X4390D01*
X4240Y3845D02*
X4400D01*
X4625Y3620D01*
Y3450D02*
Y3620D01*
X4425Y3250D02*
X4625Y3450D01*
X4425Y3045D02*
Y3250D01*
X4250Y3455D02*
Y3525D01*
Y3455D02*
X4255Y3450D01*
X4977Y3580D02*
X5035D01*
X3492Y1912D02*
Y1922D01*
X3525Y1955D01*
X3575D02*
X3608Y1922D01*
Y1912D02*
Y1922D01*
X3461Y1884D02*
Y1912D01*
Y1884D02*
X3475Y1870D01*
X3510D01*
X3550Y1910D01*
X3590Y1870D01*
X3630D01*
X3639Y1879D01*
Y1912D01*
X3429Y1876D02*
Y1912D01*
Y1876D02*
X3465Y1840D01*
X3640D01*
X3671Y1871D01*
Y1912D01*
X3398Y1837D02*
Y1912D01*
Y1837D02*
X3420Y1815D01*
X3505D01*
X3555Y1765D01*
X3702Y1867D02*
Y1912D01*
X3854Y1876D02*
X3920Y1810D01*
Y1785D02*
Y1810D01*
X3886Y1884D02*
X3945Y1825D01*
Y1800D02*
Y1825D01*
X3307Y1863D02*
Y1912D01*
Y1863D02*
X3380Y1790D01*
X3490D01*
X3585Y1695D01*
Y1555D02*
Y1695D01*
X3430Y1555D02*
X3475Y1510D01*
X3525D01*
X3545Y1530D01*
Y1700D01*
X3480Y1765D02*
X3545Y1700D01*
X3370Y1765D02*
X3480D01*
X3276Y1859D02*
X3370Y1765D01*
X3276Y1859D02*
Y1912D01*
X3500Y1555D02*
Y1710D01*
X3470Y1740D02*
X3500Y1710D01*
X3360Y1740D02*
X3470D01*
X3244Y1856D02*
X3360Y1740D01*
X3244Y1856D02*
Y1912D01*
X3335Y1555D02*
Y1730D01*
X3213Y1852D02*
X3335Y1730D01*
X3213Y1852D02*
Y1912D01*
X3265Y1555D02*
Y1735D01*
X3225Y1775D02*
X3265Y1735D01*
X3195Y1555D02*
Y1730D01*
X3175Y1750D02*
X3195Y1730D01*
X3175Y1750D02*
Y1820D01*
X3600Y1765D02*
X3702Y1867D01*
X3555Y1765D02*
X3600D01*
X3575Y1815D02*
Y1840D01*
X3525Y1955D02*
X3550Y1980D01*
X3575Y1955D01*
X2917Y1912D02*
Y1927D01*
X2970Y1980D01*
X3023Y1927D01*
Y1912D02*
Y1927D01*
X2886Y1884D02*
Y1912D01*
Y1884D02*
X2900Y1870D01*
X2935D01*
X2970Y1905D01*
X3005Y1870D01*
X3040D01*
X3054Y1884D01*
Y1912D01*
X3086Y1876D02*
Y1912D01*
X3055Y1845D02*
X3086Y1876D01*
X2885Y1845D02*
X3055D01*
X2854Y1876D02*
X2885Y1845D01*
X2854Y1876D02*
Y1912D01*
X3117Y1867D02*
Y1912D01*
X2732Y1863D02*
Y1912D01*
Y1863D02*
X2800Y1795D01*
X2835D01*
X2965Y1665D01*
Y1555D02*
Y1665D01*
X2701Y1854D02*
Y1912D01*
Y1854D02*
X2785Y1770D01*
X2820D01*
X2925Y1665D01*
Y1530D02*
Y1665D01*
X2905Y1510D02*
X2925Y1530D01*
X2850Y1510D02*
X2905D01*
X2805Y1555D02*
X2850Y1510D01*
X2669Y1846D02*
Y1912D01*
Y1846D02*
X2770Y1745D01*
X2800D01*
X2880Y1665D01*
Y1555D02*
Y1665D01*
X2638Y1837D02*
Y1912D01*
Y1837D02*
X2730Y1745D01*
Y1555D02*
Y1745D01*
X2570Y1595D02*
Y1775D01*
X2530Y1555D02*
X2570Y1595D01*
X2635Y1570D02*
Y1775D01*
X2620Y1555D02*
X2635Y1570D01*
X3120Y1555D02*
Y1770D01*
X3105Y1785D02*
X3120Y1770D01*
X2823Y1847D02*
Y1912D01*
Y1847D02*
X3040Y1630D01*
Y1555D02*
Y1630D01*
X2960Y1710D02*
X3117Y1867D01*
X2960Y1790D02*
Y1845D01*
X4220Y2720D02*
X4580D01*
X4600Y2740D01*
X4200Y2745D02*
X4535D01*
X4575Y2785D01*
X4650D01*
X4160Y2795D02*
X4370D01*
X3140Y3485D02*
X3320Y3305D01*
X3140Y3485D02*
Y3530D01*
X2225Y2464D02*
X2277D01*
X2225Y2472D02*
X2277D01*
X2225Y2466D02*
Y2497D01*
Y2492D02*
Y2497D01*
Y2517D01*
Y2480D02*
X2277D01*
X2225Y2488D02*
X2277D01*
X2225Y2496D02*
X2277D01*
X2225Y2504D02*
X2277D01*
X2225Y2512D02*
X2277D01*
X2215Y2517D02*
X2225D01*
X2224D02*
Y2526D01*
X2232Y2571D02*
Y2580D01*
X2218Y2520D02*
X2290D01*
X2226Y2528D02*
X2290D01*
X2230Y2576D02*
X2290D01*
X2228Y2580D02*
X2262D01*
X2232Y2464D02*
Y2539D01*
X2240Y2464D02*
Y2580D01*
X2248Y2464D02*
Y2580D01*
X2256Y2464D02*
Y2580D01*
X2264Y2464D02*
Y2595D01*
X2277Y2464D02*
Y2519D01*
X2290D01*
X2280D02*
Y2581D01*
X2272Y2464D02*
Y2595D01*
X2288Y2519D02*
Y2581D01*
X2290Y2519D02*
Y2581D01*
X2262Y2584D02*
X2277D01*
X2262Y2592D02*
X2277D01*
X2262Y2580D02*
Y2595D01*
X2277Y2581D02*
Y2595D01*
X2262D02*
X2277D01*
X2231Y2536D02*
X2290D01*
X2234Y2544D02*
X2290D01*
X2235Y2552D02*
X2290D01*
X2233Y2568D02*
X2290D01*
X2235Y2560D02*
X2290D01*
X2277Y2581D02*
X2290D01*
X2165Y2609D02*
X2170Y2605D01*
X2165D02*
X2203D01*
X2165Y2621D02*
X2181Y2605D01*
X2165Y2632D02*
X2192Y2605D01*
X2165Y2643D02*
X2204Y2605D01*
X2165Y2655D02*
X2217Y2602D01*
X2165Y2605D02*
Y2695D01*
Y2666D02*
X2226Y2605D01*
X2165Y2677D02*
X2238Y2605D01*
X2165Y2606D02*
X2279Y2720D01*
X2175Y2605D02*
X2290Y2720D01*
X2190D02*
X2391Y2519D01*
X2218Y2603D02*
X2335Y2720D01*
X2201D02*
X2403Y2519D01*
X2201Y2720D02*
X2403Y2519D01*
X2213Y2720D02*
X2414Y2519D01*
X2224Y2720D02*
X2420Y2524D01*
X2235Y2720D02*
X2420Y2535D01*
X2247Y2720D02*
X2420Y2547D01*
X2258Y2720D02*
X2420Y2558D01*
X2165Y2689D02*
X2242Y2611D01*
X2160Y2695D02*
X2165D01*
X2160D02*
X2185Y2720D01*
X2228Y2605D02*
X2239D01*
X2165Y2700D02*
X2249Y2616D01*
X2171Y2706D02*
X2257Y2620D01*
X2165Y2674D02*
X2211Y2720D01*
X2163Y2695D02*
X2188Y2720D01*
X2165Y2685D02*
X2200Y2720D01*
X2165Y2640D02*
X2245Y2720D01*
X2165Y2629D02*
X2256Y2720D01*
X2165Y2663D02*
X2222Y2720D01*
X2165Y2651D02*
X2234Y2720D01*
X2165Y2618D02*
X2267Y2720D01*
X2176Y2711D02*
X2268Y2620D01*
X2182Y2717D02*
X2279Y2620D01*
X2262Y2620D02*
X2277D01*
X2186Y2605D02*
X2301Y2720D01*
X2197Y2605D02*
X2313Y2720D01*
X2185D02*
X2395D01*
X2208Y2604D02*
X2324Y2720D01*
X2231Y2605D02*
X2347Y2720D01*
X2258Y2620D02*
X2358Y2720D01*
X2269Y2620D02*
X2369Y2720D01*
X2315Y2519D02*
X2420D01*
X2315Y2527D02*
X2323Y2519D01*
X2315Y2539D02*
X2335Y2519D01*
X2420Y2510D02*
Y2519D01*
X2315Y2550D02*
X2346Y2519D01*
X2414D02*
X2420Y2513D01*
X2315Y2561D02*
X2357Y2519D01*
X2315D02*
Y2581D01*
Y2573D02*
X2369Y2519D01*
X2315Y2584D02*
X2380Y2519D01*
X2315D02*
X2420Y2624D01*
X2326Y2519D02*
X2420Y2612D01*
X2360Y2519D02*
X2420Y2578D01*
X2372Y2519D02*
X2420Y2567D01*
X2383Y2519D02*
X2420Y2556D01*
X2394Y2519D02*
X2420Y2544D01*
X2406Y2519D02*
X2420Y2533D01*
X2417Y2519D02*
X2420Y2522D01*
X2315Y2530D02*
X2420Y2635D01*
X2315Y2541D02*
X2420Y2646D01*
X2269Y2720D02*
X2420Y2569D01*
X2338Y2519D02*
X2420Y2601D01*
X2349Y2519D02*
X2420Y2590D01*
Y2519D02*
Y2658D01*
X2315Y2564D02*
X2420Y2669D01*
X2315Y2575D02*
X2420Y2680D01*
X2311Y2594D02*
X2416Y2699D01*
X2281Y2720D02*
X2420Y2581D01*
X2269Y2620D02*
X2369Y2720D01*
X2280Y2620D02*
X2381Y2720D01*
X2300Y2605D02*
X2405Y2710D01*
X2306Y2600D02*
X2410Y2704D01*
X2289Y2617D02*
X2392Y2720D01*
X2295Y2612D02*
X2399Y2716D01*
X2315Y2586D02*
X2420Y2691D01*
X2292Y2720D02*
X2420Y2592D01*
X2303Y2720D02*
X2420Y2603D01*
X2315Y2720D02*
X2420Y2615D01*
X2326Y2720D02*
X2420Y2626D01*
X2420Y2658D02*
Y2695D01*
X2337Y2720D02*
X2420Y2637D01*
X2349Y2720D02*
X2420Y2649D01*
X2360Y2720D02*
X2420Y2660D01*
X2371Y2720D02*
X2420Y2671D01*
X2382Y2720D02*
X2420Y2683D01*
X2395Y2720D02*
X2420Y2695D01*
X2394Y2720D02*
X2420Y2694D01*
X1875Y2549D02*
X1879Y2545D01*
X1875Y2560D02*
X1890Y2545D01*
X1875Y2571D02*
X1901Y2545D01*
X1875Y2583D02*
X1913Y2545D01*
X1875Y2594D02*
X1924Y2545D01*
X1875Y2605D02*
X1935Y2545D01*
X1875Y2617D02*
X1947Y2545D01*
X1875Y2628D02*
X1958Y2545D01*
X1875Y2639D02*
X1969Y2545D01*
X1875D02*
Y2695D01*
Y2650D02*
X1980Y2545D01*
X1875D02*
X2136D01*
X1875Y2662D02*
X1992Y2545D01*
X1875Y2673D02*
X2003Y2545D01*
X1875Y2684D02*
X2014Y2545D01*
X1877D02*
X2027Y2695D01*
X1877Y2545D02*
X2027Y2695D01*
X1868Y2714D02*
X2037Y2545D01*
X1875Y2696D02*
X2026Y2545D01*
X1879Y2714D02*
X2048Y2545D01*
X1889D02*
X2039Y2695D01*
X1890Y2714D02*
X2060Y2545D01*
X1902Y2714D02*
X2071Y2545D01*
X1875Y2622D02*
X1949Y2696D01*
X1875Y2644D02*
X1927Y2697D01*
X1875Y2633D02*
X1937Y2695D01*
X1875Y2656D02*
X1919Y2700D01*
X1875Y2678D02*
X1907Y2710D01*
X1875Y2667D02*
X1912Y2704D01*
X1866Y2714D02*
X1903D01*
X1875Y2690D02*
X1900Y2714D01*
X1871Y2708D02*
X1877Y2714D01*
X1874Y2700D02*
X1888Y2714D01*
X1875Y2588D02*
X1982Y2695D01*
X1875Y2610D02*
X1960Y2695D01*
X1875Y2599D02*
X1971Y2695D01*
X1875Y2554D02*
X2016Y2695D01*
X1875Y2576D02*
X1994Y2695D01*
X1875Y2565D02*
X2005Y2695D01*
X1900Y2545D02*
X2050Y2695D01*
X1911Y2545D02*
X2061Y2695D01*
X1923Y2545D02*
X2073Y2695D01*
X1931Y2696D02*
X2082Y2545D01*
X1934D02*
X2084Y2695D01*
X1945Y2545D02*
X2095Y2695D01*
X1957Y2545D02*
X2107Y2695D01*
X1991Y2545D02*
X2136Y2690D01*
X2115Y2545D02*
X2136Y2566D01*
X2126Y2545D02*
X2135Y2554D01*
X1943Y2695D02*
X2094Y2545D01*
X1954Y2696D02*
X2105Y2545D01*
X1966Y2695D02*
X2116Y2545D01*
X1968D02*
X2118Y2695D01*
X1978D02*
X2128Y2545D01*
X1979D02*
X2129Y2695D01*
X2059Y2545D02*
X2140Y2626D01*
X2070Y2545D02*
X2140Y2615D01*
X2081Y2545D02*
X2140Y2604D01*
X2092Y2545D02*
X2142Y2595D01*
X2104Y2545D02*
X2140Y2581D01*
X2002Y2545D02*
X2139Y2682D01*
X1989Y2695D02*
X2135Y2548D01*
X2013Y2545D02*
X2140Y2672D01*
X2025Y2545D02*
X2140Y2660D01*
X2036Y2545D02*
X2140Y2649D01*
X2047Y2545D02*
X2140Y2638D01*
X2000Y2695D02*
X2135Y2560D01*
X2000Y2695D02*
X2135Y2560D01*
X1960Y2695D02*
X2135D01*
X2012D02*
X2137Y2569D01*
X2140Y2576D02*
Y2580D01*
Y2605D02*
Y2680D01*
X2023Y2695D02*
X2140Y2578D01*
X2045Y2695D02*
X2140Y2600D01*
X2057Y2695D02*
X2140Y2612D01*
X2068Y2695D02*
X2140Y2623D01*
X2079Y2695D02*
X2140Y2634D01*
X2091Y2695D02*
X2140Y2646D01*
X2034Y2695D02*
X2141Y2588D01*
X2102Y2695D02*
X2140Y2657D01*
X2113Y2695D02*
X2140Y2668D01*
X2125Y2695D02*
X2140Y2680D01*
X1600Y1964D02*
X1606Y1958D01*
X1600Y1975D02*
X1617Y1958D01*
X1600Y1986D02*
X1629Y1958D01*
X1600D02*
X1696D01*
X1600Y1998D02*
X1640Y1958D01*
X1600Y2009D02*
X1651Y1958D01*
X1600Y2020D02*
X1663Y1958D01*
X1600Y2032D02*
X1674Y1958D01*
X1600Y2043D02*
X1685Y1958D01*
X1600Y2054D02*
X1696Y1959D01*
X1600Y2066D02*
X1698Y1967D01*
X1600Y2077D02*
X1702Y1975D01*
X1600Y2088D02*
X1707Y1981D01*
X1686Y1958D02*
X1701Y1973D01*
X1784Y1965D02*
Y1972D01*
Y1965D02*
X1791Y1972D01*
X1779Y1972D02*
X1877Y2069D01*
X1911Y1950D02*
Y1972D01*
X1775Y1978D02*
X1877Y2080D01*
X1600Y2100D02*
X1713Y1986D01*
X1769Y1984D02*
X1877Y2092D01*
X1791Y1972D02*
X1882Y2063D01*
X1802Y1972D02*
X1893Y2063D01*
X1763Y1989D02*
X1877Y2103D01*
X1813Y1972D02*
X1905Y2063D01*
X1600Y2156D02*
X1784Y1972D01*
X1600Y2167D02*
X1796Y1972D01*
X1600Y1958D02*
Y2200D01*
Y2179D02*
X1807Y1972D01*
X1600Y2190D02*
X1818Y1972D01*
X1600Y1962D02*
X1877Y2239D01*
X1600Y2111D02*
X1720Y1991D01*
X1600Y2122D02*
X1729Y1994D01*
X1600Y2145D02*
X1751Y1994D01*
X1600Y1973D02*
X1877Y2250D01*
X1601Y2201D02*
X1830Y1972D01*
X1600Y1985D02*
X1877Y2262D01*
X1600Y1996D02*
X1877Y2273D01*
X1675Y1958D02*
X1877Y2160D01*
X1607Y2206D02*
X1841Y1972D01*
X1664Y1958D02*
X1877Y2171D01*
X1607Y1958D02*
X1885Y2236D01*
X1607Y1958D02*
X1885Y2236D01*
X1618Y1958D02*
X1897Y2236D01*
X1630Y1958D02*
X1908Y2236D01*
X1612Y2212D02*
X1852Y1972D01*
X1618Y2217D02*
X1864Y1972D01*
X1624Y2223D02*
X1875Y1972D01*
X1717Y1989D02*
X1877Y2148D01*
X1755Y1992D02*
X1877Y2114D01*
X1629Y2229D02*
X1886Y1972D01*
X1635Y2234D02*
X1897Y1972D01*
X1909D02*
X1911Y1970D01*
X1784Y1972D02*
X1911D01*
X1825D02*
X1916Y2063D01*
X1836Y1972D02*
X1927Y2063D01*
X1886D02*
X1989Y1959D01*
X1897Y2063D02*
X1989Y1971D01*
X1847Y1972D02*
X1939Y2063D01*
X1859Y1972D02*
X1950Y2063D01*
X1870Y1972D02*
X1961Y2063D01*
X1881Y1972D02*
X1972Y2063D01*
X1893Y1972D02*
X1984Y2063D01*
X1904Y1972D02*
X1995Y2063D01*
X1908D02*
X1999Y1972D01*
X1911Y1950D02*
X1989D01*
X1911Y1958D02*
X1919Y1950D01*
X1911Y1970D02*
X1931Y1950D01*
X1973D02*
X1989Y1966D01*
X1984Y1950D02*
X1989Y1955D01*
X1911Y1956D02*
X2018Y2063D01*
X1989Y1950D02*
Y1972D01*
Y1966D02*
X1994Y1972D01*
X1911Y1968D02*
X2006Y2063D01*
X1919D02*
X2011Y1972D01*
X1931Y2063D02*
X2022Y1972D01*
X1989D02*
X2113D01*
X1942Y2063D02*
X2033Y1972D01*
X1953Y2063D02*
X2045Y1972D01*
X1646Y2246D02*
X1942Y1950D01*
X1652Y2251D02*
X1953Y1950D01*
X1657Y2257D02*
X1965Y1950D01*
X1916D02*
X2059Y2093D01*
X1663Y2263D02*
X1976Y1950D01*
X1669Y2268D02*
X1987Y1950D01*
X1641Y1958D02*
X1919Y2236D01*
X1640Y2240D02*
X1909Y1972D01*
X1652Y1958D02*
X1931Y2236D01*
X1927Y1950D02*
X2071Y2094D01*
X1939Y1950D02*
X2090Y2101D01*
X1950Y1950D02*
X2100Y2100D01*
X1961Y1950D02*
X2113Y2102D01*
X1965Y2063D02*
X2056Y1972D01*
X1976Y2063D02*
X2067Y1972D01*
X1987Y2063D02*
X2078Y1972D01*
X1999Y2063D02*
X2090Y1972D01*
X2010Y2063D02*
X2101Y1972D01*
X1994D02*
X2119Y2096D01*
X2006Y1972D02*
X2124Y2090D01*
X2021Y2063D02*
X2112Y1972D01*
X2023Y2072D02*
X2117Y1979D01*
X2023Y2084D02*
X2122Y1985D01*
X2028Y1972D02*
X2136Y2079D01*
X2040Y1972D02*
X2144Y2076D01*
X2017Y1972D02*
X2130Y2085D01*
X2025Y2093D02*
X2128Y1991D01*
X1600Y2134D02*
X1739Y1995D01*
X1600Y2007D02*
X1877Y2284D01*
X1600Y2019D02*
X1877Y2295D01*
X1600Y2030D02*
X1877Y2307D01*
X1600Y2041D02*
X1877Y2318D01*
X1600Y2053D02*
X1877Y2329D01*
X1674Y2274D02*
X1877Y2072D01*
X1600Y2064D02*
X1877Y2341D01*
X1680Y2280D02*
X1877Y2083D01*
X1686Y2285D02*
X1877Y2094D01*
X1691Y2291D02*
X1877Y2106D01*
X1697Y2297D02*
X1877Y2117D01*
X1703Y2302D02*
X1877Y2128D01*
X1746Y1995D02*
X1877Y2126D01*
X1734Y1995D02*
X1877Y2137D01*
Y2063D02*
Y2174D01*
Y2072D02*
X1886Y2063D01*
X1708Y2308D02*
X1877Y2140D01*
X1714Y2314D02*
X1877Y2151D01*
Y2171D02*
X1880Y2174D01*
X1720Y2319D02*
X1877Y2162D01*
X1725Y2325D02*
X1877Y2173D01*
Y2241D02*
X1882Y2236D01*
X1944Y2174D01*
X1731Y2331D02*
X1888Y2174D01*
X1737Y2336D02*
X1899Y2174D01*
X1600Y2132D02*
X1813Y2345D01*
X1600Y2120D02*
X1825Y2345D01*
X1600Y2109D02*
X1836Y2345D01*
X1600Y2098D02*
X1847Y2345D01*
X1600Y2086D02*
X1859Y2345D01*
X1600Y2075D02*
X1870Y2345D01*
X1600Y2200D02*
X1745Y2345D01*
X1600Y2200D02*
X1745Y2345D01*
X1600Y2188D02*
X1757Y2345D01*
X1600Y2177D02*
X1768Y2345D01*
X1600Y2166D02*
X1779Y2345D01*
X1600Y2154D02*
X1791Y2345D01*
X1600Y2143D02*
X1802Y2345D01*
X1877Y2236D02*
Y2345D01*
X1773D02*
X1877Y2241D01*
X1785Y2345D02*
X1877Y2253D01*
X1742Y2342D02*
X1910Y2174D01*
X1796Y2345D02*
X1877Y2264D01*
X1751Y2345D02*
X1922Y2174D01*
X1762Y2345D02*
X1933Y2174D01*
X1807Y2345D02*
X1877Y2275D01*
X1818Y2345D02*
X1877Y2287D01*
X1830Y2345D02*
X1877Y2298D01*
X1841Y2345D02*
X1877Y2309D01*
X1852Y2345D02*
X1877Y2321D01*
X1745Y2345D02*
X1877D01*
X1864D02*
X1877Y2332D01*
Y2063D02*
X2023D01*
X1880Y2174D02*
X1942Y2236D01*
X2018Y2063D02*
X2023Y2068D01*
Y2063D02*
Y2093D01*
X1877Y2174D02*
X2023D01*
X2012D02*
X2023Y2163D01*
X1891Y2174D02*
X1953Y2236D01*
X1893D02*
X1956Y2174D01*
X1905Y2236D02*
X1967Y2174D01*
X2004D02*
X2056Y2226D01*
X2015Y2174D02*
X2061Y2219D01*
X1902Y2174D02*
X1965Y2236D01*
X1914Y2174D02*
X1976Y2236D01*
X2023Y2091D02*
X2026Y2093D01*
X2023Y2080D02*
X2037Y2093D01*
X2023Y2152D02*
X2031Y2143D01*
X2023Y2068D02*
X2048Y2093D01*
X2023D02*
X2068D01*
X2023Y2143D02*
X2050D01*
X2036Y2093D02*
X2134Y1995D01*
X2023Y2163D02*
X2043Y2143D01*
X2023D02*
Y2174D01*
X2030Y2143D02*
X2053Y2166D01*
X2023Y2148D02*
X2080Y2204D01*
X2042Y2143D02*
X2050Y2152D01*
X2023Y2159D02*
X2072Y2208D01*
X2023Y2170D02*
X2066Y2213D01*
X1916Y2236D02*
X1978Y2174D01*
X1925D02*
X1987Y2236D01*
X1927D02*
X1990Y2174D01*
X1961Y2236D02*
X2050Y2147D01*
X1973Y2236D02*
X2051Y2158D01*
X1984Y2236D02*
X2053Y2167D01*
X1936Y2174D02*
X1999Y2236D01*
X1939D02*
X2001Y2174D01*
X1948D02*
X2010Y2236D01*
X1950D02*
X2012Y2174D01*
X1959D02*
X2021Y2236D01*
X1877D02*
X2023D01*
X1970Y2174D02*
X2050Y2254D01*
X1993Y2174D02*
X2053Y2234D01*
X1981Y2174D02*
X2051Y2243D01*
X1995Y2236D02*
X2057Y2175D01*
X2006Y2236D02*
X2061Y2181D01*
X2018Y2236D02*
X2067Y2187D01*
X2023Y2242D02*
X2073Y2192D01*
X2023Y2253D02*
X2081Y2196D01*
X2023Y2236D02*
Y2267D01*
Y2261D02*
X2029Y2267D01*
X2023Y2249D02*
X2040Y2267D01*
X2023Y2265D02*
X2052Y2236D01*
X2023Y2238D02*
X2050Y2265D01*
X2023Y2267D02*
X2048D01*
X2033D02*
X2050Y2249D01*
X2051Y1972D02*
X2154Y2075D01*
X2062Y1972D02*
X2166Y2075D01*
X2074Y1972D02*
X2177Y2075D01*
X2085Y1972D02*
X2188Y2075D01*
X2047Y2093D02*
X2143Y1998D01*
X2096Y1972D02*
X2199Y2075D01*
X2108Y1972D02*
X2211Y2075D01*
X2144Y2076D02*
X2248Y1972D01*
X2146Y1999D02*
X2222Y2075D01*
X2199Y1965D02*
X2214D01*
Y1972D01*
Y1965D02*
X2221Y1972D01*
X2156Y2075D02*
X2260Y1972D01*
X2168Y2075D02*
X2271Y1972D01*
X2179Y2075D02*
X2282Y1972D01*
X2158Y2000D02*
X2233Y2075D01*
X2168Y1998D02*
X2245Y2075D01*
X2176Y1995D02*
X2256Y2075D01*
X2183Y1990D02*
X2267Y2075D01*
X2189Y1985D02*
X2279Y2075D01*
X2190D02*
X2293Y1972D01*
X2193Y1978D02*
X2290Y2075D01*
X2059Y2093D02*
X2152Y2000D01*
X2070Y2093D02*
X2164Y1999D01*
X2079Y2096D02*
X2210Y1965D01*
X2086Y2100D02*
X2214Y1972D01*
X2097Y2100D02*
X2226Y1972D01*
X2108Y2101D02*
X2237Y1972D01*
X2113Y2102D02*
X2132Y2082D01*
X2148Y2137D02*
X2153Y2132D01*
X2148Y2137D02*
X2151Y2140D01*
X2149Y2139D02*
X2152Y2136D01*
X2247Y2132D02*
X2253Y2125D01*
X2249Y2141D02*
X2265Y2125D01*
X2243D02*
X2282D01*
X2261D02*
X2282Y2146D01*
X2249Y2125D02*
X2282Y2158D01*
X2250Y2151D02*
X2276Y2125D01*
X2272D02*
X2282Y2135D01*
X2248Y2164D02*
X2282Y2130D01*
X2248Y2164D02*
X2282Y2130D01*
X2247Y2134D02*
X2282Y2169D01*
Y2125D02*
Y2215D01*
X2197Y1971D02*
X2301Y2075D01*
X2202D02*
X2305Y1972D01*
X2203Y1965D02*
X2318Y2080D01*
X2214Y1972D02*
X2320D01*
X2213Y2075D02*
X2316Y1972D01*
X2266D02*
X2320Y2026D01*
X2277Y1972D02*
X2320Y2015D01*
X2150Y2075D02*
X2303D01*
X2224D02*
X2320Y1979D01*
X2236Y2075D02*
X2320Y1991D01*
X2247Y2075D02*
X2320Y2002D01*
X2258Y2075D02*
X2320Y2013D01*
X2269Y2075D02*
X2320Y2024D01*
X2311Y1972D02*
X2320Y1981D01*
X2289Y1972D02*
X2320Y2003D01*
X2300Y1972D02*
X2320Y1992D01*
Y1972D02*
Y2025D01*
X2281Y2075D02*
X2322Y2034D01*
X2292Y2075D02*
X2326Y2041D01*
X2303Y2075D02*
X2332Y2047D01*
X2313Y2077D02*
X2337Y2053D01*
X2319Y2082D02*
X2343Y2058D01*
X2325Y2087D02*
X2348Y2064D01*
X2325Y2087D02*
X2348Y2064D01*
X2221Y1972D02*
X2364Y2115D01*
X2232Y1972D02*
X2430Y2170D01*
X2255Y1972D02*
X2430Y2147D01*
X2243Y1972D02*
X2430Y2158D01*
X2327Y2043D02*
X2430Y2145D01*
X2331Y2093D02*
X2354Y2070D01*
X2320Y2082D02*
X2350Y2112D01*
X2336Y2099D02*
X2360Y2075D01*
X2342Y2104D02*
X2365Y2081D01*
X2348Y2110D02*
X2371Y2086D01*
X2353Y2115D02*
X2373D01*
X2353D02*
X2377Y2092D01*
X2364Y2115D02*
X2373Y2124D01*
X2365Y2115D02*
X2382Y2098D01*
X2373Y2118D02*
X2388Y2103D01*
X2373Y2130D02*
X2394Y2109D01*
X2373Y2141D02*
X2399Y2115D01*
X2373Y2152D02*
X2405Y2120D01*
X2373Y2164D02*
X2411Y2126D01*
X2373Y2115D02*
Y2215D01*
Y2175D02*
X2416Y2132D01*
X2373Y2124D02*
X2430Y2181D01*
X2373Y2186D02*
X2422Y2137D01*
X2373Y2136D02*
X2430Y2192D01*
X2149Y2162D02*
X2151Y2160D01*
X2149Y2160D02*
X2152Y2163D01*
X2118Y2203D02*
X2153Y2168D01*
X2146Y2169D02*
X2181Y2204D01*
X2084Y2197D02*
X2088Y2201D01*
X2086Y2202D02*
X2089Y2199D01*
X2110Y2201D02*
X2112Y2199D01*
X2126Y2207D02*
X2157Y2176D01*
X2142Y2176D02*
X2174Y2208D01*
X2132Y2212D02*
X2162Y2182D01*
X2138Y2183D02*
X2167Y2212D01*
X2220Y2204D02*
X2282Y2142D01*
X2250Y2148D02*
X2282Y2180D01*
X2227Y2208D02*
X2282Y2153D01*
X2249Y2159D02*
X2282Y2191D01*
X2187Y2198D02*
X2190Y2201D01*
X2188Y2201D02*
X2191Y2199D01*
X2210Y2199D02*
X2213Y2202D01*
X2211Y2201D02*
X2214Y2198D01*
X2211Y2201D02*
X2214Y2198D01*
X2233Y2213D02*
X2282Y2164D01*
X2247Y2168D02*
X2282Y2203D01*
X2132Y2188D02*
X2162Y2218D01*
X2118Y2197D02*
X2153Y2232D01*
X2125Y2193D02*
X2157Y2225D01*
X2138Y2218D02*
X2168Y2188D01*
X2143Y2224D02*
X2174Y2193D01*
X2147Y2232D02*
X2182Y2197D01*
X2044Y2267D02*
X2051Y2260D01*
X2048Y2267D02*
X2052Y2263D01*
X2149Y2241D02*
X2151Y2238D01*
X2239Y2219D02*
X2282Y2176D01*
X2243Y2175D02*
X2282Y2214D01*
X2238Y2182D02*
X2282Y2225D01*
X2244Y2225D02*
X2282Y2187D01*
X2149Y2263D02*
X2151Y2261D01*
X2149Y2263D02*
X2151Y2261D01*
X2149Y2262D02*
X2153Y2266D01*
X2148Y2263D02*
X2153Y2268D01*
X2246Y2269D02*
X2252Y2275D01*
X2249Y2260D02*
X2264Y2275D01*
X2250Y2250D02*
X2275Y2275D01*
X2282Y2203D02*
X2294Y2215D01*
X2282D02*
X2293Y2225D01*
X2289D02*
X2300Y2215D01*
X2282D02*
X2373D01*
X2294D02*
X2305Y2225D01*
X2300D02*
X2311Y2215D01*
X2282Y2225D02*
X2308D01*
X2305Y2215D02*
X2316Y2225D01*
X2312Y2225D02*
X2322Y2215D01*
X2316D02*
X2327Y2225D01*
X2317D02*
X2357D01*
X2323D02*
X2334Y2215D01*
X2368D02*
X2373Y2209D01*
X2328Y2215D02*
X2339Y2225D01*
X2334D02*
X2345Y2215D01*
X2373Y2198D02*
X2428Y2143D01*
X2373Y2147D02*
X2430Y2204D01*
X2373Y2209D02*
X2430Y2152D01*
X2373Y2158D02*
X2430Y2215D01*
X2339Y2215D02*
X2350Y2225D01*
X2345D02*
X2356Y2215D01*
X2350D02*
X2361Y2225D01*
X2357D02*
X2368Y2215D01*
X2362D02*
X2373Y2225D01*
X2357D02*
X2373D01*
X2357D02*
X2373D01*
X2233Y2188D02*
X2282Y2237D01*
X2219Y2196D02*
X2282Y2259D01*
X2226Y2192D02*
X2282Y2248D01*
X2247Y2233D02*
X2282Y2198D01*
X2249Y2242D02*
X2282Y2210D01*
X2250Y2253D02*
X2288Y2215D01*
X2247Y2267D02*
X2282Y2232D01*
X2248Y2237D02*
X2282Y2271D01*
X2250Y2275D02*
X2282Y2243D01*
X2262Y2275D02*
X2282Y2255D01*
Y2232D02*
X2289Y2225D01*
X2243Y2275D02*
X2282D01*
X2273D02*
X2282Y2266D01*
X2373Y2192D02*
X2406Y2225D01*
X2373Y2181D02*
X2418Y2225D01*
X2373Y2170D02*
X2429Y2225D01*
X2368D02*
X2430Y2163D01*
Y2145D02*
Y2225D01*
X2379D02*
X2430Y2175D01*
X2391Y2225D02*
X2430Y2186D01*
X2373Y2215D02*
X2384Y2225D01*
X2282D02*
Y2275D01*
X2373Y2203D02*
X2395Y2225D01*
X2402D02*
X2430Y2197D01*
X2413Y2225D02*
X2430Y2209D01*
X2373Y2225D02*
X2430D01*
X2424D02*
X2430Y2220D01*
X1602Y1781D02*
X1608Y1775D01*
X1602Y1792D02*
X1619Y1775D01*
X1603Y1803D02*
X1630Y1775D01*
X1603Y1814D02*
X1642Y1775D01*
X1603Y1825D02*
X1653Y1775D01*
X1604Y1836D02*
X1664Y1775D01*
X1662D02*
X1721Y1834D01*
X1651Y1775D02*
X1714Y1838D01*
X1662Y1775D02*
X1721Y1834D01*
X1684Y1775D02*
X1739Y1830D01*
X1673Y1775D02*
X1729Y1831D01*
X1602Y1775D02*
X1604Y1865D01*
X1604Y1847D02*
X1676Y1775D01*
X1604Y1858D02*
X1687Y1775D01*
X1605D02*
X1695Y1865D01*
X1608D02*
X1698Y1775D01*
X1617D02*
X1699Y1857D01*
X1628Y1775D02*
X1703Y1850D01*
X1620Y1865D02*
X1710Y1775D01*
X1639D02*
X1708Y1844D01*
X1631Y1865D02*
X1721Y1775D01*
X1642Y1865D02*
X1732Y1775D01*
X1696D02*
X1753Y1832D01*
X1602Y1775D02*
X2085D01*
X1715Y1838D02*
X1778Y1775D01*
X1733Y1830D02*
X1789Y1775D01*
X1707D02*
X1790Y1858D01*
X1745Y1830D02*
X1800Y1775D01*
X1754Y1832D02*
X1811Y1775D01*
X1762Y1836D02*
X1823Y1775D01*
X1769Y1840D02*
X1834Y1775D01*
X1774Y1846D02*
X1845Y1775D01*
X1779Y1853D02*
X1857Y1775D01*
X1654Y1865D02*
X1744Y1775D01*
X1665Y1865D02*
X1755Y1775D01*
X1676Y1865D02*
X1766Y1775D01*
X1718D02*
X1802Y1858D01*
X1730Y1775D02*
X1813Y1858D01*
X1741Y1775D02*
X1824Y1858D01*
X1752Y1775D02*
X1836Y1858D01*
X1764Y1775D02*
X1847Y1858D01*
X1775Y1775D02*
X1858Y1858D01*
X1785D02*
X1868Y1775D01*
X1786D02*
X1870Y1858D01*
X1796D02*
X1879Y1775D01*
X1798D02*
X1881Y1858D01*
X1604Y1853D02*
X1616Y1865D01*
X1784Y1858D02*
X1911D01*
X1604Y1841D02*
X1627Y1865D01*
X1807Y1858D02*
X1891Y1775D01*
X1809D02*
X1892Y1858D01*
X1819D02*
X1902Y1775D01*
X1820D02*
X1903Y1858D01*
X1830D02*
X1913Y1775D01*
X1841Y1858D02*
X1925Y1775D01*
X1602Y1795D02*
X1673Y1865D01*
X1602Y1783D02*
X1684Y1865D01*
X1603Y1830D02*
X1639Y1865D01*
X1603Y1818D02*
X1650Y1865D01*
X1603Y1806D02*
X1661Y1865D01*
X1688D02*
X1703Y1850D01*
X1784Y1858D02*
Y1865D01*
X1604D02*
X1696D01*
X1903Y1858D02*
X1911Y1866D01*
Y1858D02*
Y1890D01*
X1853Y1858D02*
X1936Y1775D01*
X1864Y1858D02*
X1947Y1775D01*
X1875Y1858D02*
X1959Y1775D01*
X1887Y1858D02*
X1970Y1775D01*
X1888D02*
X1989Y1876D01*
X1898Y1858D02*
X1981Y1775D01*
X1909Y1858D02*
X1992Y1775D01*
X1899D02*
X1989Y1865D01*
X1911Y1775D02*
X1994Y1858D01*
X1922Y1775D02*
X2005Y1858D01*
X1911Y1868D02*
X2004Y1775D01*
X1832D02*
X1947Y1890D01*
X1843Y1775D02*
X1958Y1890D01*
X1854Y1775D02*
X1969Y1890D01*
X1877Y1775D02*
X1989Y1887D01*
X1866Y1775D02*
X1981Y1890D01*
X1911Y1879D02*
X2015Y1775D01*
X1911Y1890D02*
X2026Y1775D01*
X1923Y1890D02*
X2038Y1775D01*
X1911Y1877D02*
X1924Y1890D01*
X1911Y1866D02*
X1935Y1890D01*
X1911D02*
X1989D01*
X2022Y1858D02*
X2151Y1730D01*
X2034Y1858D02*
X2162Y1730D01*
X2045Y1858D02*
X2173Y1730D01*
X2056Y1858D02*
X2185Y1730D01*
X2068Y1858D02*
X2196Y1730D01*
X2103Y1768D02*
X2140Y1730D01*
X2270D01*
X2079Y1858D02*
X2207Y1730D01*
X2140Y1843D02*
X2252Y1730D01*
X2154Y1840D02*
X2264Y1730D01*
X2164Y1841D02*
X2275Y1730D01*
X2090Y1858D02*
X2218Y1730D01*
X2102Y1858D02*
X2230Y1730D01*
X2111Y1760D02*
X2214Y1864D01*
X2116Y1754D02*
X2220Y1858D01*
X2113D02*
X2241Y1730D01*
X2139Y1732D02*
X2265Y1858D01*
X2149Y1730D02*
X2277Y1858D01*
X2160Y1730D02*
X2288Y1858D01*
X2122Y1749D02*
X2232Y1858D01*
X2128Y1743D02*
X2243Y1858D01*
X2133Y1737D02*
X2254Y1858D01*
X2216Y1730D02*
X2320Y1834D01*
X2228Y1730D02*
X2320Y1822D01*
X2239Y1730D02*
X2320Y1811D01*
X2262Y1730D02*
X2320Y1788D01*
X2250Y1730D02*
X2320Y1800D01*
X2270Y1730D02*
X2305D01*
X2284D02*
X2320Y1766D01*
X2273Y1730D02*
X2320Y1777D01*
X2296Y1730D02*
X2320Y1754D01*
X2305Y1730D02*
X2320Y1745D01*
Y1780D01*
X2173Y1844D02*
X2286Y1730D01*
X2171D02*
X2299Y1858D01*
X2180Y1848D02*
X2298Y1730D01*
X2186Y1853D02*
X2307Y1732D01*
X2183Y1730D02*
X2311Y1858D01*
X2192Y1859D02*
X2312Y1738D01*
X2205Y1730D02*
X2320Y1845D01*
X2194Y1730D02*
X2320Y1856D01*
X2192Y1859D02*
X2312Y1738D01*
X2215Y1858D02*
X2320Y1753D01*
X2197Y1865D02*
X2318Y1743D01*
X1933Y1775D02*
X2017Y1858D01*
X1945Y1775D02*
X2028Y1858D01*
X1956Y1775D02*
X2039Y1858D01*
X1967Y1775D02*
X2051Y1858D01*
X1979Y1775D02*
X2062Y1858D01*
X2011D02*
X2098Y1771D01*
X1990Y1775D02*
X2073Y1858D01*
X2000D02*
X2083Y1775D01*
X2001D02*
X2084Y1858D01*
X1934Y1890D02*
X2049Y1775D01*
X1945Y1890D02*
X2060Y1775D01*
X1968Y1890D02*
X1989Y1869D01*
X1979Y1890D02*
X1989Y1880D01*
X1957Y1890D02*
X2072Y1775D01*
X2013D02*
X2096Y1858D01*
X2024Y1775D02*
X2107Y1858D01*
X1989D02*
X2116D01*
X1989D02*
Y1890D01*
X2116Y1858D02*
Y1863D01*
X1989Y1869D02*
X2000Y1858D01*
X2035Y1775D02*
X2119Y1858D01*
X2047Y1775D02*
X2124Y1852D01*
X2058Y1775D02*
X2130Y1847D01*
X2080Y1775D02*
X2146Y1841D01*
X2069Y1775D02*
X2138Y1843D01*
X2091Y1774D02*
X2157Y1840D01*
X2099Y1771D02*
X2171Y1843D01*
X2226Y1858D02*
X2320Y1764D01*
X2237Y1858D02*
X2320Y1776D01*
Y1780D02*
Y1858D01*
X2249D02*
X2320Y1787D01*
X2105Y1765D02*
X2204Y1865D01*
X2208D02*
X2214Y1859D01*
Y1858D02*
Y1865D01*
Y1858D02*
X2320D01*
X2195Y1865D02*
X2214D01*
X2260Y1858D02*
X2320Y1798D01*
X2271Y1858D02*
X2320Y1810D01*
X2283Y1858D02*
X2320Y1821D01*
X2294Y1858D02*
X2320Y1832D01*
X2305Y1858D02*
X2320Y1843D01*
X2317Y1858D02*
X2320Y1855D01*
X3490Y3385D02*
X3650D01*
X3475Y3400D02*
X3490Y3385D01*
X3475Y3400D02*
Y3475D01*
X5145Y1670D02*
X5240D01*
X5370Y1725D02*
X5405Y1690D01*
X2360Y3620D02*
X2490D01*
X2240Y3500D02*
X2360Y3620D01*
X1575Y3500D02*
X2240D01*
X1550Y3525D02*
X1575Y3500D01*
X1342Y3525D02*
X1550D01*
X1270Y3453D02*
X1342Y3525D01*
X2575Y3705D02*
Y3782D01*
X2490Y3620D02*
X2575Y3705D01*
X2175Y3830D02*
X2240D01*
X2175Y3923D02*
X2254Y3844D01*
X2175Y3934D02*
X2260Y3850D01*
X2175Y3946D02*
X2265Y3855D01*
X2175Y3957D02*
X2271Y3861D01*
X2175Y3968D02*
X2277Y3867D01*
X2175Y3980D02*
X2282Y3872D01*
X2175Y3991D02*
X2288Y3878D01*
X2175Y4002D02*
X2294Y3884D01*
X2175Y4036D02*
X2321Y3890D01*
X2175Y4048D02*
X2333Y3890D01*
X2175Y4059D02*
X2344Y3890D01*
X2175Y4070D02*
X2355Y3890D01*
X2175Y4081D02*
X2366Y3890D01*
X2175Y3830D02*
Y4300D01*
Y4093D02*
X2378Y3890D01*
X2175Y4104D02*
X2389Y3890D01*
X2175Y4115D02*
X2400Y3890D01*
X2175Y4127D02*
X2412Y3890D01*
X2175Y4138D02*
X2423Y3890D01*
X2175Y3838D02*
X2505Y4168D01*
X2175Y4149D02*
X2434Y3890D01*
X2175Y4161D02*
X2446Y3890D01*
X2175Y4172D02*
X2457Y3890D01*
X2175Y3849D02*
X2505Y4179D01*
X2175Y3861D02*
X2505Y4191D01*
X2175Y4183D02*
X2468Y3890D01*
X2175Y4195D02*
X2480Y3890D01*
X2175Y3872D02*
X2505Y4202D01*
X2175Y4206D02*
X2491Y3890D01*
X2175Y3883D02*
X2505Y4213D01*
X2175Y4217D02*
X2502Y3890D01*
X2175Y4229D02*
X2514Y3890D01*
X2175Y4229D02*
X2514Y3890D01*
X2175Y4240D02*
X2525Y3890D01*
X2175Y4251D02*
X2536Y3890D01*
X2175Y4262D02*
X2547Y3890D01*
X2175Y4274D02*
X2559Y3890D01*
X2175Y4285D02*
X2570Y3890D01*
X2175Y4014D02*
X2299Y3889D01*
X2175Y4025D02*
X2310Y3890D01*
X2175Y4300D02*
X2235Y4360D01*
X2175Y4291D02*
X2244Y4360D01*
X2175Y4279D02*
X2256Y4360D01*
X2175Y4234D02*
X2301Y4360D01*
X2175Y4223D02*
X2312Y4360D01*
X2175Y4268D02*
X2267Y4360D01*
X2175Y4257D02*
X2278Y4360D01*
X2175Y4245D02*
X2290Y4360D01*
X2175Y4178D02*
X2357Y4360D01*
X2175Y4166D02*
X2369Y4360D01*
X2175Y4211D02*
X2324Y4360D01*
X2175Y4200D02*
X2335Y4360D01*
X2175Y4189D02*
X2346Y4360D01*
X2175Y4121D02*
X2414Y4360D01*
X2175Y4110D02*
X2425Y4360D01*
X2175Y4155D02*
X2380Y4360D01*
X2175Y4144D02*
X2391Y4360D01*
X2175Y4132D02*
X2403Y4360D01*
X2175Y3895D02*
X2505Y4225D01*
X2175Y3906D02*
X2505Y4236D01*
X2175Y3917D02*
X2505Y4247D01*
X2175Y3929D02*
X2505Y4259D01*
X2175Y3940D02*
X2505Y4270D01*
X2175Y3951D02*
X2505Y4281D01*
X2175Y4296D02*
X2575Y3896D01*
X2175Y3963D02*
X2505Y4293D01*
X2175Y3974D02*
X2505Y4304D01*
X2175Y3985D02*
X2505Y4315D01*
X2175Y3997D02*
X2505Y4327D01*
X2175Y4008D02*
X2505Y4338D01*
X2175Y4098D02*
X2437Y4360D01*
X2175Y4019D02*
X2505Y4349D01*
X2175Y4087D02*
X2448Y4360D01*
X2175Y4042D02*
X2493Y4360D01*
X2175Y4030D02*
X2505Y4360D01*
X2175Y4076D02*
X2459Y4360D01*
X2175Y4064D02*
X2471Y4360D01*
X2175Y4053D02*
X2482Y4360D01*
X2175Y3833D02*
X2178Y3830D01*
X2175Y3844D02*
X2189Y3830D01*
X2175Y3855D02*
X2200Y3830D01*
X2175Y3867D02*
X2212Y3830D01*
X2175Y3878D02*
X2223Y3830D01*
X2175Y3889D02*
X2234Y3830D01*
X2175Y3900D02*
X2243Y3833D01*
X2240Y3830D02*
X2300Y3890D01*
X2175Y3912D02*
X2248Y3838D01*
X2178Y3830D02*
X2505Y4157D01*
X2178Y3830D02*
X2505Y4157D01*
X2190Y3830D02*
X2505Y4145D01*
X2212Y3830D02*
X2505Y4123D01*
X2201Y3830D02*
X2505Y4134D01*
X2223Y3830D02*
X2505Y4112D01*
X2235Y3830D02*
X2505Y4100D01*
X2306Y3890D02*
X2505Y4089D01*
X2329Y3890D02*
X2505Y4066D01*
X2317Y3890D02*
X2505Y4078D01*
X2453Y3890D02*
X2544Y3981D01*
X2300Y3890D02*
X2575D01*
X2464D02*
X2550Y3975D01*
X2487Y3890D02*
X2561Y3964D01*
X2476Y3890D02*
X2555Y3970D01*
X2498Y3890D02*
X2567Y3958D01*
X2510Y3890D02*
X2572Y3953D01*
X2521Y3890D02*
X2575Y3944D01*
X2544Y3890D02*
X2575Y3921D01*
X2532Y3890D02*
X2575Y3933D01*
X2340Y3890D02*
X2505Y4055D01*
X2351Y3890D02*
X2505Y4044D01*
X2363Y3890D02*
X2505Y4032D01*
X2385Y3890D02*
X2510Y4015D01*
X2374Y3890D02*
X2505Y4021D01*
X2397Y3890D02*
X2516Y4009D01*
X2408Y3890D02*
X2521Y4004D01*
X2419Y3890D02*
X2527Y3998D01*
X2442Y3890D02*
X2538Y3987D01*
X2431Y3890D02*
X2533Y3992D01*
X2202Y4327D02*
X2505Y4023D01*
X2207Y4332D02*
X2505Y4034D01*
X2213Y4338D02*
X2505Y4046D01*
X2218Y4343D02*
X2505Y4057D01*
X2224Y4349D02*
X2505Y4068D01*
Y4020D02*
Y4360D01*
X2230Y4355D02*
X2505Y4080D01*
X2236Y4360D02*
X2505Y4091D01*
X2247Y4360D02*
X2505Y4102D01*
X2259Y4360D02*
X2505Y4114D01*
X2270Y4360D02*
X2505Y4125D01*
X2281Y4360D02*
X2505Y4136D01*
X2292Y4360D02*
X2505Y4147D01*
X2304Y4360D02*
X2505Y4159D01*
X2315Y4360D02*
X2505Y4170D01*
X2326Y4360D02*
X2505Y4181D01*
X2338Y4360D02*
X2505Y4193D01*
X2349Y4360D02*
X2505Y4204D01*
X2360Y4360D02*
X2505Y4215D01*
X2372Y4360D02*
X2505Y4227D01*
X2179Y4304D02*
X2575Y3908D01*
X2185Y4310D02*
X2575Y3919D01*
X2383Y4360D02*
X2505Y4238D01*
X2190Y4315D02*
X2575Y3930D01*
X2196Y4321D02*
X2575Y3942D01*
X2555Y3890D02*
X2575Y3910D01*
X2566Y3890D02*
X2575Y3899D01*
X2394Y4360D02*
X2505Y4249D01*
X2575Y3890D02*
Y3950D01*
X2505Y4020D02*
X2575Y3950D01*
X2406Y4360D02*
X2505Y4261D01*
X2417Y4360D02*
X2505Y4272D01*
X2428Y4360D02*
X2505Y4283D01*
X2440Y4360D02*
X2505Y4295D01*
X2235Y4360D02*
X2505D01*
X2451D02*
X2505Y4306D01*
X2462Y4360D02*
X2505Y4317D01*
X2473Y4360D02*
X2505Y4328D01*
X2485Y4360D02*
X2505Y4340D01*
X2496Y4360D02*
X2505Y4351D01*
X1660Y4042D02*
X1850Y3852D01*
X1660Y4031D02*
X1853Y3838D01*
X1660Y4053D02*
X1851Y3863D01*
X1660Y4065D02*
X1853Y3872D01*
X1728Y3877D02*
X1900Y4050D01*
X1722Y3883D02*
X1900Y4061D01*
X1762Y3843D02*
X1900Y3982D01*
X1756Y3849D02*
X1900Y3993D01*
X1750Y3855D02*
X1900Y4004D01*
X1745Y3860D02*
X1900Y4016D01*
X1739Y3866D02*
X1900Y4027D01*
X1733Y3872D02*
X1900Y4038D01*
X1660Y4076D02*
X1856Y3880D01*
X1660Y4087D02*
X1861Y3886D01*
X1660Y4099D02*
X1867Y3892D01*
X1660Y4110D02*
X1873Y3897D01*
X1660Y4121D02*
X1880Y3901D01*
X1660Y4133D02*
X1889Y3904D01*
X1660Y4144D02*
X1899Y3905D01*
X1660Y4155D02*
X1900Y3915D01*
X1660Y4167D02*
X1900Y3927D01*
X1660Y3945D02*
Y4275D01*
Y4178D02*
X1900Y3938D01*
X1660Y4189D02*
X1900Y3949D01*
X1660Y3974D02*
X2104Y3530D01*
X1660Y3986D02*
X2116Y3530D01*
X1660Y3997D02*
X2127Y3530D01*
X1660Y3945D02*
X2000Y3605D01*
X1660Y3952D02*
X2008Y3604D01*
X1660Y3963D02*
X2025Y3598D01*
X1660Y4008D02*
X2138Y3530D01*
X1660Y4019D02*
X2140Y3539D01*
X1660Y4019D02*
X2140Y3539D01*
X1716Y3889D02*
X1960Y4132D01*
X1711Y3894D02*
X1960Y4144D01*
X1705Y3900D02*
X1960Y4155D01*
X1660Y4201D02*
X1900Y3961D01*
X1660Y3945D02*
X1960Y4245D01*
X1660Y3957D02*
X1960Y4257D01*
X1660Y4212D02*
X1900Y3972D01*
X1660Y3968D02*
X1960Y4268D01*
X1660Y3979D02*
X1960Y4279D01*
X1699Y3906D02*
X1960Y4166D01*
X1694Y3911D02*
X1960Y4177D01*
X1688Y3917D02*
X1960Y4189D01*
X1682Y3923D02*
X1960Y4200D01*
X1677Y3928D02*
X1960Y4211D01*
X1671Y3934D02*
X1960Y4223D01*
X1665Y3940D02*
X1960Y4234D01*
X1660Y4223D02*
X1900Y3983D01*
X1660Y4234D02*
X1900Y3994D01*
X1660Y4246D02*
X1900Y4006D01*
X1660Y4257D02*
X1900Y4017D01*
X1660Y4268D02*
X1900Y4028D01*
X1662Y4277D02*
X1900Y4040D01*
X1668Y4283D02*
X1900Y4051D01*
X1674Y4289D02*
X1900Y4062D01*
X1679Y4294D02*
X1902Y4072D01*
X1660Y4273D02*
X1747Y4360D01*
X1660Y4275D02*
X1745Y4360D01*
X1660Y4262D02*
X1758Y4360D01*
X1660Y4217D02*
X1803Y4360D01*
X1660Y4206D02*
X1814Y4360D01*
X1660Y4194D02*
X1826Y4360D01*
X1660Y4251D02*
X1769Y4360D01*
X1660Y4240D02*
X1780Y4360D01*
X1660Y4228D02*
X1792Y4360D01*
X1660Y4138D02*
X1882Y4360D01*
X1660Y4126D02*
X1894Y4360D01*
X1660Y4115D02*
X1905Y4360D01*
X1660Y4183D02*
X1837Y4360D01*
X1660Y4172D02*
X1848Y4360D01*
X1660Y4160D02*
X1860Y4360D01*
X1660Y4149D02*
X1871Y4360D01*
X1660Y3991D02*
X1960Y4291D01*
X1660Y4002D02*
X1960Y4302D01*
X1660Y4013D02*
X1960Y4313D01*
X1685Y4300D02*
X1907Y4077D01*
X1660Y4025D02*
X1960Y4325D01*
X1660Y4036D02*
X1960Y4336D01*
X1691Y4306D02*
X1913Y4083D01*
X1696Y4311D02*
X1919Y4089D01*
X1702Y4317D02*
X1924Y4094D01*
X1708Y4323D02*
X1930Y4100D01*
X1713Y4328D02*
X1936Y4106D01*
X1719Y4334D02*
X1941Y4111D01*
X1660Y4070D02*
X1950Y4360D01*
X1660Y4047D02*
X1960Y4347D01*
X1660Y4059D02*
X1960Y4359D01*
X1660Y4104D02*
X1916Y4360D01*
X1660Y4092D02*
X1928Y4360D01*
X1660Y4081D02*
X1939Y4360D01*
X1725Y4340D02*
X1947Y4117D01*
X1730Y4345D02*
X1953Y4123D01*
X1736Y4351D02*
X1958Y4128D01*
X1742Y4357D02*
X1960Y4138D01*
X1749Y4360D02*
X1960Y4149D01*
X1761Y4360D02*
X1960Y4161D01*
X1745Y4360D02*
X1960D01*
X1999Y3606D02*
X2067Y3673D01*
X1994Y3611D02*
X2061Y3679D01*
X1977Y3628D02*
X2044Y3696D01*
X1988Y3617D02*
X2055Y3685D01*
X1982Y3623D02*
X2050Y3690D01*
X2050Y3539D02*
X2059Y3530D01*
X2050Y3550D02*
X2070Y3530D01*
X2049Y3563D02*
X2082Y3530D01*
X2050D02*
Y3555D01*
X2017Y3601D02*
X2078Y3662D01*
X2009Y3604D02*
X2072Y3668D01*
X1926Y3679D02*
X1993Y3747D01*
X1937Y3668D02*
X2005Y3735D01*
X1931Y3674D02*
X1999Y3741D01*
X1909Y3696D02*
X1976Y3764D01*
X1920Y3685D02*
X1988Y3752D01*
X1914Y3691D02*
X1982Y3758D01*
X1960Y3645D02*
X2027Y3713D01*
X1971Y3634D02*
X2038Y3702D01*
X1965Y3640D02*
X2033Y3707D01*
X1943Y3662D02*
X2010Y3730D01*
X1954Y3651D02*
X2021Y3719D01*
X1948Y3657D02*
X2016Y3724D01*
X2043Y3580D02*
X2093Y3530D01*
X2050D02*
X2140D01*
X2059D02*
X2135Y3605D01*
X2050Y3543D02*
X2123Y3617D01*
X2071Y3530D02*
X2140Y3599D01*
X2050Y3532D02*
X2129Y3611D01*
X2082Y3530D02*
X2140Y3588D01*
X2104Y3530D02*
X2140Y3566D01*
X2093Y3530D02*
X2140Y3577D01*
X2116Y3530D02*
X2140Y3554D01*
X2127Y3530D02*
X2140Y3543D01*
Y3530D02*
Y3600D01*
X1883Y3808D02*
X2140Y3551D01*
X1897Y3805D02*
X2140Y3562D01*
X1908Y3805D02*
X2140Y3573D01*
X1920Y3805D02*
X2140Y3585D01*
X1931Y3805D02*
X2140Y3596D01*
X1935Y3805D02*
X2140Y3600D01*
X2046Y3573D02*
X2106Y3634D01*
X2050Y3555D02*
X2118Y3622D01*
X2049Y3565D02*
X2112Y3628D01*
X2032Y3593D02*
X2089Y3651D01*
X2025Y3598D02*
X2084Y3656D01*
X2042Y3581D02*
X2101Y3639D01*
X2037Y3587D02*
X2095Y3645D01*
X1835Y3770D02*
X1876Y3811D01*
X1846Y3759D02*
X1893Y3805D01*
X1841Y3764D02*
X1884Y3808D01*
X1818Y3787D02*
X1859Y3827D01*
X1830Y3775D02*
X1869Y3815D01*
X1824Y3781D02*
X1864Y3821D01*
X1863Y3742D02*
X1927Y3805D01*
X1863Y3742D02*
X1927Y3805D01*
X1869Y3736D02*
X1937Y3803D01*
X1852Y3753D02*
X1904Y3805D01*
X1858Y3747D02*
X1916Y3805D01*
X1900D02*
X1935D01*
X1796Y3809D02*
X1851Y3865D01*
X1790Y3815D02*
X1860Y3886D01*
X1784Y3821D02*
X1900Y3936D01*
X1779Y3826D02*
X1900Y3948D01*
X1773Y3832D02*
X1900Y3959D01*
X1767Y3838D02*
X1900Y3970D01*
X1807Y3798D02*
X1852Y3843D01*
X1813Y3792D02*
X1854Y3834D01*
X1801Y3804D02*
X1850Y3853D01*
X1869Y3895D02*
X1900Y3925D01*
X1890Y3904D02*
X1900Y3914D01*
Y3905D02*
Y4070D01*
X1875Y3730D02*
X1942Y3798D01*
X1880Y3725D02*
X1948Y3792D01*
X1772Y4360D02*
X1960Y4172D01*
X1783Y4360D02*
X1960Y4183D01*
X1795Y4360D02*
X1960Y4195D01*
X1806Y4360D02*
X1960Y4206D01*
X1892Y3713D02*
X1959Y3781D01*
X1903Y3702D02*
X1971Y3769D01*
X1897Y3708D02*
X1965Y3775D01*
X1886Y3719D02*
X1954Y3786D01*
X1900Y4070D02*
X1960Y4130D01*
Y4360D01*
X1817D02*
X1960Y4217D01*
X1829Y4360D02*
X1960Y4229D01*
X1840Y4360D02*
X1960Y4240D01*
X1851Y4360D02*
X1960Y4251D01*
X1863Y4360D02*
X1960Y4263D01*
X1874Y4360D02*
X1960Y4274D01*
X1885Y4360D02*
X1960Y4285D01*
X1896Y4360D02*
X1960Y4296D01*
X1908Y4360D02*
X1960Y4308D01*
X1919Y4360D02*
X1960Y4319D01*
X1930Y4360D02*
X1960Y4330D01*
X1942Y4360D02*
X1960Y4342D01*
X1953Y4360D02*
X1960Y4353D01*
X1450Y3756D02*
X1479Y3726D01*
X1450Y3766D02*
X1489Y3726D01*
X1450Y3777D02*
X1501Y3726D01*
X1450Y3788D02*
X1512Y3726D01*
X1450Y3800D02*
X1523Y3726D01*
X1466Y3840D02*
X1701Y3605D01*
X1472Y3846D02*
X1712Y3605D01*
X1477Y3852D02*
X1724Y3605D01*
X1481Y3859D02*
X1735Y3605D01*
X1484Y3868D02*
X1746Y3605D01*
X1485Y3878D02*
X1758Y3605D01*
X1450Y3811D02*
X1534Y3726D01*
X1450Y3756D02*
Y3824D01*
X1470Y3845D01*
X1450Y3822D02*
X1546Y3726D01*
X1455Y3829D02*
X1557Y3726D01*
X1479D02*
X1578D01*
X1460Y3835D02*
X1568Y3726D01*
X1509D02*
X1676Y3894D01*
X1520Y3726D02*
X1682Y3888D01*
X1578Y3653D02*
X1626Y3605D01*
X1578Y3660D02*
X1633Y3605D01*
X1578Y3671D02*
X1645Y3605D01*
X1578Y3683D02*
X1656Y3605D01*
X1578Y3653D02*
Y3726D01*
Y3694D02*
X1667Y3605D01*
X1578Y3705D02*
X1679Y3605D01*
X1578Y3717D02*
X1690Y3605D01*
X1580Y3651D02*
X1750Y3820D01*
X1578Y3660D02*
X1744Y3826D01*
X1578Y3671D02*
X1738Y3831D01*
X1565Y3726D02*
X1704Y3865D01*
X1568Y3726D02*
X1578Y3717D01*
X1532Y3726D02*
X1687Y3882D01*
X1543Y3726D02*
X1693Y3877D01*
X1554Y3726D02*
X1699Y3871D01*
X1578Y3682D02*
X1733Y3837D01*
X1578Y3694D02*
X1727Y3843D01*
X1578Y3705D02*
X1721Y3848D01*
X1577Y3726D02*
X1710Y3860D01*
X1578Y3705D02*
X1721Y3848D01*
X1578Y3716D02*
X1716Y3854D01*
X1450Y3758D02*
X1635Y3943D01*
X1455Y3751D02*
X1635Y3932D01*
X1450Y3769D02*
X1635Y3954D01*
X1450Y3781D02*
X1635Y3966D01*
X1450Y3792D02*
X1635Y3977D01*
X1466Y3740D02*
X1648Y3922D01*
X1477Y3729D02*
X1659Y3911D01*
X1471Y3734D02*
X1653Y3916D01*
X1450Y3803D02*
X1635Y3988D01*
X1460Y3746D02*
X1640Y3925D01*
X1450Y3815D02*
X1635Y4000D01*
X1485Y3880D02*
Y3960D01*
X1477Y3853D02*
X1635Y4011D01*
X1410Y4156D02*
X1635Y3931D01*
X1410Y4168D02*
X1635Y3943D01*
X1480Y3981D02*
X1635Y4135D01*
X1410Y4179D02*
X1635Y3954D01*
X1410Y4190D02*
X1635Y3965D01*
X1410Y4202D02*
X1635Y3977D01*
X1484Y3871D02*
X1635Y4022D01*
X1485Y3884D02*
X1635Y4034D01*
X1485Y3895D02*
X1635Y4045D01*
X1485Y3906D02*
X1635Y4056D01*
X1485Y3917D02*
X1635Y4067D01*
X1486Y3726D02*
X1665Y3905D01*
X1498Y3726D02*
X1670Y3899D01*
X1635Y3925D02*
X1645D01*
X1635Y3931D02*
X1641Y3925D01*
X1635D02*
Y3945D01*
Y4065D01*
Y3945D02*
Y4065D01*
X1485Y3929D02*
X1635Y4079D01*
X1485Y3940D02*
X1635Y4090D01*
X1485Y3951D02*
X1635Y4101D01*
Y3932D02*
X1637Y3934D01*
X1640Y3925D02*
X1642Y3928D01*
X1642Y3927D02*
X1645Y3925D01*
X1485Y3963D02*
X1635Y4113D01*
X1483Y3972D02*
X1635Y4124D01*
X1659Y3605D02*
X1812Y3758D01*
X1670Y3605D02*
X1817Y3752D01*
X1625Y3605D02*
X1795Y3775D01*
X1636Y3605D02*
X1801Y3769D01*
X1648Y3605D02*
X1806Y3763D01*
X1626Y3605D02*
X1900D01*
X1716D02*
X1840Y3730D01*
X1727Y3605D02*
X1846Y3724D01*
X1682Y3605D02*
X1823Y3746D01*
X1693Y3605D02*
X1829Y3741D01*
X1704Y3605D02*
X1834Y3735D01*
X1603Y3628D02*
X1772Y3797D01*
X1608Y3622D02*
X1778Y3792D01*
X1586Y3645D02*
X1755Y3814D01*
X1597Y3634D02*
X1767Y3803D01*
X1591Y3639D02*
X1761Y3809D01*
X1750Y3605D02*
X1857Y3713D01*
X1761Y3605D02*
X1863Y3707D01*
X1772Y3605D02*
X1868Y3701D01*
X1614Y3617D02*
X1784Y3786D01*
X1738Y3605D02*
X1851Y3718D01*
X1620Y3611D02*
X1789Y3780D01*
X1817Y3605D02*
X1891Y3679D01*
X1829Y3605D02*
X1897Y3673D01*
X1783Y3605D02*
X1874Y3696D01*
X1795Y3605D02*
X1880Y3690D01*
X1806Y3605D02*
X1885Y3684D01*
X1874Y3605D02*
X1919Y3650D01*
X1916Y3602D02*
X1942Y3628D01*
X1840Y3605D02*
X1902Y3667D01*
X1851Y3605D02*
X1908Y3662D01*
X1863Y3605D02*
X1914Y3656D01*
X1876Y3849D02*
X1894Y3831D01*
X1876Y3860D02*
X1906Y3830D01*
X1879Y3868D02*
X1917Y3830D01*
X1875Y3855D02*
X1900Y3880D01*
X1885Y3605D02*
X1925Y3645D01*
X1897Y3605D02*
X1931Y3639D01*
X1907Y3604D02*
X1936Y3633D01*
X1884Y3874D02*
X1929Y3830D01*
X1891Y3879D02*
X1941Y3829D01*
X1900Y3830D02*
X1935D01*
X1410Y4066D02*
X1871Y3605D01*
X1476Y3988D02*
X1860Y3605D01*
X1410Y4077D02*
X1882Y3605D01*
X1410Y4088D02*
X1893Y3605D01*
X1410Y4100D02*
X1905Y3605D01*
X1410Y4111D02*
X1920Y3601D01*
X1641Y3925D02*
X2025Y3541D01*
X1645Y3925D02*
X1983Y3587D01*
X1410Y4122D02*
X2002Y3530D01*
X1410Y4134D02*
X2014Y3530D01*
X1410Y4145D02*
X2025Y3530D01*
X1485Y3889D02*
X1769Y3605D01*
X1485Y3900D02*
X1780Y3605D01*
X1485Y3912D02*
X1792Y3605D01*
X1485Y3923D02*
X1803Y3605D01*
X1485Y3934D02*
X1814Y3605D01*
X1485Y3946D02*
X1826Y3605D01*
X1485Y3957D02*
X1837Y3605D01*
X1484Y3969D02*
X1848Y3605D01*
X1877Y3845D02*
X2150Y4119D01*
X1887Y3833D02*
X2150Y4096D01*
X1881Y3838D02*
X2150Y4107D01*
X1901Y3880D02*
X2236Y3546D01*
X1910Y3882D02*
X2241Y3551D01*
X1896Y3830D02*
X2150Y4085D01*
X1907Y3830D02*
X2150Y4073D01*
X1918Y3830D02*
X2150Y4062D01*
X1917Y3887D02*
X2247Y3557D01*
X1925Y3981D02*
X2298Y3608D01*
X1925Y3992D02*
X2304Y3614D01*
X1925Y4003D02*
X2309Y3619D01*
X1925Y4015D02*
X2315Y3625D01*
X1925Y4026D02*
X2321Y3631D01*
X1925Y3905D02*
Y4060D01*
X1925Y4060D02*
X2150Y3835D01*
X1925Y3905D02*
X2150Y4130D01*
X1925Y3916D02*
X2150Y4141D01*
X1925Y3928D02*
X2150Y4153D01*
X1925Y3939D02*
X2150Y4164D01*
X1925Y3950D02*
X2150Y4175D01*
X1925Y3961D02*
X2150Y4186D01*
X1925Y3973D02*
X2150Y4198D01*
X1410Y4010D02*
X1435D01*
X1410Y4021D02*
X1421Y4010D01*
X1410Y4032D02*
X1432Y4010D01*
X1410Y4055D02*
X1463Y4001D01*
X1410Y4043D02*
X1444Y4009D01*
X1410Y4213D02*
X1635Y3988D01*
X1410Y4224D02*
X1635Y3999D01*
X1410Y4012D02*
X1635Y4237D01*
X1410Y4236D02*
X1635Y4011D01*
X1410Y4247D02*
X1635Y4022D01*
X1410Y4023D02*
X1635Y4248D01*
X1410Y4035D02*
X1635Y4260D01*
X1410Y4258D02*
X1635Y4033D01*
X1410Y4269D02*
X1635Y4044D01*
X1410Y4046D02*
X1635Y4271D01*
X1410Y4281D02*
X1635Y4056D01*
X1410Y4057D02*
X1637Y4284D01*
X1410Y4292D02*
X1635Y4067D01*
X1410Y4303D02*
X1635Y4078D01*
X1410Y4315D02*
X1635Y4090D01*
X1410Y4326D02*
X1635Y4101D01*
X1410Y4337D02*
X1635Y4112D01*
X1471Y3994D02*
X1635Y4158D01*
X1476Y3988D02*
X1635Y4147D01*
X1451Y4008D02*
X1635Y4192D01*
X1465Y4000D02*
X1635Y4169D01*
X1459Y4004D02*
X1635Y4181D01*
X1419Y4010D02*
X1635Y4226D01*
X1430Y4010D02*
X1635Y4215D01*
X1441Y4010D02*
X1635Y4203D01*
X1410Y4349D02*
X1635Y4124D01*
Y4065D02*
Y4275D01*
X1410Y4360D02*
X1635Y4135D01*
X1410Y4371D02*
X1635Y4146D01*
X1410Y4383D02*
X1635Y4158D01*
X1410Y4394D02*
X1635Y4169D01*
X1410Y4405D02*
X1635Y4180D01*
X1642Y4293D02*
X1675Y4325D01*
Y4332D01*
X1675D02*
X1679Y4329D01*
X1675Y4325D02*
X1682Y4332D01*
X1675D02*
X1682D01*
X1410Y4417D02*
X1635Y4192D01*
X1410Y4428D02*
X1635Y4203D01*
X1410Y4439D02*
X1635Y4214D01*
X1410Y4010D02*
Y4540D01*
Y4451D02*
X1635Y4226D01*
X1410Y4462D02*
X1635Y4237D01*
X1410Y4473D02*
X1635Y4248D01*
X1410Y4484D02*
X1635Y4259D01*
X1410Y4496D02*
X1635Y4271D01*
X1410Y4507D02*
X1636Y4281D01*
X1410Y4518D02*
X1639Y4289D01*
X1410Y4533D02*
X1417Y4540D01*
X1410Y4521D02*
X1429Y4540D01*
X1410Y4510D02*
X1440Y4540D01*
X1410Y4487D02*
X1463Y4540D01*
X1410Y4499D02*
X1451Y4540D01*
X1410Y4530D02*
X1645Y4295D01*
X1410Y4465D02*
X1485Y4540D01*
X1410Y4476D02*
X1474Y4540D01*
X1410Y4453D02*
X1497Y4540D01*
X1410Y4431D02*
X1519Y4540D01*
X1410Y4442D02*
X1508Y4540D01*
X1410Y4318D02*
X1632Y4540D01*
X1410Y4306D02*
X1644Y4540D01*
X1410Y4295D02*
X1655Y4540D01*
X1411D02*
X1650Y4301D01*
X1422Y4540D02*
X1656Y4306D01*
X1410Y4284D02*
X1666Y4540D01*
X1434D02*
X1662Y4312D01*
X1445Y4540D02*
X1667Y4318D01*
X1410Y4272D02*
X1678Y4540D01*
X1410Y4261D02*
X1689Y4540D01*
X1456D02*
X1673Y4323D01*
X1410Y4419D02*
X1531Y4540D01*
X1410Y4408D02*
X1542Y4540D01*
X1410Y4397D02*
X1553Y4540D01*
X1410Y4374D02*
X1576Y4540D01*
X1410Y4386D02*
X1564Y4540D01*
X1410Y4363D02*
X1587Y4540D01*
X1410Y4340D02*
X1610Y4540D01*
X1410Y4352D02*
X1598Y4540D01*
X1410Y4329D02*
X1621Y4540D01*
X1468D02*
X1675Y4332D01*
X1479Y4540D02*
X1684Y4335D01*
X1410Y4227D02*
X1723Y4540D01*
X1410Y4216D02*
X1734Y4540D01*
X1410Y4204D02*
X1746Y4540D01*
X1410Y4182D02*
X1768Y4540D01*
X1410Y4193D02*
X1757Y4540D01*
X1410Y4171D02*
X1779Y4540D01*
X1410Y4148D02*
X1802Y4540D01*
X1410Y4159D02*
X1791Y4540D01*
X1410Y4137D02*
X1813Y4540D01*
X1410Y4114D02*
X1836Y4540D01*
X1410Y4125D02*
X1825Y4540D01*
X1490D02*
X1690Y4340D01*
X1502Y4540D02*
X1696Y4346D01*
X1410Y4250D02*
X1700Y4540D01*
X1513D02*
X1701Y4352D01*
X1524Y4540D02*
X1707Y4357D01*
X1410Y4238D02*
X1712Y4540D01*
X1535D02*
X1713Y4363D01*
X1547Y4540D02*
X1718Y4369D01*
X1558Y4540D02*
X1724Y4374D01*
X1569Y4540D02*
X1730Y4380D01*
X1569Y4540D02*
X1730Y4380D01*
X1925Y4060D02*
X1978Y4112D01*
X1925Y3984D02*
X2150Y4209D01*
X1682Y4332D02*
X1727Y4378D01*
X1925Y3995D02*
X2150Y4220D01*
X1925Y4007D02*
X2150Y4232D01*
X1925Y4018D02*
X2150Y4243D01*
X1925Y4029D02*
X2150Y4254D01*
X1925Y4041D02*
X2150Y4266D01*
X1925Y4052D02*
X2150Y4277D01*
X1925Y4052D02*
X2150Y4277D01*
X1581Y4540D02*
X1737Y4384D01*
X1592Y4540D02*
X1747Y4385D01*
X1603Y4540D02*
X1758Y4385D01*
X1615Y4540D02*
X1770Y4385D01*
X1626Y4540D02*
X1781Y4385D01*
X1637Y4540D02*
X1792Y4385D01*
X1745D02*
X1960D01*
X1649Y4540D02*
X1804Y4385D01*
X1660Y4540D02*
X1815Y4385D01*
X1671Y4540D02*
X1826Y4385D01*
X1410Y4103D02*
X1847Y4540D01*
X1683D02*
X1838Y4385D01*
X1410Y4091D02*
X1859Y4540D01*
X1694D02*
X1849Y4385D01*
X1705Y4540D02*
X1860Y4385D01*
X1410Y4080D02*
X1870Y4540D01*
X1410Y4069D02*
X1881Y4540D01*
X1716D02*
X1871Y4385D01*
X1728Y4540D02*
X1883Y4385D01*
X1736Y4383D02*
X1893Y4540D01*
X1739D02*
X1894Y4385D01*
X1749D02*
X1904Y4540D01*
X1750D02*
X1905Y4385D01*
X1760D02*
X1915Y4540D01*
X1762D02*
X1917Y4385D01*
X1772D02*
X1927Y4540D01*
X1773D02*
X1928Y4385D01*
X1783D02*
X1938Y4540D01*
X1784D02*
X1939Y4385D01*
X1410Y4540D02*
X2505D01*
X1794Y4385D02*
X1949Y4540D01*
X1796D02*
X1951Y4385D01*
X1805D02*
X1960Y4540D01*
X1818D02*
X1976Y4382D01*
X1830Y4540D02*
X2150Y4220D01*
X1841Y4540D02*
X2150Y4231D01*
X1852Y4540D02*
X2150Y4242D01*
X1864Y4540D02*
X2150Y4254D01*
X1875Y4540D02*
X2150Y4265D01*
X1886Y4540D02*
X2150Y4276D01*
X1898Y4540D02*
X2150Y4287D01*
X1909Y4540D02*
X2150Y4299D01*
X1920Y4540D02*
X2152Y4309D01*
X1807Y4540D02*
X1962Y4385D01*
X1817Y4385D02*
X1972Y4540D01*
X1828Y4385D02*
X1983Y4540D01*
X1839Y4385D02*
X1994Y4540D01*
X1851Y4385D02*
X2006Y4540D01*
X1862Y4385D02*
X2017Y4540D01*
X1873Y4385D02*
X2028Y4540D01*
X1885Y4385D02*
X2040Y4540D01*
X1896Y4385D02*
X2051Y4540D01*
X1907Y4385D02*
X2062Y4540D01*
X1919Y4385D02*
X2074Y4540D01*
X1948Y3540D02*
X1957Y3530D01*
X1950Y3549D02*
X1968Y3530D01*
X1946Y3575D02*
X1991Y3530D01*
X1950Y3560D02*
X1980Y3530D01*
X1943D02*
X2025D01*
X1980D02*
X2020Y3570D01*
X1991Y3530D02*
X2023Y3562D01*
X1946Y3530D02*
X1996Y3580D01*
X1957Y3530D02*
X2006Y3579D01*
X1969Y3530D02*
X2014Y3575D01*
X1942Y3582D02*
X1965Y3605D01*
X1946Y3575D02*
X1970Y3599D01*
X1924Y3599D02*
X1948Y3622D01*
X1937Y3589D02*
X1959Y3611D01*
X1931Y3594D02*
X1953Y3616D01*
X1949Y3544D02*
X1988Y3583D01*
X1998Y3580D02*
X2025Y3553D01*
X1950Y3557D02*
X1982Y3588D01*
X1949Y3567D02*
X1976Y3594D01*
X2014Y3530D02*
X2025Y3541D01*
X2165Y3537D02*
X2172Y3530D01*
X2003D02*
X2025Y3552D01*
X2025Y3530D02*
Y3551D01*
X2165Y3530D02*
Y3600D01*
Y3530D02*
X2220D01*
X2165Y3548D02*
X2183Y3530D01*
X2165Y3560D02*
X2195Y3530D01*
X2165Y3571D02*
X2206Y3530D01*
X2165Y3582D02*
X2217Y3530D01*
X2165Y3594D02*
X2224Y3534D01*
X2013Y3575D02*
X2020Y3568D01*
X2040Y3735D02*
X2135Y3640D01*
X2164Y3606D02*
X2230Y3540D01*
X2139Y3637D02*
X2158Y3618D01*
X1953Y3823D02*
X2037Y3739D01*
X2028Y3748D02*
X2150Y3870D01*
X2039Y3736D02*
X2150Y3847D01*
X2033Y3742D02*
X2150Y3858D01*
X1922Y3893D02*
X2253Y3563D01*
X2022Y3753D02*
X2150Y3881D01*
X2017Y3759D02*
X2150Y3892D01*
X2000Y3776D02*
X2150Y3926D01*
X2011Y3764D02*
X2150Y3904D01*
X2005Y3770D02*
X2150Y3915D01*
X1994Y3781D02*
X2150Y3938D01*
X1977Y3798D02*
X2150Y3972D01*
X1988Y3787D02*
X2150Y3949D01*
X1983Y3793D02*
X2150Y3960D01*
X1960Y3815D02*
X2150Y4005D01*
X1971Y3804D02*
X2150Y3983D01*
X1966Y3810D02*
X2150Y3994D01*
X1925Y4037D02*
X2150Y3812D01*
X1954Y3821D02*
X2150Y4017D01*
X1925Y4049D02*
X2150Y3823D01*
X2062Y3714D02*
X2154Y3805D01*
X2068Y3708D02*
X2165Y3805D01*
X2051Y3725D02*
X2150Y3825D01*
X2073Y3702D02*
X2176Y3805D01*
X2056Y3719D02*
X2150Y3814D01*
X2079Y3697D02*
X2187Y3805D01*
X2090Y3685D02*
X2210Y3805D01*
X2085Y3691D02*
X2198Y3805D01*
X2096Y3680D02*
X2221Y3805D01*
X2107Y3669D02*
X2244Y3805D01*
X2102Y3674D02*
X2232Y3805D01*
X2150Y3805D02*
X2170D01*
X2045Y3731D02*
X2150Y3836D01*
X2150Y3812D02*
X2157Y3805D01*
X2150D02*
Y3825D01*
X2175Y3805D02*
X2240D01*
X2157Y3805D02*
X2326Y3636D01*
X2220Y3530D02*
X2340Y3650D01*
X2124Y3652D02*
X2338Y3865D01*
X2168Y3805D02*
X2332Y3642D01*
X2180Y3805D02*
X2337Y3647D01*
X2130Y3646D02*
X2349Y3865D01*
X2191Y3805D02*
X2346Y3650D01*
X2203Y3805D02*
X2358Y3650D01*
X2135Y3640D02*
X2360Y3865D01*
X2147Y3629D02*
X2383Y3865D01*
X2141Y3634D02*
X2372Y3865D01*
X2245Y3805D02*
X2250D01*
X2113Y3663D02*
X2315Y3865D01*
X2258Y3812D02*
X2310Y3865D01*
X2214Y3805D02*
X2369Y3650D01*
X2225Y3805D02*
X2380Y3650D01*
X2237Y3805D02*
X2392Y3650D01*
X2119Y3657D02*
X2326Y3865D01*
X2247Y3805D02*
X2403Y3650D01*
X2255Y3810D02*
X2414Y3650D01*
X2260Y3815D02*
X2425Y3650D01*
X2266Y3821D02*
X2437Y3650D01*
X2272Y3826D02*
X2448Y3650D01*
X2277Y3832D02*
X2459Y3650D01*
X2277Y3832D02*
X2459Y3650D01*
X2283Y3838D02*
X2470Y3650D01*
X2340Y3650D02*
X2470D01*
X2394D02*
X2570Y3826D01*
X2360Y3650D02*
X2570Y3860D01*
X2372Y3650D02*
X2570Y3848D01*
X2383Y3650D02*
X2570Y3837D01*
X2289Y3843D02*
X2476Y3656D01*
X2405Y3650D02*
X2570Y3815D01*
X2294Y3849D02*
X2482Y3662D01*
X2300Y3855D02*
X2487Y3667D01*
X2306Y3860D02*
X2493Y3673D01*
X2451Y3650D02*
X2570Y3769D01*
X2462Y3650D02*
X2570Y3758D01*
X2470Y3650D02*
X2570Y3750D01*
X2417Y3650D02*
X2570Y3803D01*
X2428Y3650D02*
X2570Y3792D01*
X2439Y3650D02*
X2570Y3781D01*
X2165Y3568D02*
X2462Y3865D01*
X2165Y3557D02*
X2473Y3865D01*
X1925Y3902D02*
X2258Y3568D01*
X2165Y3545D02*
X2485Y3865D01*
X1925Y3913D02*
X2264Y3574D01*
X2165Y3534D02*
X2496Y3865D01*
X2172Y3530D02*
X2507Y3865D01*
X2184Y3530D02*
X2519Y3865D01*
X2195Y3530D02*
X2530Y3865D01*
X2206Y3530D02*
X2541Y3865D01*
X2218Y3530D02*
X2553Y3865D01*
X1925Y3924D02*
X2270Y3580D01*
X1925Y3935D02*
X2275Y3585D01*
X1925Y3947D02*
X2281Y3591D01*
X1925Y3958D02*
X2287Y3597D01*
X1925Y3969D02*
X2292Y3602D01*
X2152Y3623D02*
X2394Y3865D01*
X2163Y3611D02*
X2417Y3865D01*
X2158Y3617D02*
X2406Y3865D01*
X2165Y3602D02*
X2428Y3865D01*
X2165Y3579D02*
X2451Y3865D01*
X2165Y3591D02*
X2439Y3865D01*
X2312D02*
X2499Y3679D01*
X2324Y3865D02*
X2504Y3684D01*
X2335Y3865D02*
X2510Y3690D01*
X2346Y3865D02*
X2516Y3696D01*
X2358Y3865D02*
X2521Y3701D01*
X2369Y3865D02*
X2527Y3707D01*
X2380Y3865D02*
X2533Y3713D01*
X2391Y3865D02*
X2538Y3718D01*
X2349Y3650D02*
X2564Y3865D01*
X2403D02*
X2544Y3724D01*
X2414Y3865D02*
X2550Y3730D01*
X2425Y3865D02*
X2555Y3735D01*
X2437Y3865D02*
X2561Y3741D01*
X2448Y3865D02*
X2567Y3747D01*
X2570Y3750D02*
Y3865D01*
X2459D02*
X2570Y3754D01*
X2471Y3865D02*
X2570Y3766D01*
X2482Y3865D02*
X2570Y3777D01*
X2493Y3865D02*
X2570Y3788D01*
X2505Y3865D02*
X2570Y3800D01*
X2516Y3865D02*
X2570Y3811D01*
X2527Y3865D02*
X2570Y3822D01*
X1948Y3826D02*
X2150Y4028D01*
X1929Y3830D02*
X2150Y4051D01*
X1940Y3829D02*
X2150Y4039D01*
X1931Y4065D02*
X2150Y3846D01*
X1936Y4071D02*
X2150Y3858D01*
X1942Y4077D02*
X2150Y3869D01*
X1948Y4082D02*
X2150Y3880D01*
X1953Y4088D02*
X2150Y3892D01*
X1959Y4094D02*
X2150Y3903D01*
X1965Y4099D02*
X2150Y3914D01*
X1985Y4122D02*
Y4130D01*
X1970Y4105D02*
X2150Y3925D01*
X1976Y4111D02*
X2150Y3937D01*
X1981Y4117D02*
X2150Y3948D01*
X1985Y4124D02*
X2150Y3959D01*
X1985Y4124D02*
X2150Y3959D01*
X1985Y4136D02*
X2150Y3971D01*
X1985Y4147D02*
X2150Y3982D01*
Y3830D02*
Y4300D01*
X1985Y4158D02*
X2150Y3993D01*
X1985Y4170D02*
X2150Y4005D01*
X1985Y4181D02*
X2150Y4016D01*
X1985Y4192D02*
X2150Y4027D01*
X1985Y4204D02*
X2150Y4039D01*
X1985Y4215D02*
X2150Y4050D01*
X1985Y4226D02*
X2150Y4061D01*
X1985Y4238D02*
X2150Y4073D01*
X1985Y4249D02*
X2150Y4084D01*
X1985Y4260D02*
X2150Y4095D01*
X1985Y4271D02*
X2150Y4106D01*
X1985Y4283D02*
X2150Y4118D01*
X1985Y4123D02*
X2150Y4288D01*
X1985Y4294D02*
X2150Y4129D01*
X1985Y4135D02*
X2150Y4300D01*
X1985Y4305D02*
X2150Y4140D01*
X1985Y4317D02*
X2150Y4152D01*
X1985Y4328D02*
X2150Y4163D01*
X1985Y4339D02*
X2150Y4174D01*
X1985Y4351D02*
X2150Y4186D01*
X1985Y4130D02*
Y4360D01*
Y4130D02*
Y4360D01*
X1931Y4540D02*
X2156Y4316D01*
X1985Y4362D02*
X2150Y4197D01*
X1985Y4373D02*
X2150Y4208D01*
X1943Y4540D02*
X2161Y4322D01*
X1954Y4540D02*
X2167Y4327D01*
X1965Y4540D02*
X2173Y4333D01*
X1972Y4382D02*
X1985D01*
X1976D02*
X1985Y4373D01*
X1930Y4385D02*
X2085Y4540D01*
X1941Y4385D02*
X2096Y4540D01*
X1953Y4385D02*
X2108Y4540D01*
X1964Y4385D02*
X2119Y4540D01*
X1972Y4382D02*
X2130Y4540D01*
X1977D02*
X2178Y4339D01*
X1983Y4382D02*
X2141Y4540D01*
X1985Y4350D02*
X2175Y4540D01*
X1985Y4338D02*
X2187Y4540D01*
X1988D02*
X2184Y4344D01*
X1999Y4540D02*
X2189Y4350D01*
X1985Y4146D02*
X2215Y4376D01*
X2157Y4318D02*
X2215Y4375D01*
X2011Y4540D02*
X2195Y4355D01*
X1985Y4327D02*
X2198Y4540D01*
X1985Y4304D02*
X2221Y4540D01*
X1985Y4316D02*
X2209Y4540D01*
X1985Y4360D02*
Y4382D01*
Y4372D02*
X2153Y4540D01*
X1985Y4361D02*
X2164Y4540D01*
X2022D02*
X2201Y4361D01*
X2033Y4540D02*
X2206Y4367D01*
X2215Y4375D02*
X2217Y4378D01*
X2215Y4375D02*
Y4382D01*
Y4381D02*
X2218Y4378D01*
X2045Y4540D02*
X2212Y4372D01*
X2215Y4376D02*
X2221Y4382D01*
X2056Y4540D02*
X2215Y4381D01*
X1985Y4293D02*
X2232Y4540D01*
X2067D02*
X2225Y4383D01*
X1985Y4282D02*
X2243Y4540D01*
X1985Y4259D02*
X2266Y4540D01*
X1985Y4270D02*
X2255Y4540D01*
X1985Y4248D02*
X2277Y4540D01*
X1985Y4225D02*
X2300Y4540D01*
X1985Y4236D02*
X2289Y4540D01*
X1985Y4214D02*
X2311Y4540D01*
X1985Y4191D02*
X2334Y4540D01*
X1985Y4202D02*
X2323Y4540D01*
X2079D02*
X2234Y4385D01*
X2215Y4382D02*
X2223D01*
X2090Y4540D02*
X2245Y4385D01*
X2101Y4540D02*
X2256Y4385D01*
X2112Y4540D02*
X2267Y4385D01*
X2124Y4540D02*
X2279Y4385D01*
X2135Y4540D02*
X2290Y4385D01*
X2146Y4540D02*
X2301Y4385D01*
X2158Y4540D02*
X2313Y4385D01*
X2169Y4540D02*
X2324Y4385D01*
X2180Y4540D02*
X2335Y4385D01*
X2235D02*
X2505D01*
X2539Y3865D02*
X2570Y3834D01*
X2550Y3865D02*
X2570Y3845D01*
X2561Y3865D02*
X2570Y3856D01*
X2310Y3865D02*
X2570D01*
X2360Y4385D02*
X2505Y4530D01*
X2371Y4385D02*
X2505Y4519D01*
X2416Y4385D02*
X2505Y4474D01*
X2428Y4385D02*
X2505Y4462D01*
X2382Y4385D02*
X2505Y4508D01*
X2394Y4385D02*
X2505Y4496D01*
X2405Y4385D02*
X2505Y4485D01*
X2473Y4385D02*
X2505Y4417D01*
X2484Y4385D02*
X2505Y4406D01*
X2496Y4385D02*
X2505Y4394D01*
X2439Y4385D02*
X2505Y4451D01*
X2450Y4385D02*
X2505Y4440D01*
X2462Y4385D02*
X2505Y4428D01*
X1985Y4180D02*
X2345Y4540D01*
X2192D02*
X2347Y4385D01*
X1985Y4169D02*
X2356Y4540D01*
X1985Y4157D02*
X2368Y4540D01*
X2203D02*
X2358Y4385D01*
X2214Y4540D02*
X2369Y4385D01*
X2221Y4382D02*
X2379Y4540D01*
X2226D02*
X2381Y4385D01*
X2235D02*
X2390Y4540D01*
X2237D02*
X2392Y4385D01*
X2248Y4540D02*
X2403Y4385D01*
X2247D02*
X2402Y4540D01*
X2258Y4385D02*
X2413Y4540D01*
X2258Y4385D02*
X2413Y4540D01*
X2260D02*
X2415Y4385D01*
X2271Y4540D02*
X2426Y4385D01*
X2269D02*
X2424Y4540D01*
X2281Y4385D02*
X2436Y4540D01*
X2282D02*
X2437Y4385D01*
X2292D02*
X2447Y4540D01*
X2293D02*
X2448Y4385D01*
X2303D02*
X2458Y4540D01*
X2305D02*
X2460Y4385D01*
X2315D02*
X2470Y4540D01*
X2316D02*
X2471Y4385D01*
X2326D02*
X2481Y4540D01*
X2327D02*
X2482Y4385D01*
X2337D02*
X2492Y4540D01*
X2339D02*
X2494Y4385D01*
X2350Y4540D02*
X2505Y4385D01*
X2349Y4385D02*
X2504Y4540D01*
X2505Y4385D02*
Y4540D01*
X2361D02*
X2505Y4396D01*
X2373Y4540D02*
X2505Y4408D01*
X2384Y4540D02*
X2505Y4419D01*
X2395Y4540D02*
X2505Y4430D01*
X2407Y4540D02*
X2505Y4442D01*
X2418Y4540D02*
X2505Y4453D01*
X2429Y4540D02*
X2505Y4464D01*
X2441Y4540D02*
X2505Y4476D01*
X2452Y4540D02*
X2505Y4487D01*
X2463Y4540D02*
X2505Y4498D01*
X2474Y4540D02*
X2505Y4509D01*
X2486Y4540D02*
X2505Y4521D01*
X2497Y4540D02*
X2505Y4532D01*
X2745Y3520D02*
X3060Y3835D01*
X2735Y3545D02*
X3050Y3860D01*
X2725Y3570D02*
X3040Y3885D01*
X2715Y3595D02*
X3030Y3910D01*
X2420Y3495D02*
X2765D01*
X2805Y3535D01*
X2900D01*
X3005Y3955D02*
X3025Y3935D01*
X3100Y3960D02*
X4200D01*
X3075Y3985D02*
X3100Y3960D01*
X4735Y2965D02*
X4845D01*
X4890Y2920D01*
Y2830D02*
Y2920D01*
X4515Y3043D02*
X4528Y3030D01*
X4515Y3054D02*
X4539Y3030D01*
X4515D02*
Y3064D01*
X4516D02*
X4550Y3030D01*
X4523D02*
X4557Y3064D01*
X4515Y3030D02*
X4561D01*
X4546D02*
X4561Y3045D01*
X4557Y3030D02*
X4561Y3034D01*
X4523Y3030D02*
X4557Y3064D01*
X4528D02*
X4561Y3031D01*
X4535Y3030D02*
X4561Y3056D01*
X4515Y3056D02*
X4523Y3064D01*
X4561Y3030D02*
Y3056D01*
X4515Y3044D02*
X4534Y3064D01*
X4515Y3033D02*
X4546Y3064D01*
X4539D02*
X4561Y3042D01*
X4550Y3064D02*
X4561Y3053D01*
X4515Y3064D02*
X4561D01*
Y3056D02*
X4644D01*
X4562Y3064D02*
X4569Y3056D01*
X4561D02*
X4568Y3064D01*
X4561D02*
X4579D01*
X4561D02*
X4579D01*
X4572Y3056D02*
X4580Y3064D01*
X4644Y3041D02*
Y3056D01*
X4637D02*
X4644Y3049D01*
X4573Y3064D02*
X4580Y3056D01*
X4584Y3064D02*
X4592Y3056D01*
X4584D02*
X4591Y3064D01*
X4644Y3041D02*
X4650Y3035D01*
X4646Y3039D02*
X4650Y3043D01*
X4644Y3049D02*
X4650Y3043D01*
X4641Y3064D02*
X4650Y3055D01*
Y3035D02*
Y3065D01*
X4644Y3049D02*
X4650Y3055D01*
X4596Y3064D02*
X4603Y3056D01*
X4595D02*
X4602Y3064D01*
X4607D02*
X4614Y3056D01*
X4606D02*
X4614Y3064D01*
X4618Y3056D02*
X4625Y3064D01*
X4618D02*
X4626Y3056D01*
X4618Y3064D02*
X4626Y3056D01*
X4630Y3064D02*
X4637Y3056D01*
X4629D02*
X4636Y3064D01*
X4579D02*
X4644D01*
X4640Y3056D02*
X4649Y3065D01*
X4644D02*
X4650D01*
D11*
X5223Y2895D02*
D03*
X5317Y2858D02*
D03*
D12*
X5317Y2932D02*
D03*
D13*
X5009Y2895D02*
D03*
X5101Y2858D02*
D03*
X1481Y2850D02*
D03*
X1389Y2887D02*
D03*
X1684Y2460D02*
D03*
X1776Y2423D02*
D03*
D14*
X5101Y2932D02*
D03*
X1389Y2813D02*
D03*
X1776Y2497D02*
D03*
D15*
X5055D02*
D03*
Y2682D02*
D03*
X5190Y2497D02*
D03*
X4155Y3462D02*
D03*
Y3388D02*
D03*
X5055Y2423D02*
D03*
Y2608D02*
D03*
X5190Y2423D02*
D03*
Y2682D02*
D03*
Y2608D02*
D03*
X1445Y2993D02*
D03*
Y3067D02*
D03*
X2645Y2448D02*
D03*
Y2522D02*
D03*
X2495D02*
D03*
Y2448D02*
D03*
X4295Y3388D02*
D03*
Y3462D02*
D03*
D16*
X2827Y3005D02*
D03*
Y3055D02*
D03*
Y3105D02*
D03*
Y3155D02*
D03*
Y3205D02*
D03*
Y3255D02*
D03*
Y3305D02*
D03*
Y3355D02*
D03*
Y3405D02*
D03*
Y3455D02*
D03*
X2463Y3005D02*
D03*
Y3055D02*
D03*
Y3105D02*
D03*
Y3155D02*
D03*
Y3205D02*
D03*
Y3255D02*
D03*
Y3305D02*
D03*
Y3355D02*
D03*
Y3405D02*
D03*
Y3455D02*
D03*
D17*
X1950Y2292D02*
D03*
Y2118D02*
D03*
Y2637D02*
D03*
X2350Y2637D02*
D03*
Y2463D02*
D03*
D18*
X2119Y2491D02*
D03*
Y2465D02*
D03*
Y2439D02*
D03*
X2181Y2491D02*
D03*
Y2465D02*
D03*
Y2439D02*
D03*
D19*
X1425Y2654D02*
D03*
X1462Y2746D02*
D03*
X1735Y2654D02*
D03*
X1772Y2746D02*
D03*
X1580Y2654D02*
D03*
X1617Y2746D02*
D03*
X2209Y3103D02*
D03*
X2172Y3004D02*
D03*
X2532Y2691D02*
D03*
X2495Y2599D02*
D03*
X2687Y2691D02*
D03*
X2650Y2599D02*
D03*
D20*
X1388Y2746D02*
D03*
X1698D02*
D03*
X1543D02*
D03*
X2134Y3103D02*
D03*
X2458Y2691D02*
D03*
X2613D02*
D03*
D21*
X1875Y3031D02*
D03*
X1966D02*
D03*
D22*
X1784Y3031D02*
D03*
D23*
X1875Y3275D02*
D03*
D24*
X4747Y1978D02*
D03*
X4716Y1978D02*
D03*
X4684D02*
D03*
X4653D02*
D03*
Y1912D02*
D03*
X4684Y1912D02*
D03*
X4716Y1912D02*
D03*
X4747D02*
D03*
X2638D02*
D03*
X2669Y1912D02*
D03*
X2732Y1912D02*
D03*
X2701D02*
D03*
X2638Y1978D02*
D03*
X2732Y1978D02*
D03*
X2701Y1978D02*
D03*
X2669D02*
D03*
X3117Y1978D02*
D03*
X3086Y1978D02*
D03*
X3054D02*
D03*
X3023D02*
D03*
Y1912D02*
D03*
X3054Y1912D02*
D03*
X3086Y1912D02*
D03*
X3117D02*
D03*
X2823Y1912D02*
D03*
X2854Y1912D02*
D03*
X2886D02*
D03*
X2917D02*
D03*
Y1978D02*
D03*
X2886Y1978D02*
D03*
X2854Y1978D02*
D03*
X2823D02*
D03*
X3213Y1912D02*
D03*
X3244Y1912D02*
D03*
X3307Y1912D02*
D03*
X3276D02*
D03*
X3213Y1978D02*
D03*
X3307Y1978D02*
D03*
X3276Y1978D02*
D03*
X3244D02*
D03*
X3492Y1978D02*
D03*
X3461Y1978D02*
D03*
X3429D02*
D03*
X3398D02*
D03*
Y1912D02*
D03*
X3429Y1912D02*
D03*
X3461Y1912D02*
D03*
X3492D02*
D03*
X3608Y1912D02*
D03*
X3639Y1912D02*
D03*
X3671D02*
D03*
X3702D02*
D03*
Y1978D02*
D03*
X3671Y1978D02*
D03*
X3639Y1978D02*
D03*
X3608D02*
D03*
X3823Y1912D02*
D03*
X3854Y1912D02*
D03*
X3917Y1912D02*
D03*
X3886D02*
D03*
X3823Y1978D02*
D03*
X3917Y1978D02*
D03*
X3886Y1978D02*
D03*
X3854D02*
D03*
X4112Y1978D02*
D03*
X4081Y1978D02*
D03*
X4049D02*
D03*
X4018D02*
D03*
Y1912D02*
D03*
X4049Y1912D02*
D03*
X4081Y1912D02*
D03*
X4112D02*
D03*
X4253Y1912D02*
D03*
X4284Y1912D02*
D03*
X4316D02*
D03*
X4347D02*
D03*
Y1978D02*
D03*
X4316Y1978D02*
D03*
X4284Y1978D02*
D03*
X4253D02*
D03*
X4453Y1912D02*
D03*
X4484Y1912D02*
D03*
X4547Y1912D02*
D03*
X4516D02*
D03*
X4453Y1978D02*
D03*
X4547Y1978D02*
D03*
X4516Y1978D02*
D03*
X4484D02*
D03*
X4893Y1912D02*
D03*
X4924Y1912D02*
D03*
X4956D02*
D03*
X4987D02*
D03*
Y1978D02*
D03*
X4956Y1978D02*
D03*
X4924Y1978D02*
D03*
X4893D02*
D03*
D25*
X4602Y3034D02*
D03*
X4538Y3086D02*
D03*
Y3060D02*
D03*
Y3034D02*
D03*
X4602Y3086D02*
D03*
D26*
X4977Y3530D02*
D03*
X5183Y3630D02*
D03*
X4977Y3380D02*
D03*
Y3630D02*
D03*
X5183Y3280D02*
D03*
Y3330D02*
D03*
Y3380D02*
D03*
Y3430D02*
D03*
Y3480D02*
D03*
Y3530D02*
D03*
Y3580D02*
D03*
X4977Y3280D02*
D03*
Y3330D02*
D03*
Y3430D02*
D03*
Y3480D02*
D03*
Y3580D02*
D03*
X2052Y1840D02*
D03*
X2482D02*
D03*
D27*
X1848Y1990D02*
D03*
Y1940D02*
D03*
Y1890D02*
D03*
Y1840D02*
D03*
X2052Y1990D02*
D03*
Y1940D02*
D03*
Y1890D02*
D03*
X2482D02*
D03*
Y1940D02*
D03*
Y1990D02*
D03*
X2278Y1840D02*
D03*
Y1890D02*
D03*
Y1940D02*
D03*
Y1990D02*
D03*
D28*
X4099Y2776D02*
D03*
Y2757D02*
D03*
Y2737D02*
D03*
Y2717D02*
D03*
X3501D02*
D03*
Y3072D02*
D03*
Y3091D02*
D03*
X4099Y2934D02*
D03*
Y2914D02*
D03*
Y2894D02*
D03*
Y2875D02*
D03*
Y2619D02*
D03*
X3501Y2894D02*
D03*
X4099Y2796D02*
D03*
X3501Y3052D02*
D03*
Y3032D02*
D03*
Y3012D02*
D03*
Y2993D02*
D03*
Y2973D02*
D03*
Y2953D02*
D03*
Y2934D02*
D03*
Y2914D02*
D03*
Y2875D02*
D03*
Y2855D02*
D03*
Y2835D02*
D03*
Y2816D02*
D03*
Y2796D02*
D03*
Y2776D02*
D03*
Y2757D02*
D03*
Y2737D02*
D03*
Y2698D02*
D03*
Y2678D02*
D03*
Y2658D02*
D03*
Y2638D02*
D03*
Y2619D02*
D03*
X4099Y3091D02*
D03*
Y3072D02*
D03*
Y3052D02*
D03*
Y3032D02*
D03*
Y3012D02*
D03*
Y2993D02*
D03*
Y2973D02*
D03*
Y2953D02*
D03*
Y2855D02*
D03*
Y2835D02*
D03*
Y2816D02*
D03*
Y2638D02*
D03*
Y2658D02*
D03*
Y2678D02*
D03*
Y2698D02*
D03*
D29*
X3997Y3154D02*
D03*
X3623D02*
D03*
X4017D02*
D03*
X3938D02*
D03*
X3564Y2556D02*
D03*
X3583D02*
D03*
X3603D02*
D03*
X3623D02*
D03*
X3643D02*
D03*
X3662D02*
D03*
X3997D02*
D03*
X4017D02*
D03*
X4036D02*
D03*
X3682Y3154D02*
D03*
X3702D02*
D03*
X3721D02*
D03*
X3741D02*
D03*
X3761D02*
D03*
X3780D02*
D03*
X3800D02*
D03*
X3820D02*
D03*
X3839D02*
D03*
X3859D02*
D03*
X3879D02*
D03*
X3898D02*
D03*
X3918D02*
D03*
X3957D02*
D03*
X4036D02*
D03*
X3682Y2556D02*
D03*
X3702D02*
D03*
X3721D02*
D03*
X3741D02*
D03*
X3761D02*
D03*
X3780D02*
D03*
X3800D02*
D03*
X3820D02*
D03*
X3839D02*
D03*
X3859D02*
D03*
X3879D02*
D03*
X3898D02*
D03*
X3918D02*
D03*
X3938D02*
D03*
X3957D02*
D03*
X3977D02*
D03*
X3662Y3154D02*
D03*
X3643D02*
D03*
X3583D02*
D03*
X3564D02*
D03*
X3977D02*
D03*
X3603D02*
D03*
D30*
X1598Y2448D02*
D03*
X1598Y2479D02*
D03*
X1598Y2542D02*
D03*
Y2511D02*
D03*
X1532Y2448D02*
D03*
X1532Y2542D02*
D03*
X1532Y2511D02*
D03*
Y2479D02*
D03*
D31*
X1950Y2463D02*
D03*
D32*
X2192Y3185D02*
D03*
X2118D02*
D03*
Y3300D02*
D03*
X2192D02*
D03*
X2328Y2275D02*
D03*
X2402D02*
D03*
X2328Y2165D02*
D03*
X2402D02*
D03*
X4248Y2365D02*
D03*
X4322D02*
D03*
X5323Y3515D02*
D03*
X5397D02*
D03*
X5397Y3185D02*
D03*
X5323D02*
D03*
X5397Y3295D02*
D03*
X5323D02*
D03*
X5323Y3405D02*
D03*
X5397D02*
D03*
D33*
X4510Y2370D02*
D03*
Y2480D02*
D03*
X1505Y3785D02*
D03*
Y3675D02*
D03*
D34*
X4365Y2480D02*
D03*
X4255D02*
D03*
X5135Y3785D02*
D03*
X5025D02*
D03*
X2100Y2635D02*
D03*
D35*
X1705Y3995D02*
D03*
Y3765D02*
D03*
X1125Y3780D02*
D03*
Y4010D02*
D03*
D36*
X2210Y2635D02*
D03*
D37*
X2897Y4125D02*
D03*
X2704D02*
D03*
D38*
X1905Y4252D02*
D03*
X2295D02*
D03*
D39*
X1770Y4255D02*
D03*
X2430D02*
D03*
D40*
X1185Y2735D02*
Y3085D01*
Y2735D02*
X1220Y2700D01*
X1389Y2701D02*
Y2813D01*
X1220Y2700D02*
X1770D01*
X1698Y2702D02*
Y2746D01*
X1543Y2702D02*
Y2746D01*
X1770Y2700D02*
X1800Y2670D01*
Y2625D02*
Y2670D01*
X5055Y2595D02*
Y2608D01*
Y2595D02*
X5120Y2530D01*
Y2325D02*
Y2530D01*
X4975Y2300D02*
X5000Y2325D01*
X4835Y2300D02*
X4975D01*
X5285Y3115D02*
X5385Y3015D01*
Y2320D02*
Y3015D01*
X5200Y2135D02*
X5385Y2320D01*
X5200Y1820D02*
Y2135D01*
Y1820D02*
X5365Y1655D01*
Y1595D02*
Y1655D01*
Y1595D02*
X5490Y1470D01*
Y1350D02*
Y1470D01*
X5317Y2932D02*
Y2932D01*
X5285Y2965D02*
Y3204D01*
Y2965D02*
X5317Y2932D01*
X5135Y2965D02*
X5285D01*
X5102Y2932D02*
X5135Y2965D01*
X4977Y3530D02*
X5095D01*
X4977Y3430D02*
X5095D01*
X5304Y3204D02*
X5323Y3185D01*
X5016Y3204D02*
X5304D01*
X4940Y3280D02*
X5016Y3204D01*
X3625Y3680D02*
X3690Y3615D01*
X3175Y3680D02*
X3625D01*
X3100Y3600D02*
X3175Y3680D01*
X2280Y1755D02*
Y1820D01*
X4025Y2500D02*
X4045Y2480D01*
X1248Y2481D02*
X1398D01*
X1800Y2521D02*
Y2625D01*
X1776Y2497D02*
X1800Y2521D01*
X3662Y2619D02*
X3696Y2653D01*
X3571Y2875D02*
X3696Y2876D01*
X3918Y2704D02*
X4016Y2606D01*
X3918Y2704D02*
Y2875D01*
X3976Y2816D02*
X4032D01*
X3918Y2875D02*
X3976Y2816D01*
X3696Y2653D02*
Y2876D01*
X4045Y2480D02*
X4265D01*
X4322Y2390D02*
X4390D01*
X4400Y2400D01*
X5294Y1175D02*
X5315D01*
X5490Y1350D01*
X4322Y2390D02*
Y2398D01*
X4255Y2465D02*
X4322Y2398D01*
X4255Y2465D02*
Y2480D01*
X4500Y2480D02*
X4510D01*
X4045Y2556D02*
X4335Y2555D01*
X4365Y2525D01*
Y2480D02*
Y2525D01*
X4650Y2300D02*
X4835D01*
X3900Y2893D02*
Y3090D01*
X4430Y2550D02*
X4500Y2480D01*
X4700Y3095D02*
X4900Y3295D01*
X4590Y3095D02*
X4700D01*
D41*
X1260Y2013D02*
X1330Y1973D01*
X1260Y1393D02*
X1330Y1353D01*
X3500Y4125D02*
Y4300D01*
X3600D01*
X3570Y4055D02*
X4430D01*
X5397Y3515D02*
X5430Y3548D01*
Y3680D01*
X5380Y3730D02*
X5430Y3680D01*
X5135Y3730D02*
X5380D01*
X4977Y3330D02*
X5055D01*
X5095Y3370D01*
Y3690D01*
X5135Y3730D01*
Y3785D01*
X4430Y4055D02*
X4650Y3835D01*
X4995D01*
X5025Y3805D01*
Y3785D02*
Y3805D01*
X5135Y3785D02*
Y4400D01*
X3500Y4125D02*
X3570Y4055D01*
D42*
X1072Y2013D02*
X1260D01*
X1070Y1465D02*
X1142Y1393D01*
X1260D01*
X1070Y3730D02*
X1105Y3765D01*
X1070Y1465D02*
Y1550D01*
X3800Y4400D02*
X5364D01*
X2110Y2040D02*
X2205D01*
X2235Y2010D01*
X2290D01*
X2085D02*
X2110Y2040D01*
X1950Y3300D02*
X2110D01*
X1850Y2010D02*
X2085D01*
X1640Y1805D02*
X1795D01*
X1815Y1825D01*
X2080D01*
X2095Y1810D01*
X2215D01*
X2230Y1825D01*
X2290D01*
X1645Y2150D02*
X1710D01*
X1850Y2010D01*
X1070Y2325D02*
Y3730D01*
Y1820D02*
Y2160D01*
X1175Y3960D02*
X1435D01*
X1125Y4010D02*
X1175Y3960D01*
X1435Y3880D02*
Y3960D01*
X1605Y3555D02*
X1900D01*
X1525Y3635D02*
X1605Y3555D01*
X1525Y3635D02*
Y3670D01*
X1435Y4098D02*
X1525Y4008D01*
X1435Y4055D02*
Y4098D01*
Y4055D02*
X1435Y4055D01*
X1478D01*
X2100Y3555D02*
Y3605D01*
X2005Y3700D02*
X2100Y3605D01*
X1770Y4255D02*
X1902D01*
X1905Y4252D01*
X1400Y3845D02*
X1435Y3880D01*
X1400Y3735D02*
Y3845D01*
Y3735D02*
X1460Y3675D01*
X1505D01*
X1525Y3805D02*
Y4008D01*
X1505Y3785D02*
X1525Y3805D01*
X1525Y3765D02*
X1705D01*
X1505Y3785D02*
X1525Y3765D01*
X1945Y3700D02*
X2005D01*
X1705Y3940D02*
X1945Y3700D01*
X1705Y3940D02*
Y4190D01*
X1767Y4252D01*
X1905D01*
X2575Y3920D02*
X2635D01*
X2704Y3989D01*
Y4125D01*
X2897D02*
X3500D01*
X2920Y3900D02*
Y4102D01*
X2897Y4125D02*
X2920Y4102D01*
D43*
X4900Y3295D02*
X4914Y3281D01*
X4900Y3295D02*
Y3310D01*
Y3755D01*
X4930Y3785D01*
X5025D01*
X4900Y3295D02*
Y3310D01*
X4905Y3050D02*
X5000Y3145D01*
X4654Y3050D02*
X4905D01*
D44*
X1845Y2741D02*
Y2785D01*
Y2741D02*
X1931Y2655D01*
X2210Y2645D02*
X2348D01*
D45*
X4914Y3281D02*
X4940Y3280D01*
D46*
X3696Y2876D02*
X3918Y2875D01*
D47*
X4017Y2508D02*
Y2556D01*
X4016Y2606D02*
X4017Y2556D01*
X3938Y3108D02*
Y3154D01*
Y3108D02*
X3961Y3080D01*
X3918Y3108D02*
Y3154D01*
X3900Y3090D02*
X3918Y3108D01*
D48*
X2105Y2465D02*
X2201D01*
D49*
X1970Y2490D02*
X2105D01*
D50*
X1875Y3031D02*
Y3275D01*
D51*
X2145Y2940D02*
X2220D01*
X2285Y3005D01*
X2463D01*
X2240Y2885D02*
X2310Y2955D01*
X2120Y2885D02*
X2240D01*
X2040Y2965D02*
X2120Y2885D01*
X2040Y2965D02*
Y2980D01*
X2310Y2955D02*
X2515D01*
X2540Y2980D01*
Y3005D01*
X2610D01*
X2765Y3455D02*
X2827D01*
X2660Y3350D02*
X2765Y3455D01*
X2660Y3055D02*
Y3350D01*
X2610Y3005D02*
X2660Y3055D01*
D52*
X1856Y3212D02*
D03*
D53*
X1260Y2013D02*
D03*
Y1393D02*
D03*
X1330Y1973D02*
D03*
Y1353D02*
D03*
Y1893D02*
D03*
Y1273D02*
D03*
X1260Y1853D02*
D03*
X1260Y1233D02*
D03*
X3600Y4300D02*
D03*
X3500D02*
D03*
Y4400D02*
D03*
X3600D02*
D03*
X4835Y2300D02*
D03*
Y2900D02*
D03*
X1330Y1513D02*
D03*
X1260Y1473D02*
D03*
X1330Y1433D02*
D03*
X1260Y1313D02*
D03*
X1520Y1103D02*
D03*
Y1553D02*
D03*
Y1193D02*
D03*
Y1643D02*
D03*
X1330Y2133D02*
D03*
X1260Y2093D02*
D03*
X1330Y2053D02*
D03*
X1260Y1933D02*
D03*
X1520Y1723D02*
D03*
Y2173D02*
D03*
Y1813D02*
D03*
Y2263D02*
D03*
X4649Y2901D02*
D03*
Y2301D02*
D03*
X1252Y2854D02*
D03*
Y2754D02*
D03*
X1398Y2381D02*
D03*
Y2581D02*
D03*
Y2481D02*
D03*
X1248Y2381D02*
D03*
Y2581D02*
D03*
Y2481D02*
D03*
X1970Y1435D02*
D03*
X2420D02*
D03*
X2060D02*
D03*
X2510D02*
D03*
X2380Y1175D02*
D03*
X2340Y1245D02*
D03*
X2300Y1175D02*
D03*
X2260Y1245D02*
D03*
X2220Y1175D02*
D03*
X2180Y1245D02*
D03*
X2140Y1175D02*
D03*
X2100Y1245D02*
D03*
X3149Y1435D02*
D03*
X3239D02*
D03*
X3109Y1175D02*
D03*
X3069Y1245D02*
D03*
X3029Y1175D02*
D03*
X2989Y1245D02*
D03*
X2949Y1175D02*
D03*
X2909Y1245D02*
D03*
X2869Y1175D02*
D03*
X3427Y1435D02*
D03*
X3877D02*
D03*
X3517D02*
D03*
X3967D02*
D03*
X3837Y1175D02*
D03*
X3797Y1245D02*
D03*
X3757Y1175D02*
D03*
X3717Y1245D02*
D03*
X3677Y1175D02*
D03*
X3637Y1245D02*
D03*
X3597Y1175D02*
D03*
X3557Y1245D02*
D03*
X4155Y1435D02*
D03*
X4605D02*
D03*
X4245D02*
D03*
X4695D02*
D03*
X4565Y1175D02*
D03*
X4525Y1245D02*
D03*
X4485Y1175D02*
D03*
X4445Y1245D02*
D03*
X4405Y1175D02*
D03*
X4365Y1245D02*
D03*
X4325Y1175D02*
D03*
X4285Y1245D02*
D03*
X4884Y1435D02*
D03*
X5334D02*
D03*
X4974Y1435D02*
D03*
X5424Y1435D02*
D03*
X5294Y1175D02*
D03*
X5254Y1245D02*
D03*
X5214Y1175D02*
D03*
X5174Y1245D02*
D03*
X5134Y1175D02*
D03*
X5094Y1245D02*
D03*
X5054Y1175D02*
D03*
X5014Y1245D02*
D03*
X3795Y3445D02*
D03*
X3987D02*
D03*
X2100Y2150D02*
D03*
X2200D02*
D03*
Y2250D02*
D03*
X2100D02*
D03*
X2575Y3782D02*
D03*
Y3920D02*
D03*
X1435Y3960D02*
D03*
Y4098D02*
D03*
Y4055D02*
D03*
D54*
X4900Y4400D02*
D03*
Y4300D02*
D03*
X4800Y4400D02*
D03*
Y4300D02*
D03*
X4700Y4400D02*
D03*
Y4300D02*
D03*
X4600Y4400D02*
D03*
Y4300D02*
D03*
X4500Y4400D02*
D03*
Y4300D02*
D03*
X1349Y3217D02*
D03*
X1428D02*
D03*
X1270Y3453D02*
D03*
Y3375D02*
D03*
X3200Y3600D02*
D03*
X3300D02*
D03*
X3400D02*
D03*
X3800Y4400D02*
D03*
X3900Y4300D02*
D03*
Y4400D02*
D03*
X4000Y4300D02*
D03*
Y4400D02*
D03*
X4100Y4300D02*
D03*
Y4400D02*
D03*
X4200Y4300D02*
D03*
Y4400D02*
D03*
X4300Y4300D02*
D03*
Y4400D02*
D03*
X4400Y4300D02*
D03*
Y4400D02*
D03*
D55*
X1152Y4409D02*
D03*
D56*
X1742Y1181D02*
D03*
X5404Y4409D02*
D03*
Y2047D02*
D03*
D57*
X1514Y3365D02*
D03*
Y3463D02*
D03*
X1900Y3555D02*
D03*
X2000D02*
D03*
X2100D02*
D03*
X1900Y3855D02*
D03*
X2000D02*
D03*
X2100D02*
D03*
X2200Y3555D02*
D03*
D58*
X1388Y3217D02*
D03*
D59*
X1270Y3414D02*
D03*
D60*
X1514D02*
D03*
D61*
X2699Y1435D02*
D03*
D62*
X2789D02*
D03*
D63*
X2829Y1245D02*
D03*
D64*
X1185Y3085D02*
D03*
X1235D02*
D03*
X1285D02*
D03*
D65*
X3100Y3600D02*
D03*
X3800Y4300D02*
D03*
D66*
X2200Y3855D02*
D03*
D67*
X1420Y1700D02*
D03*
Y2000D02*
D03*
X4950Y2450D02*
D03*
X4535Y2960D02*
D03*
X1615Y2325D02*
D03*
X1675Y2900D02*
D03*
X5120Y2325D02*
D03*
X5000D02*
D03*
X5312Y2707D02*
D03*
X5120Y2250D02*
D03*
X5370Y1725D02*
D03*
X4175Y4195D02*
D03*
X4700Y3900D02*
D03*
X4715Y3985D02*
D03*
X4100Y4175D02*
D03*
X3750Y3690D02*
D03*
X4345Y3945D02*
D03*
X4300Y3995D02*
D03*
X4870Y4205D02*
D03*
X4775Y4150D02*
D03*
X1770Y2930D02*
D03*
X3800Y1825D02*
D03*
X4385Y1830D02*
D03*
X4335Y1770D02*
D03*
X3845Y1775D02*
D03*
X4015Y1830D02*
D03*
X4170Y1835D02*
D03*
X4185Y1905D02*
D03*
X4165Y1985D02*
D03*
X5020Y1770D02*
D03*
X4045Y3265D02*
D03*
X3140Y3530D02*
D03*
X3690Y3615D02*
D03*
X4070Y3340D02*
D03*
X3845Y3055D02*
D03*
X3525Y3520D02*
D03*
X3320Y3305D02*
D03*
X3705Y3045D02*
D03*
X3525Y3430D02*
D03*
X3425Y3520D02*
D03*
X3775Y3050D02*
D03*
X3475Y3475D02*
D03*
X3350Y3545D02*
D03*
X2480Y2780D02*
D03*
X3265Y3265D02*
D03*
X3125D02*
D03*
X4505Y3570D02*
D03*
X4435Y3585D02*
D03*
X4450Y3485D02*
D03*
X4420Y3420D02*
D03*
X3195Y3265D02*
D03*
X3605Y3045D02*
D03*
X3120Y2135D02*
D03*
X3185Y2100D02*
D03*
X3275Y2075D02*
D03*
X3350Y2065D02*
D03*
X3365Y3095D02*
D03*
X3425Y3115D02*
D03*
X2270Y2565D02*
D03*
X3510Y2485D02*
D03*
X3450Y2510D02*
D03*
X3385Y2480D02*
D03*
X3320Y2465D02*
D03*
X3255Y2485D02*
D03*
X3260Y2550D02*
D03*
X3635Y2730D02*
D03*
X3200Y2595D02*
D03*
X3575Y2760D02*
D03*
X3205Y2755D02*
D03*
X3255Y2640D02*
D03*
X3205Y2685D02*
D03*
X3275Y2755D02*
D03*
X3280Y2850D02*
D03*
X3225Y2815D02*
D03*
X3345Y2870D02*
D03*
X4440Y2130D02*
D03*
X4480Y2195D02*
D03*
X4380Y2165D02*
D03*
X4595Y1555D02*
D03*
X4445D02*
D03*
X4465Y1775D02*
D03*
X4740Y1555D02*
D03*
X4670D02*
D03*
X4830D02*
D03*
X4520D02*
D03*
X4535Y1775D02*
D03*
X4900Y1555D02*
D03*
X4985D02*
D03*
X4430Y2550D02*
D03*
X2280Y1755D02*
D03*
X2465Y2340D02*
D03*
X2190Y2380D02*
D03*
X2180Y2555D02*
D03*
X1740Y1875D02*
D03*
Y1950D02*
D03*
X2155Y1885D02*
D03*
Y1955D02*
D03*
X2032Y3128D02*
D03*
X1710Y2150D02*
D03*
X1645D02*
D03*
X1640Y1805D02*
D03*
X1710D02*
D03*
X1800Y2565D02*
D03*
X1845Y2785D02*
D03*
X1940Y2740D02*
D03*
X3605Y2951D02*
D03*
Y2660D02*
D03*
X3961Y3080D02*
D03*
X4010Y2739D02*
D03*
X3918Y2875D02*
D03*
X3696Y2876D02*
D03*
X4885Y2135D02*
D03*
X4700Y2240D02*
D03*
X4820Y2155D02*
D03*
X4870Y2070D02*
D03*
X4540Y2135D02*
D03*
X4400Y1935D02*
D03*
X4105Y2105D02*
D03*
Y2175D02*
D03*
X4315Y2195D02*
D03*
X3170Y2405D02*
D03*
X3775Y2265D02*
D03*
X3935Y2155D02*
D03*
X3905Y2225D02*
D03*
X3845Y2265D02*
D03*
X4800Y1940D02*
D03*
X4845Y1890D02*
D03*
X4750Y1820D02*
D03*
X4700Y1775D02*
D03*
X4845D02*
D03*
X4915D02*
D03*
X4365Y1555D02*
D03*
X4295D02*
D03*
X4220D02*
D03*
X4130D02*
D03*
X4055D02*
D03*
X3975D02*
D03*
X3895D02*
D03*
X3815D02*
D03*
X3740D02*
D03*
X3660D02*
D03*
X3590D02*
D03*
X3500D02*
D03*
X3430D02*
D03*
X3335D02*
D03*
X3265D02*
D03*
X3195D02*
D03*
X2805D02*
D03*
X2730D02*
D03*
X2620D02*
D03*
X2530D02*
D03*
X3120D02*
D03*
X3040D02*
D03*
X3170Y2980D02*
D03*
X3175Y3045D02*
D03*
X3305Y3075D02*
D03*
X3240Y3060D02*
D03*
X3775Y2120D02*
D03*
X3725Y2060D02*
D03*
X3590Y2075D02*
D03*
X3660Y2090D02*
D03*
X2805Y2175D02*
D03*
X2755Y2120D02*
D03*
X2705Y2175D02*
D03*
X2660Y2120D02*
D03*
X2880Y1555D02*
D03*
X2970D02*
D03*
X2100Y1570D02*
D03*
X2270Y1635D02*
D03*
X2145Y2940D02*
D03*
X2040Y2980D02*
D03*
X2370Y3060D02*
D03*
X2595Y3100D02*
D03*
X2370Y3240D02*
D03*
X2560Y3280D02*
D03*
X2030Y1570D02*
D03*
X2330Y1495D02*
D03*
X1960Y1570D02*
D03*
X2215Y1465D02*
D03*
X2370Y3155D02*
D03*
X2565Y3180D02*
D03*
X2370Y3320D02*
D03*
X2560Y3380D02*
D03*
X4400Y2385D02*
D03*
X5140Y1500D02*
D03*
X5195Y1620D02*
D03*
X5240Y1570D02*
D03*
X5285Y1620D02*
D03*
X5295Y3625D02*
D03*
X5365D02*
D03*
X5020Y3705D02*
D03*
X4955D02*
D03*
X4815Y2700D02*
D03*
X4775Y2765D02*
D03*
X4010Y2865D02*
D03*
X4025Y2940D02*
D03*
X5240Y1670D02*
D03*
X4455Y2880D02*
D03*
X4510Y2835D02*
D03*
X4650Y2785D02*
D03*
X4600Y2740D02*
D03*
X3695Y3545D02*
D03*
X2900Y3535D02*
D03*
X3005Y3955D02*
D03*
X4005Y3315D02*
D03*
X3895Y3470D02*
D03*
X3815Y3690D02*
D03*
X3880D02*
D03*
X3950D02*
D03*
X4250Y3525D02*
D03*
X4185Y3150D02*
D03*
X4235Y3195D02*
D03*
X4310D02*
D03*
X4240Y3080D02*
D03*
X4140Y3840D02*
D03*
X4350Y3140D02*
D03*
X3075Y3985D02*
D03*
X4200Y3960D02*
D03*
X3550Y1980D02*
D03*
Y1910D02*
D03*
X3575Y1815D02*
D03*
X3400Y1835D02*
D03*
X3175Y1820D02*
D03*
X3225Y1775D02*
D03*
X3680D02*
D03*
X3730Y1820D02*
D03*
X2970Y1980D02*
D03*
Y1905D02*
D03*
X2570Y1775D02*
D03*
X2635D02*
D03*
X3105Y1785D02*
D03*
X2960Y1790D02*
D03*
X2035Y2565D02*
D03*
X1620Y3855D02*
D03*
X2920Y3995D02*
D03*
Y3900D02*
D03*
X2705Y4000D02*
D03*
X3000Y4125D02*
D03*
X4575Y3810D02*
D03*
X4735Y2965D02*
D03*
X5075Y3350D02*
D03*
X5000Y3145D02*
D03*
M02*
