%FSLAX23Y23*%
%MOIN*%
G70*
G01*
G75*
%ADD10C,0.010*%
%ADD11R,0.039X0.033*%
%ADD12R,0.039X0.033*%
%ADD13R,0.037X0.035*%
%ADD14R,0.037X0.035*%
%ADD15R,0.059X0.051*%
%ADD16R,0.085X0.024*%
%ADD17R,0.106X0.071*%
%ADD18R,0.049X0.014*%
%ADD19R,0.035X0.037*%
%ADD20R,0.035X0.037*%
%ADD21R,0.047X0.087*%
%ADD22R,0.047X0.087*%
%ADD23R,0.134X0.087*%
%ADD24R,0.018X0.035*%
%ADD25R,0.053X0.014*%
%ADD26R,0.087X0.024*%
%ADD27R,0.087X0.024*%
%ADD28R,0.063X0.012*%
%ADD29R,0.012X0.063*%
%ADD30R,0.035X0.018*%
%ADD31R,0.106X0.071*%
%ADD32R,0.051X0.059*%
%ADD33R,0.106X0.063*%
%ADD34R,0.063X0.071*%
%ADD35R,0.100X0.100*%
%ADD36R,0.063X0.071*%
%ADD37R,0.077X0.124*%
%ADD38R,0.120X0.220*%
%ADD39R,0.150X0.114*%
%ADD40C,0.020*%
%ADD41C,0.040*%
%ADD42C,0.060*%
%ADD43C,0.030*%
%ADD44C,0.050*%
%ADD45C,0.023*%
%ADD46C,0.080*%
%ADD47C,0.011*%
%ADD48C,0.013*%
%ADD49C,0.016*%
%ADD50C,0.047*%
%ADD51C,0.025*%
%ADD52R,0.262X0.237*%
%ADD53C,0.060*%
%ADD54C,0.059*%
%ADD55C,0.240*%
%ADD56C,0.280*%
%ADD57C,0.059*%
%ADD58O,0.157X0.079*%
%ADD59O,0.079X0.157*%
%ADD60O,0.079X0.177*%
%ADD61O,0.050X0.060*%
%ADD62O,0.060X0.055*%
%ADD63O,0.060X0.050*%
%ADD64O,0.039X0.067*%
%ADD65R,0.059X0.059*%
%ADD66R,0.059X0.059*%
%ADD67C,0.050*%
%ADD68R,0.071X0.106*%
%ADD69R,0.071X0.063*%
%ADD70R,0.071X0.063*%
%ADD71C,0.039*%
%ADD72C,0.070*%
%ADD73C,0.010*%
%ADD74C,0.008*%
%ADD75C,0.008*%
%ADD76C,0.006*%
%ADD77C,0.012*%
%ADD78C,0.006*%
%ADD79R,0.047X0.041*%
%ADD80R,0.047X0.041*%
%ADD81R,0.045X0.043*%
%ADD82R,0.045X0.043*%
%ADD83R,0.067X0.059*%
%ADD84R,0.093X0.032*%
%ADD85R,0.114X0.079*%
%ADD86R,0.057X0.022*%
%ADD87R,0.043X0.045*%
%ADD88R,0.043X0.045*%
%ADD89R,0.055X0.095*%
%ADD90R,0.055X0.095*%
%ADD91R,0.142X0.095*%
%ADD92R,0.026X0.043*%
%ADD93R,0.061X0.022*%
%ADD94R,0.095X0.032*%
%ADD95R,0.095X0.032*%
%ADD96R,0.071X0.020*%
%ADD97R,0.020X0.071*%
%ADD98R,0.043X0.026*%
%ADD99R,0.114X0.079*%
%ADD100R,0.059X0.067*%
%ADD101R,0.114X0.071*%
%ADD102R,0.071X0.079*%
%ADD103R,0.108X0.108*%
%ADD104R,0.071X0.079*%
%ADD105R,0.085X0.132*%
%ADD106R,0.128X0.228*%
%ADD107R,0.158X0.122*%
%ADD108C,0.068*%
%ADD109C,0.067*%
%ADD110C,0.248*%
%ADD111C,0.288*%
%ADD112C,0.067*%
%ADD113O,0.165X0.087*%
%ADD114O,0.087X0.165*%
%ADD115O,0.087X0.185*%
%ADD116C,0.008*%
%ADD117O,0.058X0.068*%
%ADD118O,0.068X0.063*%
%ADD119O,0.068X0.058*%
%ADD120O,0.047X0.075*%
%ADD121R,0.067X0.067*%
%ADD122R,0.067X0.067*%
%ADD123C,0.058*%
%ADD124R,0.079X0.114*%
%ADD125R,0.079X0.071*%
%ADD126R,0.079X0.071*%
%ADD127C,0.039*%
D15*
X5100Y1708D02*
D03*
Y1782D02*
D03*
X3190Y3713D02*
D03*
Y3787D02*
D03*
X3305Y3713D02*
D03*
Y3787D02*
D03*
X1405Y2913D02*
D03*
Y2987D02*
D03*
X3960Y3543D02*
D03*
Y3617D02*
D03*
X3825Y3543D02*
D03*
Y3617D02*
D03*
D19*
X2925Y1714D02*
D03*
X2962Y1616D02*
D03*
X3700Y1714D02*
D03*
X3737Y1616D02*
D03*
X3855Y1714D02*
D03*
X3892Y1616D02*
D03*
X4635Y1714D02*
D03*
X4672Y1616D02*
D03*
X4790Y1714D02*
D03*
X4827Y1616D02*
D03*
X4945Y1714D02*
D03*
X4982Y1616D02*
D03*
X4170Y1714D02*
D03*
X4207Y1616D02*
D03*
X4325Y1714D02*
D03*
X4362Y1616D02*
D03*
X4517D02*
D03*
X4480Y1714D02*
D03*
X2615D02*
D03*
X2652Y1616D02*
D03*
X2770Y1714D02*
D03*
X2807Y1616D02*
D03*
X3080Y1714D02*
D03*
X3117Y1616D02*
D03*
X3235Y1714D02*
D03*
X3272Y1616D02*
D03*
X3390Y1714D02*
D03*
X3427Y1616D02*
D03*
X3545Y1714D02*
D03*
X3582Y1616D02*
D03*
X4015Y1714D02*
D03*
X4052Y1616D02*
D03*
D20*
X2888Y1616D02*
D03*
X3663D02*
D03*
X3818D02*
D03*
X4598D02*
D03*
X4753D02*
D03*
X4908D02*
D03*
X4133D02*
D03*
X4288D02*
D03*
X4443D02*
D03*
X2578D02*
D03*
X2733D02*
D03*
X3043D02*
D03*
X3198D02*
D03*
X3353D02*
D03*
X3508D02*
D03*
X3978D02*
D03*
D24*
X2456Y2983D02*
D03*
X2424D02*
D03*
X2393Y2983D02*
D03*
X2487Y2983D02*
D03*
X2424Y2917D02*
D03*
X2393D02*
D03*
X2456Y2917D02*
D03*
X2487Y2917D02*
D03*
X2661Y2983D02*
D03*
X2629D02*
D03*
X2598Y2983D02*
D03*
X2692Y2983D02*
D03*
X2629Y2917D02*
D03*
X2598D02*
D03*
X2661Y2917D02*
D03*
X2692Y2917D02*
D03*
D32*
X1987Y1975D02*
D03*
X1913D02*
D03*
X1987Y1865D02*
D03*
X1913D02*
D03*
X1648Y1500D02*
D03*
X1722D02*
D03*
D33*
X2700Y3910D02*
D03*
Y3800D02*
D03*
X2465Y3585D02*
D03*
Y3475D02*
D03*
D34*
X1695Y2275D02*
D03*
X1805D02*
D03*
X4035Y3185D02*
D03*
X3925D02*
D03*
D48*
X1923Y2906D02*
X1964Y2947D01*
X1999Y2912D01*
X1958Y2871D01*
X1923Y2906D01*
X1938D02*
X1964Y2932D01*
X1984Y2912D01*
X1958Y2886D01*
X1938Y2906D01*
X1954D02*
X1964Y2916D01*
X1969Y2912D01*
X1958Y2901D01*
X1954Y2906D01*
X1960Y2909D02*
X1962D01*
X2001Y2828D02*
X2042Y2869D01*
X2077Y2834D01*
X2036Y2793D01*
X2001Y2828D01*
X2016D02*
X2042Y2854D01*
X2062Y2834D01*
X2036Y2808D01*
X2016Y2828D01*
X2031D02*
X2042Y2839D01*
X2046Y2834D01*
X2036Y2824D01*
X2031Y2828D01*
X2038Y2831D02*
X2040D01*
X3606Y3757D02*
X3647Y3716D01*
X3612Y3681D01*
X3571Y3722D01*
X3606Y3757D01*
Y3742D02*
X3632Y3716D01*
X3612Y3696D01*
X3586Y3722D01*
X3606Y3742D01*
Y3726D02*
X3616Y3716D01*
X3612Y3711D01*
X3601Y3722D01*
X3606Y3726D01*
X3609Y3720D02*
Y3718D01*
X3528Y3679D02*
X3569Y3638D01*
X3534Y3603D01*
X3493Y3644D01*
X3528Y3679D01*
Y3664D02*
X3554Y3638D01*
X3534Y3618D01*
X3508Y3644D01*
X3528Y3664D01*
Y3649D02*
X3539Y3638D01*
X3534Y3634D01*
X3524Y3644D01*
X3528Y3649D01*
X3531Y3642D02*
Y3640D01*
D53*
X1260Y2013D02*
D03*
Y1393D02*
D03*
X1330Y1973D02*
D03*
Y1353D02*
D03*
Y1893D02*
D03*
Y1273D02*
D03*
X1260Y1853D02*
D03*
X1260Y1233D02*
D03*
X3600Y4300D02*
D03*
X3500D02*
D03*
Y4400D02*
D03*
X3600D02*
D03*
X4835Y2300D02*
D03*
Y2900D02*
D03*
X1330Y1513D02*
D03*
X1260Y1473D02*
D03*
X1330Y1433D02*
D03*
X1260Y1313D02*
D03*
X1520Y1103D02*
D03*
Y1553D02*
D03*
Y1193D02*
D03*
Y1643D02*
D03*
X1330Y2133D02*
D03*
X1260Y2093D02*
D03*
X1330Y2053D02*
D03*
X1260Y1933D02*
D03*
X1520Y1723D02*
D03*
Y2173D02*
D03*
Y1813D02*
D03*
Y2263D02*
D03*
X4649Y2901D02*
D03*
Y2301D02*
D03*
X1252Y2854D02*
D03*
Y2754D02*
D03*
X1398Y2381D02*
D03*
Y2581D02*
D03*
Y2481D02*
D03*
X1248Y2381D02*
D03*
Y2581D02*
D03*
Y2481D02*
D03*
X1970Y1435D02*
D03*
X2420D02*
D03*
X2060D02*
D03*
X2510D02*
D03*
X2380Y1175D02*
D03*
X2340Y1245D02*
D03*
X2300Y1175D02*
D03*
X2260Y1245D02*
D03*
X2220Y1175D02*
D03*
X2180Y1245D02*
D03*
X2140Y1175D02*
D03*
X2100Y1245D02*
D03*
X3149Y1435D02*
D03*
X3239D02*
D03*
X3109Y1175D02*
D03*
X3069Y1245D02*
D03*
X3029Y1175D02*
D03*
X2989Y1245D02*
D03*
X2949Y1175D02*
D03*
X2909Y1245D02*
D03*
X2869Y1175D02*
D03*
X3427Y1435D02*
D03*
X3877D02*
D03*
X3517D02*
D03*
X3967D02*
D03*
X3837Y1175D02*
D03*
X3797Y1245D02*
D03*
X3757Y1175D02*
D03*
X3717Y1245D02*
D03*
X3677Y1175D02*
D03*
X3637Y1245D02*
D03*
X3597Y1175D02*
D03*
X3557Y1245D02*
D03*
X4155Y1435D02*
D03*
X4605D02*
D03*
X4245D02*
D03*
X4695D02*
D03*
X4565Y1175D02*
D03*
X4525Y1245D02*
D03*
X4485Y1175D02*
D03*
X4445Y1245D02*
D03*
X4405Y1175D02*
D03*
X4365Y1245D02*
D03*
X4325Y1175D02*
D03*
X4285Y1245D02*
D03*
X4884Y1435D02*
D03*
X5334D02*
D03*
X4974Y1435D02*
D03*
X5424Y1435D02*
D03*
X5294Y1175D02*
D03*
X5254Y1245D02*
D03*
X5214Y1175D02*
D03*
X5174Y1245D02*
D03*
X5134Y1175D02*
D03*
X5094Y1245D02*
D03*
X5054Y1175D02*
D03*
X5014Y1245D02*
D03*
X3795Y3445D02*
D03*
X3987D02*
D03*
X2100Y2150D02*
D03*
X2200D02*
D03*
Y2250D02*
D03*
X2100D02*
D03*
X2575Y3782D02*
D03*
Y3920D02*
D03*
X1435Y3960D02*
D03*
Y4098D02*
D03*
Y4055D02*
D03*
D54*
X4900Y4400D02*
D03*
Y4300D02*
D03*
X4800Y4400D02*
D03*
Y4300D02*
D03*
X4700Y4400D02*
D03*
Y4300D02*
D03*
X4600Y4400D02*
D03*
Y4300D02*
D03*
X4500Y4400D02*
D03*
Y4300D02*
D03*
X1349Y3217D02*
D03*
X1428D02*
D03*
X1270Y3453D02*
D03*
Y3375D02*
D03*
X3200Y3600D02*
D03*
X3300D02*
D03*
X3400D02*
D03*
X3800Y4400D02*
D03*
X3900Y4300D02*
D03*
Y4400D02*
D03*
X4000Y4300D02*
D03*
Y4400D02*
D03*
X4100Y4300D02*
D03*
Y4400D02*
D03*
X4200Y4300D02*
D03*
Y4400D02*
D03*
X4300Y4300D02*
D03*
Y4400D02*
D03*
X4400Y4300D02*
D03*
Y4400D02*
D03*
D55*
X1152Y4409D02*
D03*
D56*
X1742Y1181D02*
D03*
X5404Y4409D02*
D03*
Y2047D02*
D03*
D57*
X1514Y3365D02*
D03*
Y3463D02*
D03*
X1900Y3555D02*
D03*
X2000D02*
D03*
X2100D02*
D03*
X1900Y3855D02*
D03*
X2000D02*
D03*
X2100D02*
D03*
X2200Y3555D02*
D03*
D58*
X1388Y3217D02*
D03*
D59*
X1270Y3414D02*
D03*
D60*
X1514D02*
D03*
D61*
X2699Y1435D02*
D03*
D62*
X2789D02*
D03*
D63*
X2829Y1245D02*
D03*
D64*
X1185Y3085D02*
D03*
X1235D02*
D03*
X1285D02*
D03*
D65*
X3100Y3600D02*
D03*
X3800Y4300D02*
D03*
D66*
X2200Y3855D02*
D03*
D68*
X1713Y3130D02*
D03*
X1887D02*
D03*
D69*
X3810Y2980D02*
D03*
Y2870D02*
D03*
X3825Y2645D02*
D03*
D70*
Y2755D02*
D03*
M02*
