%FSLAX23Y23*%
%MOIN*%
G70*
G01*
G75*
%ADD10C,0.010*%
%ADD11R,0.039X0.033*%
%ADD12R,0.039X0.033*%
%ADD13R,0.037X0.035*%
%ADD14R,0.037X0.035*%
%ADD15R,0.059X0.051*%
%ADD16R,0.085X0.024*%
%ADD17R,0.106X0.071*%
%ADD18R,0.049X0.014*%
%ADD19R,0.035X0.037*%
%ADD20R,0.035X0.037*%
%ADD21R,0.047X0.087*%
%ADD22R,0.047X0.087*%
%ADD23R,0.134X0.087*%
%ADD24R,0.018X0.035*%
%ADD25R,0.053X0.014*%
%ADD26R,0.087X0.024*%
%ADD27R,0.087X0.024*%
%ADD28R,0.063X0.012*%
%ADD29R,0.012X0.063*%
%ADD30R,0.035X0.018*%
%ADD31R,0.106X0.071*%
%ADD32R,0.051X0.059*%
%ADD33R,0.106X0.063*%
%ADD34R,0.063X0.071*%
%ADD35R,0.100X0.100*%
%ADD36R,0.063X0.071*%
%ADD37R,0.077X0.124*%
%ADD38R,0.120X0.220*%
%ADD39R,0.150X0.114*%
%ADD40C,0.020*%
%ADD41C,0.040*%
%ADD42C,0.060*%
%ADD43C,0.030*%
%ADD44C,0.050*%
%ADD45C,0.023*%
%ADD46C,0.080*%
%ADD47C,0.011*%
%ADD48C,0.013*%
%ADD49C,0.016*%
%ADD50C,0.047*%
%ADD51C,0.025*%
%ADD52R,0.262X0.237*%
%ADD53C,0.060*%
%ADD54C,0.059*%
%ADD55C,0.240*%
%ADD56C,0.280*%
%ADD57C,0.059*%
%ADD58O,0.157X0.079*%
%ADD59O,0.079X0.157*%
%ADD60O,0.079X0.177*%
%ADD61O,0.050X0.060*%
%ADD62O,0.060X0.055*%
%ADD63O,0.060X0.050*%
%ADD64O,0.039X0.067*%
%ADD65R,0.059X0.059*%
%ADD66R,0.059X0.059*%
%ADD67C,0.050*%
%ADD68R,0.071X0.106*%
%ADD69R,0.071X0.063*%
%ADD70R,0.071X0.063*%
%ADD71C,0.039*%
%ADD72C,0.070*%
%ADD73C,0.010*%
%ADD74C,0.008*%
%ADD75C,0.008*%
%ADD76C,0.006*%
%ADD77C,0.012*%
%ADD78C,0.006*%
%ADD79R,0.047X0.041*%
%ADD80R,0.047X0.041*%
%ADD81R,0.045X0.043*%
%ADD82R,0.045X0.043*%
%ADD83R,0.067X0.059*%
%ADD84R,0.093X0.032*%
%ADD85R,0.114X0.079*%
%ADD86R,0.057X0.022*%
%ADD87R,0.043X0.045*%
%ADD88R,0.043X0.045*%
%ADD89R,0.055X0.095*%
%ADD90R,0.055X0.095*%
%ADD91R,0.142X0.095*%
%ADD92R,0.026X0.043*%
%ADD93R,0.061X0.022*%
%ADD94R,0.095X0.032*%
%ADD95R,0.095X0.032*%
%ADD96R,0.071X0.020*%
%ADD97R,0.020X0.071*%
%ADD98R,0.043X0.026*%
%ADD99R,0.114X0.079*%
%ADD100R,0.059X0.067*%
%ADD101R,0.114X0.071*%
%ADD102R,0.071X0.079*%
%ADD103R,0.108X0.108*%
%ADD104R,0.071X0.079*%
%ADD105R,0.085X0.132*%
%ADD106R,0.128X0.228*%
%ADD107R,0.158X0.122*%
%ADD108C,0.068*%
%ADD109C,0.067*%
%ADD110C,0.248*%
%ADD111C,0.288*%
%ADD112C,0.067*%
%ADD113O,0.165X0.087*%
%ADD114O,0.087X0.165*%
%ADD115O,0.087X0.185*%
%ADD116C,0.008*%
%ADD117O,0.058X0.068*%
%ADD118O,0.068X0.063*%
%ADD119O,0.068X0.058*%
%ADD120O,0.047X0.075*%
%ADD121R,0.067X0.067*%
%ADD122R,0.067X0.067*%
%ADD123C,0.058*%
%ADD124R,0.079X0.114*%
%ADD125R,0.079X0.071*%
%ADD126R,0.079X0.071*%
%ADD127C,0.039*%
%ADD128C,0.007*%
D78*
X1242Y2013D02*
X1278D01*
X1260Y1995D02*
Y2030D01*
X1242Y1393D02*
X1278D01*
X1260Y1375D02*
Y1410D01*
X1312Y1973D02*
X1347D01*
X1330Y1955D02*
Y1990D01*
X1312Y1353D02*
X1347D01*
X1330Y1335D02*
Y1370D01*
X1312Y1893D02*
X1347D01*
X1330Y1875D02*
Y1910D01*
X1312Y1273D02*
X1347D01*
X1330Y1255D02*
Y1290D01*
X1242Y1853D02*
X1278D01*
X1260Y1835D02*
Y1870D01*
X1242Y1233D02*
X1278D01*
X1260Y1215D02*
Y1250D01*
X3582Y4300D02*
X3618D01*
X3600Y4282D02*
Y4318D01*
X3482Y4300D02*
X3518D01*
X3500Y4282D02*
Y4318D01*
X3482Y4400D02*
X3518D01*
X3500Y4382D02*
Y4418D01*
X3582Y4400D02*
X3618D01*
X3600Y4382D02*
Y4418D01*
X4882Y4400D02*
X4918D01*
X4900Y4382D02*
Y4418D01*
X4882Y4300D02*
X4918D01*
X4900Y4282D02*
Y4318D01*
X4782Y4400D02*
X4818D01*
X4800Y4382D02*
Y4418D01*
X4782Y4300D02*
X4818D01*
X4800Y4282D02*
Y4318D01*
X4682Y4400D02*
X4718D01*
X4700Y4382D02*
Y4418D01*
X4682Y4300D02*
X4718D01*
X4700Y4282D02*
Y4318D01*
X4582Y4400D02*
X4618D01*
X4600Y4382D02*
Y4418D01*
X4582Y4300D02*
X4618D01*
X4600Y4282D02*
Y4318D01*
X4482Y4400D02*
X4518D01*
X4500Y4382D02*
Y4418D01*
X4482Y4300D02*
X4518D01*
X4500Y4282D02*
Y4318D01*
X4818Y2300D02*
X4852D01*
X4835Y2283D02*
Y2317D01*
X4818Y2900D02*
X4852D01*
X4835Y2883D02*
Y2917D01*
X1082Y4409D02*
X1222D01*
X1152Y4339D02*
Y4479D01*
X1672Y1181D02*
X1812D01*
X1742Y1111D02*
Y1251D01*
X5334Y4409D02*
X5474D01*
X5404Y4339D02*
Y4479D01*
X5334Y2047D02*
X5474D01*
X5404Y1977D02*
Y2117D01*
X1495Y3365D02*
X1534D01*
X1514Y3345D02*
Y3384D01*
X1329Y3217D02*
X1369D01*
X1349Y3197D02*
Y3237D01*
X1408Y3217D02*
X1447D01*
X1428Y3197D02*
Y3237D01*
X1251Y3453D02*
X1290D01*
X1270Y3434D02*
Y3473D01*
X1251Y3375D02*
X1290D01*
X1270Y3355D02*
Y3394D01*
X1495Y3463D02*
X1534D01*
X1514Y3444D02*
Y3483D01*
X1312Y1513D02*
X1347D01*
X1330Y1495D02*
Y1530D01*
X1242Y1473D02*
X1278D01*
X1260Y1455D02*
Y1490D01*
X1312Y1433D02*
X1347D01*
X1330Y1415D02*
Y1450D01*
X1242Y1313D02*
X1278D01*
X1260Y1295D02*
Y1330D01*
X1503Y1103D02*
X1538D01*
X1520Y1085D02*
Y1120D01*
X1503Y1553D02*
X1538D01*
X1520Y1535D02*
Y1570D01*
X1503Y1193D02*
X1538D01*
X1520Y1175D02*
Y1210D01*
X1503Y1643D02*
X1538D01*
X1520Y1625D02*
Y1660D01*
X1312Y2133D02*
X1347D01*
X1330Y2115D02*
Y2150D01*
X1242Y2093D02*
X1278D01*
X1260Y2075D02*
Y2110D01*
X1312Y2053D02*
X1347D01*
X1330Y2035D02*
Y2070D01*
X1242Y1933D02*
X1278D01*
X1260Y1915D02*
Y1950D01*
X1503Y1723D02*
X1538D01*
X1520Y1705D02*
Y1740D01*
X1503Y2173D02*
X1538D01*
X1520Y2155D02*
Y2190D01*
X1503Y1813D02*
X1538D01*
X1520Y1795D02*
Y1830D01*
X1503Y2263D02*
X1538D01*
X1520Y2245D02*
Y2280D01*
X4633Y2901D02*
X4666D01*
X4649Y2884D02*
Y2917D01*
X4633Y2301D02*
X4666D01*
X4649Y2284D02*
Y2317D01*
X1237Y2854D02*
X1267D01*
X1252Y2839D02*
Y2869D01*
X1237Y2754D02*
X1267D01*
X1252Y2739D02*
Y2769D01*
X1380Y2381D02*
X1415D01*
X1398Y2363D02*
Y2398D01*
X1380Y2581D02*
X1415D01*
X1398Y2563D02*
Y2598D01*
X1380Y2481D02*
X1415D01*
X1398Y2463D02*
Y2498D01*
X1231Y2381D02*
X1266D01*
X1248Y2363D02*
Y2398D01*
X1231Y2581D02*
X1266D01*
X1248Y2563D02*
Y2598D01*
X1231Y2481D02*
X1266D01*
X1248Y2463D02*
Y2498D01*
X1953Y1435D02*
X1988D01*
X1970Y1417D02*
Y1452D01*
X2403Y1435D02*
X2438D01*
X2420Y1417D02*
Y1452D01*
X2043Y1435D02*
X2078D01*
X2060Y1417D02*
Y1452D01*
X2493Y1435D02*
X2528D01*
X2510Y1417D02*
Y1452D01*
X2363Y1175D02*
X2398D01*
X2380Y1157D02*
Y1192D01*
X2323Y1245D02*
X2358D01*
X2340Y1227D02*
Y1262D01*
X2283Y1175D02*
X2318D01*
X2300Y1157D02*
Y1192D01*
X2243Y1245D02*
X2278D01*
X2260Y1227D02*
Y1262D01*
X2203Y1175D02*
X2238D01*
X2220Y1157D02*
Y1192D01*
X2163Y1245D02*
X2198D01*
X2180Y1227D02*
Y1262D01*
X2123Y1175D02*
X2158D01*
X2140Y1157D02*
Y1192D01*
X2083Y1245D02*
X2118D01*
X2100Y1227D02*
Y1262D01*
X1926Y1075D02*
X2054D01*
X1990Y1011D02*
Y1139D01*
X2426Y1075D02*
X2554D01*
X2490Y1011D02*
Y1139D01*
X2681Y1435D02*
X2716D01*
X2699Y1417D02*
Y1452D01*
X3131Y1435D02*
X3166D01*
X3149Y1417D02*
Y1452D01*
X2771Y1435D02*
X2806D01*
X2789Y1417D02*
Y1452D01*
X3221Y1435D02*
X3256D01*
X3239Y1417D02*
Y1452D01*
X3091Y1175D02*
X3126D01*
X3109Y1157D02*
Y1192D01*
X3051Y1245D02*
X3086D01*
X3069Y1227D02*
Y1262D01*
X3011Y1175D02*
X3046D01*
X3029Y1157D02*
Y1192D01*
X2971Y1245D02*
X3006D01*
X2989Y1227D02*
Y1262D01*
X2931Y1175D02*
X2966D01*
X2949Y1157D02*
Y1192D01*
X2891Y1245D02*
X2926D01*
X2909Y1227D02*
Y1262D01*
X2851Y1175D02*
X2886D01*
X2869Y1157D02*
Y1192D01*
X2811Y1245D02*
X2846D01*
X2829Y1227D02*
Y1262D01*
X2655Y1075D02*
X2783D01*
X2719Y1011D02*
Y1139D01*
X3155Y1075D02*
X3283D01*
X3219Y1011D02*
Y1139D01*
X3409Y1435D02*
X3444D01*
X3427Y1417D02*
Y1452D01*
X3859Y1435D02*
X3894D01*
X3877Y1417D02*
Y1452D01*
X3499Y1435D02*
X3534D01*
X3517Y1417D02*
Y1452D01*
X3949Y1435D02*
X3984D01*
X3967Y1417D02*
Y1452D01*
X3819Y1175D02*
X3854D01*
X3837Y1157D02*
Y1192D01*
X3779Y1245D02*
X3814D01*
X3797Y1227D02*
Y1262D01*
X3739Y1175D02*
X3774D01*
X3757Y1157D02*
Y1192D01*
X3699Y1245D02*
X3734D01*
X3717Y1227D02*
Y1262D01*
X3659Y1175D02*
X3694D01*
X3677Y1157D02*
Y1192D01*
X3619Y1245D02*
X3654D01*
X3637Y1227D02*
Y1262D01*
X3579Y1175D02*
X3614D01*
X3597Y1157D02*
Y1192D01*
X3539Y1245D02*
X3574D01*
X3557Y1227D02*
Y1262D01*
X3383Y1075D02*
X3511D01*
X3447Y1011D02*
Y1139D01*
X3883Y1075D02*
X4011D01*
X3947Y1011D02*
Y1139D01*
X4138Y1435D02*
X4173D01*
X4155Y1417D02*
Y1452D01*
X4588Y1435D02*
X4623D01*
X4605Y1417D02*
Y1452D01*
X4228Y1435D02*
X4263D01*
X4245Y1417D02*
Y1452D01*
X4678Y1435D02*
X4713D01*
X4695Y1417D02*
Y1452D01*
X4548Y1175D02*
X4583D01*
X4565Y1157D02*
Y1192D01*
X4508Y1245D02*
X4543D01*
X4525Y1227D02*
Y1262D01*
X4468Y1175D02*
X4503D01*
X4485Y1157D02*
Y1192D01*
X4428Y1245D02*
X4463D01*
X4445Y1227D02*
Y1262D01*
X4388Y1175D02*
X4423D01*
X4405Y1157D02*
Y1192D01*
X4348Y1245D02*
X4383D01*
X4365Y1227D02*
Y1262D01*
X4308Y1175D02*
X4343D01*
X4325Y1157D02*
Y1192D01*
X4268Y1245D02*
X4303D01*
X4285Y1227D02*
Y1262D01*
X4111Y1075D02*
X4239D01*
X4175Y1011D02*
Y1139D01*
X4611Y1075D02*
X4739D01*
X4675Y1011D02*
Y1139D01*
X4866Y1435D02*
X4901D01*
X4884Y1417D02*
Y1452D01*
X5316Y1435D02*
X5351D01*
X5334Y1417D02*
Y1452D01*
X4956Y1435D02*
X4991D01*
X4974Y1417D02*
Y1452D01*
X5406Y1435D02*
X5441D01*
X5424Y1417D02*
Y1452D01*
X5276Y1175D02*
X5311D01*
X5294Y1157D02*
Y1192D01*
X5236Y1245D02*
X5271D01*
X5254Y1227D02*
Y1262D01*
X5196Y1175D02*
X5231D01*
X5214Y1157D02*
Y1192D01*
X5156Y1245D02*
X5191D01*
X5174Y1227D02*
Y1262D01*
X5116Y1175D02*
X5151D01*
X5134Y1157D02*
Y1192D01*
X5076Y1245D02*
X5111D01*
X5094Y1227D02*
Y1262D01*
X5036Y1175D02*
X5071D01*
X5054Y1157D02*
Y1192D01*
X4996Y1245D02*
X5031D01*
X5014Y1227D02*
Y1262D01*
X3780Y3445D02*
X3810D01*
X3795Y3430D02*
Y3460D01*
X3972Y3445D02*
X4002D01*
X3987Y3430D02*
Y3460D01*
X1169Y3085D02*
X1201D01*
X1185Y3069D02*
Y3101D01*
X1219Y3085D02*
X1251D01*
X1235Y3069D02*
Y3101D01*
X1269Y3085D02*
X1301D01*
X1285Y3069D02*
Y3101D01*
X3082Y3600D02*
X3118D01*
X3100Y3582D02*
Y3618D01*
X3182Y3600D02*
X3218D01*
X3200Y3582D02*
Y3618D01*
X3282Y3600D02*
X3318D01*
X3300Y3582D02*
Y3618D01*
X3382Y3600D02*
X3418D01*
X3400Y3582D02*
Y3618D01*
X2082Y2150D02*
X2118D01*
X2100Y2132D02*
Y2168D01*
X2182Y2150D02*
X2217D01*
X2200Y2132D02*
Y2168D01*
X2182Y2250D02*
X2217D01*
X2200Y2233D02*
Y2267D01*
X2082Y2250D02*
X2118D01*
X2100Y2233D02*
Y2267D01*
X2560Y3782D02*
X2590D01*
X2575Y3767D02*
Y3797D01*
X2560Y3920D02*
X2590D01*
X2575Y3905D02*
Y3935D01*
X1882Y3555D02*
X1918D01*
X1900Y3537D02*
Y3573D01*
X1982Y3555D02*
X2018D01*
X2000Y3537D02*
Y3573D01*
X2082Y3555D02*
X2118D01*
X2100Y3537D02*
Y3573D01*
X1882Y3855D02*
X1918D01*
X1900Y3837D02*
Y3873D01*
X1982Y3855D02*
X2018D01*
X2000Y3837D02*
Y3873D01*
X2082Y3855D02*
X2118D01*
X2100Y3837D02*
Y3873D01*
X2182Y3855D02*
X2218D01*
X2200Y3837D02*
Y3873D01*
X2182Y3555D02*
X2218D01*
X2200Y3537D02*
Y3573D01*
X3782Y4300D02*
X3818D01*
X3800Y4282D02*
Y4318D01*
X3782Y4400D02*
X3818D01*
X3800Y4382D02*
Y4418D01*
X3882Y4300D02*
X3918D01*
X3900Y4282D02*
Y4318D01*
X3882Y4400D02*
X3918D01*
X3900Y4382D02*
Y4418D01*
X3982Y4300D02*
X4018D01*
X4000Y4282D02*
Y4318D01*
X3982Y4400D02*
X4018D01*
X4000Y4382D02*
Y4418D01*
X4082Y4300D02*
X4118D01*
X4100Y4282D02*
Y4318D01*
X4082Y4400D02*
X4118D01*
X4100Y4382D02*
Y4418D01*
X4182Y4300D02*
X4218D01*
X4200Y4282D02*
Y4318D01*
X4182Y4400D02*
X4218D01*
X4200Y4382D02*
Y4418D01*
X4282Y4300D02*
X4318D01*
X4300Y4282D02*
Y4318D01*
X4282Y4400D02*
X4318D01*
X4300Y4382D02*
Y4418D01*
X4382Y4300D02*
X4418D01*
X4400Y4282D02*
Y4318D01*
X4382Y4400D02*
X4418D01*
X4400Y4382D02*
Y4418D01*
X5340Y1075D02*
X5468D01*
X5404Y1011D02*
Y1139D01*
X4840Y1075D02*
X4968D01*
X4904Y1011D02*
Y1139D01*
X1096Y1623D02*
X1224D01*
X1160Y1559D02*
Y1687D01*
X1096Y1743D02*
X1224D01*
X1160Y1679D02*
Y1807D01*
X1096Y1123D02*
X1224D01*
X1160Y1059D02*
Y1187D01*
X1096Y2243D02*
X1224D01*
X1160Y2179D02*
Y2307D01*
X1420Y3960D02*
X1450D01*
X1435Y3945D02*
Y3975D01*
X1420Y4098D02*
X1450D01*
X1435Y4083D02*
Y4113D01*
X1420Y4055D02*
X1450D01*
X1435Y4040D02*
Y4070D01*
X1406Y1700D02*
X1434D01*
X1420Y1686D02*
Y1714D01*
X1406Y2000D02*
X1434D01*
X1420Y1986D02*
Y2014D01*
X4936Y2450D02*
X4964D01*
X4950Y2436D02*
Y2464D01*
X4521Y2960D02*
X4549D01*
X4535Y2946D02*
Y2974D01*
X1601Y2325D02*
X1629D01*
X1615Y2311D02*
Y2339D01*
X1661Y2900D02*
X1689D01*
X1675Y2886D02*
Y2914D01*
X5106Y2325D02*
X5134D01*
X5120Y2311D02*
Y2339D01*
X4986Y2325D02*
X5014D01*
X5000Y2311D02*
Y2339D01*
X5298Y2707D02*
X5326D01*
X5312Y2693D02*
Y2721D01*
X5106Y2250D02*
X5134D01*
X5120Y2236D02*
Y2264D01*
X5356Y1725D02*
X5384D01*
X5370Y1711D02*
Y1739D01*
X4161Y4195D02*
X4189D01*
X4175Y4181D02*
Y4209D01*
X4686Y3900D02*
X4714D01*
X4700Y3886D02*
Y3914D01*
X4701Y3985D02*
X4729D01*
X4715Y3971D02*
Y3999D01*
X4086Y4175D02*
X4114D01*
X4100Y4161D02*
Y4189D01*
X3736Y3690D02*
X3764D01*
X3750Y3676D02*
Y3704D01*
X4331Y3945D02*
X4359D01*
X4345Y3931D02*
Y3959D01*
X4286Y3995D02*
X4314D01*
X4300Y3981D02*
Y4009D01*
X4856Y4205D02*
X4884D01*
X4870Y4191D02*
Y4219D01*
X4761Y4150D02*
X4789D01*
X4775Y4136D02*
Y4164D01*
X1756Y2930D02*
X1784D01*
X1770Y2916D02*
Y2944D01*
X3786Y1825D02*
X3814D01*
X3800Y1811D02*
Y1839D01*
X4371Y1830D02*
X4399D01*
X4385Y1816D02*
Y1844D01*
X4321Y1770D02*
X4349D01*
X4335Y1756D02*
Y1784D01*
X3831Y1775D02*
X3859D01*
X3845Y1761D02*
Y1789D01*
X4001Y1830D02*
X4029D01*
X4015Y1816D02*
Y1844D01*
X4156Y1835D02*
X4184D01*
X4170Y1821D02*
Y1849D01*
X4171Y1905D02*
X4199D01*
X4185Y1891D02*
Y1919D01*
X4151Y1985D02*
X4179D01*
X4165Y1971D02*
Y1999D01*
X5006Y1770D02*
X5034D01*
X5020Y1756D02*
Y1784D01*
X4031Y3265D02*
X4059D01*
X4045Y3251D02*
Y3279D01*
X3126Y3530D02*
X3154D01*
X3140Y3516D02*
Y3544D01*
X3676Y3615D02*
X3704D01*
X3690Y3601D02*
Y3629D01*
X4056Y3340D02*
X4084D01*
X4070Y3326D02*
Y3354D01*
X3831Y3055D02*
X3859D01*
X3845Y3041D02*
Y3069D01*
X3511Y3520D02*
X3539D01*
X3525Y3506D02*
Y3534D01*
X3306Y3305D02*
X3334D01*
X3320Y3291D02*
Y3319D01*
X3691Y3045D02*
X3719D01*
X3705Y3031D02*
Y3059D01*
X3511Y3430D02*
X3539D01*
X3525Y3416D02*
Y3444D01*
X3411Y3520D02*
X3439D01*
X3425Y3506D02*
Y3534D01*
X3761Y3050D02*
X3789D01*
X3775Y3036D02*
Y3064D01*
X3461Y3475D02*
X3489D01*
X3475Y3461D02*
Y3489D01*
X3336Y3545D02*
X3364D01*
X3350Y3531D02*
Y3559D01*
X2466Y2780D02*
X2494D01*
X2480Y2766D02*
Y2794D01*
X3251Y3265D02*
X3279D01*
X3265Y3251D02*
Y3279D01*
X3111Y3265D02*
X3139D01*
X3125Y3251D02*
Y3279D01*
X4491Y3570D02*
X4519D01*
X4505Y3556D02*
Y3584D01*
X4421Y3585D02*
X4449D01*
X4435Y3571D02*
Y3599D01*
X4436Y3485D02*
X4464D01*
X4450Y3471D02*
Y3499D01*
X4406Y3420D02*
X4434D01*
X4420Y3406D02*
Y3434D01*
X3181Y3265D02*
X3209D01*
X3195Y3251D02*
Y3279D01*
X3591Y3045D02*
X3619D01*
X3605Y3031D02*
Y3059D01*
X3106Y2135D02*
X3134D01*
X3120Y2121D02*
Y2149D01*
X3171Y2100D02*
X3199D01*
X3185Y2086D02*
Y2114D01*
X3261Y2075D02*
X3289D01*
X3275Y2061D02*
Y2089D01*
X3336Y2065D02*
X3364D01*
X3350Y2051D02*
Y2079D01*
X3351Y3095D02*
X3379D01*
X3365Y3081D02*
Y3109D01*
X3411Y3115D02*
X3439D01*
X3425Y3101D02*
Y3129D01*
X2256Y2565D02*
X2284D01*
X2270Y2551D02*
Y2579D01*
X3496Y2485D02*
X3524D01*
X3510Y2471D02*
Y2499D01*
X3436Y2510D02*
X3464D01*
X3450Y2496D02*
Y2524D01*
X3371Y2480D02*
X3399D01*
X3385Y2466D02*
Y2494D01*
X3306Y2465D02*
X3334D01*
X3320Y2451D02*
Y2479D01*
X3241Y2485D02*
X3269D01*
X3255Y2471D02*
Y2499D01*
X3246Y2550D02*
X3274D01*
X3260Y2536D02*
Y2564D01*
X3621Y2730D02*
X3649D01*
X3635Y2716D02*
Y2744D01*
X3186Y2595D02*
X3214D01*
X3200Y2581D02*
Y2609D01*
X3561Y2760D02*
X3589D01*
X3575Y2746D02*
Y2774D01*
X3191Y2755D02*
X3219D01*
X3205Y2741D02*
Y2769D01*
X3241Y2640D02*
X3269D01*
X3255Y2626D02*
Y2654D01*
X3191Y2685D02*
X3219D01*
X3205Y2671D02*
Y2699D01*
X3261Y2755D02*
X3289D01*
X3275Y2741D02*
Y2769D01*
X3266Y2850D02*
X3294D01*
X3280Y2836D02*
Y2864D01*
X3211Y2815D02*
X3239D01*
X3225Y2801D02*
Y2829D01*
X3331Y2870D02*
X3359D01*
X3345Y2856D02*
Y2884D01*
X4426Y2130D02*
X4454D01*
X4440Y2116D02*
Y2144D01*
X4466Y2195D02*
X4494D01*
X4480Y2181D02*
Y2209D01*
X4366Y2165D02*
X4394D01*
X4380Y2151D02*
Y2179D01*
X4581Y1555D02*
X4609D01*
X4595Y1541D02*
Y1569D01*
X4431Y1555D02*
X4459D01*
X4445Y1541D02*
Y1569D01*
X4451Y1775D02*
X4479D01*
X4465Y1761D02*
Y1789D01*
X4726Y1555D02*
X4754D01*
X4740Y1541D02*
Y1569D01*
X4656Y1555D02*
X4684D01*
X4670Y1541D02*
Y1569D01*
X4816Y1555D02*
X4844D01*
X4830Y1541D02*
Y1569D01*
X4506Y1555D02*
X4534D01*
X4520Y1541D02*
Y1569D01*
X4521Y1775D02*
X4549D01*
X4535Y1761D02*
Y1789D01*
X4886Y1555D02*
X4914D01*
X4900Y1541D02*
Y1569D01*
X4971Y1555D02*
X4999D01*
X4985Y1541D02*
Y1569D01*
X4416Y2550D02*
X4444D01*
X4430Y2536D02*
Y2564D01*
X2266Y1755D02*
X2294D01*
X2280Y1741D02*
Y1769D01*
X2451Y2340D02*
X2479D01*
X2465Y2326D02*
Y2354D01*
X2176Y2380D02*
X2204D01*
X2190Y2366D02*
Y2394D01*
X2166Y2555D02*
X2194D01*
X2180Y2541D02*
Y2569D01*
X1726Y1875D02*
X1754D01*
X1740Y1861D02*
Y1889D01*
X1726Y1950D02*
X1754D01*
X1740Y1936D02*
Y1964D01*
X2141Y1885D02*
X2169D01*
X2155Y1871D02*
Y1899D01*
X2141Y1955D02*
X2169D01*
X2155Y1941D02*
Y1969D01*
X2018Y3128D02*
X2046D01*
X2032Y3114D02*
Y3142D01*
X1696Y2150D02*
X1724D01*
X1710Y2136D02*
Y2164D01*
X1631Y2150D02*
X1659D01*
X1645Y2136D02*
Y2164D01*
X1626Y1805D02*
X1654D01*
X1640Y1791D02*
Y1819D01*
X1696Y1805D02*
X1724D01*
X1710Y1791D02*
Y1819D01*
X1786Y2565D02*
X1814D01*
X1800Y2551D02*
Y2579D01*
X1831Y2785D02*
X1859D01*
X1845Y2771D02*
Y2799D01*
X1926Y2740D02*
X1954D01*
X1940Y2726D02*
Y2754D01*
X3591Y2951D02*
X3619D01*
X3605Y2937D02*
Y2965D01*
X3591Y2660D02*
X3619D01*
X3605Y2646D02*
Y2674D01*
X3947Y3080D02*
X3975D01*
X3961Y3066D02*
Y3094D01*
X3996Y2739D02*
X4024D01*
X4010Y2725D02*
Y2753D01*
X3904Y2875D02*
X3932D01*
X3918Y2861D02*
Y2889D01*
X3682Y2876D02*
X3710D01*
X3696Y2862D02*
Y2890D01*
X4871Y2135D02*
X4899D01*
X4885Y2121D02*
Y2149D01*
X4686Y2240D02*
X4714D01*
X4700Y2226D02*
Y2254D01*
X4806Y2155D02*
X4834D01*
X4820Y2141D02*
Y2169D01*
X4856Y2070D02*
X4884D01*
X4870Y2056D02*
Y2084D01*
X4526Y2135D02*
X4554D01*
X4540Y2121D02*
Y2149D01*
X4386Y1935D02*
X4414D01*
X4400Y1921D02*
Y1949D01*
X4091Y2105D02*
X4119D01*
X4105Y2091D02*
Y2119D01*
X4091Y2175D02*
X4119D01*
X4105Y2161D02*
Y2189D01*
X4301Y2195D02*
X4329D01*
X4315Y2181D02*
Y2209D01*
X3156Y2405D02*
X3184D01*
X3170Y2391D02*
Y2419D01*
X3761Y2265D02*
X3789D01*
X3775Y2251D02*
Y2279D01*
X3921Y2155D02*
X3949D01*
X3935Y2141D02*
Y2169D01*
X3891Y2225D02*
X3919D01*
X3905Y2211D02*
Y2239D01*
X3831Y2265D02*
X3859D01*
X3845Y2251D02*
Y2279D01*
X4786Y1940D02*
X4814D01*
X4800Y1926D02*
Y1954D01*
X4831Y1890D02*
X4859D01*
X4845Y1876D02*
Y1904D01*
X4736Y1820D02*
X4764D01*
X4750Y1806D02*
Y1834D01*
X4686Y1775D02*
X4714D01*
X4700Y1761D02*
Y1789D01*
X4831Y1775D02*
X4859D01*
X4845Y1761D02*
Y1789D01*
X4901Y1775D02*
X4929D01*
X4915Y1761D02*
Y1789D01*
X4351Y1555D02*
X4379D01*
X4365Y1541D02*
Y1569D01*
X4281Y1555D02*
X4309D01*
X4295Y1541D02*
Y1569D01*
X4206Y1555D02*
X4234D01*
X4220Y1541D02*
Y1569D01*
X4116Y1555D02*
X4144D01*
X4130Y1541D02*
Y1569D01*
X4041Y1555D02*
X4069D01*
X4055Y1541D02*
Y1569D01*
X3961Y1555D02*
X3989D01*
X3975Y1541D02*
Y1569D01*
X3881Y1555D02*
X3909D01*
X3895Y1541D02*
Y1569D01*
X3801Y1555D02*
X3829D01*
X3815Y1541D02*
Y1569D01*
X3726Y1555D02*
X3754D01*
X3740Y1541D02*
Y1569D01*
X3646Y1555D02*
X3674D01*
X3660Y1541D02*
Y1569D01*
X3576Y1555D02*
X3604D01*
X3590Y1541D02*
Y1569D01*
X3486Y1555D02*
X3514D01*
X3500Y1541D02*
Y1569D01*
X3416Y1555D02*
X3444D01*
X3430Y1541D02*
Y1569D01*
X3321Y1555D02*
X3349D01*
X3335Y1541D02*
Y1569D01*
X3251Y1555D02*
X3279D01*
X3265Y1541D02*
Y1569D01*
X3181Y1555D02*
X3209D01*
X3195Y1541D02*
Y1569D01*
X2791Y1555D02*
X2819D01*
X2805Y1541D02*
Y1569D01*
X2716Y1555D02*
X2744D01*
X2730Y1541D02*
Y1569D01*
X2606Y1555D02*
X2634D01*
X2620Y1541D02*
Y1569D01*
X2516Y1555D02*
X2544D01*
X2530Y1541D02*
Y1569D01*
X3106Y1555D02*
X3134D01*
X3120Y1541D02*
Y1569D01*
X3026Y1555D02*
X3054D01*
X3040Y1541D02*
Y1569D01*
X3156Y2980D02*
X3184D01*
X3170Y2966D02*
Y2994D01*
X3161Y3045D02*
X3189D01*
X3175Y3031D02*
Y3059D01*
X3291Y3075D02*
X3319D01*
X3305Y3061D02*
Y3089D01*
X3226Y3060D02*
X3254D01*
X3240Y3046D02*
Y3074D01*
X3761Y2120D02*
X3789D01*
X3775Y2106D02*
Y2134D01*
X3711Y2060D02*
X3739D01*
X3725Y2046D02*
Y2074D01*
X3576Y2075D02*
X3604D01*
X3590Y2061D02*
Y2089D01*
X3646Y2090D02*
X3674D01*
X3660Y2076D02*
Y2104D01*
X2791Y2175D02*
X2819D01*
X2805Y2161D02*
Y2189D01*
X2741Y2120D02*
X2769D01*
X2755Y2106D02*
Y2134D01*
X2691Y2175D02*
X2719D01*
X2705Y2161D02*
Y2189D01*
X2646Y2120D02*
X2674D01*
X2660Y2106D02*
Y2134D01*
X2866Y1555D02*
X2894D01*
X2880Y1541D02*
Y1569D01*
X2956Y1555D02*
X2984D01*
X2970Y1541D02*
Y1569D01*
X2086Y1570D02*
X2114D01*
X2100Y1556D02*
Y1584D01*
X2256Y1635D02*
X2284D01*
X2270Y1621D02*
Y1649D01*
X2131Y2940D02*
X2159D01*
X2145Y2926D02*
Y2954D01*
X2026Y2980D02*
X2054D01*
X2040Y2966D02*
Y2994D01*
X2356Y3060D02*
X2384D01*
X2370Y3046D02*
Y3074D01*
X2581Y3100D02*
X2609D01*
X2595Y3086D02*
Y3114D01*
X2356Y3240D02*
X2384D01*
X2370Y3226D02*
Y3254D01*
X2546Y3280D02*
X2574D01*
X2560Y3266D02*
Y3294D01*
X2016Y1570D02*
X2044D01*
X2030Y1556D02*
Y1584D01*
X2316Y1495D02*
X2344D01*
X2330Y1481D02*
Y1509D01*
X1946Y1570D02*
X1974D01*
X1960Y1556D02*
Y1584D01*
X2201Y1465D02*
X2229D01*
X2215Y1451D02*
Y1479D01*
X2356Y3155D02*
X2384D01*
X2370Y3141D02*
Y3169D01*
X2551Y3180D02*
X2579D01*
X2565Y3166D02*
Y3194D01*
X2356Y3320D02*
X2384D01*
X2370Y3306D02*
Y3334D01*
X2546Y3380D02*
X2574D01*
X2560Y3366D02*
Y3394D01*
X4386Y2385D02*
X4414D01*
X4400Y2371D02*
Y2399D01*
X5126Y1500D02*
X5154D01*
X5140Y1486D02*
Y1514D01*
X5181Y1620D02*
X5209D01*
X5195Y1606D02*
Y1634D01*
X5226Y1570D02*
X5254D01*
X5240Y1556D02*
Y1584D01*
X5271Y1620D02*
X5299D01*
X5285Y1606D02*
Y1634D01*
X5281Y3625D02*
X5309D01*
X5295Y3611D02*
Y3639D01*
X5351Y3625D02*
X5379D01*
X5365Y3611D02*
Y3639D01*
X5006Y3705D02*
X5034D01*
X5020Y3691D02*
Y3719D01*
X4941Y3705D02*
X4969D01*
X4955Y3691D02*
Y3719D01*
X4801Y2700D02*
X4829D01*
X4815Y2686D02*
Y2714D01*
X4761Y2765D02*
X4789D01*
X4775Y2751D02*
Y2779D01*
X3996Y2865D02*
X4024D01*
X4010Y2851D02*
Y2879D01*
X4011Y2940D02*
X4039D01*
X4025Y2926D02*
Y2954D01*
X5226Y1670D02*
X5254D01*
X5240Y1656D02*
Y1684D01*
X4441Y2880D02*
X4469D01*
X4455Y2866D02*
Y2894D01*
X4496Y2835D02*
X4524D01*
X4510Y2821D02*
Y2849D01*
X4636Y2785D02*
X4664D01*
X4650Y2771D02*
Y2799D01*
X4586Y2740D02*
X4614D01*
X4600Y2726D02*
Y2754D01*
X3681Y3545D02*
X3709D01*
X3695Y3531D02*
Y3559D01*
X2886Y3535D02*
X2914D01*
X2900Y3521D02*
Y3549D01*
X2991Y3955D02*
X3019D01*
X3005Y3941D02*
Y3969D01*
X3991Y3315D02*
X4019D01*
X4005Y3301D02*
Y3329D01*
X3881Y3470D02*
X3909D01*
X3895Y3456D02*
Y3484D01*
X3801Y3690D02*
X3829D01*
X3815Y3676D02*
Y3704D01*
X3866Y3690D02*
X3894D01*
X3880Y3676D02*
Y3704D01*
X3936Y3690D02*
X3964D01*
X3950Y3676D02*
Y3704D01*
X4236Y3525D02*
X4264D01*
X4250Y3511D02*
Y3539D01*
X4171Y3150D02*
X4199D01*
X4185Y3136D02*
Y3164D01*
X4221Y3195D02*
X4249D01*
X4235Y3181D02*
Y3209D01*
X4296Y3195D02*
X4324D01*
X4310Y3181D02*
Y3209D01*
X4226Y3080D02*
X4254D01*
X4240Y3066D02*
Y3094D01*
X4126Y3840D02*
X4154D01*
X4140Y3826D02*
Y3854D01*
X4336Y3140D02*
X4364D01*
X4350Y3126D02*
Y3154D01*
X3061Y3985D02*
X3089D01*
X3075Y3971D02*
Y3999D01*
X4186Y3960D02*
X4214D01*
X4200Y3946D02*
Y3974D01*
X3536Y1980D02*
X3564D01*
X3550Y1966D02*
Y1994D01*
X3536Y1910D02*
X3564D01*
X3550Y1896D02*
Y1924D01*
X3561Y1815D02*
X3589D01*
X3575Y1801D02*
Y1829D01*
X3386Y1835D02*
X3414D01*
X3400Y1821D02*
Y1849D01*
X3161Y1820D02*
X3189D01*
X3175Y1806D02*
Y1834D01*
X3211Y1775D02*
X3239D01*
X3225Y1761D02*
Y1789D01*
X3666Y1775D02*
X3694D01*
X3680Y1761D02*
Y1789D01*
X3716Y1820D02*
X3744D01*
X3730Y1806D02*
Y1834D01*
X2956Y1980D02*
X2984D01*
X2970Y1966D02*
Y1994D01*
X2956Y1905D02*
X2984D01*
X2970Y1891D02*
Y1919D01*
X2556Y1775D02*
X2584D01*
X2570Y1761D02*
Y1789D01*
X2621Y1775D02*
X2649D01*
X2635Y1761D02*
Y1789D01*
X3091Y1785D02*
X3119D01*
X3105Y1771D02*
Y1799D01*
X2946Y1790D02*
X2974D01*
X2960Y1776D02*
Y1804D01*
X2021Y2565D02*
X2049D01*
X2035Y2551D02*
Y2579D01*
X1606Y3855D02*
X1634D01*
X1620Y3841D02*
Y3869D01*
X2906Y3995D02*
X2934D01*
X2920Y3981D02*
Y4009D01*
X2906Y3900D02*
X2934D01*
X2920Y3886D02*
Y3914D01*
X2691Y4000D02*
X2719D01*
X2705Y3986D02*
Y4014D01*
X2986Y4125D02*
X3014D01*
X3000Y4111D02*
Y4139D01*
X4561Y3810D02*
X4589D01*
X4575Y3796D02*
Y3824D01*
X4721Y2965D02*
X4749D01*
X4735Y2951D02*
Y2979D01*
X5061Y3350D02*
X5089D01*
X5075Y3336D02*
Y3364D01*
X4986Y3145D02*
X5014D01*
X5000Y3131D02*
Y3159D01*
M02*
